%TF.GenerationSoftware,KiCad,Pcbnew,7.0.2*%
%TF.CreationDate,2023-05-30T15:48:39+02:00*%
%TF.ProjectId,oip_opa818,6f69705f-6f70-4613-9831-382e6b696361,rev?*%
%TF.SameCoordinates,Original*%
%TF.FileFunction,Legend,Bot*%
%TF.FilePolarity,Positive*%
%FSLAX46Y46*%
G04 Gerber Fmt 4.6, Leading zero omitted, Abs format (unit mm)*
G04 Created by KiCad (PCBNEW 7.0.2) date 2023-05-30 15:48:39*
%MOMM*%
%LPD*%
G01*
G04 APERTURE LIST*
G04 Aperture macros list*
%AMRoundRect*
0 Rectangle with rounded corners*
0 $1 Rounding radius*
0 $2 $3 $4 $5 $6 $7 $8 $9 X,Y pos of 4 corners*
0 Add a 4 corners polygon primitive as box body*
4,1,4,$2,$3,$4,$5,$6,$7,$8,$9,$2,$3,0*
0 Add four circle primitives for the rounded corners*
1,1,$1+$1,$2,$3*
1,1,$1+$1,$4,$5*
1,1,$1+$1,$6,$7*
1,1,$1+$1,$8,$9*
0 Add four rect primitives between the rounded corners*
20,1,$1+$1,$2,$3,$4,$5,0*
20,1,$1+$1,$4,$5,$6,$7,0*
20,1,$1+$1,$6,$7,$8,$9,0*
20,1,$1+$1,$8,$9,$2,$3,0*%
G04 Aperture macros list end*
%ADD10C,0.100000*%
%ADD11C,0.150000*%
%ADD12C,0.120000*%
%ADD13RoundRect,0.100000X-0.100000X0.130000X-0.100000X-0.130000X0.100000X-0.130000X0.100000X0.130000X0*%
%ADD14O,1.000000X1.000000*%
%ADD15C,1.240000*%
%ADD16C,1.000000*%
%ADD17R,1.700000X1.700000*%
%ADD18O,1.700000X1.700000*%
G04 APERTURE END LIST*
D10*
X152654761Y-91290833D02*
X152273809Y-91290833D01*
X152107141Y-90981309D02*
X151940475Y-91481309D01*
X151940475Y-91481309D02*
X151773808Y-90981309D01*
X144904761Y-108140833D02*
X144523809Y-108140833D01*
X144714285Y-108331309D02*
X144714285Y-107950357D01*
X144357141Y-107831309D02*
X144190475Y-108331309D01*
X144190475Y-108331309D02*
X144023808Y-107831309D01*
D11*
X133423019Y-92327505D02*
X132423019Y-92327505D01*
X132423019Y-92327505D02*
X132423019Y-92565600D01*
X132423019Y-92565600D02*
X132470638Y-92708457D01*
X132470638Y-92708457D02*
X132565876Y-92803695D01*
X132565876Y-92803695D02*
X132661114Y-92851314D01*
X132661114Y-92851314D02*
X132851590Y-92898933D01*
X132851590Y-92898933D02*
X132994447Y-92898933D01*
X132994447Y-92898933D02*
X133184923Y-92851314D01*
X133184923Y-92851314D02*
X133280161Y-92803695D01*
X133280161Y-92803695D02*
X133375400Y-92708457D01*
X133375400Y-92708457D02*
X133423019Y-92565600D01*
X133423019Y-92565600D02*
X133423019Y-92327505D01*
X132518257Y-93279886D02*
X132470638Y-93327505D01*
X132470638Y-93327505D02*
X132423019Y-93422743D01*
X132423019Y-93422743D02*
X132423019Y-93660838D01*
X132423019Y-93660838D02*
X132470638Y-93756076D01*
X132470638Y-93756076D02*
X132518257Y-93803695D01*
X132518257Y-93803695D02*
X132613495Y-93851314D01*
X132613495Y-93851314D02*
X132708733Y-93851314D01*
X132708733Y-93851314D02*
X132851590Y-93803695D01*
X132851590Y-93803695D02*
X133423019Y-93232267D01*
X133423019Y-93232267D02*
X133423019Y-93851314D01*
D10*
X134060400Y-92205600D02*
G75*
G03*
X134060400Y-92205600I-50000J0D01*
G01*
D12*
X154450000Y-91250000D02*
G75*
G03*
X154450000Y-91250000I-700000J0D01*
G01*
X146250000Y-108800000D02*
G75*
G03*
X146250000Y-108800000I-700000J0D01*
G01*
X167580000Y-96130000D02*
X170240000Y-96130000D01*
X167580000Y-101270000D02*
X167580000Y-96130000D01*
X167580000Y-101270000D02*
X170240000Y-101270000D01*
X167580000Y-102540000D02*
X167580000Y-103870000D01*
X167580000Y-103870000D02*
X168910000Y-103870000D01*
X170240000Y-101270000D02*
X170240000Y-96130000D01*
%LPC*%
D13*
X134010400Y-92745600D03*
X134010400Y-93385600D03*
D14*
X148750000Y-100000000D03*
X150020000Y-101270000D03*
X151290000Y-100000000D03*
D15*
X135280400Y-107950000D03*
X134010400Y-106680000D03*
X134010400Y-109220000D03*
X136550400Y-106680000D03*
X136550400Y-109220000D03*
X150000000Y-92400000D03*
X151270000Y-91130000D03*
X151270000Y-93670000D03*
X148730000Y-91130000D03*
X148730000Y-93670000D03*
D16*
X153750000Y-91250000D03*
X145550000Y-108800000D03*
D17*
X168910000Y-102540000D03*
D18*
X168910000Y-100000000D03*
X168910000Y-97460000D03*
%LPD*%
M02*
