%TF.GenerationSoftware,KiCad,Pcbnew,7.0.2*%
%TF.CreationDate,2023-05-30T15:49:42+02:00*%
%TF.ProjectId,oip_opa818,6f69705f-6f70-4613-9831-382e6b696361,rev?*%
%TF.SameCoordinates,Original*%
%TF.FileFunction,Drillmap*%
%TF.FilePolarity,Positive*%
%FSLAX45Y45*%
G04 Gerber Fmt 4.5, Leading zero omitted, Abs format (unit mm)*
G04 Created by KiCad (PCBNEW 7.0.2) date 2023-05-30 15:49:42*
%MOMM*%
%LPD*%
G01*
G04 APERTURE LIST*
%ADD10C,0.050000*%
%ADD11C,0.200000*%
G04 APERTURE END LIST*
D10*
X17500000Y-10000000D02*
G75*
G03*
X17500000Y-10000000I-2500000J0D01*
G01*
D11*
X12745119Y-12815024D02*
X12745119Y-12615024D01*
X12745119Y-12615024D02*
X12792738Y-12615024D01*
X12792738Y-12615024D02*
X12821309Y-12624548D01*
X12821309Y-12624548D02*
X12840357Y-12643595D01*
X12840357Y-12643595D02*
X12849881Y-12662643D01*
X12849881Y-12662643D02*
X12859405Y-12700738D01*
X12859405Y-12700738D02*
X12859405Y-12729309D01*
X12859405Y-12729309D02*
X12849881Y-12767405D01*
X12849881Y-12767405D02*
X12840357Y-12786452D01*
X12840357Y-12786452D02*
X12821309Y-12805500D01*
X12821309Y-12805500D02*
X12792738Y-12815024D01*
X12792738Y-12815024D02*
X12745119Y-12815024D01*
X12945119Y-12815024D02*
X12945119Y-12681690D01*
X12945119Y-12719786D02*
X12954643Y-12700738D01*
X12954643Y-12700738D02*
X12964167Y-12691214D01*
X12964167Y-12691214D02*
X12983214Y-12681690D01*
X12983214Y-12681690D02*
X13002262Y-12681690D01*
X13068928Y-12815024D02*
X13068928Y-12681690D01*
X13068928Y-12615024D02*
X13059405Y-12624548D01*
X13059405Y-12624548D02*
X13068928Y-12634071D01*
X13068928Y-12634071D02*
X13078452Y-12624548D01*
X13078452Y-12624548D02*
X13068928Y-12615024D01*
X13068928Y-12615024D02*
X13068928Y-12634071D01*
X13192738Y-12815024D02*
X13173690Y-12805500D01*
X13173690Y-12805500D02*
X13164167Y-12786452D01*
X13164167Y-12786452D02*
X13164167Y-12615024D01*
X13297500Y-12815024D02*
X13278452Y-12805500D01*
X13278452Y-12805500D02*
X13268928Y-12786452D01*
X13268928Y-12786452D02*
X13268928Y-12615024D01*
X13526071Y-12815024D02*
X13526071Y-12615024D01*
X13526071Y-12615024D02*
X13592738Y-12757881D01*
X13592738Y-12757881D02*
X13659405Y-12615024D01*
X13659405Y-12615024D02*
X13659405Y-12815024D01*
X13840357Y-12815024D02*
X13840357Y-12710262D01*
X13840357Y-12710262D02*
X13830833Y-12691214D01*
X13830833Y-12691214D02*
X13811786Y-12681690D01*
X13811786Y-12681690D02*
X13773690Y-12681690D01*
X13773690Y-12681690D02*
X13754643Y-12691214D01*
X13840357Y-12805500D02*
X13821309Y-12815024D01*
X13821309Y-12815024D02*
X13773690Y-12815024D01*
X13773690Y-12815024D02*
X13754643Y-12805500D01*
X13754643Y-12805500D02*
X13745119Y-12786452D01*
X13745119Y-12786452D02*
X13745119Y-12767405D01*
X13745119Y-12767405D02*
X13754643Y-12748357D01*
X13754643Y-12748357D02*
X13773690Y-12738833D01*
X13773690Y-12738833D02*
X13821309Y-12738833D01*
X13821309Y-12738833D02*
X13840357Y-12729309D01*
X13935595Y-12681690D02*
X13935595Y-12881690D01*
X13935595Y-12691214D02*
X13954643Y-12681690D01*
X13954643Y-12681690D02*
X13992738Y-12681690D01*
X13992738Y-12681690D02*
X14011786Y-12691214D01*
X14011786Y-12691214D02*
X14021309Y-12700738D01*
X14021309Y-12700738D02*
X14030833Y-12719786D01*
X14030833Y-12719786D02*
X14030833Y-12776928D01*
X14030833Y-12776928D02*
X14021309Y-12795976D01*
X14021309Y-12795976D02*
X14011786Y-12805500D01*
X14011786Y-12805500D02*
X13992738Y-12815024D01*
X13992738Y-12815024D02*
X13954643Y-12815024D01*
X13954643Y-12815024D02*
X13935595Y-12805500D01*
X14116548Y-12795976D02*
X14126071Y-12805500D01*
X14126071Y-12805500D02*
X14116548Y-12815024D01*
X14116548Y-12815024D02*
X14107024Y-12805500D01*
X14107024Y-12805500D02*
X14116548Y-12795976D01*
X14116548Y-12795976D02*
X14116548Y-12815024D01*
X14116548Y-12691214D02*
X14126071Y-12700738D01*
X14126071Y-12700738D02*
X14116548Y-12710262D01*
X14116548Y-12710262D02*
X14107024Y-12700738D01*
X14107024Y-12700738D02*
X14116548Y-12691214D01*
X14116548Y-12691214D02*
X14116548Y-12710262D01*
M02*
