%TF.GenerationSoftware,KiCad,Pcbnew,7.0.2*%
%TF.CreationDate,2023-05-30T15:48:39+02:00*%
%TF.ProjectId,oip_opa818,6f69705f-6f70-4613-9831-382e6b696361,rev?*%
%TF.SameCoordinates,Original*%
%TF.FileFunction,Soldermask,Top*%
%TF.FilePolarity,Negative*%
%FSLAX46Y46*%
G04 Gerber Fmt 4.6, Leading zero omitted, Abs format (unit mm)*
G04 Created by KiCad (PCBNEW 7.0.2) date 2023-05-30 15:48:39*
%MOMM*%
%LPD*%
G01*
G04 APERTURE LIST*
G04 Aperture macros list*
%AMRoundRect*
0 Rectangle with rounded corners*
0 $1 Rounding radius*
0 $2 $3 $4 $5 $6 $7 $8 $9 X,Y pos of 4 corners*
0 Add a 4 corners polygon primitive as box body*
4,1,4,$2,$3,$4,$5,$6,$7,$8,$9,$2,$3,0*
0 Add four circle primitives for the rounded corners*
1,1,$1+$1,$2,$3*
1,1,$1+$1,$4,$5*
1,1,$1+$1,$6,$7*
1,1,$1+$1,$8,$9*
0 Add four rect primitives between the rounded corners*
20,1,$1+$1,$2,$3,$4,$5,0*
20,1,$1+$1,$4,$5,$6,$7,0*
20,1,$1+$1,$6,$7,$8,$9,0*
20,1,$1+$1,$8,$9,$2,$3,0*%
G04 Aperture macros list end*
%ADD10C,0.125000*%
%ADD11C,2.500000*%
%ADD12RoundRect,0.135000X-0.185000X0.135000X-0.185000X-0.135000X0.185000X-0.135000X0.185000X0.135000X0*%
%ADD13RoundRect,0.100000X-0.100000X0.130000X-0.100000X-0.130000X0.100000X-0.130000X0.100000X0.130000X0*%
%ADD14RoundRect,0.100000X0.100000X-0.712500X0.100000X0.712500X-0.100000X0.712500X-0.100000X-0.712500X0*%
%ADD15RoundRect,0.135000X-0.035355X0.226274X-0.226274X0.035355X0.035355X-0.226274X0.226274X-0.035355X0*%
%ADD16RoundRect,0.135000X0.185000X-0.135000X0.185000X0.135000X-0.185000X0.135000X-0.185000X-0.135000X0*%
%ADD17RoundRect,0.140000X-0.170000X0.140000X-0.170000X-0.140000X0.170000X-0.140000X0.170000X0.140000X0*%
%ADD18O,1.000000X1.000000*%
%ADD19RoundRect,0.075000X0.650000X0.075000X-0.650000X0.075000X-0.650000X-0.075000X0.650000X-0.075000X0*%
%ADD20RoundRect,0.250000X0.590000X0.690000X-0.590000X0.690000X-0.590000X-0.690000X0.590000X-0.690000X0*%
%ADD21RoundRect,0.100000X-0.371231X-0.512652X0.512652X0.371231X0.371231X0.512652X-0.512652X-0.371231X0*%
%ADD22RoundRect,0.249999X0.424264X-1.237438X1.237438X-0.424264X-0.424264X1.237438X-1.237438X0.424264X0*%
%ADD23RoundRect,0.218750X0.218750X0.256250X-0.218750X0.256250X-0.218750X-0.256250X0.218750X-0.256250X0*%
%ADD24RoundRect,0.218750X0.256250X-0.218750X0.256250X0.218750X-0.256250X0.218750X-0.256250X-0.218750X0*%
%ADD25RoundRect,0.218750X-0.218750X-0.256250X0.218750X-0.256250X0.218750X0.256250X-0.218750X0.256250X0*%
%ADD26RoundRect,0.218750X0.165979X-0.293200X0.315613X0.117915X-0.165979X0.293200X-0.315613X-0.117915X0*%
%ADD27RoundRect,0.218750X0.026517X-0.335876X0.335876X-0.026517X-0.026517X0.335876X-0.335876X0.026517X0*%
%ADD28R,0.500000X0.500000*%
%ADD29RoundRect,0.243750X0.243750X0.456250X-0.243750X0.456250X-0.243750X-0.456250X0.243750X-0.456250X0*%
%ADD30RoundRect,0.218750X-0.026517X0.335876X-0.335876X0.026517X0.026517X-0.335876X0.335876X-0.026517X0*%
%ADD31RoundRect,0.147500X-0.147500X-0.172500X0.147500X-0.172500X0.147500X0.172500X-0.147500X0.172500X0*%
%ADD32R,0.600000X0.250000*%
%ADD33R,1.450000X2.400000*%
%ADD34RoundRect,0.218750X-0.256250X0.218750X-0.256250X-0.218750X0.256250X-0.218750X0.256250X0.218750X0*%
%ADD35RoundRect,0.225000X0.250000X-0.225000X0.250000X0.225000X-0.250000X0.225000X-0.250000X-0.225000X0*%
%ADD36R,0.650000X1.060000*%
%ADD37RoundRect,0.225000X-0.225000X-0.250000X0.225000X-0.250000X0.225000X0.250000X-0.225000X0.250000X0*%
%ADD38RoundRect,0.135000X0.135000X0.185000X-0.135000X0.185000X-0.135000X-0.185000X0.135000X-0.185000X0*%
%ADD39RoundRect,0.135000X-0.135000X-0.185000X0.135000X-0.185000X0.135000X0.185000X-0.135000X0.185000X0*%
%ADD40RoundRect,0.040000X0.660000X0.360000X-0.660000X0.360000X-0.660000X-0.360000X0.660000X-0.360000X0*%
%ADD41RoundRect,0.030000X0.270000X0.520000X-0.270000X0.520000X-0.270000X-0.520000X0.270000X-0.520000X0*%
%ADD42RoundRect,0.140000X0.140000X0.170000X-0.140000X0.170000X-0.140000X-0.170000X0.140000X-0.170000X0*%
%ADD43RoundRect,0.040000X-0.660000X-0.360000X0.660000X-0.360000X0.660000X0.360000X-0.660000X0.360000X0*%
%ADD44RoundRect,0.030000X-0.270000X-0.520000X0.270000X-0.520000X0.270000X0.520000X-0.270000X0.520000X0*%
%ADD45C,1.240000*%
%ADD46C,1.000000*%
%ADD47R,1.700000X1.700000*%
%ADD48O,1.700000X1.700000*%
G04 APERTURE END LIST*
D10*
X138033066Y-115763266D02*
X138033066Y-116329933D01*
X138033066Y-116329933D02*
X137999733Y-116396600D01*
X137999733Y-116396600D02*
X137966400Y-116429933D01*
X137966400Y-116429933D02*
X137899733Y-116463266D01*
X137899733Y-116463266D02*
X137799733Y-116463266D01*
X137799733Y-116463266D02*
X137733066Y-116429933D01*
X138033066Y-116196600D02*
X137966400Y-116229933D01*
X137966400Y-116229933D02*
X137833066Y-116229933D01*
X137833066Y-116229933D02*
X137766400Y-116196600D01*
X137766400Y-116196600D02*
X137733066Y-116163266D01*
X137733066Y-116163266D02*
X137699733Y-116096600D01*
X137699733Y-116096600D02*
X137699733Y-115896600D01*
X137699733Y-115896600D02*
X137733066Y-115829933D01*
X137733066Y-115829933D02*
X137766400Y-115796600D01*
X137766400Y-115796600D02*
X137833066Y-115763266D01*
X137833066Y-115763266D02*
X137966400Y-115763266D01*
X137966400Y-115763266D02*
X138033066Y-115796600D01*
X138366399Y-116229933D02*
X138366399Y-115763266D01*
X138366399Y-115529933D02*
X138333066Y-115563266D01*
X138333066Y-115563266D02*
X138366399Y-115596600D01*
X138366399Y-115596600D02*
X138399733Y-115563266D01*
X138399733Y-115563266D02*
X138366399Y-115529933D01*
X138366399Y-115529933D02*
X138366399Y-115596600D01*
X138599732Y-115763266D02*
X138866399Y-115763266D01*
X138699732Y-115529933D02*
X138699732Y-116129933D01*
X138699732Y-116129933D02*
X138733066Y-116196600D01*
X138733066Y-116196600D02*
X138799732Y-116229933D01*
X138799732Y-116229933D02*
X138866399Y-116229933D01*
X139099732Y-116229933D02*
X139099732Y-115529933D01*
X139399732Y-116229933D02*
X139399732Y-115863266D01*
X139399732Y-115863266D02*
X139366399Y-115796600D01*
X139366399Y-115796600D02*
X139299732Y-115763266D01*
X139299732Y-115763266D02*
X139199732Y-115763266D01*
X139199732Y-115763266D02*
X139133066Y-115796600D01*
X139133066Y-115796600D02*
X139099732Y-115829933D01*
X140033065Y-115763266D02*
X140033065Y-116229933D01*
X139733065Y-115763266D02*
X139733065Y-116129933D01*
X139733065Y-116129933D02*
X139766399Y-116196600D01*
X139766399Y-116196600D02*
X139833065Y-116229933D01*
X139833065Y-116229933D02*
X139933065Y-116229933D01*
X139933065Y-116229933D02*
X139999732Y-116196600D01*
X139999732Y-116196600D02*
X140033065Y-116163266D01*
X140366398Y-116229933D02*
X140366398Y-115529933D01*
X140366398Y-115796600D02*
X140433065Y-115763266D01*
X140433065Y-115763266D02*
X140566398Y-115763266D01*
X140566398Y-115763266D02*
X140633065Y-115796600D01*
X140633065Y-115796600D02*
X140666398Y-115829933D01*
X140666398Y-115829933D02*
X140699732Y-115896600D01*
X140699732Y-115896600D02*
X140699732Y-116096600D01*
X140699732Y-116096600D02*
X140666398Y-116163266D01*
X140666398Y-116163266D02*
X140633065Y-116196600D01*
X140633065Y-116196600D02*
X140566398Y-116229933D01*
X140566398Y-116229933D02*
X140433065Y-116229933D01*
X140433065Y-116229933D02*
X140366398Y-116196600D01*
X140999731Y-116163266D02*
X141033065Y-116196600D01*
X141033065Y-116196600D02*
X140999731Y-116229933D01*
X140999731Y-116229933D02*
X140966398Y-116196600D01*
X140966398Y-116196600D02*
X140999731Y-116163266D01*
X140999731Y-116163266D02*
X140999731Y-116229933D01*
X141633064Y-116196600D02*
X141566398Y-116229933D01*
X141566398Y-116229933D02*
X141433064Y-116229933D01*
X141433064Y-116229933D02*
X141366398Y-116196600D01*
X141366398Y-116196600D02*
X141333064Y-116163266D01*
X141333064Y-116163266D02*
X141299731Y-116096600D01*
X141299731Y-116096600D02*
X141299731Y-115896600D01*
X141299731Y-115896600D02*
X141333064Y-115829933D01*
X141333064Y-115829933D02*
X141366398Y-115796600D01*
X141366398Y-115796600D02*
X141433064Y-115763266D01*
X141433064Y-115763266D02*
X141566398Y-115763266D01*
X141566398Y-115763266D02*
X141633064Y-115796600D01*
X142033064Y-116229933D02*
X141966398Y-116196600D01*
X141966398Y-116196600D02*
X141933064Y-116163266D01*
X141933064Y-116163266D02*
X141899731Y-116096600D01*
X141899731Y-116096600D02*
X141899731Y-115896600D01*
X141899731Y-115896600D02*
X141933064Y-115829933D01*
X141933064Y-115829933D02*
X141966398Y-115796600D01*
X141966398Y-115796600D02*
X142033064Y-115763266D01*
X142033064Y-115763266D02*
X142133064Y-115763266D01*
X142133064Y-115763266D02*
X142199731Y-115796600D01*
X142199731Y-115796600D02*
X142233064Y-115829933D01*
X142233064Y-115829933D02*
X142266398Y-115896600D01*
X142266398Y-115896600D02*
X142266398Y-116096600D01*
X142266398Y-116096600D02*
X142233064Y-116163266D01*
X142233064Y-116163266D02*
X142199731Y-116196600D01*
X142199731Y-116196600D02*
X142133064Y-116229933D01*
X142133064Y-116229933D02*
X142033064Y-116229933D01*
X142566397Y-116229933D02*
X142566397Y-115763266D01*
X142566397Y-115829933D02*
X142599731Y-115796600D01*
X142599731Y-115796600D02*
X142666397Y-115763266D01*
X142666397Y-115763266D02*
X142766397Y-115763266D01*
X142766397Y-115763266D02*
X142833064Y-115796600D01*
X142833064Y-115796600D02*
X142866397Y-115863266D01*
X142866397Y-115863266D02*
X142866397Y-116229933D01*
X142866397Y-115863266D02*
X142899731Y-115796600D01*
X142899731Y-115796600D02*
X142966397Y-115763266D01*
X142966397Y-115763266D02*
X143066397Y-115763266D01*
X143066397Y-115763266D02*
X143133064Y-115796600D01*
X143133064Y-115796600D02*
X143166397Y-115863266D01*
X143166397Y-115863266D02*
X143166397Y-116229933D01*
X143999730Y-115496600D02*
X143399730Y-116396600D01*
X144166397Y-115529933D02*
X144333063Y-116229933D01*
X144333063Y-116229933D02*
X144466397Y-115729933D01*
X144466397Y-115729933D02*
X144599730Y-116229933D01*
X144599730Y-116229933D02*
X144766397Y-115529933D01*
X145033063Y-116229933D02*
X145033063Y-115763266D01*
X145033063Y-115529933D02*
X144999730Y-115563266D01*
X144999730Y-115563266D02*
X145033063Y-115596600D01*
X145033063Y-115596600D02*
X145066397Y-115563266D01*
X145066397Y-115563266D02*
X145033063Y-115529933D01*
X145033063Y-115529933D02*
X145033063Y-115596600D01*
X145266396Y-115763266D02*
X145533063Y-115763266D01*
X145366396Y-115529933D02*
X145366396Y-116129933D01*
X145366396Y-116129933D02*
X145399730Y-116196600D01*
X145399730Y-116196600D02*
X145466396Y-116229933D01*
X145466396Y-116229933D02*
X145533063Y-116229933D01*
X145733063Y-116196600D02*
X145799730Y-116229933D01*
X145799730Y-116229933D02*
X145933063Y-116229933D01*
X145933063Y-116229933D02*
X145999730Y-116196600D01*
X145999730Y-116196600D02*
X146033063Y-116129933D01*
X146033063Y-116129933D02*
X146033063Y-116096600D01*
X146033063Y-116096600D02*
X145999730Y-116029933D01*
X145999730Y-116029933D02*
X145933063Y-115996600D01*
X145933063Y-115996600D02*
X145833063Y-115996600D01*
X145833063Y-115996600D02*
X145766396Y-115963266D01*
X145766396Y-115963266D02*
X145733063Y-115896600D01*
X145733063Y-115896600D02*
X145733063Y-115863266D01*
X145733063Y-115863266D02*
X145766396Y-115796600D01*
X145766396Y-115796600D02*
X145833063Y-115763266D01*
X145833063Y-115763266D02*
X145933063Y-115763266D01*
X145933063Y-115763266D02*
X145999730Y-115796600D01*
X146466397Y-115529933D02*
X146599730Y-115529933D01*
X146599730Y-115529933D02*
X146666397Y-115563266D01*
X146666397Y-115563266D02*
X146733063Y-115629933D01*
X146733063Y-115629933D02*
X146766397Y-115763266D01*
X146766397Y-115763266D02*
X146766397Y-115996600D01*
X146766397Y-115996600D02*
X146733063Y-116129933D01*
X146733063Y-116129933D02*
X146666397Y-116196600D01*
X146666397Y-116196600D02*
X146599730Y-116229933D01*
X146599730Y-116229933D02*
X146466397Y-116229933D01*
X146466397Y-116229933D02*
X146399730Y-116196600D01*
X146399730Y-116196600D02*
X146333063Y-116129933D01*
X146333063Y-116129933D02*
X146299730Y-115996600D01*
X146299730Y-115996600D02*
X146299730Y-115763266D01*
X146299730Y-115763266D02*
X146333063Y-115629933D01*
X146333063Y-115629933D02*
X146399730Y-115563266D01*
X146399730Y-115563266D02*
X146466397Y-115529933D01*
X147466396Y-116163266D02*
X147433063Y-116196600D01*
X147433063Y-116196600D02*
X147333063Y-116229933D01*
X147333063Y-116229933D02*
X147266396Y-116229933D01*
X147266396Y-116229933D02*
X147166396Y-116196600D01*
X147166396Y-116196600D02*
X147099730Y-116129933D01*
X147099730Y-116129933D02*
X147066396Y-116063266D01*
X147066396Y-116063266D02*
X147033063Y-115929933D01*
X147033063Y-115929933D02*
X147033063Y-115829933D01*
X147033063Y-115829933D02*
X147066396Y-115696600D01*
X147066396Y-115696600D02*
X147099730Y-115629933D01*
X147099730Y-115629933D02*
X147166396Y-115563266D01*
X147166396Y-115563266D02*
X147266396Y-115529933D01*
X147266396Y-115529933D02*
X147333063Y-115529933D01*
X147333063Y-115529933D02*
X147433063Y-115563266D01*
X147433063Y-115563266D02*
X147466396Y-115596600D01*
X148099730Y-116229933D02*
X147766396Y-116229933D01*
X147766396Y-116229933D02*
X147766396Y-115529933D01*
X148633063Y-116229933D02*
X148633063Y-115863266D01*
X148633063Y-115863266D02*
X148599730Y-115796600D01*
X148599730Y-115796600D02*
X148533063Y-115763266D01*
X148533063Y-115763266D02*
X148399730Y-115763266D01*
X148399730Y-115763266D02*
X148333063Y-115796600D01*
X148633063Y-116196600D02*
X148566397Y-116229933D01*
X148566397Y-116229933D02*
X148399730Y-116229933D01*
X148399730Y-116229933D02*
X148333063Y-116196600D01*
X148333063Y-116196600D02*
X148299730Y-116129933D01*
X148299730Y-116129933D02*
X148299730Y-116063266D01*
X148299730Y-116063266D02*
X148333063Y-115996600D01*
X148333063Y-115996600D02*
X148399730Y-115963266D01*
X148399730Y-115963266D02*
X148566397Y-115963266D01*
X148566397Y-115963266D02*
X148633063Y-115929933D01*
X148966396Y-116229933D02*
X148966396Y-115529933D01*
X148966396Y-115796600D02*
X149033063Y-115763266D01*
X149033063Y-115763266D02*
X149166396Y-115763266D01*
X149166396Y-115763266D02*
X149233063Y-115796600D01*
X149233063Y-115796600D02*
X149266396Y-115829933D01*
X149266396Y-115829933D02*
X149299730Y-115896600D01*
X149299730Y-115896600D02*
X149299730Y-116096600D01*
X149299730Y-116096600D02*
X149266396Y-116163266D01*
X149266396Y-116163266D02*
X149233063Y-116196600D01*
X149233063Y-116196600D02*
X149166396Y-116229933D01*
X149166396Y-116229933D02*
X149033063Y-116229933D01*
X149033063Y-116229933D02*
X148966396Y-116196600D01*
X150099729Y-115496600D02*
X149499729Y-116396600D01*
X150233062Y-115529933D02*
X150633062Y-115529933D01*
X150433062Y-116229933D02*
X150433062Y-115529933D01*
X150799729Y-115763266D02*
X150933062Y-116229933D01*
X150933062Y-116229933D02*
X151066395Y-115896600D01*
X151066395Y-115896600D02*
X151199729Y-116229933D01*
X151199729Y-116229933D02*
X151333062Y-115763266D01*
X151699728Y-116229933D02*
X151633062Y-116196600D01*
X151633062Y-116196600D02*
X151599728Y-116163266D01*
X151599728Y-116163266D02*
X151566395Y-116096600D01*
X151566395Y-116096600D02*
X151566395Y-115896600D01*
X151566395Y-115896600D02*
X151599728Y-115829933D01*
X151599728Y-115829933D02*
X151633062Y-115796600D01*
X151633062Y-115796600D02*
X151699728Y-115763266D01*
X151699728Y-115763266D02*
X151799728Y-115763266D01*
X151799728Y-115763266D02*
X151866395Y-115796600D01*
X151866395Y-115796600D02*
X151899728Y-115829933D01*
X151899728Y-115829933D02*
X151933062Y-115896600D01*
X151933062Y-115896600D02*
X151933062Y-116096600D01*
X151933062Y-116096600D02*
X151899728Y-116163266D01*
X151899728Y-116163266D02*
X151866395Y-116196600D01*
X151866395Y-116196600D02*
X151799728Y-116229933D01*
X151799728Y-116229933D02*
X151699728Y-116229933D01*
X152233061Y-115963266D02*
X152766395Y-115963266D01*
X153099728Y-116229933D02*
X153099728Y-115529933D01*
X153433061Y-115763266D02*
X153433061Y-116229933D01*
X153433061Y-115829933D02*
X153466395Y-115796600D01*
X153466395Y-115796600D02*
X153533061Y-115763266D01*
X153533061Y-115763266D02*
X153633061Y-115763266D01*
X153633061Y-115763266D02*
X153699728Y-115796600D01*
X153699728Y-115796600D02*
X153733061Y-115863266D01*
X153733061Y-115863266D02*
X153733061Y-116229933D01*
X154366394Y-116196600D02*
X154299728Y-116229933D01*
X154299728Y-116229933D02*
X154166394Y-116229933D01*
X154166394Y-116229933D02*
X154099728Y-116196600D01*
X154099728Y-116196600D02*
X154066394Y-116163266D01*
X154066394Y-116163266D02*
X154033061Y-116096600D01*
X154033061Y-116096600D02*
X154033061Y-115896600D01*
X154033061Y-115896600D02*
X154066394Y-115829933D01*
X154066394Y-115829933D02*
X154099728Y-115796600D01*
X154099728Y-115796600D02*
X154166394Y-115763266D01*
X154166394Y-115763266D02*
X154299728Y-115763266D01*
X154299728Y-115763266D02*
X154366394Y-115796600D01*
X154666394Y-116229933D02*
X154666394Y-115529933D01*
X154966394Y-116229933D02*
X154966394Y-115863266D01*
X154966394Y-115863266D02*
X154933061Y-115796600D01*
X154933061Y-115796600D02*
X154866394Y-115763266D01*
X154866394Y-115763266D02*
X154766394Y-115763266D01*
X154766394Y-115763266D02*
X154699728Y-115796600D01*
X154699728Y-115796600D02*
X154666394Y-115829933D01*
X155299727Y-115963266D02*
X155833061Y-115963266D01*
X156166394Y-116229933D02*
X156166394Y-115529933D01*
X156166394Y-115529933D02*
X156433061Y-115529933D01*
X156433061Y-115529933D02*
X156499728Y-115563266D01*
X156499728Y-115563266D02*
X156533061Y-115596600D01*
X156533061Y-115596600D02*
X156566394Y-115663266D01*
X156566394Y-115663266D02*
X156566394Y-115763266D01*
X156566394Y-115763266D02*
X156533061Y-115829933D01*
X156533061Y-115829933D02*
X156499728Y-115863266D01*
X156499728Y-115863266D02*
X156433061Y-115896600D01*
X156433061Y-115896600D02*
X156166394Y-115896600D01*
X156866394Y-116229933D02*
X156866394Y-115529933D01*
X157166394Y-116229933D02*
X157166394Y-115863266D01*
X157166394Y-115863266D02*
X157133061Y-115796600D01*
X157133061Y-115796600D02*
X157066394Y-115763266D01*
X157066394Y-115763266D02*
X156966394Y-115763266D01*
X156966394Y-115763266D02*
X156899728Y-115796600D01*
X156899728Y-115796600D02*
X156866394Y-115829933D01*
X157599727Y-116229933D02*
X157533061Y-116196600D01*
X157533061Y-116196600D02*
X157499727Y-116163266D01*
X157499727Y-116163266D02*
X157466394Y-116096600D01*
X157466394Y-116096600D02*
X157466394Y-115896600D01*
X157466394Y-115896600D02*
X157499727Y-115829933D01*
X157499727Y-115829933D02*
X157533061Y-115796600D01*
X157533061Y-115796600D02*
X157599727Y-115763266D01*
X157599727Y-115763266D02*
X157699727Y-115763266D01*
X157699727Y-115763266D02*
X157766394Y-115796600D01*
X157766394Y-115796600D02*
X157799727Y-115829933D01*
X157799727Y-115829933D02*
X157833061Y-115896600D01*
X157833061Y-115896600D02*
X157833061Y-116096600D01*
X157833061Y-116096600D02*
X157799727Y-116163266D01*
X157799727Y-116163266D02*
X157766394Y-116196600D01*
X157766394Y-116196600D02*
X157699727Y-116229933D01*
X157699727Y-116229933D02*
X157599727Y-116229933D01*
X158033060Y-115763266D02*
X158299727Y-115763266D01*
X158133060Y-115529933D02*
X158133060Y-116129933D01*
X158133060Y-116129933D02*
X158166394Y-116196600D01*
X158166394Y-116196600D02*
X158233060Y-116229933D01*
X158233060Y-116229933D02*
X158299727Y-116229933D01*
X158633060Y-116229933D02*
X158566394Y-116196600D01*
X158566394Y-116196600D02*
X158533060Y-116163266D01*
X158533060Y-116163266D02*
X158499727Y-116096600D01*
X158499727Y-116096600D02*
X158499727Y-115896600D01*
X158499727Y-115896600D02*
X158533060Y-115829933D01*
X158533060Y-115829933D02*
X158566394Y-115796600D01*
X158566394Y-115796600D02*
X158633060Y-115763266D01*
X158633060Y-115763266D02*
X158733060Y-115763266D01*
X158733060Y-115763266D02*
X158799727Y-115796600D01*
X158799727Y-115796600D02*
X158833060Y-115829933D01*
X158833060Y-115829933D02*
X158866394Y-115896600D01*
X158866394Y-115896600D02*
X158866394Y-116096600D01*
X158866394Y-116096600D02*
X158833060Y-116163266D01*
X158833060Y-116163266D02*
X158799727Y-116196600D01*
X158799727Y-116196600D02*
X158733060Y-116229933D01*
X158733060Y-116229933D02*
X158633060Y-116229933D01*
X159466393Y-116229933D02*
X159466393Y-115529933D01*
X159466393Y-116196600D02*
X159399727Y-116229933D01*
X159399727Y-116229933D02*
X159266393Y-116229933D01*
X159266393Y-116229933D02*
X159199727Y-116196600D01*
X159199727Y-116196600D02*
X159166393Y-116163266D01*
X159166393Y-116163266D02*
X159133060Y-116096600D01*
X159133060Y-116096600D02*
X159133060Y-115896600D01*
X159133060Y-115896600D02*
X159166393Y-115829933D01*
X159166393Y-115829933D02*
X159199727Y-115796600D01*
X159199727Y-115796600D02*
X159266393Y-115763266D01*
X159266393Y-115763266D02*
X159399727Y-115763266D01*
X159399727Y-115763266D02*
X159466393Y-115796600D01*
X160066393Y-116196600D02*
X159999726Y-116229933D01*
X159999726Y-116229933D02*
X159866393Y-116229933D01*
X159866393Y-116229933D02*
X159799726Y-116196600D01*
X159799726Y-116196600D02*
X159766393Y-116129933D01*
X159766393Y-116129933D02*
X159766393Y-115863266D01*
X159766393Y-115863266D02*
X159799726Y-115796600D01*
X159799726Y-115796600D02*
X159866393Y-115763266D01*
X159866393Y-115763266D02*
X159999726Y-115763266D01*
X159999726Y-115763266D02*
X160066393Y-115796600D01*
X160066393Y-115796600D02*
X160099726Y-115863266D01*
X160099726Y-115863266D02*
X160099726Y-115929933D01*
X160099726Y-115929933D02*
X159766393Y-115996600D01*
X160299726Y-115763266D02*
X160566393Y-115763266D01*
X160399726Y-115529933D02*
X160399726Y-116129933D01*
X160399726Y-116129933D02*
X160433060Y-116196600D01*
X160433060Y-116196600D02*
X160499726Y-116229933D01*
X160499726Y-116229933D02*
X160566393Y-116229933D01*
X161066393Y-116196600D02*
X160999726Y-116229933D01*
X160999726Y-116229933D02*
X160866393Y-116229933D01*
X160866393Y-116229933D02*
X160799726Y-116196600D01*
X160799726Y-116196600D02*
X160766393Y-116129933D01*
X160766393Y-116129933D02*
X160766393Y-115863266D01*
X160766393Y-115863266D02*
X160799726Y-115796600D01*
X160799726Y-115796600D02*
X160866393Y-115763266D01*
X160866393Y-115763266D02*
X160999726Y-115763266D01*
X160999726Y-115763266D02*
X161066393Y-115796600D01*
X161066393Y-115796600D02*
X161099726Y-115863266D01*
X161099726Y-115863266D02*
X161099726Y-115929933D01*
X161099726Y-115929933D02*
X160766393Y-115996600D01*
X161699726Y-116196600D02*
X161633060Y-116229933D01*
X161633060Y-116229933D02*
X161499726Y-116229933D01*
X161499726Y-116229933D02*
X161433060Y-116196600D01*
X161433060Y-116196600D02*
X161399726Y-116163266D01*
X161399726Y-116163266D02*
X161366393Y-116096600D01*
X161366393Y-116096600D02*
X161366393Y-115896600D01*
X161366393Y-115896600D02*
X161399726Y-115829933D01*
X161399726Y-115829933D02*
X161433060Y-115796600D01*
X161433060Y-115796600D02*
X161499726Y-115763266D01*
X161499726Y-115763266D02*
X161633060Y-115763266D01*
X161633060Y-115763266D02*
X161699726Y-115796600D01*
X161899726Y-115763266D02*
X162166393Y-115763266D01*
X161999726Y-115529933D02*
X161999726Y-116129933D01*
X161999726Y-116129933D02*
X162033060Y-116196600D01*
X162033060Y-116196600D02*
X162099726Y-116229933D01*
X162099726Y-116229933D02*
X162166393Y-116229933D01*
X162499726Y-116229933D02*
X162433060Y-116196600D01*
X162433060Y-116196600D02*
X162399726Y-116163266D01*
X162399726Y-116163266D02*
X162366393Y-116096600D01*
X162366393Y-116096600D02*
X162366393Y-115896600D01*
X162366393Y-115896600D02*
X162399726Y-115829933D01*
X162399726Y-115829933D02*
X162433060Y-115796600D01*
X162433060Y-115796600D02*
X162499726Y-115763266D01*
X162499726Y-115763266D02*
X162599726Y-115763266D01*
X162599726Y-115763266D02*
X162666393Y-115796600D01*
X162666393Y-115796600D02*
X162699726Y-115829933D01*
X162699726Y-115829933D02*
X162733060Y-115896600D01*
X162733060Y-115896600D02*
X162733060Y-116096600D01*
X162733060Y-116096600D02*
X162699726Y-116163266D01*
X162699726Y-116163266D02*
X162666393Y-116196600D01*
X162666393Y-116196600D02*
X162599726Y-116229933D01*
X162599726Y-116229933D02*
X162499726Y-116229933D01*
X163033059Y-116229933D02*
X163033059Y-115763266D01*
X163033059Y-115896600D02*
X163066393Y-115829933D01*
X163066393Y-115829933D02*
X163099726Y-115796600D01*
X163099726Y-115796600D02*
X163166393Y-115763266D01*
X163166393Y-115763266D02*
X163233059Y-115763266D01*
X137733066Y-117363933D02*
X137733066Y-116663933D01*
X137733066Y-116663933D02*
X137966400Y-117163933D01*
X137966400Y-117163933D02*
X138199733Y-116663933D01*
X138199733Y-116663933D02*
X138199733Y-117363933D01*
X138533066Y-117363933D02*
X138533066Y-116897266D01*
X138533066Y-116663933D02*
X138499733Y-116697266D01*
X138499733Y-116697266D02*
X138533066Y-116730600D01*
X138533066Y-116730600D02*
X138566400Y-116697266D01*
X138566400Y-116697266D02*
X138533066Y-116663933D01*
X138533066Y-116663933D02*
X138533066Y-116730600D01*
X138766399Y-116897266D02*
X139033066Y-116897266D01*
X138866399Y-116663933D02*
X138866399Y-117263933D01*
X138866399Y-117263933D02*
X138899733Y-117330600D01*
X138899733Y-117330600D02*
X138966399Y-117363933D01*
X138966399Y-117363933D02*
X139033066Y-117363933D01*
X139566399Y-117330600D02*
X139499733Y-117363933D01*
X139499733Y-117363933D02*
X139366399Y-117363933D01*
X139366399Y-117363933D02*
X139299733Y-117330600D01*
X139299733Y-117330600D02*
X139266399Y-117297266D01*
X139266399Y-117297266D02*
X139233066Y-117230600D01*
X139233066Y-117230600D02*
X139233066Y-117030600D01*
X139233066Y-117030600D02*
X139266399Y-116963933D01*
X139266399Y-116963933D02*
X139299733Y-116930600D01*
X139299733Y-116930600D02*
X139366399Y-116897266D01*
X139366399Y-116897266D02*
X139499733Y-116897266D01*
X139499733Y-116897266D02*
X139566399Y-116930600D01*
X139866399Y-117363933D02*
X139866399Y-116663933D01*
X140166399Y-117363933D02*
X140166399Y-116997266D01*
X140166399Y-116997266D02*
X140133066Y-116930600D01*
X140133066Y-116930600D02*
X140066399Y-116897266D01*
X140066399Y-116897266D02*
X139966399Y-116897266D01*
X139966399Y-116897266D02*
X139899733Y-116930600D01*
X139899733Y-116930600D02*
X139866399Y-116963933D01*
X140766399Y-117330600D02*
X140699732Y-117363933D01*
X140699732Y-117363933D02*
X140566399Y-117363933D01*
X140566399Y-117363933D02*
X140499732Y-117330600D01*
X140499732Y-117330600D02*
X140466399Y-117263933D01*
X140466399Y-117263933D02*
X140466399Y-116997266D01*
X140466399Y-116997266D02*
X140499732Y-116930600D01*
X140499732Y-116930600D02*
X140566399Y-116897266D01*
X140566399Y-116897266D02*
X140699732Y-116897266D01*
X140699732Y-116897266D02*
X140766399Y-116930600D01*
X140766399Y-116930600D02*
X140799732Y-116997266D01*
X140799732Y-116997266D02*
X140799732Y-117063933D01*
X140799732Y-117063933D02*
X140466399Y-117130600D01*
X141199732Y-117363933D02*
X141133066Y-117330600D01*
X141133066Y-117330600D02*
X141099732Y-117263933D01*
X141099732Y-117263933D02*
X141099732Y-116663933D01*
X141566399Y-117363933D02*
X141499733Y-117330600D01*
X141499733Y-117330600D02*
X141466399Y-117263933D01*
X141466399Y-117263933D02*
X141466399Y-116663933D01*
X142333066Y-117163933D02*
X142666399Y-117163933D01*
X142266399Y-117363933D02*
X142499733Y-116663933D01*
X142499733Y-116663933D02*
X142733066Y-117363933D01*
X142966399Y-117297266D02*
X142999733Y-117330600D01*
X142999733Y-117330600D02*
X142966399Y-117363933D01*
X142966399Y-117363933D02*
X142933066Y-117330600D01*
X142933066Y-117330600D02*
X142966399Y-117297266D01*
X142966399Y-117297266D02*
X142966399Y-117363933D01*
X144233065Y-117297266D02*
X144199732Y-117330600D01*
X144199732Y-117330600D02*
X144099732Y-117363933D01*
X144099732Y-117363933D02*
X144033065Y-117363933D01*
X144033065Y-117363933D02*
X143933065Y-117330600D01*
X143933065Y-117330600D02*
X143866399Y-117263933D01*
X143866399Y-117263933D02*
X143833065Y-117197266D01*
X143833065Y-117197266D02*
X143799732Y-117063933D01*
X143799732Y-117063933D02*
X143799732Y-116963933D01*
X143799732Y-116963933D02*
X143833065Y-116830600D01*
X143833065Y-116830600D02*
X143866399Y-116763933D01*
X143866399Y-116763933D02*
X143933065Y-116697266D01*
X143933065Y-116697266D02*
X144033065Y-116663933D01*
X144033065Y-116663933D02*
X144099732Y-116663933D01*
X144099732Y-116663933D02*
X144199732Y-116697266D01*
X144199732Y-116697266D02*
X144233065Y-116730600D01*
X144633065Y-117363933D02*
X144566399Y-117330600D01*
X144566399Y-117330600D02*
X144533065Y-117297266D01*
X144533065Y-117297266D02*
X144499732Y-117230600D01*
X144499732Y-117230600D02*
X144499732Y-117030600D01*
X144499732Y-117030600D02*
X144533065Y-116963933D01*
X144533065Y-116963933D02*
X144566399Y-116930600D01*
X144566399Y-116930600D02*
X144633065Y-116897266D01*
X144633065Y-116897266D02*
X144733065Y-116897266D01*
X144733065Y-116897266D02*
X144799732Y-116930600D01*
X144799732Y-116930600D02*
X144833065Y-116963933D01*
X144833065Y-116963933D02*
X144866399Y-117030600D01*
X144866399Y-117030600D02*
X144866399Y-117230600D01*
X144866399Y-117230600D02*
X144833065Y-117297266D01*
X144833065Y-117297266D02*
X144799732Y-117330600D01*
X144799732Y-117330600D02*
X144733065Y-117363933D01*
X144733065Y-117363933D02*
X144633065Y-117363933D01*
X145099732Y-117363933D02*
X145466398Y-116897266D01*
X145099732Y-116897266D02*
X145466398Y-117363933D01*
X146233065Y-116730600D02*
X146266398Y-116697266D01*
X146266398Y-116697266D02*
X146333065Y-116663933D01*
X146333065Y-116663933D02*
X146499732Y-116663933D01*
X146499732Y-116663933D02*
X146566398Y-116697266D01*
X146566398Y-116697266D02*
X146599732Y-116730600D01*
X146599732Y-116730600D02*
X146633065Y-116797266D01*
X146633065Y-116797266D02*
X146633065Y-116863933D01*
X146633065Y-116863933D02*
X146599732Y-116963933D01*
X146599732Y-116963933D02*
X146199732Y-117363933D01*
X146199732Y-117363933D02*
X146633065Y-117363933D01*
X147066399Y-116663933D02*
X147133065Y-116663933D01*
X147133065Y-116663933D02*
X147199732Y-116697266D01*
X147199732Y-116697266D02*
X147233065Y-116730600D01*
X147233065Y-116730600D02*
X147266399Y-116797266D01*
X147266399Y-116797266D02*
X147299732Y-116930600D01*
X147299732Y-116930600D02*
X147299732Y-117097266D01*
X147299732Y-117097266D02*
X147266399Y-117230600D01*
X147266399Y-117230600D02*
X147233065Y-117297266D01*
X147233065Y-117297266D02*
X147199732Y-117330600D01*
X147199732Y-117330600D02*
X147133065Y-117363933D01*
X147133065Y-117363933D02*
X147066399Y-117363933D01*
X147066399Y-117363933D02*
X146999732Y-117330600D01*
X146999732Y-117330600D02*
X146966399Y-117297266D01*
X146966399Y-117297266D02*
X146933065Y-117230600D01*
X146933065Y-117230600D02*
X146899732Y-117097266D01*
X146899732Y-117097266D02*
X146899732Y-116930600D01*
X146899732Y-116930600D02*
X146933065Y-116797266D01*
X146933065Y-116797266D02*
X146966399Y-116730600D01*
X146966399Y-116730600D02*
X146999732Y-116697266D01*
X146999732Y-116697266D02*
X147066399Y-116663933D01*
X147566399Y-116730600D02*
X147599732Y-116697266D01*
X147599732Y-116697266D02*
X147666399Y-116663933D01*
X147666399Y-116663933D02*
X147833066Y-116663933D01*
X147833066Y-116663933D02*
X147899732Y-116697266D01*
X147899732Y-116697266D02*
X147933066Y-116730600D01*
X147933066Y-116730600D02*
X147966399Y-116797266D01*
X147966399Y-116797266D02*
X147966399Y-116863933D01*
X147966399Y-116863933D02*
X147933066Y-116963933D01*
X147933066Y-116963933D02*
X147533066Y-117363933D01*
X147533066Y-117363933D02*
X147966399Y-117363933D01*
X148199733Y-116663933D02*
X148633066Y-116663933D01*
X148633066Y-116663933D02*
X148399733Y-116930600D01*
X148399733Y-116930600D02*
X148499733Y-116930600D01*
X148499733Y-116930600D02*
X148566399Y-116963933D01*
X148566399Y-116963933D02*
X148599733Y-116997266D01*
X148599733Y-116997266D02*
X148633066Y-117063933D01*
X148633066Y-117063933D02*
X148633066Y-117230600D01*
X148633066Y-117230600D02*
X148599733Y-117297266D01*
X148599733Y-117297266D02*
X148566399Y-117330600D01*
X148566399Y-117330600D02*
X148499733Y-117363933D01*
X148499733Y-117363933D02*
X148299733Y-117363933D01*
X148299733Y-117363933D02*
X148233066Y-117330600D01*
X148233066Y-117330600D02*
X148199733Y-117297266D01*
D11*
X174000000Y-100000000D02*
G75*
G03*
X174000000Y-100000000I-24000000J0D01*
G01*
D12*
X134010400Y-95044800D03*
X134010400Y-96064800D03*
D13*
X134010400Y-92745600D03*
X134010400Y-93385600D03*
D14*
X132679800Y-101883700D03*
X133329800Y-101883700D03*
X133979800Y-101883700D03*
X134629800Y-101883700D03*
X134629800Y-97658700D03*
X133979800Y-97658700D03*
X133329800Y-97658700D03*
X132679800Y-97658700D03*
D15*
X145403777Y-93596223D03*
X144682529Y-94317471D03*
D16*
X133350000Y-104751600D03*
X133350000Y-103731600D03*
D17*
X132689600Y-95074800D03*
X132689600Y-96034800D03*
D18*
X148750000Y-100000000D03*
X150020000Y-101270000D03*
X151290000Y-100000000D03*
D19*
X151900000Y-108000000D03*
X151900000Y-107500000D03*
X151900000Y-107000000D03*
X151900000Y-106500000D03*
X151900000Y-106000000D03*
X147600000Y-106000000D03*
X147600000Y-106500000D03*
X147600000Y-107000000D03*
X147600000Y-107500000D03*
X147600000Y-108000000D03*
D20*
X149750000Y-107000000D03*
D21*
X153330672Y-96371231D03*
X153790291Y-96830850D03*
X154249911Y-97290470D03*
X154709530Y-97750089D03*
X155169150Y-98209709D03*
X155628769Y-98669328D03*
X158669328Y-95628769D03*
X158209709Y-95169150D03*
X157750089Y-94709530D03*
X157290470Y-94249911D03*
X156830850Y-93790291D03*
X156371231Y-93330672D03*
D22*
X156000000Y-96000000D03*
D23*
X152037500Y-109500000D03*
X150462500Y-109500000D03*
X147937500Y-95700000D03*
X146362500Y-95700000D03*
D24*
X144300000Y-106587500D03*
X144300000Y-105012500D03*
D25*
X147462500Y-109500000D03*
X149037500Y-109500000D03*
D23*
X142537500Y-104250000D03*
X140962500Y-104250000D03*
D26*
X153730659Y-101740008D03*
X154269341Y-100259992D03*
D25*
X158462500Y-99500000D03*
X160037500Y-99500000D03*
D27*
X154643153Y-93156847D03*
X155756847Y-92043153D03*
D28*
X157988000Y-101600000D03*
X155788000Y-101600000D03*
D29*
X151337500Y-95800000D03*
X149462500Y-95800000D03*
D24*
X145800000Y-106587500D03*
X145800000Y-105012500D03*
D30*
X153600000Y-94200000D03*
X152486306Y-95313694D03*
D31*
X145015000Y-102000000D03*
X145985000Y-102000000D03*
D25*
X158462500Y-98000000D03*
X160037500Y-98000000D03*
D31*
X145015000Y-103000000D03*
X145985000Y-103000000D03*
X145015000Y-101000000D03*
X145985000Y-101000000D03*
D32*
X143900000Y-102500000D03*
X143900000Y-102000000D03*
X143900000Y-101500000D03*
X143900000Y-101000000D03*
X141100000Y-101000000D03*
X141100000Y-101500000D03*
X141100000Y-102000000D03*
X141100000Y-102500000D03*
D33*
X142500000Y-101750000D03*
D34*
X144800000Y-97212500D03*
X144800000Y-98787500D03*
D35*
X142000000Y-94775000D03*
X142000000Y-93225000D03*
D36*
X143150000Y-95900000D03*
X142200000Y-95900000D03*
X141250000Y-95900000D03*
X141250000Y-98100000D03*
X143150000Y-98100000D03*
D37*
X141025000Y-99400000D03*
X142575000Y-99400000D03*
D23*
X151587500Y-104000000D03*
X150012500Y-104000000D03*
D28*
X153840000Y-106934000D03*
X156040000Y-106934000D03*
D38*
X139803600Y-97840800D03*
X138783600Y-97840800D03*
D39*
X137818400Y-99771200D03*
X138838400Y-99771200D03*
D40*
X166017000Y-97536000D03*
D41*
X164592000Y-98386000D03*
X164592000Y-96686000D03*
D40*
X163167000Y-97536000D03*
D42*
X136878000Y-98755200D03*
X135918000Y-98755200D03*
D12*
X139801600Y-100734400D03*
X139801600Y-101754400D03*
D39*
X135888000Y-99771200D03*
X136908000Y-99771200D03*
D17*
X139801600Y-98834000D03*
X139801600Y-99794000D03*
D42*
X136878000Y-100787200D03*
X135918000Y-100787200D03*
D43*
X163167000Y-102362000D03*
D44*
X164592000Y-101512000D03*
X164592000Y-103212000D03*
D43*
X166017000Y-102362000D03*
D45*
X135280400Y-107950000D03*
X134010400Y-106680000D03*
X134010400Y-109220000D03*
X136550400Y-106680000D03*
X136550400Y-109220000D03*
X150000000Y-92400000D03*
X151270000Y-91130000D03*
X151270000Y-93670000D03*
X148730000Y-91130000D03*
X148730000Y-93670000D03*
D46*
X153750000Y-91250000D03*
X145550000Y-108800000D03*
D47*
X168910000Y-102540000D03*
D48*
X168910000Y-100000000D03*
X168910000Y-97460000D03*
M02*
