%TF.GenerationSoftware,KiCad,Pcbnew,7.0.2*%
%TF.CreationDate,2023-05-30T15:48:39+02:00*%
%TF.ProjectId,oip_opa818,6f69705f-6f70-4613-9831-382e6b696361,rev?*%
%TF.SameCoordinates,Original*%
%TF.FileFunction,Paste,Top*%
%TF.FilePolarity,Positive*%
%FSLAX46Y46*%
G04 Gerber Fmt 4.6, Leading zero omitted, Abs format (unit mm)*
G04 Created by KiCad (PCBNEW 7.0.2) date 2023-05-30 15:48:39*
%MOMM*%
%LPD*%
G01*
G04 APERTURE LIST*
G04 Aperture macros list*
%AMRoundRect*
0 Rectangle with rounded corners*
0 $1 Rounding radius*
0 $2 $3 $4 $5 $6 $7 $8 $9 X,Y pos of 4 corners*
0 Add a 4 corners polygon primitive as box body*
4,1,4,$2,$3,$4,$5,$6,$7,$8,$9,$2,$3,0*
0 Add four circle primitives for the rounded corners*
1,1,$1+$1,$2,$3*
1,1,$1+$1,$4,$5*
1,1,$1+$1,$6,$7*
1,1,$1+$1,$8,$9*
0 Add four rect primitives between the rounded corners*
20,1,$1+$1,$2,$3,$4,$5,0*
20,1,$1+$1,$4,$5,$6,$7,0*
20,1,$1+$1,$6,$7,$8,$9,0*
20,1,$1+$1,$8,$9,$2,$3,0*%
G04 Aperture macros list end*
%ADD10RoundRect,0.135000X-0.185000X0.135000X-0.185000X-0.135000X0.185000X-0.135000X0.185000X0.135000X0*%
%ADD11RoundRect,0.079500X-0.100500X0.079500X-0.100500X-0.079500X0.100500X-0.079500X0.100500X0.079500X0*%
%ADD12RoundRect,0.100000X0.100000X-0.712500X0.100000X0.712500X-0.100000X0.712500X-0.100000X-0.712500X0*%
%ADD13RoundRect,0.135000X-0.035355X0.226274X-0.226274X0.035355X0.035355X-0.226274X0.226274X-0.035355X0*%
%ADD14RoundRect,0.135000X0.185000X-0.135000X0.185000X0.135000X-0.185000X0.135000X-0.185000X-0.135000X0*%
%ADD15RoundRect,0.140000X-0.170000X0.140000X-0.170000X-0.140000X0.170000X-0.140000X0.170000X0.140000X0*%
%ADD16RoundRect,0.170000X0.170000X0.210000X-0.170000X0.210000X-0.170000X-0.210000X0.170000X-0.210000X0*%
%ADD17RoundRect,0.075000X0.650000X0.075000X-0.650000X0.075000X-0.650000X-0.075000X0.650000X-0.075000X0*%
%ADD18RoundRect,0.167500X0.169706X-0.406586X0.406586X-0.169706X-0.169706X0.406586X-0.406586X0.169706X0*%
%ADD19RoundRect,0.100000X-0.371231X-0.512652X0.512652X0.371231X0.371231X0.512652X-0.512652X-0.371231X0*%
%ADD20RoundRect,0.218750X0.218750X0.256250X-0.218750X0.256250X-0.218750X-0.256250X0.218750X-0.256250X0*%
%ADD21RoundRect,0.218750X0.256250X-0.218750X0.256250X0.218750X-0.256250X0.218750X-0.256250X-0.218750X0*%
%ADD22RoundRect,0.218750X-0.218750X-0.256250X0.218750X-0.256250X0.218750X0.256250X-0.218750X0.256250X0*%
%ADD23RoundRect,0.218750X0.165979X-0.293200X0.315613X0.117915X-0.165979X0.293200X-0.315613X-0.117915X0*%
%ADD24RoundRect,0.218750X0.026517X-0.335876X0.335876X-0.026517X-0.026517X0.335876X-0.335876X0.026517X0*%
%ADD25R,0.500000X0.500000*%
%ADD26RoundRect,0.243750X0.243750X0.456250X-0.243750X0.456250X-0.243750X-0.456250X0.243750X-0.456250X0*%
%ADD27RoundRect,0.218750X-0.026517X0.335876X-0.335876X0.026517X0.026517X-0.335876X0.335876X-0.026517X0*%
%ADD28RoundRect,0.147500X-0.147500X-0.172500X0.147500X-0.172500X0.147500X0.172500X-0.147500X0.172500X0*%
%ADD29R,1.470000X1.070000*%
%ADD30R,0.600000X0.250000*%
%ADD31RoundRect,0.218750X-0.256250X0.218750X-0.256250X-0.218750X0.256250X-0.218750X0.256250X0.218750X0*%
%ADD32RoundRect,0.225000X0.250000X-0.225000X0.250000X0.225000X-0.250000X0.225000X-0.250000X-0.225000X0*%
%ADD33R,0.650000X1.060000*%
%ADD34RoundRect,0.225000X-0.225000X-0.250000X0.225000X-0.250000X0.225000X0.250000X-0.225000X0.250000X0*%
%ADD35RoundRect,0.135000X0.135000X0.185000X-0.135000X0.185000X-0.135000X-0.185000X0.135000X-0.185000X0*%
%ADD36RoundRect,0.135000X-0.135000X-0.185000X0.135000X-0.185000X0.135000X0.185000X-0.135000X0.185000X0*%
%ADD37RoundRect,0.040000X0.660000X0.360000X-0.660000X0.360000X-0.660000X-0.360000X0.660000X-0.360000X0*%
%ADD38RoundRect,0.030000X0.270000X0.520000X-0.270000X0.520000X-0.270000X-0.520000X0.270000X-0.520000X0*%
%ADD39RoundRect,0.140000X0.140000X0.170000X-0.140000X0.170000X-0.140000X-0.170000X0.140000X-0.170000X0*%
%ADD40RoundRect,0.040000X-0.660000X-0.360000X0.660000X-0.360000X0.660000X0.360000X-0.660000X0.360000X0*%
%ADD41RoundRect,0.030000X-0.270000X-0.520000X0.270000X-0.520000X0.270000X0.520000X-0.270000X0.520000X0*%
G04 APERTURE END LIST*
D10*
X134010400Y-95044800D03*
X134010400Y-96064800D03*
D11*
X134010400Y-93410600D03*
X134010400Y-92720600D03*
D12*
X132679800Y-101883700D03*
X133329800Y-101883700D03*
X133979800Y-101883700D03*
X134629800Y-101883700D03*
X134629800Y-97658700D03*
X133979800Y-97658700D03*
X133329800Y-97658700D03*
X132679800Y-97658700D03*
D13*
X145403777Y-93596223D03*
X144682529Y-94317471D03*
D14*
X133350000Y-104751600D03*
X133350000Y-103731600D03*
D15*
X132689600Y-95074800D03*
X132689600Y-96034800D03*
D16*
X150170000Y-107470000D03*
X150170000Y-106530000D03*
X149330000Y-107470000D03*
X149330000Y-106530000D03*
D17*
X151900000Y-108000000D03*
X151900000Y-107500000D03*
X151900000Y-107000000D03*
X151900000Y-106500000D03*
X151900000Y-106000000D03*
X147600000Y-106000000D03*
X147600000Y-106500000D03*
X147600000Y-107000000D03*
X147600000Y-107500000D03*
X147600000Y-108000000D03*
D18*
X155208040Y-95787868D03*
X156212132Y-96791960D03*
X155787868Y-95208040D03*
X156791960Y-96212132D03*
D19*
X153330672Y-96371231D03*
X153790291Y-96830850D03*
X154249911Y-97290470D03*
X154709530Y-97750089D03*
X155169150Y-98209709D03*
X155628769Y-98669328D03*
X158669328Y-95628769D03*
X158209709Y-95169150D03*
X157750089Y-94709530D03*
X157290470Y-94249911D03*
X156830850Y-93790291D03*
X156371231Y-93330672D03*
D20*
X152037500Y-109500000D03*
X150462500Y-109500000D03*
X147937500Y-95700000D03*
X146362500Y-95700000D03*
D21*
X144300000Y-106587500D03*
X144300000Y-105012500D03*
D22*
X147462500Y-109500000D03*
X149037500Y-109500000D03*
D20*
X142537500Y-104250000D03*
X140962500Y-104250000D03*
D23*
X153730659Y-101740008D03*
X154269341Y-100259992D03*
D22*
X158462500Y-99500000D03*
X160037500Y-99500000D03*
D24*
X154643153Y-93156847D03*
X155756847Y-92043153D03*
D25*
X157988000Y-101600000D03*
X155788000Y-101600000D03*
D26*
X151337500Y-95800000D03*
X149462500Y-95800000D03*
D21*
X145800000Y-106587500D03*
X145800000Y-105012500D03*
D27*
X153600000Y-94200000D03*
X152486306Y-95313694D03*
D28*
X145015000Y-102000000D03*
X145985000Y-102000000D03*
D22*
X158462500Y-98000000D03*
X160037500Y-98000000D03*
D28*
X145015000Y-103000000D03*
X145985000Y-103000000D03*
X145015000Y-101000000D03*
X145985000Y-101000000D03*
D29*
X142500000Y-102385000D03*
X142500000Y-101115000D03*
D30*
X143900000Y-102500000D03*
X143900000Y-102000000D03*
X143900000Y-101500000D03*
X143900000Y-101000000D03*
X141100000Y-101000000D03*
X141100000Y-101500000D03*
X141100000Y-102000000D03*
X141100000Y-102500000D03*
D31*
X144800000Y-97212500D03*
X144800000Y-98787500D03*
D32*
X142000000Y-94775000D03*
X142000000Y-93225000D03*
D33*
X143150000Y-95900000D03*
X142200000Y-95900000D03*
X141250000Y-95900000D03*
X141250000Y-98100000D03*
X143150000Y-98100000D03*
D34*
X141025000Y-99400000D03*
X142575000Y-99400000D03*
D20*
X151587500Y-104000000D03*
X150012500Y-104000000D03*
D25*
X153840000Y-106934000D03*
X156040000Y-106934000D03*
D35*
X139803600Y-97840800D03*
X138783600Y-97840800D03*
D36*
X137818400Y-99771200D03*
X138838400Y-99771200D03*
D37*
X166017000Y-97536000D03*
D38*
X164592000Y-98386000D03*
X164592000Y-96686000D03*
D37*
X163167000Y-97536000D03*
D39*
X136878000Y-98755200D03*
X135918000Y-98755200D03*
D10*
X139801600Y-100734400D03*
X139801600Y-101754400D03*
D36*
X135888000Y-99771200D03*
X136908000Y-99771200D03*
D15*
X139801600Y-98834000D03*
X139801600Y-99794000D03*
D39*
X136878000Y-100787200D03*
X135918000Y-100787200D03*
D40*
X163167000Y-102362000D03*
D41*
X164592000Y-101512000D03*
X164592000Y-103212000D03*
D40*
X166017000Y-102362000D03*
M02*
