%TF.GenerationSoftware,KiCad,Pcbnew,7.0.2*%
%TF.CreationDate,2023-05-30T15:48:39+02:00*%
%TF.ProjectId,oip_opa818,6f69705f-6f70-4613-9831-382e6b696361,rev?*%
%TF.SameCoordinates,Original*%
%TF.FileFunction,Copper,L2,Bot*%
%TF.FilePolarity,Positive*%
%FSLAX46Y46*%
G04 Gerber Fmt 4.6, Leading zero omitted, Abs format (unit mm)*
G04 Created by KiCad (PCBNEW 7.0.2) date 2023-05-30 15:48:39*
%MOMM*%
%LPD*%
G01*
G04 APERTURE LIST*
G04 Aperture macros list*
%AMRoundRect*
0 Rectangle with rounded corners*
0 $1 Rounding radius*
0 $2 $3 $4 $5 $6 $7 $8 $9 X,Y pos of 4 corners*
0 Add a 4 corners polygon primitive as box body*
4,1,4,$2,$3,$4,$5,$6,$7,$8,$9,$2,$3,0*
0 Add four circle primitives for the rounded corners*
1,1,$1+$1,$2,$3*
1,1,$1+$1,$4,$5*
1,1,$1+$1,$6,$7*
1,1,$1+$1,$8,$9*
0 Add four rect primitives between the rounded corners*
20,1,$1+$1,$2,$3,$4,$5,0*
20,1,$1+$1,$4,$5,$6,$7,0*
20,1,$1+$1,$6,$7,$8,$9,0*
20,1,$1+$1,$8,$9,$2,$3,0*%
G04 Aperture macros list end*
%TA.AperFunction,SMDPad,CuDef*%
%ADD10RoundRect,0.100000X-0.100000X0.130000X-0.100000X-0.130000X0.100000X-0.130000X0.100000X0.130000X0*%
%TD*%
%TA.AperFunction,ComponentPad*%
%ADD11O,1.000000X1.000000*%
%TD*%
%TA.AperFunction,ComponentPad*%
%ADD12C,0.600000*%
%TD*%
%TA.AperFunction,ComponentPad*%
%ADD13C,1.240000*%
%TD*%
%TA.AperFunction,ComponentPad*%
%ADD14C,1.000000*%
%TD*%
%TA.AperFunction,ComponentPad*%
%ADD15R,1.700000X1.700000*%
%TD*%
%TA.AperFunction,ComponentPad*%
%ADD16O,1.700000X1.700000*%
%TD*%
%TA.AperFunction,ViaPad*%
%ADD17C,0.800000*%
%TD*%
%TA.AperFunction,Conductor*%
%ADD18C,0.300000*%
%TD*%
%TA.AperFunction,Conductor*%
%ADD19C,0.200000*%
%TD*%
G04 APERTURE END LIST*
D10*
X134010400Y-92745600D03*
X134010400Y-93385600D03*
D11*
X148750000Y-100000000D03*
X150020000Y-101270000D03*
X151290000Y-100000000D03*
D12*
X164592000Y-97536000D03*
X164592000Y-102362000D03*
D13*
X135280400Y-107950000D03*
X134010400Y-106680000D03*
X134010400Y-109220000D03*
X136550400Y-106680000D03*
X136550400Y-109220000D03*
X150000000Y-92400000D03*
X151270000Y-91130000D03*
X151270000Y-93670000D03*
X148730000Y-91130000D03*
X148730000Y-93670000D03*
D14*
X153750000Y-91250000D03*
X145550000Y-108800000D03*
D15*
X168910000Y-102540000D03*
D16*
X168910000Y-100000000D03*
X168910000Y-97460000D03*
D17*
X137972800Y-97840800D03*
X138328400Y-98958400D03*
X139598400Y-105206800D03*
X139141200Y-104089200D03*
X138734800Y-103022400D03*
X138531600Y-101904800D03*
X159359600Y-106781600D03*
X161086800Y-103632000D03*
X161391600Y-101752400D03*
X134010400Y-94234000D03*
X131724400Y-96164400D03*
X143500000Y-99100000D03*
X141250000Y-105250000D03*
X134620000Y-100076000D03*
X138430000Y-100787200D03*
X132689600Y-93929200D03*
X140696305Y-106759530D03*
X141453835Y-107695002D03*
X142304998Y-108546165D03*
X143240470Y-109303695D03*
X144250000Y-109959292D03*
X145322529Y-110505773D03*
X146446305Y-110937150D03*
X147609016Y-111248697D03*
X148797923Y-111437002D03*
X150000000Y-111500000D03*
X151202077Y-111437002D03*
X152390984Y-111248697D03*
X153553695Y-110937150D03*
X154677471Y-110505773D03*
X155750000Y-109959292D03*
X156759530Y-109303695D03*
X157695002Y-108546165D03*
X158546165Y-107695002D03*
X159959292Y-105750000D03*
X160505773Y-104677471D03*
X161500000Y-100000000D03*
X161437002Y-98797923D03*
X161248697Y-97609016D03*
X160937150Y-96446305D03*
X160505773Y-95322529D03*
X159959292Y-94250000D03*
X159303695Y-93240470D03*
X158546165Y-92304998D03*
X157695002Y-91453835D03*
X156759530Y-90696305D03*
X155750000Y-90040708D03*
X154677471Y-89494227D03*
X153553695Y-89062850D03*
X152390984Y-88751303D03*
X151202077Y-88562998D03*
X150000000Y-88500000D03*
X148797923Y-88562998D03*
X147609016Y-88751303D03*
X145322529Y-89494227D03*
X144250000Y-90040708D03*
X143240470Y-90696305D03*
X142304998Y-91453835D03*
X140696305Y-93240470D03*
X140040708Y-94250000D03*
X139494227Y-95322529D03*
X139062850Y-96446305D03*
X142200000Y-101000000D03*
X142800000Y-101000000D03*
X142800000Y-101800000D03*
X142200000Y-101800000D03*
X142200000Y-102600000D03*
X142800000Y-102600000D03*
X149750000Y-107000000D03*
X141450000Y-92300000D03*
X144000000Y-103800000D03*
X153800000Y-92350000D03*
X157000000Y-98750000D03*
X153400000Y-102800000D03*
X146450000Y-89050000D03*
X148200000Y-97600000D03*
X150020000Y-102630000D03*
X151450000Y-97500000D03*
X157000000Y-99800000D03*
X146100000Y-97050000D03*
X146800000Y-94200000D03*
X146200000Y-91400000D03*
X147000000Y-105000000D03*
X144800000Y-95800000D03*
X146600000Y-99000000D03*
X141000000Y-100250000D03*
X143000000Y-93800000D03*
D18*
X138887200Y-109677200D02*
X137363200Y-111201200D01*
X138887200Y-107442000D02*
X138887200Y-109677200D01*
X141079200Y-105250000D02*
X138887200Y-107442000D01*
X137363200Y-111201200D02*
X132994400Y-111201200D01*
X132994400Y-111201200D02*
X131521200Y-109728000D01*
X131521200Y-109728000D02*
X131521200Y-96367600D01*
X131521200Y-96367600D02*
X131724400Y-96164400D01*
X141250000Y-105250000D02*
X141079200Y-105250000D01*
X134010400Y-93385600D02*
X134010400Y-94234000D01*
X141250000Y-105186002D02*
X141250000Y-105250000D01*
X143500000Y-99100000D02*
X143500001Y-102936001D01*
X143500001Y-102936001D02*
X141250000Y-105186002D01*
D19*
X148796051Y-91203949D02*
X149000000Y-91000000D01*
D18*
X150000000Y-101290000D02*
X150020000Y-101270000D01*
X153750000Y-91250000D02*
X152299999Y-89799999D01*
X146434316Y-89799999D02*
X143000000Y-93234315D01*
X152299999Y-89799999D02*
X146434316Y-89799999D01*
X141037500Y-100387500D02*
X141100000Y-100450000D01*
X141000000Y-100250000D02*
X142200000Y-99050000D01*
X143000000Y-93234315D02*
X143000000Y-93800000D01*
X142200000Y-99050000D02*
X142200000Y-94600000D01*
X143050000Y-93750000D02*
X143000000Y-93800000D01*
X142200000Y-94600000D02*
X143000000Y-93800000D01*
%TA.AperFunction,Conductor*%
G36*
X150615639Y-90120501D02*
G01*
X150636613Y-90137403D01*
X151213003Y-90713792D01*
X151138595Y-90725577D01*
X151020053Y-90785978D01*
X150925978Y-90880053D01*
X150865577Y-90998595D01*
X150854062Y-91071297D01*
X150843884Y-91063095D01*
X150310110Y-90529320D01*
X150310109Y-90529320D01*
X150306847Y-90533639D01*
X150213664Y-90720777D01*
X150156456Y-90921844D01*
X150150546Y-90985626D01*
X150124344Y-91051611D01*
X150066627Y-91092954D01*
X150025084Y-91100000D01*
X149974916Y-91100000D01*
X149906795Y-91079998D01*
X149860302Y-91026342D01*
X149849454Y-90985626D01*
X149843543Y-90921844D01*
X149786333Y-90720772D01*
X149693153Y-90533642D01*
X149689888Y-90529320D01*
X149156115Y-91063095D01*
X149145552Y-91068862D01*
X149134423Y-90998595D01*
X149074022Y-90880053D01*
X148979947Y-90785978D01*
X148861405Y-90725577D01*
X148786997Y-90713792D01*
X149363385Y-90137404D01*
X149425698Y-90103379D01*
X149452481Y-90100499D01*
X150547518Y-90100499D01*
X150615639Y-90120501D01*
G37*
%TD.AperFunction*%
%TA.AperFunction,Conductor*%
G36*
X150499061Y-75030537D02*
G01*
X151486366Y-75069819D01*
X151491308Y-75070114D01*
X152476355Y-75148624D01*
X152481300Y-75149118D01*
X153462372Y-75266719D01*
X153467308Y-75267411D01*
X154442939Y-75423924D01*
X154447864Y-75424816D01*
X154712412Y-75478121D01*
X155416497Y-75619993D01*
X155421348Y-75621071D01*
X156381461Y-75854604D01*
X156386273Y-75855876D01*
X157336389Y-76127409D01*
X157341143Y-76128871D01*
X158279659Y-76437945D01*
X158284333Y-76439588D01*
X159073151Y-76734614D01*
X159209842Y-76785738D01*
X159214496Y-76787585D01*
X160125506Y-77170253D01*
X160130042Y-77172266D01*
X160920036Y-77541709D01*
X161025107Y-77590846D01*
X161029602Y-77593058D01*
X161907315Y-78046890D01*
X161911719Y-78049280D01*
X162770652Y-78537624D01*
X162774952Y-78540182D01*
X163613874Y-79062339D01*
X163618023Y-79065038D01*
X164435505Y-79620122D01*
X164439548Y-79622986D01*
X165234329Y-80210143D01*
X165238262Y-80213172D01*
X166009053Y-80831447D01*
X166012885Y-80834649D01*
X166758444Y-81483042D01*
X166762159Y-81486404D01*
X167481382Y-82163957D01*
X167484960Y-82167465D01*
X168176663Y-82873060D01*
X168180098Y-82876707D01*
X168843184Y-83609223D01*
X168846472Y-83613003D01*
X169479931Y-84371327D01*
X169483066Y-84375235D01*
X170085878Y-85158144D01*
X170088855Y-85162174D01*
X170660050Y-85968411D01*
X170662865Y-85972556D01*
X171201565Y-86800879D01*
X171204213Y-86805133D01*
X171709564Y-87654231D01*
X171712040Y-87658587D01*
X172183218Y-88527076D01*
X172185519Y-88531526D01*
X172611247Y-89396623D01*
X172621801Y-89418068D01*
X172623920Y-89422600D01*
X172681562Y-89552528D01*
X173024621Y-90325810D01*
X173026561Y-90330429D01*
X173391030Y-91248838D01*
X173392785Y-91253531D01*
X173720453Y-92185702D01*
X173722020Y-92190461D01*
X174012365Y-93134909D01*
X174013742Y-93139726D01*
X174266317Y-94095000D01*
X174267501Y-94099869D01*
X174481890Y-95064395D01*
X174482880Y-95069306D01*
X174658757Y-96041613D01*
X174659551Y-96046560D01*
X174796636Y-97025107D01*
X174797232Y-97030082D01*
X174895303Y-98013281D01*
X174895701Y-98018276D01*
X174954605Y-99004604D01*
X174954804Y-99009610D01*
X174974450Y-99997494D01*
X174974450Y-100002504D01*
X174954804Y-100990389D01*
X174954605Y-100995395D01*
X174895701Y-101981723D01*
X174895303Y-101986718D01*
X174797232Y-102969917D01*
X174796636Y-102974892D01*
X174659551Y-103953439D01*
X174658757Y-103958386D01*
X174482880Y-104930693D01*
X174481890Y-104935604D01*
X174267501Y-105900130D01*
X174266317Y-105904999D01*
X174013742Y-106860273D01*
X174012365Y-106865090D01*
X173722020Y-107809538D01*
X173720453Y-107814297D01*
X173392785Y-108746468D01*
X173391030Y-108751161D01*
X173026561Y-109669570D01*
X173024621Y-109674189D01*
X172623924Y-110577392D01*
X172621801Y-110581931D01*
X172185519Y-111468473D01*
X172183218Y-111472923D01*
X171712040Y-112341412D01*
X171709564Y-112345768D01*
X171204213Y-113194866D01*
X171201565Y-113199120D01*
X170662865Y-114027443D01*
X170660050Y-114031588D01*
X170088855Y-114837825D01*
X170085878Y-114841855D01*
X169483066Y-115624764D01*
X169479931Y-115628672D01*
X168846472Y-116386996D01*
X168843184Y-116390776D01*
X168180098Y-117123292D01*
X168176663Y-117126939D01*
X167484960Y-117832534D01*
X167481382Y-117836042D01*
X166762159Y-118513595D01*
X166758444Y-118516957D01*
X166012885Y-119165350D01*
X166009040Y-119168562D01*
X165238280Y-119786813D01*
X165234310Y-119789870D01*
X164439570Y-120376997D01*
X164435482Y-120379893D01*
X163618049Y-120934944D01*
X163613849Y-120937676D01*
X162774958Y-121459813D01*
X162770652Y-121462375D01*
X161911719Y-121950719D01*
X161907315Y-121953109D01*
X161029602Y-122406941D01*
X161025107Y-122409153D01*
X160130064Y-122827723D01*
X160125484Y-122829755D01*
X159214499Y-123212413D01*
X159209842Y-123214261D01*
X158284359Y-123560402D01*
X158279632Y-123562063D01*
X157341161Y-123871122D01*
X157336372Y-123872595D01*
X156386289Y-124144119D01*
X156381445Y-124145399D01*
X155421373Y-124378922D01*
X155416482Y-124380009D01*
X154447864Y-124575183D01*
X154442934Y-124576075D01*
X153467321Y-124732586D01*
X153462359Y-124733281D01*
X152481320Y-124850879D01*
X152476335Y-124851377D01*
X151491337Y-124929883D01*
X151486335Y-124930181D01*
X150499061Y-124969463D01*
X150494052Y-124969563D01*
X149505948Y-124969563D01*
X149500939Y-124969463D01*
X148513664Y-124930181D01*
X148508662Y-124929883D01*
X147523664Y-124851377D01*
X147518679Y-124850879D01*
X146537640Y-124733281D01*
X146532678Y-124732586D01*
X145557065Y-124576075D01*
X145552135Y-124575183D01*
X144583517Y-124380009D01*
X144578626Y-124378922D01*
X143618554Y-124145399D01*
X143613710Y-124144119D01*
X142663627Y-123872595D01*
X142658838Y-123871122D01*
X141720367Y-123562063D01*
X141715640Y-123560402D01*
X140790157Y-123214261D01*
X140785500Y-123212413D01*
X139874515Y-122829755D01*
X139869935Y-122827723D01*
X138974892Y-122409153D01*
X138970397Y-122406941D01*
X138092684Y-121953109D01*
X138088280Y-121950719D01*
X137229347Y-121462375D01*
X137225041Y-121459813D01*
X136903970Y-121259974D01*
X136386137Y-120937667D01*
X136381963Y-120934952D01*
X135564504Y-120379884D01*
X135560442Y-120377006D01*
X134765678Y-119789861D01*
X134761719Y-119786813D01*
X133990959Y-119168562D01*
X133987114Y-119165350D01*
X133241555Y-118516957D01*
X133237840Y-118513595D01*
X132518617Y-117836042D01*
X132515039Y-117832534D01*
X131823336Y-117126939D01*
X131819901Y-117123292D01*
X131156815Y-116390776D01*
X131153527Y-116386996D01*
X130520068Y-115628672D01*
X130516933Y-115624764D01*
X130404569Y-115478831D01*
X129914113Y-114841845D01*
X129911144Y-114837825D01*
X129339949Y-114031588D01*
X129337134Y-114027443D01*
X128798434Y-113199120D01*
X128795786Y-113194866D01*
X128794961Y-113193480D01*
X128290417Y-112345736D01*
X128287977Y-112341444D01*
X127816777Y-111472915D01*
X127814480Y-111468473D01*
X127812346Y-111464137D01*
X127378184Y-110581901D01*
X127376089Y-110577422D01*
X127058265Y-109861024D01*
X126975378Y-109674189D01*
X126973438Y-109669570D01*
X126608969Y-108751161D01*
X126607214Y-108746468D01*
X126279546Y-107814297D01*
X126277979Y-107809538D01*
X126191909Y-107529565D01*
X125987624Y-106865055D01*
X125986266Y-106860307D01*
X125733675Y-105904974D01*
X125732504Y-105900155D01*
X125518109Y-104935604D01*
X125517119Y-104930693D01*
X125342398Y-103964774D01*
X125341236Y-103958352D01*
X125340453Y-103953473D01*
X125203361Y-102974877D01*
X125202767Y-102969917D01*
X125104694Y-101986699D01*
X125104298Y-101981723D01*
X125083369Y-101631278D01*
X125045393Y-100995391D01*
X125045195Y-100990389D01*
X125035138Y-100484680D01*
X125025549Y-100002464D01*
X125025549Y-99997535D01*
X125045195Y-99009604D01*
X125045394Y-99004604D01*
X125045820Y-98997466D01*
X125104299Y-98018253D01*
X125104696Y-98013281D01*
X125115853Y-97901436D01*
X125202769Y-97030060D01*
X125203363Y-97025107D01*
X125323940Y-96164400D01*
X131169150Y-96164400D01*
X131188069Y-96308107D01*
X131188070Y-96308109D01*
X131211109Y-96363733D01*
X131220700Y-96411948D01*
X131220700Y-109658430D01*
X131217944Y-109675321D01*
X131220566Y-109732036D01*
X131220700Y-109737853D01*
X131220700Y-109756903D01*
X131222386Y-109771444D01*
X131223613Y-109797991D01*
X131226320Y-109804121D01*
X131234907Y-109831850D01*
X131236137Y-109838432D01*
X131250125Y-109861024D01*
X131258259Y-109876454D01*
X131268994Y-109900765D01*
X131273725Y-109905496D01*
X131291755Y-109928258D01*
X131295280Y-109933951D01*
X131316486Y-109949965D01*
X131329650Y-109961421D01*
X132732719Y-111364490D01*
X132742717Y-111378386D01*
X132784682Y-111416642D01*
X132788871Y-111420642D01*
X132801603Y-111433374D01*
X132801606Y-111433376D01*
X132802348Y-111434118D01*
X132813827Y-111443212D01*
X132833467Y-111461116D01*
X132839709Y-111463534D01*
X132865402Y-111477077D01*
X132870919Y-111480856D01*
X132896782Y-111486938D01*
X132913432Y-111492093D01*
X132938227Y-111501700D01*
X132944919Y-111501700D01*
X132973767Y-111505046D01*
X132980281Y-111506579D01*
X133006596Y-111502907D01*
X133024004Y-111501700D01*
X137293630Y-111501700D01*
X137310521Y-111504455D01*
X137320963Y-111503972D01*
X137320965Y-111503973D01*
X137364982Y-111501938D01*
X137367237Y-111501834D01*
X137373054Y-111501700D01*
X137392104Y-111501700D01*
X137406642Y-111500011D01*
X137433192Y-111498785D01*
X137439318Y-111496079D01*
X137467057Y-111487490D01*
X137473633Y-111486261D01*
X137496226Y-111472271D01*
X137511654Y-111464140D01*
X137535965Y-111453406D01*
X137540695Y-111448675D01*
X137563463Y-111430641D01*
X137569152Y-111427119D01*
X137585173Y-111405902D01*
X137596615Y-111392754D01*
X139050488Y-109938881D01*
X139064380Y-109928887D01*
X139071424Y-109921159D01*
X139071428Y-109921158D01*
X139102666Y-109886889D01*
X139106622Y-109882747D01*
X139119374Y-109869997D01*
X139119378Y-109869990D01*
X139120125Y-109869244D01*
X139129211Y-109857772D01*
X139147116Y-109838133D01*
X139149533Y-109831891D01*
X139163075Y-109806199D01*
X139166856Y-109800681D01*
X139172939Y-109774814D01*
X139178100Y-109758151D01*
X139187700Y-109733373D01*
X139187700Y-109726680D01*
X139191047Y-109697832D01*
X139192049Y-109693571D01*
X139192579Y-109691319D01*
X139188908Y-109665003D01*
X139187700Y-109647595D01*
X139187700Y-108800000D01*
X144894722Y-108800000D01*
X144913762Y-108956816D01*
X144969779Y-109104522D01*
X145059516Y-109234529D01*
X145177761Y-109339284D01*
X145317631Y-109412694D01*
X145317635Y-109412696D01*
X145471015Y-109450500D01*
X145628983Y-109450500D01*
X145628985Y-109450500D01*
X145782365Y-109412696D01*
X145922240Y-109339283D01*
X146040483Y-109234530D01*
X146130220Y-109104523D01*
X146186237Y-108956818D01*
X146205278Y-108800000D01*
X146186237Y-108643182D01*
X146130220Y-108495477D01*
X146040483Y-108365470D01*
X145922238Y-108260715D01*
X145782368Y-108187305D01*
X145782365Y-108187304D01*
X145628985Y-108149500D01*
X145628983Y-108149500D01*
X145471017Y-108149500D01*
X145471015Y-108149500D01*
X145317635Y-108187304D01*
X145317631Y-108187305D01*
X145177761Y-108260715D01*
X145059516Y-108365470D01*
X144969779Y-108495477D01*
X144913762Y-108643183D01*
X144894722Y-108800000D01*
X139187700Y-108800000D01*
X139187700Y-107618660D01*
X139207702Y-107550539D01*
X139224600Y-107529570D01*
X140948861Y-105805308D01*
X141011171Y-105771285D01*
X141081986Y-105776349D01*
X141086127Y-105777977D01*
X141106291Y-105786330D01*
X141250000Y-105805250D01*
X141393709Y-105786330D01*
X141430031Y-105771285D01*
X141527623Y-105730862D01*
X141527623Y-105730861D01*
X141527625Y-105730861D01*
X141642621Y-105642621D01*
X141730861Y-105527625D01*
X141786330Y-105393709D01*
X141805250Y-105250000D01*
X141790758Y-105139926D01*
X141801697Y-105069779D01*
X141826582Y-105034389D01*
X143663289Y-103197682D01*
X143677181Y-103187688D01*
X143684225Y-103179960D01*
X143684229Y-103179959D01*
X143715467Y-103145690D01*
X143719423Y-103141548D01*
X143732175Y-103128798D01*
X143732179Y-103128791D01*
X143732926Y-103128045D01*
X143742012Y-103116573D01*
X143759917Y-103096934D01*
X143762334Y-103090694D01*
X143764467Y-103086647D01*
X164226563Y-103086647D01*
X164239204Y-103094590D01*
X164411062Y-103154726D01*
X164592000Y-103175112D01*
X164772937Y-103154726D01*
X164944797Y-103094589D01*
X164957435Y-103086647D01*
X164957436Y-103086646D01*
X164592000Y-102721210D01*
X164591999Y-102721210D01*
X164226563Y-103086645D01*
X164226563Y-103086647D01*
X143764467Y-103086647D01*
X143775879Y-103064998D01*
X143779658Y-103059482D01*
X143785743Y-103033606D01*
X143790904Y-103016945D01*
X143800501Y-102992174D01*
X143800500Y-102985485D01*
X143803849Y-102956626D01*
X143805380Y-102950120D01*
X143801708Y-102923808D01*
X143800500Y-102906397D01*
X143800500Y-102361999D01*
X163778887Y-102361999D01*
X163799273Y-102542935D01*
X163859410Y-102714795D01*
X163867352Y-102727436D01*
X164187140Y-102407649D01*
X164392000Y-102407649D01*
X164431613Y-102489905D01*
X164502992Y-102546827D01*
X164569468Y-102562000D01*
X164614532Y-102562000D01*
X164681008Y-102546827D01*
X164752387Y-102489905D01*
X164792000Y-102407649D01*
X164792000Y-102361999D01*
X164951210Y-102361999D01*
X165316646Y-102727436D01*
X165316647Y-102727435D01*
X165324589Y-102714797D01*
X165384726Y-102542937D01*
X165405112Y-102361999D01*
X165384726Y-102181062D01*
X165324590Y-102009204D01*
X165316647Y-101996563D01*
X165316645Y-101996563D01*
X164951210Y-102361999D01*
X164792000Y-102361999D01*
X164792000Y-102316351D01*
X164752387Y-102234095D01*
X164681008Y-102177173D01*
X164614532Y-102162000D01*
X164569468Y-102162000D01*
X164502992Y-102177173D01*
X164431613Y-102234095D01*
X164392000Y-102316351D01*
X164392000Y-102407649D01*
X164187140Y-102407649D01*
X164232789Y-102362000D01*
X164232789Y-102361999D01*
X163867352Y-101996563D01*
X163859409Y-102009205D01*
X163799273Y-102181062D01*
X163778887Y-102361999D01*
X143800500Y-102361999D01*
X143800500Y-99625443D01*
X143820502Y-99557322D01*
X143849793Y-99525483D01*
X143892621Y-99492621D01*
X143980861Y-99377625D01*
X143991703Y-99351451D01*
X144036330Y-99243709D01*
X144041467Y-99204691D01*
X144055250Y-99100000D01*
X144036330Y-98956291D01*
X144030186Y-98941458D01*
X143980862Y-98822376D01*
X143926949Y-98752116D01*
X143892621Y-98707379D01*
X143803652Y-98639110D01*
X143777623Y-98619137D01*
X143643709Y-98563669D01*
X143516717Y-98546951D01*
X143500000Y-98544750D01*
X143499999Y-98544750D01*
X143356290Y-98563669D01*
X143222376Y-98619137D01*
X143107379Y-98707379D01*
X143019137Y-98822376D01*
X142963669Y-98956290D01*
X142944750Y-99100000D01*
X142963669Y-99243709D01*
X143019137Y-99377623D01*
X143019139Y-99377625D01*
X143107379Y-99492621D01*
X143150204Y-99525482D01*
X143192071Y-99582817D01*
X143199500Y-99625443D01*
X143199500Y-102759340D01*
X143179498Y-102827461D01*
X143162595Y-102848435D01*
X141352506Y-104658523D01*
X141290194Y-104692549D01*
X141255841Y-104693981D01*
X141106290Y-104713669D01*
X140972376Y-104769137D01*
X140857379Y-104857379D01*
X140769138Y-104972375D01*
X140713669Y-105106290D01*
X140706475Y-105160933D01*
X140677751Y-105225859D01*
X140670648Y-105233579D01*
X138723905Y-107180322D01*
X138710011Y-107190320D01*
X138671753Y-107232285D01*
X138667741Y-107236487D01*
X138654279Y-107249949D01*
X138645191Y-107261422D01*
X138627283Y-107281066D01*
X138624862Y-107287316D01*
X138611326Y-107312996D01*
X138607543Y-107318519D01*
X138601459Y-107344383D01*
X138596300Y-107361045D01*
X138586700Y-107385827D01*
X138586700Y-107392518D01*
X138583353Y-107421366D01*
X138581820Y-107427879D01*
X138585492Y-107454196D01*
X138586700Y-107471604D01*
X138586700Y-109500538D01*
X138566698Y-109568659D01*
X138549795Y-109589633D01*
X137275634Y-110863795D01*
X137213322Y-110897820D01*
X137186539Y-110900700D01*
X133171062Y-110900700D01*
X133102941Y-110880698D01*
X133081967Y-110863795D01*
X131858604Y-109640432D01*
X131824578Y-109578120D01*
X131821699Y-109551337D01*
X131821699Y-109219999D01*
X132877567Y-109219999D01*
X132896856Y-109428155D01*
X132954066Y-109629227D01*
X133047244Y-109816354D01*
X133050511Y-109820678D01*
X133594192Y-109276997D01*
X133605977Y-109351405D01*
X133666378Y-109469947D01*
X133760453Y-109564022D01*
X133878995Y-109624423D01*
X133953402Y-109636207D01*
X133412867Y-110176741D01*
X133505454Y-110234070D01*
X133700385Y-110309586D01*
X133905877Y-110348000D01*
X134114923Y-110348000D01*
X134320414Y-110309586D01*
X134515349Y-110234068D01*
X134607931Y-110176742D01*
X134067397Y-109636207D01*
X134141805Y-109624423D01*
X134260347Y-109564022D01*
X134354422Y-109469947D01*
X134414823Y-109351405D01*
X134426607Y-109276997D01*
X134970287Y-109820678D01*
X134970289Y-109820678D01*
X134973550Y-109816361D01*
X135066735Y-109629222D01*
X135123943Y-109428155D01*
X135143232Y-109219999D01*
X135123943Y-109011846D01*
X135085975Y-108878402D01*
X135086571Y-108807408D01*
X135125455Y-108748006D01*
X135190281Y-108719056D01*
X135221264Y-108718712D01*
X135280400Y-108725375D01*
X135339530Y-108718712D01*
X135409458Y-108730961D01*
X135461666Y-108779073D01*
X135479575Y-108847774D01*
X135474824Y-108878401D01*
X135436856Y-109011844D01*
X135417567Y-109220000D01*
X135436856Y-109428155D01*
X135494066Y-109629227D01*
X135587244Y-109816354D01*
X135590511Y-109820678D01*
X136134192Y-109276997D01*
X136145977Y-109351405D01*
X136206378Y-109469947D01*
X136300453Y-109564022D01*
X136418995Y-109624423D01*
X136493402Y-109636207D01*
X135952867Y-110176741D01*
X136045454Y-110234070D01*
X136240385Y-110309586D01*
X136445877Y-110348000D01*
X136654923Y-110348000D01*
X136860414Y-110309586D01*
X137055349Y-110234068D01*
X137147931Y-110176742D01*
X136607397Y-109636207D01*
X136681805Y-109624423D01*
X136800347Y-109564022D01*
X136894422Y-109469947D01*
X136954823Y-109351405D01*
X136966607Y-109276996D01*
X137510288Y-109820678D01*
X137510289Y-109820678D01*
X137513550Y-109816361D01*
X137606735Y-109629222D01*
X137663943Y-109428155D01*
X137683232Y-109220000D01*
X137663943Y-109011844D01*
X137606733Y-108810772D01*
X137513553Y-108623642D01*
X137510288Y-108619319D01*
X136966607Y-109163000D01*
X136954823Y-109088595D01*
X136894422Y-108970053D01*
X136800347Y-108875978D01*
X136681805Y-108815577D01*
X136607398Y-108803792D01*
X137147932Y-108263256D01*
X137055348Y-108205930D01*
X136860414Y-108130413D01*
X136654923Y-108092000D01*
X136445877Y-108092000D01*
X136240382Y-108130414D01*
X136220112Y-108138267D01*
X136149366Y-108144223D01*
X136086630Y-108110985D01*
X136051823Y-108049106D01*
X136049389Y-108006673D01*
X136055775Y-107950000D01*
X136049389Y-107893328D01*
X136061638Y-107823400D01*
X136109750Y-107771192D01*
X136178451Y-107753283D01*
X136220115Y-107761733D01*
X136240385Y-107769586D01*
X136445877Y-107808000D01*
X136654923Y-107808000D01*
X136860414Y-107769586D01*
X137055349Y-107694068D01*
X137147931Y-107636742D01*
X137147931Y-107636741D01*
X136607397Y-107096207D01*
X136681805Y-107084423D01*
X136800347Y-107024022D01*
X136894422Y-106929947D01*
X136954823Y-106811405D01*
X136966607Y-106736998D01*
X137510287Y-107280678D01*
X137510289Y-107280678D01*
X137513550Y-107276361D01*
X137606735Y-107089222D01*
X137663943Y-106888155D01*
X137683232Y-106680000D01*
X137663943Y-106471844D01*
X137606733Y-106270772D01*
X137513553Y-106083642D01*
X137510288Y-106079320D01*
X136966607Y-106623001D01*
X136954823Y-106548595D01*
X136894422Y-106430053D01*
X136800347Y-106335978D01*
X136681805Y-106275577D01*
X136607397Y-106263792D01*
X137147932Y-105723256D01*
X137055348Y-105665930D01*
X136860414Y-105590413D01*
X136654923Y-105552000D01*
X136445877Y-105552000D01*
X136240385Y-105590413D01*
X136045451Y-105665930D01*
X135952866Y-105723257D01*
X136493401Y-106263792D01*
X136418995Y-106275577D01*
X136300453Y-106335978D01*
X136206378Y-106430053D01*
X136145977Y-106548595D01*
X136134192Y-106623001D01*
X135590511Y-106079320D01*
X135590509Y-106079320D01*
X135587247Y-106083639D01*
X135494064Y-106270777D01*
X135436856Y-106471844D01*
X135417567Y-106680000D01*
X135436856Y-106888155D01*
X135474824Y-107021598D01*
X135474228Y-107092592D01*
X135435344Y-107151993D01*
X135370517Y-107180943D01*
X135339527Y-107181286D01*
X135280400Y-107174625D01*
X135221272Y-107181286D01*
X135151341Y-107169037D01*
X135099133Y-107120924D01*
X135081225Y-107052223D01*
X135085976Y-107021598D01*
X135123943Y-106888155D01*
X135143232Y-106679999D01*
X135123943Y-106471844D01*
X135066733Y-106270772D01*
X134973553Y-106083642D01*
X134970288Y-106079319D01*
X134426607Y-106623000D01*
X134414823Y-106548595D01*
X134354422Y-106430053D01*
X134260347Y-106335978D01*
X134141805Y-106275577D01*
X134067397Y-106263792D01*
X134607932Y-105723256D01*
X134515348Y-105665930D01*
X134320414Y-105590413D01*
X134114923Y-105552000D01*
X133905877Y-105552000D01*
X133700385Y-105590413D01*
X133505451Y-105665930D01*
X133412866Y-105723257D01*
X133953401Y-106263792D01*
X133878995Y-106275577D01*
X133760453Y-106335978D01*
X133666378Y-106430053D01*
X133605977Y-106548595D01*
X133594192Y-106623001D01*
X133050511Y-106079320D01*
X133050509Y-106079320D01*
X133047247Y-106083639D01*
X132954064Y-106270777D01*
X132896856Y-106471844D01*
X132877567Y-106679999D01*
X132896856Y-106888155D01*
X132954066Y-107089227D01*
X133047244Y-107276354D01*
X133050510Y-107280678D01*
X133594192Y-106736996D01*
X133605977Y-106811405D01*
X133666378Y-106929947D01*
X133760453Y-107024022D01*
X133878995Y-107084423D01*
X133953401Y-107096207D01*
X133412867Y-107636741D01*
X133412866Y-107636741D01*
X133505454Y-107694070D01*
X133700385Y-107769586D01*
X133905877Y-107808000D01*
X134114923Y-107808000D01*
X134320414Y-107769586D01*
X134340682Y-107761734D01*
X134411429Y-107755775D01*
X134474165Y-107789011D01*
X134508975Y-107850888D01*
X134511410Y-107893331D01*
X134505025Y-107949999D01*
X134511410Y-108006668D01*
X134499160Y-108076600D01*
X134451047Y-108128808D01*
X134382346Y-108146716D01*
X134340686Y-108138267D01*
X134320414Y-108130413D01*
X134114923Y-108092000D01*
X133905877Y-108092000D01*
X133700385Y-108130413D01*
X133505451Y-108205930D01*
X133412867Y-108263257D01*
X133953403Y-108803792D01*
X133878995Y-108815577D01*
X133760453Y-108875978D01*
X133666378Y-108970053D01*
X133605977Y-109088595D01*
X133594192Y-109163001D01*
X133050510Y-108619320D01*
X133050509Y-108619320D01*
X133047247Y-108623639D01*
X132954064Y-108810777D01*
X132896856Y-109011844D01*
X132877567Y-109219999D01*
X131821699Y-109219999D01*
X131821699Y-103175112D01*
X131821699Y-100249999D01*
X140444750Y-100249999D01*
X140463669Y-100393709D01*
X140519137Y-100527623D01*
X140519139Y-100527625D01*
X140607379Y-100642621D01*
X140700670Y-100714206D01*
X140722376Y-100730862D01*
X140856290Y-100786330D01*
X140873008Y-100788531D01*
X141000000Y-100805250D01*
X141143709Y-100786330D01*
X141277625Y-100730861D01*
X141392621Y-100642621D01*
X141480861Y-100527625D01*
X141492304Y-100500000D01*
X141536330Y-100393709D01*
X141536329Y-100393709D01*
X141555250Y-100250000D01*
X141548203Y-100196478D01*
X141559142Y-100126333D01*
X141584027Y-100090942D01*
X142363288Y-99311681D01*
X142377180Y-99301687D01*
X142384224Y-99293959D01*
X142384228Y-99293958D01*
X142415466Y-99259689D01*
X142419422Y-99255547D01*
X142432174Y-99242797D01*
X142432178Y-99242790D01*
X142432925Y-99242044D01*
X142442011Y-99230572D01*
X142459916Y-99210933D01*
X142462333Y-99204691D01*
X142475875Y-99178999D01*
X142479656Y-99173481D01*
X142485739Y-99147614D01*
X142490900Y-99130951D01*
X142500500Y-99106173D01*
X142500500Y-99099480D01*
X142503847Y-99070631D01*
X142505379Y-99064119D01*
X142501708Y-99037802D01*
X142500500Y-99020395D01*
X142500500Y-98000000D01*
X147000000Y-98000000D01*
X147000000Y-102000000D01*
X149275505Y-102000000D01*
X149343626Y-102020002D01*
X149355438Y-102028601D01*
X149457272Y-102112174D01*
X149632387Y-102205775D01*
X149766000Y-102246305D01*
X149766000Y-102126000D01*
X149786002Y-102057879D01*
X149839658Y-102011386D01*
X149892000Y-102000000D01*
X150148000Y-102000000D01*
X150216121Y-102020002D01*
X150262614Y-102073658D01*
X150274000Y-102126000D01*
X150274000Y-102246305D01*
X150407612Y-102205775D01*
X150582727Y-102112174D01*
X150684562Y-102028601D01*
X150749909Y-102000847D01*
X150764495Y-102000000D01*
X153000000Y-102000000D01*
X153000000Y-101637352D01*
X164226563Y-101637352D01*
X164591999Y-102002789D01*
X164592000Y-102002789D01*
X164957436Y-101637352D01*
X164944795Y-101629410D01*
X164772935Y-101569273D01*
X164592000Y-101548887D01*
X164411062Y-101569273D01*
X164239205Y-101629409D01*
X164226563Y-101637352D01*
X153000000Y-101637352D01*
X153000000Y-100254000D01*
X167573455Y-100254000D01*
X167621177Y-100442451D01*
X167711580Y-100648548D01*
X167834678Y-100836962D01*
X167987096Y-101002533D01*
X168164697Y-101140766D01*
X168362631Y-101247883D01*
X168497918Y-101294327D01*
X168555853Y-101335364D01*
X168582405Y-101401209D01*
X168569144Y-101470956D01*
X168520279Y-101522461D01*
X168457006Y-101539500D01*
X168045181Y-101539500D01*
X168045180Y-101539500D01*
X168034204Y-101541683D01*
X168001275Y-101548233D01*
X167951495Y-101581495D01*
X167918233Y-101631275D01*
X167909500Y-101675181D01*
X167909500Y-103404818D01*
X167918233Y-103448724D01*
X167951495Y-103498504D01*
X168001275Y-103531766D01*
X168001277Y-103531766D01*
X168001278Y-103531767D01*
X168045180Y-103540500D01*
X169774819Y-103540500D01*
X169774820Y-103540500D01*
X169818722Y-103531767D01*
X169818723Y-103531766D01*
X169818724Y-103531766D01*
X169868504Y-103498504D01*
X169901766Y-103448724D01*
X169901766Y-103448723D01*
X169901767Y-103448722D01*
X169910500Y-103404820D01*
X169910500Y-101675180D01*
X169901767Y-101631278D01*
X169901766Y-101631277D01*
X169901766Y-101631275D01*
X169868504Y-101581495D01*
X169818724Y-101548233D01*
X169789453Y-101542410D01*
X169774820Y-101539500D01*
X169774819Y-101539500D01*
X169362994Y-101539500D01*
X169294873Y-101519498D01*
X169248380Y-101465842D01*
X169238276Y-101395568D01*
X169267770Y-101330988D01*
X169322082Y-101294327D01*
X169457368Y-101247883D01*
X169655302Y-101140766D01*
X169832903Y-101002533D01*
X169985321Y-100836962D01*
X170108419Y-100648548D01*
X170198822Y-100442451D01*
X170246544Y-100254000D01*
X169341116Y-100254000D01*
X169369493Y-100209844D01*
X169410000Y-100071889D01*
X169410000Y-99928111D01*
X169369493Y-99790156D01*
X169341116Y-99746000D01*
X170246544Y-99746000D01*
X170246544Y-99745999D01*
X170198822Y-99557548D01*
X170108419Y-99351451D01*
X169985321Y-99163037D01*
X169832903Y-98997466D01*
X169655302Y-98859233D01*
X169457368Y-98752116D01*
X169244508Y-98679041D01*
X169190630Y-98670051D01*
X169126730Y-98639110D01*
X169089703Y-98578533D01*
X169091304Y-98507555D01*
X169131025Y-98448709D01*
X169174789Y-98425196D01*
X169294727Y-98388814D01*
X169468538Y-98295910D01*
X169620883Y-98170883D01*
X169745910Y-98018538D01*
X169838814Y-97844727D01*
X169896024Y-97656132D01*
X169915341Y-97460000D01*
X169896024Y-97263868D01*
X169838814Y-97075273D01*
X169745910Y-96901462D01*
X169745909Y-96901461D01*
X169620883Y-96749116D01*
X169468537Y-96624089D01*
X169294725Y-96531185D01*
X169106132Y-96473975D01*
X168910000Y-96454658D01*
X168713867Y-96473975D01*
X168525274Y-96531185D01*
X168351462Y-96624089D01*
X168199116Y-96749116D01*
X168074089Y-96901462D01*
X167981185Y-97075274D01*
X167923975Y-97263867D01*
X167904658Y-97460000D01*
X167923975Y-97656132D01*
X167981185Y-97844725D01*
X168074089Y-98018537D01*
X168199116Y-98170883D01*
X168351462Y-98295910D01*
X168525273Y-98388814D01*
X168569952Y-98402367D01*
X168645206Y-98425196D01*
X168704587Y-98464111D01*
X168733503Y-98528952D01*
X168722772Y-98599133D01*
X168675802Y-98652372D01*
X168629370Y-98670051D01*
X168575490Y-98679042D01*
X168362631Y-98752116D01*
X168164697Y-98859233D01*
X167987096Y-98997466D01*
X167834678Y-99163037D01*
X167711580Y-99351451D01*
X167621177Y-99557548D01*
X167573455Y-99745999D01*
X167573456Y-99746000D01*
X168478884Y-99746000D01*
X168450507Y-99790156D01*
X168410000Y-99928111D01*
X168410000Y-100071889D01*
X168450507Y-100209844D01*
X168478884Y-100254000D01*
X167573455Y-100254000D01*
X153000000Y-100254000D01*
X153000000Y-98260647D01*
X164226563Y-98260647D01*
X164239204Y-98268590D01*
X164411062Y-98328726D01*
X164592000Y-98349112D01*
X164772937Y-98328726D01*
X164944797Y-98268589D01*
X164957435Y-98260647D01*
X164957436Y-98260646D01*
X164592000Y-97895210D01*
X164591999Y-97895210D01*
X164226563Y-98260645D01*
X164226563Y-98260647D01*
X153000000Y-98260647D01*
X153000000Y-98000000D01*
X147000000Y-98000000D01*
X142500500Y-98000000D01*
X142500500Y-97536000D01*
X163778887Y-97536000D01*
X163799273Y-97716935D01*
X163859410Y-97888795D01*
X163867352Y-97901436D01*
X164187140Y-97581649D01*
X164392000Y-97581649D01*
X164431613Y-97663905D01*
X164502992Y-97720827D01*
X164569468Y-97736000D01*
X164614532Y-97736000D01*
X164681008Y-97720827D01*
X164752387Y-97663905D01*
X164792000Y-97581649D01*
X164792000Y-97535999D01*
X164951210Y-97535999D01*
X165316646Y-97901436D01*
X165316647Y-97901435D01*
X165324589Y-97888797D01*
X165384726Y-97716937D01*
X165405112Y-97536000D01*
X165384726Y-97355062D01*
X165324590Y-97183204D01*
X165316647Y-97170563D01*
X165316645Y-97170563D01*
X164951210Y-97535999D01*
X164792000Y-97535999D01*
X164792000Y-97490351D01*
X164752387Y-97408095D01*
X164681008Y-97351173D01*
X164614532Y-97336000D01*
X164569468Y-97336000D01*
X164502992Y-97351173D01*
X164431613Y-97408095D01*
X164392000Y-97490351D01*
X164392000Y-97581649D01*
X164187140Y-97581649D01*
X164232789Y-97536000D01*
X164232789Y-97535999D01*
X163867352Y-97170563D01*
X163859409Y-97183205D01*
X163799273Y-97355062D01*
X163778887Y-97536000D01*
X142500500Y-97536000D01*
X142500500Y-96811351D01*
X164226563Y-96811351D01*
X164591999Y-97176788D01*
X164957435Y-96811352D01*
X164944795Y-96803410D01*
X164772935Y-96743273D01*
X164591999Y-96722887D01*
X164411062Y-96743273D01*
X164239205Y-96803409D01*
X164226563Y-96811351D01*
X142500500Y-96811351D01*
X142500500Y-94776661D01*
X142520502Y-94708540D01*
X142537400Y-94687570D01*
X142840941Y-94384028D01*
X142903252Y-94350005D01*
X142946477Y-94348203D01*
X143000000Y-94355250D01*
X143143709Y-94336330D01*
X143277625Y-94280861D01*
X143392621Y-94192621D01*
X143480861Y-94077625D01*
X143536330Y-93943709D01*
X143555250Y-93800000D01*
X143536330Y-93656291D01*
X143536330Y-93656290D01*
X143480862Y-93522376D01*
X143440108Y-93469265D01*
X143398791Y-93415420D01*
X143373192Y-93349204D01*
X143387456Y-93279655D01*
X143409657Y-93249627D01*
X146521881Y-90137404D01*
X146584194Y-90103378D01*
X146610977Y-90100499D01*
X148007518Y-90100499D01*
X148075639Y-90120501D01*
X148096613Y-90137404D01*
X148673001Y-90713792D01*
X148598595Y-90725577D01*
X148480053Y-90785978D01*
X148385978Y-90880053D01*
X148325577Y-90998595D01*
X148313792Y-91073001D01*
X147770111Y-90529320D01*
X147770109Y-90529320D01*
X147766847Y-90533639D01*
X147673664Y-90720777D01*
X147616456Y-90921844D01*
X147597167Y-91129999D01*
X147616456Y-91338155D01*
X147673666Y-91539227D01*
X147766844Y-91726354D01*
X147770110Y-91730678D01*
X148313792Y-91186996D01*
X148325577Y-91261405D01*
X148385978Y-91379947D01*
X148480053Y-91474022D01*
X148598595Y-91534423D01*
X148671295Y-91545937D01*
X148663095Y-91556113D01*
X148132466Y-92086741D01*
X148225054Y-92144070D01*
X148419985Y-92219586D01*
X148597152Y-92252705D01*
X148660437Y-92284884D01*
X148696279Y-92346170D01*
X148699999Y-92376560D01*
X148699999Y-92423439D01*
X148679997Y-92491560D01*
X148626341Y-92538053D01*
X148597153Y-92547293D01*
X148419989Y-92580412D01*
X148225051Y-92655930D01*
X148132467Y-92713257D01*
X148663095Y-93243884D01*
X148668863Y-93254447D01*
X148598595Y-93265577D01*
X148480053Y-93325978D01*
X148385978Y-93420053D01*
X148325577Y-93538595D01*
X148313792Y-93613001D01*
X147770111Y-93069320D01*
X147770109Y-93069320D01*
X147766847Y-93073639D01*
X147673664Y-93260777D01*
X147616456Y-93461844D01*
X147597167Y-93670000D01*
X147616456Y-93878155D01*
X147673666Y-94079227D01*
X147766844Y-94266354D01*
X147770110Y-94270678D01*
X148313792Y-93726996D01*
X148325577Y-93801405D01*
X148385978Y-93919947D01*
X148480053Y-94014022D01*
X148598595Y-94074423D01*
X148673002Y-94086207D01*
X148132467Y-94626741D01*
X148225054Y-94684070D01*
X148419985Y-94759586D01*
X148625477Y-94798000D01*
X148834523Y-94798000D01*
X149040014Y-94759586D01*
X149234949Y-94684068D01*
X149327531Y-94626742D01*
X148786997Y-94086207D01*
X148861405Y-94074423D01*
X148979947Y-94014022D01*
X149074022Y-93919947D01*
X149134423Y-93801405D01*
X149145937Y-93728702D01*
X149156116Y-93736905D01*
X149689888Y-94270678D01*
X149689889Y-94270678D01*
X149693150Y-94266361D01*
X149786335Y-94079222D01*
X149843543Y-93878155D01*
X149849454Y-93814374D01*
X149875656Y-93748389D01*
X149933373Y-93707046D01*
X149974916Y-93700000D01*
X150025084Y-93700000D01*
X150093205Y-93720002D01*
X150139698Y-93773658D01*
X150150546Y-93814374D01*
X150156456Y-93878155D01*
X150213664Y-94079222D01*
X150306848Y-94266361D01*
X150312542Y-94273902D01*
X150312543Y-94273903D01*
X150849543Y-93736904D01*
X150854898Y-93733979D01*
X150865577Y-93801405D01*
X150925978Y-93919947D01*
X151020053Y-94014022D01*
X151138595Y-94074423D01*
X151208118Y-94085434D01*
X150668972Y-94624579D01*
X150765051Y-94684069D01*
X150959985Y-94759586D01*
X151165477Y-94798000D01*
X151374523Y-94798000D01*
X151580014Y-94759586D01*
X151774945Y-94684070D01*
X151871026Y-94624578D01*
X151331882Y-94085434D01*
X151401405Y-94074423D01*
X151519947Y-94014022D01*
X151614022Y-93919947D01*
X151674423Y-93801405D01*
X151685434Y-93731882D01*
X152227454Y-94273902D01*
X152227455Y-94273902D01*
X152233152Y-94266358D01*
X152326335Y-94079222D01*
X152383543Y-93878155D01*
X152402832Y-93670000D01*
X152383543Y-93461844D01*
X152326335Y-93260777D01*
X152233152Y-93073641D01*
X152227455Y-93066096D01*
X151685434Y-93608117D01*
X151674423Y-93538595D01*
X151614022Y-93420053D01*
X151519947Y-93325978D01*
X151401405Y-93265577D01*
X151332744Y-93254702D01*
X151336905Y-93249540D01*
X151871025Y-92715419D01*
X151774948Y-92655930D01*
X151580009Y-92580411D01*
X151402847Y-92547293D01*
X151339561Y-92515114D01*
X151303720Y-92453829D01*
X151300000Y-92423439D01*
X151300000Y-92376560D01*
X151320002Y-92308439D01*
X151373658Y-92261946D01*
X151402847Y-92252705D01*
X151580014Y-92219586D01*
X151774949Y-92144068D01*
X151867531Y-92086742D01*
X151867531Y-92086741D01*
X151336905Y-91556115D01*
X151331137Y-91545552D01*
X151401405Y-91534423D01*
X151519947Y-91474022D01*
X151614022Y-91379947D01*
X151674423Y-91261405D01*
X151686207Y-91186997D01*
X152229888Y-91730678D01*
X152229889Y-91730678D01*
X152233150Y-91726361D01*
X152326335Y-91539222D01*
X152383543Y-91338155D01*
X152402832Y-91129999D01*
X152383543Y-90921844D01*
X152326333Y-90720772D01*
X152233154Y-90533643D01*
X152168858Y-90448501D01*
X152143768Y-90382085D01*
X152158568Y-90312648D01*
X152208559Y-90262236D01*
X152277869Y-90246853D01*
X152344493Y-90271385D01*
X152358503Y-90283474D01*
X153076277Y-91001248D01*
X153110303Y-91063560D01*
X153112263Y-91105530D01*
X153094721Y-91249999D01*
X153113762Y-91406816D01*
X153169779Y-91554522D01*
X153259516Y-91684529D01*
X153377761Y-91789284D01*
X153517631Y-91862694D01*
X153517635Y-91862696D01*
X153671015Y-91900500D01*
X153828983Y-91900500D01*
X153828985Y-91900500D01*
X153982365Y-91862696D01*
X154122240Y-91789283D01*
X154240483Y-91684530D01*
X154330220Y-91554523D01*
X154386237Y-91406818D01*
X154405278Y-91250000D01*
X154386237Y-91093182D01*
X154330220Y-90945477D01*
X154240483Y-90815470D01*
X154122240Y-90710717D01*
X154122238Y-90710715D01*
X153982368Y-90637305D01*
X153982365Y-90637304D01*
X153828985Y-90599500D01*
X153828983Y-90599500D01*
X153671012Y-90599500D01*
X153622443Y-90611470D01*
X153551515Y-90608350D01*
X153503197Y-90578226D01*
X152561681Y-89636710D01*
X152551683Y-89622813D01*
X152509715Y-89584554D01*
X152505525Y-89580554D01*
X152492796Y-89567825D01*
X152492795Y-89567824D01*
X152492047Y-89567076D01*
X152480574Y-89557988D01*
X152460932Y-89540082D01*
X152454684Y-89537662D01*
X152428998Y-89524123D01*
X152423480Y-89520343D01*
X152423479Y-89520342D01*
X152423478Y-89520342D01*
X152397617Y-89514259D01*
X152380954Y-89509099D01*
X152356173Y-89499499D01*
X152356172Y-89499499D01*
X152349480Y-89499499D01*
X152320631Y-89496152D01*
X152314118Y-89494620D01*
X152298900Y-89496743D01*
X152287803Y-89498291D01*
X152270395Y-89499499D01*
X146503886Y-89499499D01*
X146486994Y-89496743D01*
X146430279Y-89499365D01*
X146424462Y-89499499D01*
X146405414Y-89499499D01*
X146390873Y-89501185D01*
X146364325Y-89502412D01*
X146358194Y-89505120D01*
X146330466Y-89513706D01*
X146323882Y-89514937D01*
X146301285Y-89528927D01*
X146285860Y-89537058D01*
X146261550Y-89547792D01*
X146256815Y-89552528D01*
X146234061Y-89570551D01*
X146228364Y-89574078D01*
X146212346Y-89595289D01*
X146200894Y-89608448D01*
X142836705Y-92972637D01*
X142822811Y-92982635D01*
X142784553Y-93024600D01*
X142780541Y-93028802D01*
X142767079Y-93042264D01*
X142757991Y-93053737D01*
X142740083Y-93073381D01*
X142737662Y-93079631D01*
X142724126Y-93105311D01*
X142720343Y-93110834D01*
X142714259Y-93136698D01*
X142709100Y-93153360D01*
X142699500Y-93178142D01*
X142699500Y-93184833D01*
X142696153Y-93213681D01*
X142694620Y-93220194D01*
X142698292Y-93246511D01*
X142699500Y-93263919D01*
X142699500Y-93274555D01*
X142679498Y-93342676D01*
X142650205Y-93374516D01*
X142607381Y-93407376D01*
X142519137Y-93522376D01*
X142463669Y-93656290D01*
X142444750Y-93800000D01*
X142451795Y-93853519D01*
X142440855Y-93923668D01*
X142415968Y-93959059D01*
X142036705Y-94338322D01*
X142022811Y-94348320D01*
X141984553Y-94390285D01*
X141980541Y-94394487D01*
X141967079Y-94407949D01*
X141957991Y-94419422D01*
X141940083Y-94439066D01*
X141937662Y-94445316D01*
X141924126Y-94470996D01*
X141920343Y-94476519D01*
X141914259Y-94502383D01*
X141909100Y-94519045D01*
X141899500Y-94543827D01*
X141899500Y-94550518D01*
X141896153Y-94579366D01*
X141894620Y-94585879D01*
X141898292Y-94612196D01*
X141899500Y-94629604D01*
X141899500Y-98873337D01*
X141879498Y-98941458D01*
X141862595Y-98962433D01*
X141159058Y-99665969D01*
X141096746Y-99699994D01*
X141053518Y-99701795D01*
X141000001Y-99694749D01*
X140856290Y-99713669D01*
X140722376Y-99769137D01*
X140607379Y-99857379D01*
X140519137Y-99972376D01*
X140463669Y-100106290D01*
X140444750Y-100249999D01*
X131821699Y-100249999D01*
X131821699Y-96804139D01*
X131841701Y-96736022D01*
X131895357Y-96689529D01*
X131899404Y-96687767D01*
X132002025Y-96645261D01*
X132117021Y-96557021D01*
X132205261Y-96442025D01*
X132260730Y-96308109D01*
X132279650Y-96164400D01*
X132260730Y-96020691D01*
X132260730Y-96020690D01*
X132205262Y-95886776D01*
X132188606Y-95865070D01*
X132117021Y-95771779D01*
X132045434Y-95716848D01*
X132002023Y-95683537D01*
X131868109Y-95628069D01*
X131724400Y-95609150D01*
X131580690Y-95628069D01*
X131446776Y-95683537D01*
X131331779Y-95771779D01*
X131243537Y-95886776D01*
X131188069Y-96020690D01*
X131169150Y-96164400D01*
X125323940Y-96164400D01*
X125340454Y-96046519D01*
X125341235Y-96041655D01*
X125517120Y-95069300D01*
X125518109Y-95064395D01*
X125585860Y-94759586D01*
X125732506Y-94099832D01*
X125733672Y-94095037D01*
X125986270Y-93139679D01*
X125987620Y-93134957D01*
X126045832Y-92945600D01*
X133306371Y-92945600D01*
X133318049Y-93034319D01*
X133379312Y-93182222D01*
X133476770Y-93309229D01*
X133610604Y-93411926D01*
X133652471Y-93469265D01*
X133659899Y-93511885D01*
X133659899Y-93540272D01*
X133674434Y-93613340D01*
X133688665Y-93634638D01*
X133709880Y-93702391D01*
X133709900Y-93704640D01*
X133709900Y-93708555D01*
X133689898Y-93776676D01*
X133660605Y-93808516D01*
X133617781Y-93841376D01*
X133529537Y-93956376D01*
X133474069Y-94090290D01*
X133455150Y-94233999D01*
X133474069Y-94377709D01*
X133529537Y-94511623D01*
X133559383Y-94550518D01*
X133617779Y-94626621D01*
X133692648Y-94684070D01*
X133732776Y-94714862D01*
X133866690Y-94770330D01*
X133883408Y-94772531D01*
X134010400Y-94789250D01*
X134154109Y-94770330D01*
X134288025Y-94714861D01*
X134403021Y-94626621D01*
X134491261Y-94511625D01*
X134521316Y-94439066D01*
X134546730Y-94377709D01*
X134546729Y-94377709D01*
X134565650Y-94234000D01*
X134546730Y-94090291D01*
X134546730Y-94090290D01*
X134491262Y-93956376D01*
X134412336Y-93853519D01*
X134403021Y-93841379D01*
X134403019Y-93841377D01*
X134403018Y-93841376D01*
X134360195Y-93808516D01*
X134318328Y-93751178D01*
X134310900Y-93708555D01*
X134310900Y-93704640D01*
X134330902Y-93636519D01*
X134332135Y-93634638D01*
X134346366Y-93613340D01*
X134360900Y-93540274D01*
X134360900Y-93511887D01*
X134380902Y-93443766D01*
X134410196Y-93411925D01*
X134544028Y-93309231D01*
X134641487Y-93182222D01*
X134702750Y-93034318D01*
X134714430Y-92945600D01*
X133306371Y-92945600D01*
X126045832Y-92945600D01*
X126168801Y-92545599D01*
X133306369Y-92545599D01*
X133306370Y-92545600D01*
X133810400Y-92545600D01*
X133810400Y-92015519D01*
X134210399Y-92015519D01*
X134210400Y-92545600D01*
X134714429Y-92545600D01*
X134714429Y-92545599D01*
X134702750Y-92456880D01*
X134641487Y-92308977D01*
X134544029Y-92181970D01*
X134417022Y-92084512D01*
X134269120Y-92023249D01*
X134210400Y-92015519D01*
X134210399Y-92015519D01*
X133810400Y-92015519D01*
X133810399Y-92015519D01*
X133751679Y-92023249D01*
X133603777Y-92084512D01*
X133476770Y-92181970D01*
X133379312Y-92308977D01*
X133318049Y-92456881D01*
X133306369Y-92545599D01*
X126168801Y-92545599D01*
X126277981Y-92190452D01*
X126279546Y-92185702D01*
X126294181Y-92144068D01*
X126607218Y-91253518D01*
X126608969Y-91248838D01*
X126670741Y-91093183D01*
X126973440Y-90330422D01*
X126975378Y-90325810D01*
X127003582Y-90262236D01*
X127376097Y-89422558D01*
X127378174Y-89418117D01*
X127814494Y-88531497D01*
X127816766Y-88527104D01*
X128287989Y-87658533D01*
X128290404Y-87654284D01*
X128795799Y-86805111D01*
X128798419Y-86800901D01*
X129337145Y-85972539D01*
X129339949Y-85968411D01*
X129911169Y-85162139D01*
X129914095Y-85158178D01*
X130516950Y-84375213D01*
X130520050Y-84371348D01*
X131153552Y-83612974D01*
X131156789Y-83609252D01*
X131819923Y-82876683D01*
X131823313Y-82873084D01*
X132515047Y-82167456D01*
X132518617Y-82163957D01*
X132559209Y-82125717D01*
X133237867Y-81486379D01*
X133241526Y-81483067D01*
X133987151Y-80834617D01*
X133990921Y-80831468D01*
X134761761Y-80213153D01*
X134765646Y-80210162D01*
X135560475Y-79622969D01*
X135564470Y-79620138D01*
X136381998Y-79065023D01*
X136386101Y-79062354D01*
X137225069Y-78540169D01*
X137229318Y-78537640D01*
X138088311Y-78049262D01*
X138092653Y-78046906D01*
X138970415Y-77593048D01*
X138974874Y-77590854D01*
X139869975Y-77172257D01*
X139874474Y-77170261D01*
X140785520Y-76787577D01*
X140790137Y-76785745D01*
X141715681Y-76439582D01*
X141720324Y-76437950D01*
X142658870Y-76128866D01*
X142663595Y-76127413D01*
X143613738Y-75855872D01*
X143618525Y-75854607D01*
X144578662Y-75621068D01*
X144583491Y-75619995D01*
X145552138Y-75424815D01*
X145557051Y-75423926D01*
X146532697Y-75267410D01*
X146537620Y-75266720D01*
X147518704Y-75149117D01*
X147523639Y-75148624D01*
X148508694Y-75070114D01*
X148513630Y-75069819D01*
X149500938Y-75030537D01*
X149505948Y-75030437D01*
X150494052Y-75030437D01*
X150499061Y-75030537D01*
G37*
%TD.AperFunction*%
M02*
