%TF.GenerationSoftware,KiCad,Pcbnew,7.0.2*%
%TF.CreationDate,2023-05-30T15:48:39+02:00*%
%TF.ProjectId,oip_opa818,6f69705f-6f70-4613-9831-382e6b696361,rev?*%
%TF.SameCoordinates,Original*%
%TF.FileFunction,Copper,L1,Top*%
%TF.FilePolarity,Positive*%
%FSLAX46Y46*%
G04 Gerber Fmt 4.6, Leading zero omitted, Abs format (unit mm)*
G04 Created by KiCad (PCBNEW 7.0.2) date 2023-05-30 15:48:39*
%MOMM*%
%LPD*%
G01*
G04 APERTURE LIST*
G04 Aperture macros list*
%AMRoundRect*
0 Rectangle with rounded corners*
0 $1 Rounding radius*
0 $2 $3 $4 $5 $6 $7 $8 $9 X,Y pos of 4 corners*
0 Add a 4 corners polygon primitive as box body*
4,1,4,$2,$3,$4,$5,$6,$7,$8,$9,$2,$3,0*
0 Add four circle primitives for the rounded corners*
1,1,$1+$1,$2,$3*
1,1,$1+$1,$4,$5*
1,1,$1+$1,$6,$7*
1,1,$1+$1,$8,$9*
0 Add four rect primitives between the rounded corners*
20,1,$1+$1,$2,$3,$4,$5,0*
20,1,$1+$1,$4,$5,$6,$7,0*
20,1,$1+$1,$6,$7,$8,$9,0*
20,1,$1+$1,$8,$9,$2,$3,0*%
G04 Aperture macros list end*
%TA.AperFunction,SMDPad,CuDef*%
%ADD10RoundRect,0.135000X-0.185000X0.135000X-0.185000X-0.135000X0.185000X-0.135000X0.185000X0.135000X0*%
%TD*%
%TA.AperFunction,SMDPad,CuDef*%
%ADD11RoundRect,0.100000X-0.100000X0.130000X-0.100000X-0.130000X0.100000X-0.130000X0.100000X0.130000X0*%
%TD*%
%TA.AperFunction,SMDPad,CuDef*%
%ADD12RoundRect,0.100000X0.100000X-0.712500X0.100000X0.712500X-0.100000X0.712500X-0.100000X-0.712500X0*%
%TD*%
%TA.AperFunction,SMDPad,CuDef*%
%ADD13RoundRect,0.135000X-0.035355X0.226274X-0.226274X0.035355X0.035355X-0.226274X0.226274X-0.035355X0*%
%TD*%
%TA.AperFunction,SMDPad,CuDef*%
%ADD14RoundRect,0.135000X0.185000X-0.135000X0.185000X0.135000X-0.185000X0.135000X-0.185000X-0.135000X0*%
%TD*%
%TA.AperFunction,SMDPad,CuDef*%
%ADD15RoundRect,0.140000X-0.170000X0.140000X-0.170000X-0.140000X0.170000X-0.140000X0.170000X0.140000X0*%
%TD*%
%TA.AperFunction,ComponentPad*%
%ADD16O,1.000000X1.000000*%
%TD*%
%TA.AperFunction,SMDPad,CuDef*%
%ADD17RoundRect,0.075000X0.650000X0.075000X-0.650000X0.075000X-0.650000X-0.075000X0.650000X-0.075000X0*%
%TD*%
%TA.AperFunction,SMDPad,CuDef*%
%ADD18RoundRect,0.250000X0.590000X0.690000X-0.590000X0.690000X-0.590000X-0.690000X0.590000X-0.690000X0*%
%TD*%
%TA.AperFunction,SMDPad,CuDef*%
%ADD19RoundRect,0.100000X-0.371231X-0.512652X0.512652X0.371231X0.371231X0.512652X-0.512652X-0.371231X0*%
%TD*%
%TA.AperFunction,SMDPad,CuDef*%
%ADD20RoundRect,0.249999X0.424264X-1.237438X1.237438X-0.424264X-0.424264X1.237438X-1.237438X0.424264X0*%
%TD*%
%TA.AperFunction,SMDPad,CuDef*%
%ADD21RoundRect,0.218750X0.218750X0.256250X-0.218750X0.256250X-0.218750X-0.256250X0.218750X-0.256250X0*%
%TD*%
%TA.AperFunction,SMDPad,CuDef*%
%ADD22RoundRect,0.218750X0.256250X-0.218750X0.256250X0.218750X-0.256250X0.218750X-0.256250X-0.218750X0*%
%TD*%
%TA.AperFunction,SMDPad,CuDef*%
%ADD23RoundRect,0.218750X-0.218750X-0.256250X0.218750X-0.256250X0.218750X0.256250X-0.218750X0.256250X0*%
%TD*%
%TA.AperFunction,SMDPad,CuDef*%
%ADD24RoundRect,0.218750X0.165979X-0.293200X0.315613X0.117915X-0.165979X0.293200X-0.315613X-0.117915X0*%
%TD*%
%TA.AperFunction,SMDPad,CuDef*%
%ADD25RoundRect,0.218750X0.026517X-0.335876X0.335876X-0.026517X-0.026517X0.335876X-0.335876X0.026517X0*%
%TD*%
%TA.AperFunction,SMDPad,CuDef*%
%ADD26R,0.500000X0.500000*%
%TD*%
%TA.AperFunction,SMDPad,CuDef*%
%ADD27RoundRect,0.243750X0.243750X0.456250X-0.243750X0.456250X-0.243750X-0.456250X0.243750X-0.456250X0*%
%TD*%
%TA.AperFunction,SMDPad,CuDef*%
%ADD28RoundRect,0.218750X-0.026517X0.335876X-0.335876X0.026517X0.026517X-0.335876X0.335876X-0.026517X0*%
%TD*%
%TA.AperFunction,SMDPad,CuDef*%
%ADD29RoundRect,0.147500X-0.147500X-0.172500X0.147500X-0.172500X0.147500X0.172500X-0.147500X0.172500X0*%
%TD*%
%TA.AperFunction,SMDPad,CuDef*%
%ADD30R,0.600000X0.250000*%
%TD*%
%TA.AperFunction,SMDPad,CuDef*%
%ADD31R,1.450000X2.400000*%
%TD*%
%TA.AperFunction,SMDPad,CuDef*%
%ADD32RoundRect,0.218750X-0.256250X0.218750X-0.256250X-0.218750X0.256250X-0.218750X0.256250X0.218750X0*%
%TD*%
%TA.AperFunction,SMDPad,CuDef*%
%ADD33RoundRect,0.225000X0.250000X-0.225000X0.250000X0.225000X-0.250000X0.225000X-0.250000X-0.225000X0*%
%TD*%
%TA.AperFunction,SMDPad,CuDef*%
%ADD34R,0.650000X1.060000*%
%TD*%
%TA.AperFunction,SMDPad,CuDef*%
%ADD35RoundRect,0.225000X-0.225000X-0.250000X0.225000X-0.250000X0.225000X0.250000X-0.225000X0.250000X0*%
%TD*%
%TA.AperFunction,SMDPad,CuDef*%
%ADD36RoundRect,0.135000X0.135000X0.185000X-0.135000X0.185000X-0.135000X-0.185000X0.135000X-0.185000X0*%
%TD*%
%TA.AperFunction,SMDPad,CuDef*%
%ADD37RoundRect,0.135000X-0.135000X-0.185000X0.135000X-0.185000X0.135000X0.185000X-0.135000X0.185000X0*%
%TD*%
%TA.AperFunction,SMDPad,CuDef*%
%ADD38RoundRect,0.040000X0.660000X0.360000X-0.660000X0.360000X-0.660000X-0.360000X0.660000X-0.360000X0*%
%TD*%
%TA.AperFunction,SMDPad,CuDef*%
%ADD39RoundRect,0.030000X0.270000X0.520000X-0.270000X0.520000X-0.270000X-0.520000X0.270000X-0.520000X0*%
%TD*%
%TA.AperFunction,ComponentPad*%
%ADD40C,0.600000*%
%TD*%
%TA.AperFunction,SMDPad,CuDef*%
%ADD41R,0.600000X0.700000*%
%TD*%
%TA.AperFunction,SMDPad,CuDef*%
%ADD42RoundRect,0.140000X0.140000X0.170000X-0.140000X0.170000X-0.140000X-0.170000X0.140000X-0.170000X0*%
%TD*%
%TA.AperFunction,SMDPad,CuDef*%
%ADD43RoundRect,0.040000X-0.660000X-0.360000X0.660000X-0.360000X0.660000X0.360000X-0.660000X0.360000X0*%
%TD*%
%TA.AperFunction,SMDPad,CuDef*%
%ADD44RoundRect,0.030000X-0.270000X-0.520000X0.270000X-0.520000X0.270000X0.520000X-0.270000X0.520000X0*%
%TD*%
%TA.AperFunction,ComponentPad*%
%ADD45C,1.240000*%
%TD*%
%TA.AperFunction,ComponentPad*%
%ADD46C,1.000000*%
%TD*%
%TA.AperFunction,ComponentPad*%
%ADD47R,1.700000X1.700000*%
%TD*%
%TA.AperFunction,ComponentPad*%
%ADD48O,1.700000X1.700000*%
%TD*%
%TA.AperFunction,ViaPad*%
%ADD49C,0.800000*%
%TD*%
%TA.AperFunction,Conductor*%
%ADD50C,0.300000*%
%TD*%
%TA.AperFunction,Conductor*%
%ADD51C,0.350000*%
%TD*%
G04 APERTURE END LIST*
D10*
X134010400Y-95044800D03*
X134010400Y-96064800D03*
D11*
X134010400Y-92745600D03*
X134010400Y-93385600D03*
D12*
X132679800Y-101883700D03*
X133329800Y-101883700D03*
X133979800Y-101883700D03*
X134629800Y-101883700D03*
X134629800Y-97658700D03*
X133979800Y-97658700D03*
X133329800Y-97658700D03*
X132679800Y-97658700D03*
D13*
X145403777Y-93596223D03*
X144682529Y-94317471D03*
D14*
X133350000Y-104751600D03*
X133350000Y-103731600D03*
D15*
X132689600Y-95074800D03*
X132689600Y-96034800D03*
D16*
X148750000Y-100000000D03*
X150020000Y-101270000D03*
X151290000Y-100000000D03*
D17*
X151900000Y-108000000D03*
X151900000Y-107500000D03*
X151900000Y-107000000D03*
X151900000Y-106500000D03*
X151900000Y-106000000D03*
X147600000Y-106000000D03*
X147600000Y-106500000D03*
X147600000Y-107000000D03*
X147600000Y-107500000D03*
X147600000Y-108000000D03*
D18*
X149750000Y-107000000D03*
D19*
X153330672Y-96371231D03*
X153790291Y-96830850D03*
X154249911Y-97290470D03*
X154709530Y-97750089D03*
X155169150Y-98209709D03*
X155628769Y-98669328D03*
X158669328Y-95628769D03*
X158209709Y-95169150D03*
X157750089Y-94709530D03*
X157290470Y-94249911D03*
X156830850Y-93790291D03*
X156371231Y-93330672D03*
D20*
X156000000Y-96000000D03*
D21*
X152037500Y-109500000D03*
X150462500Y-109500000D03*
X147937500Y-95700000D03*
X146362500Y-95700000D03*
D22*
X144300000Y-106587500D03*
X144300000Y-105012500D03*
D23*
X147462500Y-109500000D03*
X149037500Y-109500000D03*
D21*
X142537500Y-104250000D03*
X140962500Y-104250000D03*
D24*
X153730659Y-101740008D03*
X154269341Y-100259992D03*
D23*
X158462500Y-99500000D03*
X160037500Y-99500000D03*
D25*
X154643153Y-93156847D03*
X155756847Y-92043153D03*
D26*
X157988000Y-101600000D03*
X155788000Y-101600000D03*
D27*
X151337500Y-95800000D03*
X149462500Y-95800000D03*
D22*
X145800000Y-106587500D03*
X145800000Y-105012500D03*
D28*
X153600000Y-94200000D03*
X152486306Y-95313694D03*
D29*
X145015000Y-102000000D03*
X145985000Y-102000000D03*
D23*
X158462500Y-98000000D03*
X160037500Y-98000000D03*
D29*
X145015000Y-103000000D03*
X145985000Y-103000000D03*
X145015000Y-101000000D03*
X145985000Y-101000000D03*
D30*
X143900000Y-102500000D03*
X143900000Y-102000000D03*
X143900000Y-101500000D03*
X143900000Y-101000000D03*
X141100000Y-101000000D03*
X141100000Y-101500000D03*
X141100000Y-102000000D03*
X141100000Y-102500000D03*
D31*
X142500000Y-101750000D03*
D32*
X144800000Y-97212500D03*
X144800000Y-98787500D03*
D33*
X142000000Y-94775000D03*
X142000000Y-93225000D03*
D34*
X143150000Y-95900000D03*
X142200000Y-95900000D03*
X141250000Y-95900000D03*
X141250000Y-98100000D03*
X143150000Y-98100000D03*
D35*
X141025000Y-99400000D03*
X142575000Y-99400000D03*
D21*
X151587500Y-104000000D03*
X150012500Y-104000000D03*
D26*
X153840000Y-106934000D03*
X156040000Y-106934000D03*
D36*
X139803600Y-97840800D03*
X138783600Y-97840800D03*
D37*
X137818400Y-99771200D03*
X138838400Y-99771200D03*
D38*
X166017000Y-97536000D03*
D39*
X164592000Y-98386000D03*
D40*
X164592000Y-97536000D03*
D41*
X164592000Y-97536000D03*
D39*
X164592000Y-96686000D03*
D38*
X163167000Y-97536000D03*
D42*
X136878000Y-98755200D03*
X135918000Y-98755200D03*
D10*
X139801600Y-100734400D03*
X139801600Y-101754400D03*
D37*
X135888000Y-99771200D03*
X136908000Y-99771200D03*
D15*
X139801600Y-98834000D03*
X139801600Y-99794000D03*
D42*
X136878000Y-100787200D03*
X135918000Y-100787200D03*
D43*
X163167000Y-102362000D03*
D44*
X164592000Y-101512000D03*
D40*
X164592000Y-102362000D03*
D41*
X164592000Y-102362000D03*
D44*
X164592000Y-103212000D03*
D43*
X166017000Y-102362000D03*
D45*
X135280400Y-107950000D03*
X134010400Y-106680000D03*
X134010400Y-109220000D03*
X136550400Y-106680000D03*
X136550400Y-109220000D03*
X150000000Y-92400000D03*
X151270000Y-91130000D03*
X151270000Y-93670000D03*
X148730000Y-91130000D03*
X148730000Y-93670000D03*
D46*
X153750000Y-91250000D03*
X145550000Y-108800000D03*
D47*
X168910000Y-102540000D03*
D48*
X168910000Y-100000000D03*
X168910000Y-97460000D03*
D49*
X137972800Y-97840800D03*
X138328400Y-98958400D03*
X139598400Y-105206800D03*
X139141200Y-104089200D03*
X138734800Y-103022400D03*
X138531600Y-101904800D03*
X159359600Y-106781600D03*
X161086800Y-103632000D03*
X161391600Y-101752400D03*
X134010400Y-94234000D03*
X131724400Y-96164400D03*
X143500000Y-99100000D03*
X141250000Y-105250000D03*
X134620000Y-100076000D03*
X138430000Y-100787200D03*
X132689600Y-93929200D03*
X140696305Y-106759530D03*
X141453835Y-107695002D03*
X142304998Y-108546165D03*
X143240470Y-109303695D03*
X144250000Y-109959292D03*
X145322529Y-110505773D03*
X146446305Y-110937150D03*
X147609016Y-111248697D03*
X148797923Y-111437002D03*
X150000000Y-111500000D03*
X151202077Y-111437002D03*
X152390984Y-111248697D03*
X153553695Y-110937150D03*
X154677471Y-110505773D03*
X155750000Y-109959292D03*
X156759530Y-109303695D03*
X157695002Y-108546165D03*
X158546165Y-107695002D03*
X159959292Y-105750000D03*
X160505773Y-104677471D03*
X161500000Y-100000000D03*
X161437002Y-98797923D03*
X161248697Y-97609016D03*
X160937150Y-96446305D03*
X160505773Y-95322529D03*
X159959292Y-94250000D03*
X159303695Y-93240470D03*
X158546165Y-92304998D03*
X157695002Y-91453835D03*
X156759530Y-90696305D03*
X155750000Y-90040708D03*
X154677471Y-89494227D03*
X153553695Y-89062850D03*
X152390984Y-88751303D03*
X151202077Y-88562998D03*
X150000000Y-88500000D03*
X148797923Y-88562998D03*
X147609016Y-88751303D03*
X145322529Y-89494227D03*
X144250000Y-90040708D03*
X143240470Y-90696305D03*
X142304998Y-91453835D03*
X140696305Y-93240470D03*
X140040708Y-94250000D03*
X139494227Y-95322529D03*
X139062850Y-96446305D03*
X142200000Y-101000000D03*
X142800000Y-101000000D03*
X142800000Y-101800000D03*
X142200000Y-101800000D03*
X142200000Y-102600000D03*
X142800000Y-102600000D03*
X149750000Y-107000000D03*
X141450000Y-92300000D03*
X144000000Y-103800000D03*
X153800000Y-92350000D03*
X157000000Y-98750000D03*
X153400000Y-102800000D03*
X146450000Y-89050000D03*
X148200000Y-97600000D03*
X150020000Y-102630000D03*
X151450000Y-97500000D03*
X157000000Y-99800000D03*
X146100000Y-97050000D03*
X146800000Y-94200000D03*
X146200000Y-91400000D03*
X147000000Y-105000000D03*
X144800000Y-95800000D03*
X146600000Y-99000000D03*
X141000000Y-100250000D03*
X143000000Y-93800000D03*
D50*
X163167000Y-100027800D02*
X163167000Y-97536000D01*
X162306000Y-100888800D02*
X163167000Y-100027800D01*
X158699200Y-100888800D02*
X162306000Y-100888800D01*
X157988000Y-101600000D02*
X158699200Y-100888800D01*
X160358000Y-102616000D02*
X156040000Y-106934000D01*
X162913000Y-102616000D02*
X160358000Y-102616000D01*
X163167000Y-102362000D02*
X162913000Y-102616000D01*
X134010400Y-94234000D02*
X134010400Y-93385600D01*
X134010400Y-95044800D02*
X134010400Y-94234000D01*
X134010400Y-97628100D02*
X133979800Y-97658700D01*
X134010400Y-96064800D02*
X134010400Y-97628100D01*
X132560000Y-96164400D02*
X132689600Y-96034800D01*
X132689600Y-96034800D02*
X132689600Y-97648900D01*
X131724400Y-96164400D02*
X132560000Y-96164400D01*
X132689600Y-97648900D02*
X132679800Y-97658700D01*
X132679800Y-101883700D02*
X132679800Y-100847800D01*
X132679800Y-100847800D02*
X133329800Y-100197800D01*
X133329800Y-97658700D02*
X133979800Y-97658700D01*
X150450000Y-106000000D02*
X151849990Y-106000000D01*
X149750000Y-106700000D02*
X150450000Y-106000000D01*
X149750000Y-107000000D02*
X149750000Y-106700000D01*
X153840000Y-106934000D02*
X153774000Y-107000000D01*
X153774000Y-107000000D02*
X151950010Y-107000000D01*
X154000000Y-107100000D02*
X154000000Y-107094000D01*
X154000000Y-107094000D02*
X153840000Y-106934000D01*
X146803252Y-107500000D02*
X147549990Y-107500000D01*
X145550000Y-108753252D02*
X146803252Y-107500000D01*
X145550000Y-108800000D02*
X145550000Y-108753252D01*
X144800000Y-108800000D02*
X145550000Y-108800000D01*
X141750000Y-105750000D02*
X144800000Y-108800000D01*
X134622000Y-104751600D02*
X135280400Y-105410000D01*
X135280400Y-105410000D02*
X135280400Y-107950000D01*
X133350000Y-104751600D02*
X134622000Y-104751600D01*
X133329800Y-103711400D02*
X133350000Y-103731600D01*
X133329800Y-101883700D02*
X133329800Y-103711400D01*
X134629800Y-98897800D02*
X134629800Y-97658700D01*
X133329800Y-100197800D02*
X134629800Y-98897800D01*
X133329800Y-101883700D02*
X133329800Y-100197800D01*
X135788400Y-103428800D02*
X135918000Y-103299200D01*
X135918000Y-103299200D02*
X135918000Y-100787200D01*
X134315200Y-103428800D02*
X135788400Y-103428800D01*
X133979800Y-101921200D02*
X133979800Y-103093400D01*
X133979800Y-103093400D02*
X134315200Y-103428800D01*
X135763800Y-98755200D02*
X134629800Y-97621200D01*
X135918000Y-98755200D02*
X135763800Y-98755200D01*
X135888000Y-100757200D02*
X135918000Y-100787200D01*
X135888000Y-99771200D02*
X135888000Y-100757200D01*
X136908000Y-98785200D02*
X136878000Y-98755200D01*
X136908000Y-99771200D02*
X136908000Y-98785200D01*
X137818400Y-99771200D02*
X136908000Y-99771200D01*
X138861200Y-99794000D02*
X138838400Y-99771200D01*
X139801600Y-99794000D02*
X138861200Y-99794000D01*
X140990800Y-97840800D02*
X141250000Y-98100000D01*
X139854400Y-97840800D02*
X140990800Y-97840800D01*
X139801600Y-97893600D02*
X139854400Y-97840800D01*
X139801600Y-98834000D02*
X139801600Y-97893600D01*
X139801600Y-100734400D02*
X139801600Y-99794000D01*
X141750000Y-105750000D02*
X141462500Y-105462500D01*
X143150000Y-98100000D02*
X143150000Y-98750000D01*
X141250000Y-105250000D02*
X141250000Y-104537500D01*
X140250000Y-103537500D02*
X140962500Y-104250000D01*
X144487500Y-99100000D02*
X144800000Y-98787500D01*
X143150000Y-98750000D02*
X143500000Y-99100000D01*
X147600000Y-108000000D02*
X147600000Y-109362500D01*
X140250000Y-103000000D02*
X140250000Y-103537500D01*
X141250000Y-104537500D02*
X140962500Y-104250000D01*
X143500000Y-99100000D02*
X144487500Y-99100000D01*
X146350000Y-108000000D02*
X145550000Y-108800000D01*
X147600000Y-108000000D02*
X146350000Y-108000000D01*
X141100000Y-102500000D02*
X140750000Y-102500000D01*
X147600000Y-109362500D02*
X147462500Y-109500000D01*
X140750000Y-102500000D02*
X140250000Y-103000000D01*
X145550000Y-108800000D02*
X146400000Y-107950000D01*
X141750000Y-105750000D02*
X141250000Y-105250000D01*
X150020000Y-102630000D02*
X150020000Y-103992500D01*
D51*
X156919328Y-98669328D02*
X157000000Y-98750000D01*
D50*
X147330000Y-93670000D02*
X146800000Y-94200000D01*
X148730000Y-91130000D02*
X146470000Y-91130000D01*
D51*
X158462500Y-99500000D02*
X158462500Y-98000000D01*
D50*
X147600000Y-107000000D02*
X149750000Y-107000000D01*
X143900000Y-101000000D02*
X143250000Y-101000000D01*
X151270000Y-91130000D02*
X148730000Y-91130000D01*
X151270000Y-93670000D02*
X151270000Y-91130000D01*
X144300000Y-105012500D02*
X145800000Y-105012500D01*
X146470000Y-91130000D02*
X146200000Y-91400000D01*
X143250000Y-101000000D02*
X142500000Y-101750000D01*
X150020000Y-103992500D02*
X150012500Y-104000000D01*
D51*
X155628769Y-98669328D02*
X156919328Y-98669328D01*
D50*
X142280000Y-99400000D02*
X142280000Y-100920000D01*
X148730000Y-93670000D02*
X147330000Y-93670000D01*
X151270000Y-93670000D02*
X148730000Y-93670000D01*
X150020000Y-101270000D02*
X150020000Y-102630000D01*
X142280000Y-100920000D02*
X142200000Y-101000000D01*
X142000000Y-94480000D02*
X142320000Y-94480000D01*
X154963694Y-91250000D02*
X155756847Y-92043153D01*
X142000000Y-94480000D02*
X142080000Y-94480000D01*
X142200000Y-94600000D02*
X142200000Y-95900000D01*
X152950000Y-93550000D02*
X152950000Y-92050000D01*
X156371231Y-92657537D02*
X155756847Y-92043153D01*
X153750000Y-91250000D02*
X154963694Y-91250000D01*
X141000000Y-100250000D02*
X141000000Y-99720000D01*
X152950000Y-92050000D02*
X153750000Y-91250000D01*
X142320000Y-94480000D02*
X143000000Y-93800000D01*
D51*
X157290470Y-94249911D02*
X156830850Y-93790291D01*
D50*
X156371231Y-93330672D02*
X156371231Y-92657537D01*
D51*
X156830850Y-93790291D02*
X156371231Y-93330672D01*
D50*
X142080000Y-94480000D02*
X142200000Y-94600000D01*
X141000000Y-99720000D02*
X141320000Y-99400000D01*
X153600000Y-94200000D02*
X152950000Y-93550000D01*
X141100000Y-101000000D02*
X141100000Y-100350000D01*
X141100000Y-100350000D02*
X141000000Y-100250000D01*
X166093000Y-97460000D02*
X166017000Y-97536000D01*
X168910000Y-97460000D02*
X166093000Y-97460000D01*
X152000000Y-95800000D02*
X152486306Y-95313694D01*
X151337500Y-95800000D02*
X152000000Y-95800000D01*
X143150000Y-95900000D02*
X143150000Y-95850000D01*
X143150000Y-95850000D02*
X144486306Y-94513694D01*
X166195000Y-102540000D02*
X166017000Y-102362000D01*
X168910000Y-102540000D02*
X166195000Y-102540000D01*
X145800000Y-106587500D02*
X144300000Y-106587500D01*
X145887500Y-106500000D02*
X145800000Y-106587500D01*
X147600000Y-106500000D02*
X145887500Y-106500000D01*
D51*
X159656990Y-97144490D02*
X159656990Y-95060779D01*
X159096211Y-94500000D02*
X158878859Y-94500000D01*
X158878859Y-94500000D02*
X158209709Y-95169150D01*
X160037500Y-97525000D02*
X159656990Y-97144490D01*
X159656990Y-95060779D02*
X159096211Y-94500000D01*
X160037500Y-98000000D02*
X160037500Y-97525000D01*
X160037500Y-99500000D02*
X160037500Y-98000000D01*
D50*
X145985000Y-103000000D02*
X145985000Y-102000000D01*
X145985000Y-102000000D02*
X146750000Y-102000000D01*
X146750000Y-102000000D02*
X148750000Y-100000000D01*
X148750000Y-100000000D02*
X146985000Y-100000000D01*
X146985000Y-100000000D02*
X145985000Y-101000000D01*
X141100000Y-102000000D02*
X140265000Y-102000000D01*
X140265000Y-102000000D02*
X140000000Y-101735000D01*
X153600000Y-107500000D02*
X154000000Y-107100000D01*
X152037500Y-109500000D02*
X152037500Y-108137500D01*
X152037500Y-108137500D02*
X151900000Y-108000000D01*
X147600000Y-106000000D02*
X148200000Y-105400000D01*
X154000000Y-106400000D02*
X154000000Y-107100000D01*
X151900000Y-107500000D02*
X153600000Y-107500000D01*
X151900000Y-108000000D02*
X153100000Y-108000000D01*
X148200000Y-105400000D02*
X153000000Y-105400000D01*
X153000000Y-105400000D02*
X154000000Y-106400000D01*
X153100000Y-108000000D02*
X154000000Y-107100000D01*
X145015000Y-103000000D02*
X145015000Y-102000000D01*
X145000000Y-102015000D02*
X145015000Y-102000000D01*
X143900000Y-102000000D02*
X145015000Y-102000000D01*
D51*
X153228769Y-96371231D02*
X152250000Y-97350000D01*
X154807627Y-94992373D02*
X154992373Y-94992373D01*
X153790291Y-96830850D02*
X154621141Y-96000000D01*
X154269341Y-99769341D02*
X154269341Y-100259992D01*
X152600000Y-98000000D02*
X152500000Y-98000000D01*
X152250000Y-97350000D02*
X152250000Y-97750000D01*
X153428769Y-96371231D02*
X154807627Y-94992373D01*
X154249911Y-97350089D02*
X153100000Y-98500000D01*
X153900000Y-99400000D02*
X154269341Y-99769341D01*
X152703984Y-98200000D02*
X152700000Y-98200000D01*
D50*
X155788000Y-101600000D02*
X155609349Y-101600000D01*
D51*
X154992373Y-94992373D02*
X156000000Y-96000000D01*
X154249911Y-97290470D02*
X154249911Y-97350089D01*
X152700000Y-98200000D02*
X153100000Y-98600000D01*
X154621141Y-96000000D02*
X156000000Y-96000000D01*
X152500000Y-98000000D02*
X152700000Y-98200000D01*
X154410295Y-100119038D02*
X154269341Y-100259992D01*
X153330672Y-96371231D02*
X153228769Y-96371231D01*
D50*
X155609349Y-101600000D02*
X154269341Y-100259992D01*
D51*
X153100000Y-98500000D02*
X153100000Y-98600000D01*
X153790291Y-96830850D02*
X153769150Y-96830850D01*
X154249911Y-97290470D02*
X155540381Y-96000000D01*
X155169150Y-98209709D02*
X155090291Y-98209709D01*
X152250000Y-97750000D02*
X152500000Y-98000000D01*
X153330672Y-96371231D02*
X153428769Y-96371231D01*
X155090291Y-98209709D02*
X153900000Y-99400000D01*
X153100000Y-98600000D02*
X153900000Y-99400000D01*
X153769150Y-96830850D02*
X152600000Y-98000000D01*
X155540381Y-96000000D02*
X156000000Y-96000000D01*
D50*
X145600000Y-93400000D02*
X146600000Y-92400000D01*
X146600000Y-92400000D02*
X150000000Y-92400000D01*
X143900000Y-101500000D02*
X144515000Y-101500000D01*
X144515000Y-101500000D02*
X145015000Y-101000000D01*
X149462500Y-95800000D02*
X149462500Y-96612500D01*
X149362500Y-95700000D02*
X149462500Y-95800000D01*
X147937500Y-95700000D02*
X149362500Y-95700000D01*
X149462500Y-96612500D02*
X151290000Y-98440000D01*
X151587500Y-100437500D02*
X151587500Y-104000000D01*
X151290000Y-98440000D02*
X151290000Y-100000000D01*
X151290000Y-100140000D02*
X151587500Y-100437500D01*
X151290000Y-100000000D02*
X151290000Y-100140000D01*
%TA.AperFunction,Conductor*%
G36*
X135138812Y-98555637D02*
G01*
X135145395Y-98561766D01*
X135450595Y-98866966D01*
X135484621Y-98929278D01*
X135487500Y-98956051D01*
X135487500Y-98964929D01*
X135487500Y-98964945D01*
X135487501Y-98968572D01*
X135487919Y-98972182D01*
X135487920Y-98972187D01*
X135490317Y-98992861D01*
X135534187Y-99092217D01*
X135599611Y-99157641D01*
X135633637Y-99219953D01*
X135628572Y-99290768D01*
X135599611Y-99335831D01*
X135513385Y-99422056D01*
X135472205Y-99515320D01*
X135470270Y-99519702D01*
X135467500Y-99543577D01*
X135467500Y-99547222D01*
X135467500Y-99547223D01*
X135467500Y-99995183D01*
X135467500Y-99995200D01*
X135467501Y-99998822D01*
X135467919Y-100002430D01*
X135467920Y-100002439D01*
X135470269Y-100022696D01*
X135504851Y-100101016D01*
X135513384Y-100120341D01*
X135550596Y-100157553D01*
X135584620Y-100219863D01*
X135587500Y-100246647D01*
X135587500Y-100344679D01*
X135567498Y-100412800D01*
X135550597Y-100433773D01*
X135534186Y-100450183D01*
X135490318Y-100549535D01*
X135489478Y-100556777D01*
X135487500Y-100573827D01*
X135487500Y-100577472D01*
X135487500Y-100577473D01*
X135487500Y-100788720D01*
X135467498Y-100856841D01*
X135413842Y-100903334D01*
X135343568Y-100913438D01*
X135278988Y-100883944D01*
X135261538Y-100865425D01*
X135163429Y-100737570D01*
X135036422Y-100640112D01*
X134888520Y-100578849D01*
X134829800Y-100571119D01*
X134829800Y-101683700D01*
X135337799Y-101683700D01*
X135337799Y-101232019D01*
X135357801Y-101163898D01*
X135411457Y-101117405D01*
X135481731Y-101107301D01*
X135546311Y-101136795D01*
X135552894Y-101142924D01*
X135580595Y-101170625D01*
X135614621Y-101232937D01*
X135617500Y-101259720D01*
X135617500Y-103002300D01*
X135597498Y-103070421D01*
X135543842Y-103116914D01*
X135491500Y-103128300D01*
X135343375Y-103128300D01*
X135275254Y-103108298D01*
X135228761Y-103054642D01*
X135218657Y-102984368D01*
X135243413Y-102925595D01*
X135260887Y-102902822D01*
X135322150Y-102754918D01*
X135337261Y-102640134D01*
X135337800Y-102631925D01*
X135337800Y-102083700D01*
X134555800Y-102083700D01*
X134487679Y-102063698D01*
X134441186Y-102010042D01*
X134429800Y-101957700D01*
X134429800Y-100571119D01*
X134429799Y-100571119D01*
X134371079Y-100578849D01*
X134223177Y-100640112D01*
X134096170Y-100737570D01*
X133993474Y-100871405D01*
X133936136Y-100913272D01*
X133893512Y-100920700D01*
X133855127Y-100920700D01*
X133855126Y-100920700D01*
X133782060Y-100935234D01*
X133782058Y-100935234D01*
X133780881Y-100935469D01*
X133710167Y-100929141D01*
X133654100Y-100885587D01*
X133630480Y-100818635D01*
X133630299Y-100811890D01*
X133630299Y-100673776D01*
X133630299Y-100374457D01*
X133650301Y-100306340D01*
X133667199Y-100285371D01*
X134793089Y-99159481D01*
X134806979Y-99149489D01*
X134814025Y-99141759D01*
X134814028Y-99141758D01*
X134845257Y-99107499D01*
X134849212Y-99103358D01*
X134861975Y-99090597D01*
X134861979Y-99090590D01*
X134862726Y-99089844D01*
X134871826Y-99078356D01*
X134889716Y-99058733D01*
X134892132Y-99052494D01*
X134905680Y-99026793D01*
X134909457Y-99021280D01*
X134915543Y-98995402D01*
X134920697Y-98978760D01*
X134930300Y-98953973D01*
X134930300Y-98947281D01*
X134933647Y-98918431D01*
X134933998Y-98916939D01*
X134935179Y-98911919D01*
X134931508Y-98885602D01*
X134930300Y-98868195D01*
X134930300Y-98650861D01*
X134950302Y-98582740D01*
X135003958Y-98536247D01*
X135074232Y-98526143D01*
X135138812Y-98555637D01*
G37*
%TD.AperFunction*%
%TA.AperFunction,Conductor*%
G36*
X142771121Y-99770002D02*
G01*
X142817614Y-99823658D01*
X142829000Y-99876000D01*
X142829000Y-100297000D01*
X142808998Y-100365121D01*
X142788066Y-100383257D01*
X142790904Y-100386095D01*
X142754000Y-100422999D01*
X142754000Y-103226999D01*
X142754594Y-103227593D01*
X142788620Y-103289905D01*
X142791500Y-103316690D01*
X142791500Y-105232999D01*
X142801465Y-105232999D01*
X142807857Y-105232673D01*
X142904212Y-105222830D01*
X143065477Y-105169393D01*
X143124851Y-105132770D01*
X143193330Y-105114032D01*
X143261070Y-105135290D01*
X143306562Y-105189796D01*
X143317000Y-105240007D01*
X143317000Y-105276463D01*
X143317326Y-105282857D01*
X143327169Y-105379212D01*
X143380607Y-105540479D01*
X143469797Y-105685077D01*
X143589922Y-105805202D01*
X143734521Y-105894393D01*
X143736944Y-105895196D01*
X143746093Y-105901530D01*
X143747055Y-105902124D01*
X143747023Y-105902174D01*
X143795315Y-105935611D01*
X143822569Y-106001168D01*
X143810055Y-106071053D01*
X143786405Y-106103895D01*
X143739080Y-106151220D01*
X143684957Y-106261931D01*
X143679973Y-106296138D01*
X143675039Y-106330009D01*
X143674500Y-106333707D01*
X143674500Y-106841292D01*
X143684957Y-106913067D01*
X143685141Y-106913443D01*
X143697090Y-106983427D01*
X143669306Y-107048761D01*
X143610610Y-107088702D01*
X143539638Y-107090570D01*
X143482849Y-107057877D01*
X142019930Y-105594959D01*
X142019929Y-105594957D01*
X141952595Y-105527623D01*
X141834029Y-105409058D01*
X141800005Y-105346747D01*
X141798203Y-105303522D01*
X141805001Y-105251884D01*
X141833723Y-105186962D01*
X141892988Y-105147871D01*
X141963980Y-105147026D01*
X141996071Y-105161096D01*
X142009521Y-105169392D01*
X142170788Y-105222830D01*
X142267145Y-105232674D01*
X142273530Y-105232999D01*
X142283500Y-105232998D01*
X142283500Y-103497998D01*
X142282905Y-103497404D01*
X142248879Y-103435092D01*
X142246000Y-103408309D01*
X142246000Y-100128000D01*
X142266002Y-100059879D01*
X142286933Y-100041742D01*
X142284096Y-100038905D01*
X142321000Y-100002000D01*
X142321000Y-99876000D01*
X142341002Y-99807879D01*
X142394658Y-99761386D01*
X142447000Y-99750000D01*
X142703000Y-99750000D01*
X142771121Y-99770002D01*
G37*
%TD.AperFunction*%
%TA.AperFunction,Conductor*%
G36*
X149946121Y-106766002D02*
G01*
X149992614Y-106819658D01*
X150004000Y-106872000D01*
X150004000Y-107128000D01*
X149983998Y-107196121D01*
X149930342Y-107242614D01*
X149878000Y-107254000D01*
X148488000Y-107254000D01*
X148419879Y-107233998D01*
X148373386Y-107180342D01*
X148368115Y-107156114D01*
X148362001Y-107150000D01*
X147576000Y-107150000D01*
X147507879Y-107129998D01*
X147461386Y-107076342D01*
X147450000Y-107024000D01*
X147450000Y-106976000D01*
X147470002Y-106907879D01*
X147523658Y-106861386D01*
X147576000Y-106850000D01*
X148362001Y-106850000D01*
X148371144Y-106840856D01*
X148382002Y-106803879D01*
X148435658Y-106757386D01*
X148488000Y-106746000D01*
X149878000Y-106746000D01*
X149946121Y-106766002D01*
G37*
%TD.AperFunction*%
%TA.AperFunction,Conductor*%
G36*
X149343626Y-102020002D02*
G01*
X149355438Y-102028601D01*
X149457272Y-102112174D01*
X149632387Y-102205775D01*
X149766000Y-102246305D01*
X149766000Y-102126000D01*
X149786002Y-102057879D01*
X149839658Y-102011386D01*
X149892000Y-102000000D01*
X150148000Y-102000000D01*
X150216121Y-102020002D01*
X150262614Y-102073658D01*
X150274000Y-102126000D01*
X150274000Y-102246305D01*
X150407612Y-102205775D01*
X150582727Y-102112174D01*
X150684562Y-102028601D01*
X150749909Y-102000847D01*
X150764495Y-102000000D01*
X151161000Y-102000000D01*
X151229121Y-102020002D01*
X151275614Y-102073658D01*
X151287000Y-102126000D01*
X151287000Y-103294049D01*
X151266998Y-103362170D01*
X151216339Y-103407246D01*
X151151220Y-103439080D01*
X151103894Y-103486406D01*
X151041581Y-103520431D01*
X150970766Y-103515365D01*
X150913930Y-103472818D01*
X150895192Y-103436936D01*
X150894390Y-103434517D01*
X150805202Y-103289922D01*
X150685077Y-103169797D01*
X150540480Y-103080608D01*
X150379211Y-103027169D01*
X150282857Y-103017325D01*
X150276468Y-103017000D01*
X150266500Y-103017000D01*
X150266500Y-104128000D01*
X150246498Y-104196121D01*
X150192842Y-104242614D01*
X150140500Y-104254000D01*
X149067001Y-104254000D01*
X149067001Y-104301465D01*
X149067326Y-104307857D01*
X149077169Y-104404212D01*
X149130607Y-104565479D01*
X149219797Y-104710077D01*
X149339923Y-104830203D01*
X149398379Y-104866260D01*
X149445856Y-104919046D01*
X149457259Y-104989121D01*
X149428966Y-105054236D01*
X149369960Y-105093719D01*
X149332231Y-105099500D01*
X148269570Y-105099500D01*
X148252678Y-105096744D01*
X148195963Y-105099366D01*
X148190146Y-105099500D01*
X148171098Y-105099500D01*
X148156557Y-105101186D01*
X148130009Y-105102413D01*
X148123878Y-105105121D01*
X148096150Y-105113707D01*
X148089566Y-105114938D01*
X148066969Y-105128928D01*
X148051544Y-105137059D01*
X148027234Y-105147793D01*
X148022499Y-105152529D01*
X147999745Y-105170552D01*
X147994048Y-105174079D01*
X147978030Y-105195290D01*
X147966578Y-105208449D01*
X147512432Y-105662595D01*
X147450120Y-105696621D01*
X147423337Y-105699500D01*
X146927792Y-105699500D01*
X146860531Y-105712878D01*
X146789817Y-105706548D01*
X146733751Y-105662992D01*
X146710133Y-105596038D01*
X146716349Y-105549665D01*
X146772830Y-105379215D01*
X146782674Y-105282857D01*
X146783000Y-105276467D01*
X146783000Y-105266500D01*
X144172000Y-105266500D01*
X144103879Y-105246498D01*
X144057386Y-105192842D01*
X144046000Y-105140500D01*
X144046000Y-104067000D01*
X143998535Y-104067000D01*
X143992142Y-104067326D01*
X143895787Y-104077169D01*
X143734520Y-104130607D01*
X143675146Y-104167230D01*
X143606667Y-104185967D01*
X143538928Y-104164708D01*
X143493436Y-104110201D01*
X143482999Y-104059989D01*
X143482999Y-103948534D01*
X143482673Y-103942142D01*
X143472830Y-103845787D01*
X143419392Y-103684519D01*
X143367135Y-103599799D01*
X143348397Y-103531320D01*
X143369656Y-103463581D01*
X143424162Y-103418089D01*
X143430344Y-103415595D01*
X143470962Y-103400445D01*
X143587904Y-103312904D01*
X143675445Y-103195962D01*
X143726494Y-103059093D01*
X143732640Y-103001936D01*
X143733000Y-102995222D01*
X143733000Y-102901500D01*
X143753002Y-102833379D01*
X143806658Y-102786886D01*
X143859000Y-102775500D01*
X144012173Y-102775500D01*
X144080294Y-102795502D01*
X144126787Y-102849158D01*
X144132052Y-102862709D01*
X144252129Y-103233855D01*
X144499999Y-103999999D01*
X144502125Y-104001545D01*
X144545443Y-104057795D01*
X144554000Y-104103435D01*
X144554000Y-104758500D01*
X146782999Y-104758500D01*
X146782999Y-104748534D01*
X146782673Y-104742142D01*
X146772830Y-104645787D01*
X146719392Y-104484520D01*
X146630202Y-104339922D01*
X146505375Y-104215095D01*
X146471349Y-104152783D01*
X146476414Y-104081968D01*
X146518961Y-104025132D01*
X146585481Y-104000321D01*
X146594470Y-104000000D01*
X146999999Y-104000000D01*
X147000000Y-104000000D01*
X147100263Y-103746000D01*
X149067000Y-103746000D01*
X149758500Y-103746000D01*
X149758500Y-103017000D01*
X149758499Y-103016999D01*
X149748537Y-103017000D01*
X149742140Y-103017326D01*
X149645787Y-103027169D01*
X149484520Y-103080607D01*
X149339922Y-103169797D01*
X149219797Y-103289922D01*
X149130608Y-103434519D01*
X149077169Y-103595788D01*
X149067325Y-103692142D01*
X149067000Y-103698532D01*
X149067000Y-103746000D01*
X147100263Y-103746000D01*
X147693940Y-102242019D01*
X147757999Y-102079737D01*
X147801616Y-102023718D01*
X147868595Y-102000173D01*
X147875199Y-102000000D01*
X149275505Y-102000000D01*
X149343626Y-102020002D01*
G37*
%TD.AperFunction*%
%TA.AperFunction,Conductor*%
G36*
X148135640Y-92720502D02*
G01*
X148156614Y-92737404D01*
X148663095Y-93243884D01*
X148668863Y-93254447D01*
X148598595Y-93265577D01*
X148480053Y-93325978D01*
X148385978Y-93420053D01*
X148325577Y-93538595D01*
X148313792Y-93613001D01*
X147770111Y-93069320D01*
X147770109Y-93069320D01*
X147766847Y-93073639D01*
X147673664Y-93260777D01*
X147616456Y-93461844D01*
X147597167Y-93670000D01*
X147616456Y-93878155D01*
X147673666Y-94079227D01*
X147766844Y-94266354D01*
X147770110Y-94270678D01*
X148313792Y-93726996D01*
X148325577Y-93801405D01*
X148385978Y-93919947D01*
X148480053Y-94014022D01*
X148598595Y-94074423D01*
X148673002Y-94086207D01*
X148132467Y-94626741D01*
X148225054Y-94684070D01*
X148419985Y-94759586D01*
X148625477Y-94798000D01*
X148834526Y-94798000D01*
X148902663Y-94785262D01*
X148973299Y-94792405D01*
X149028860Y-94836603D01*
X149051706Y-94903824D01*
X149034583Y-94972725D01*
X148992619Y-95012326D01*
X148895821Y-95109124D01*
X148839122Y-95220401D01*
X148827591Y-95293210D01*
X148797179Y-95357363D01*
X148736911Y-95394890D01*
X148703142Y-95399500D01*
X148624283Y-95399500D01*
X148556162Y-95379498D01*
X148511086Y-95328838D01*
X148460919Y-95226219D01*
X148373781Y-95139081D01*
X148263068Y-95084957D01*
X148245123Y-95082342D01*
X148191295Y-95074500D01*
X148191292Y-95074500D01*
X147683707Y-95074500D01*
X147611930Y-95084957D01*
X147501220Y-95139079D01*
X147453894Y-95186406D01*
X147391581Y-95220431D01*
X147320766Y-95215365D01*
X147263930Y-95172818D01*
X147245192Y-95136936D01*
X147244390Y-95134517D01*
X147155202Y-94989922D01*
X147035077Y-94869797D01*
X146890480Y-94780608D01*
X146729211Y-94727169D01*
X146632857Y-94717325D01*
X146626468Y-94717000D01*
X146616500Y-94717000D01*
X146616500Y-96682999D01*
X146626465Y-96682999D01*
X146632857Y-96682673D01*
X146729212Y-96672830D01*
X146890479Y-96619392D01*
X147035077Y-96530202D01*
X147155202Y-96410077D01*
X147244392Y-96265479D01*
X147245195Y-96263058D01*
X147251529Y-96253908D01*
X147252124Y-96252945D01*
X147252174Y-96252976D01*
X147285609Y-96204686D01*
X147351165Y-96177430D01*
X147421051Y-96189943D01*
X147453895Y-96213595D01*
X147501218Y-96260918D01*
X147501219Y-96260918D01*
X147501220Y-96260919D01*
X147611933Y-96315043D01*
X147683705Y-96325500D01*
X148191294Y-96325499D01*
X148263067Y-96315043D01*
X148373780Y-96260919D01*
X148460919Y-96173780D01*
X148467811Y-96159683D01*
X148511086Y-96071162D01*
X148558973Y-96018747D01*
X148624283Y-96000500D01*
X148698500Y-96000500D01*
X148766621Y-96020502D01*
X148813114Y-96074158D01*
X148824500Y-96126499D01*
X148824500Y-96287276D01*
X148827800Y-96308109D01*
X148839122Y-96379598D01*
X148895821Y-96490875D01*
X148984124Y-96579178D01*
X148984126Y-96579179D01*
X148984127Y-96579180D01*
X149063047Y-96619392D01*
X149112832Y-96644759D01*
X149164447Y-96693508D01*
X149172343Y-96714704D01*
X149191425Y-96745524D01*
X149199559Y-96760954D01*
X149207629Y-96779231D01*
X149210294Y-96785265D01*
X149215025Y-96789996D01*
X149233055Y-96812758D01*
X149236580Y-96818451D01*
X149257786Y-96834465D01*
X149270950Y-96845921D01*
X150209934Y-97784905D01*
X150243960Y-97847217D01*
X150238895Y-97918032D01*
X150196348Y-97974868D01*
X150129828Y-97999679D01*
X150120839Y-98000000D01*
X147000000Y-98000000D01*
X147000000Y-99297524D01*
X146979998Y-99365645D01*
X146926342Y-99412138D01*
X146884915Y-99423050D01*
X145320762Y-99559063D01*
X145251165Y-99545038D01*
X145200199Y-99495611D01*
X145184045Y-99426477D01*
X145207833Y-99359584D01*
X145254508Y-99320340D01*
X145273780Y-99310919D01*
X145360919Y-99223780D01*
X145415043Y-99113067D01*
X145425500Y-99041295D01*
X145425499Y-98533706D01*
X145415043Y-98461933D01*
X145415042Y-98461930D01*
X145360919Y-98351219D01*
X145313594Y-98303894D01*
X145279568Y-98241582D01*
X145284633Y-98170767D01*
X145327180Y-98113931D01*
X145363065Y-98095191D01*
X145365484Y-98094389D01*
X145510077Y-98005202D01*
X145630202Y-97885077D01*
X145719391Y-97740480D01*
X145772830Y-97579211D01*
X145782674Y-97482857D01*
X145783000Y-97476467D01*
X145783000Y-97466500D01*
X143817000Y-97466500D01*
X143787596Y-97495904D01*
X143725283Y-97529929D01*
X143654468Y-97524863D01*
X143597632Y-97482316D01*
X143593746Y-97476825D01*
X143583504Y-97461496D01*
X143583502Y-97461495D01*
X143583502Y-97461494D01*
X143533724Y-97428233D01*
X143504453Y-97422410D01*
X143489820Y-97419500D01*
X143489819Y-97419500D01*
X143376000Y-97419500D01*
X143307879Y-97399498D01*
X143261386Y-97345842D01*
X143250000Y-97293500D01*
X143250000Y-96958500D01*
X143817000Y-96958500D01*
X144546000Y-96958500D01*
X145054000Y-96958500D01*
X145782999Y-96958500D01*
X145782999Y-96948534D01*
X145782673Y-96942142D01*
X145772830Y-96845786D01*
X145759864Y-96806658D01*
X145757423Y-96735703D01*
X145793731Y-96674693D01*
X145857259Y-96642997D01*
X145919101Y-96647419D01*
X145995788Y-96672830D01*
X146092145Y-96682674D01*
X146098530Y-96682999D01*
X146108500Y-96682998D01*
X146108500Y-95954000D01*
X145417001Y-95954000D01*
X145417001Y-96001465D01*
X145417326Y-96007857D01*
X145427169Y-96104212D01*
X145440136Y-96143343D01*
X145442576Y-96214297D01*
X145406267Y-96275307D01*
X145342738Y-96307003D01*
X145280899Y-96302580D01*
X145204213Y-96277169D01*
X145107857Y-96267325D01*
X145101468Y-96267000D01*
X145054000Y-96267000D01*
X145054000Y-96958500D01*
X144546000Y-96958500D01*
X144546000Y-96267000D01*
X144498535Y-96267000D01*
X144492142Y-96267326D01*
X144395787Y-96277169D01*
X144234520Y-96330607D01*
X144089922Y-96419797D01*
X143969797Y-96539922D01*
X143880608Y-96684519D01*
X143827169Y-96845788D01*
X143817325Y-96942142D01*
X143817000Y-96948532D01*
X143817000Y-96958500D01*
X143250000Y-96958500D01*
X143250000Y-96706500D01*
X143270002Y-96638379D01*
X143323658Y-96591886D01*
X143376000Y-96580500D01*
X143489819Y-96580500D01*
X143489820Y-96580500D01*
X143533722Y-96571767D01*
X143533723Y-96571766D01*
X143533724Y-96571766D01*
X143583504Y-96538504D01*
X143616766Y-96488724D01*
X143616766Y-96488723D01*
X143616767Y-96488722D01*
X143625500Y-96444820D01*
X143625500Y-95851659D01*
X143645502Y-95783539D01*
X143662401Y-95762569D01*
X143978970Y-95446000D01*
X145417000Y-95446000D01*
X146108500Y-95446000D01*
X146108500Y-94717000D01*
X146108499Y-94716999D01*
X146098537Y-94717000D01*
X146092140Y-94717326D01*
X145995787Y-94727169D01*
X145834520Y-94780607D01*
X145689922Y-94869797D01*
X145569797Y-94989922D01*
X145480608Y-95134519D01*
X145427169Y-95295788D01*
X145417325Y-95392142D01*
X145417000Y-95398532D01*
X145417000Y-95446000D01*
X143978970Y-95446000D01*
X144558821Y-94866148D01*
X144621133Y-94832123D01*
X144647916Y-94829244D01*
X144771254Y-94829244D01*
X144826182Y-94807965D01*
X144870783Y-94790687D01*
X144889624Y-94775763D01*
X145140820Y-94524566D01*
X145155745Y-94505725D01*
X145194302Y-94406195D01*
X145194302Y-94299457D01*
X145190518Y-94289690D01*
X145176309Y-94253010D01*
X145170353Y-94182264D01*
X145203591Y-94119528D01*
X145265470Y-94084721D01*
X145336344Y-94088894D01*
X145339316Y-94090003D01*
X145385763Y-94107996D01*
X145492501Y-94107996D01*
X145492502Y-94107996D01*
X145556661Y-94083141D01*
X145592031Y-94069439D01*
X145610872Y-94054515D01*
X145862068Y-93803318D01*
X145876993Y-93784477D01*
X145915550Y-93684947D01*
X145915550Y-93578209D01*
X145915549Y-93578208D01*
X145915550Y-93561611D01*
X145935552Y-93493490D01*
X145952455Y-93472515D01*
X146103652Y-93321319D01*
X146495730Y-92929241D01*
X146687568Y-92737404D01*
X146749880Y-92703379D01*
X146776663Y-92700500D01*
X148067519Y-92700500D01*
X148135640Y-92720502D01*
G37*
%TD.AperFunction*%
%TA.AperFunction,Conductor*%
G36*
X150499061Y-75030537D02*
G01*
X151486366Y-75069819D01*
X151491308Y-75070114D01*
X152476355Y-75148624D01*
X152481300Y-75149118D01*
X153462372Y-75266719D01*
X153467308Y-75267411D01*
X154442939Y-75423924D01*
X154447864Y-75424816D01*
X154712412Y-75478121D01*
X155416497Y-75619993D01*
X155421348Y-75621071D01*
X156381461Y-75854604D01*
X156386273Y-75855876D01*
X157336389Y-76127409D01*
X157341143Y-76128871D01*
X158279659Y-76437945D01*
X158284333Y-76439588D01*
X159073151Y-76734614D01*
X159209842Y-76785738D01*
X159214496Y-76787585D01*
X160125506Y-77170253D01*
X160130042Y-77172266D01*
X160920036Y-77541709D01*
X161025107Y-77590846D01*
X161029602Y-77593058D01*
X161907315Y-78046890D01*
X161911719Y-78049280D01*
X162770652Y-78537624D01*
X162774952Y-78540182D01*
X163613874Y-79062339D01*
X163618023Y-79065038D01*
X164435505Y-79620122D01*
X164439548Y-79622986D01*
X165234329Y-80210143D01*
X165238262Y-80213172D01*
X166009053Y-80831447D01*
X166012885Y-80834649D01*
X166758444Y-81483042D01*
X166762159Y-81486404D01*
X167481382Y-82163957D01*
X167484960Y-82167465D01*
X168176663Y-82873060D01*
X168180098Y-82876707D01*
X168843184Y-83609223D01*
X168846472Y-83613003D01*
X169479931Y-84371327D01*
X169483066Y-84375235D01*
X170085878Y-85158144D01*
X170088855Y-85162174D01*
X170660050Y-85968411D01*
X170662865Y-85972556D01*
X171201565Y-86800879D01*
X171204213Y-86805133D01*
X171709564Y-87654231D01*
X171712040Y-87658587D01*
X172183218Y-88527076D01*
X172185519Y-88531526D01*
X172611247Y-89396623D01*
X172621801Y-89418068D01*
X172623924Y-89422607D01*
X173024621Y-90325810D01*
X173026561Y-90330429D01*
X173391030Y-91248838D01*
X173392785Y-91253531D01*
X173720453Y-92185702D01*
X173722020Y-92190461D01*
X174012365Y-93134909D01*
X174013742Y-93139726D01*
X174266317Y-94095000D01*
X174267501Y-94099869D01*
X174481890Y-95064395D01*
X174482880Y-95069306D01*
X174658757Y-96041613D01*
X174659551Y-96046560D01*
X174796636Y-97025107D01*
X174797232Y-97030082D01*
X174895303Y-98013281D01*
X174895701Y-98018276D01*
X174954605Y-99004604D01*
X174954804Y-99009610D01*
X174974450Y-99997494D01*
X174974450Y-100002504D01*
X174954804Y-100990389D01*
X174954605Y-100995395D01*
X174895701Y-101981723D01*
X174895303Y-101986718D01*
X174797232Y-102969917D01*
X174796636Y-102974892D01*
X174659551Y-103953439D01*
X174658757Y-103958386D01*
X174482880Y-104930693D01*
X174481890Y-104935604D01*
X174267501Y-105900130D01*
X174266317Y-105904999D01*
X174013742Y-106860273D01*
X174012365Y-106865090D01*
X173722020Y-107809538D01*
X173720453Y-107814297D01*
X173392785Y-108746468D01*
X173391030Y-108751161D01*
X173026561Y-109669570D01*
X173024621Y-109674189D01*
X172623924Y-110577392D01*
X172621801Y-110581931D01*
X172185519Y-111468473D01*
X172183218Y-111472923D01*
X171712040Y-112341412D01*
X171709564Y-112345768D01*
X171204213Y-113194866D01*
X171201565Y-113199120D01*
X170662865Y-114027443D01*
X170660050Y-114031588D01*
X170088855Y-114837825D01*
X170085878Y-114841855D01*
X169483066Y-115624764D01*
X169479931Y-115628672D01*
X168846472Y-116386996D01*
X168843184Y-116390776D01*
X168180098Y-117123292D01*
X168176663Y-117126939D01*
X167484960Y-117832534D01*
X167481382Y-117836042D01*
X166762159Y-118513595D01*
X166758444Y-118516957D01*
X166012885Y-119165350D01*
X166009040Y-119168562D01*
X165238280Y-119786813D01*
X165234310Y-119789870D01*
X164439570Y-120376997D01*
X164435482Y-120379893D01*
X163618049Y-120934944D01*
X163613849Y-120937676D01*
X162774958Y-121459813D01*
X162770652Y-121462375D01*
X161911719Y-121950719D01*
X161907315Y-121953109D01*
X161029602Y-122406941D01*
X161025107Y-122409153D01*
X160130064Y-122827723D01*
X160125484Y-122829755D01*
X159214499Y-123212413D01*
X159209842Y-123214261D01*
X158284359Y-123560402D01*
X158279632Y-123562063D01*
X157341161Y-123871122D01*
X157336372Y-123872595D01*
X156386289Y-124144119D01*
X156381445Y-124145399D01*
X155421373Y-124378922D01*
X155416482Y-124380009D01*
X154447864Y-124575183D01*
X154442934Y-124576075D01*
X153467321Y-124732586D01*
X153462359Y-124733281D01*
X152481320Y-124850879D01*
X152476335Y-124851377D01*
X151491337Y-124929883D01*
X151486335Y-124930181D01*
X150499061Y-124969463D01*
X150494052Y-124969563D01*
X149505948Y-124969563D01*
X149500939Y-124969463D01*
X148513664Y-124930181D01*
X148508662Y-124929883D01*
X147523664Y-124851377D01*
X147518679Y-124850879D01*
X146537640Y-124733281D01*
X146532678Y-124732586D01*
X145557065Y-124576075D01*
X145552135Y-124575183D01*
X144583517Y-124380009D01*
X144578626Y-124378922D01*
X143618554Y-124145399D01*
X143613710Y-124144119D01*
X142663627Y-123872595D01*
X142658838Y-123871122D01*
X141720367Y-123562063D01*
X141715640Y-123560402D01*
X140790157Y-123214261D01*
X140785500Y-123212413D01*
X139874515Y-122829755D01*
X139869935Y-122827723D01*
X138974892Y-122409153D01*
X138970397Y-122406941D01*
X138092684Y-121953109D01*
X138088280Y-121950719D01*
X137229347Y-121462375D01*
X137225041Y-121459813D01*
X136903970Y-121259974D01*
X136386137Y-120937667D01*
X136381963Y-120934952D01*
X135564504Y-120379884D01*
X135560442Y-120377006D01*
X134765678Y-119789861D01*
X134761719Y-119786813D01*
X133990959Y-119168562D01*
X133987114Y-119165350D01*
X133241555Y-118516957D01*
X133237840Y-118513595D01*
X132518617Y-117836042D01*
X132515039Y-117832534D01*
X131823336Y-117126939D01*
X131819901Y-117123292D01*
X131156815Y-116390776D01*
X131153527Y-116386996D01*
X130520068Y-115628672D01*
X130516933Y-115624764D01*
X130404569Y-115478831D01*
X129914113Y-114841845D01*
X129911144Y-114837825D01*
X129339949Y-114031588D01*
X129337134Y-114027443D01*
X128798434Y-113199120D01*
X128795786Y-113194866D01*
X128794961Y-113193480D01*
X128290417Y-112345736D01*
X128287977Y-112341444D01*
X127816777Y-111472915D01*
X127814480Y-111468473D01*
X127378184Y-110581901D01*
X127376089Y-110577422D01*
X127027330Y-109791294D01*
X126975378Y-109674189D01*
X126973438Y-109669570D01*
X126608969Y-108751161D01*
X126607214Y-108746468D01*
X126279546Y-107814297D01*
X126277979Y-107809538D01*
X126212705Y-107597211D01*
X125987624Y-106865055D01*
X125986266Y-106860307D01*
X125733675Y-105904974D01*
X125732504Y-105900155D01*
X125518109Y-104935604D01*
X125517119Y-104930693D01*
X125477213Y-104710077D01*
X125341236Y-103958352D01*
X125340453Y-103953473D01*
X125203361Y-102974877D01*
X125202767Y-102969917D01*
X125104694Y-101986699D01*
X125104298Y-101981723D01*
X125102911Y-101958504D01*
X125045393Y-100995391D01*
X125045195Y-100990389D01*
X125043745Y-100917459D01*
X125025549Y-100002439D01*
X125025549Y-99997535D01*
X125045195Y-99009604D01*
X125045394Y-99004604D01*
X125045820Y-98997466D01*
X125104299Y-98018253D01*
X125104696Y-98013281D01*
X125106205Y-97998161D01*
X125202769Y-97030060D01*
X125203363Y-97025107D01*
X125323940Y-96164400D01*
X131169150Y-96164400D01*
X131188069Y-96308109D01*
X131243537Y-96442023D01*
X131266637Y-96472127D01*
X131331779Y-96557021D01*
X131398675Y-96608352D01*
X131446776Y-96645262D01*
X131580690Y-96700730D01*
X131590246Y-96701988D01*
X131724400Y-96719650D01*
X131868109Y-96700730D01*
X131905670Y-96685172D01*
X132002023Y-96645262D01*
X132002023Y-96645261D01*
X132002025Y-96645261D01*
X132117021Y-96557021D01*
X132149881Y-96514196D01*
X132207220Y-96472329D01*
X132249844Y-96464900D01*
X132263100Y-96464900D01*
X132331221Y-96484902D01*
X132377714Y-96538558D01*
X132389100Y-96590900D01*
X132389100Y-96742492D01*
X132369098Y-96810613D01*
X132367866Y-96812492D01*
X132343834Y-96848458D01*
X132343833Y-96848460D01*
X132343834Y-96848460D01*
X132329300Y-96921526D01*
X132329300Y-98395874D01*
X132343834Y-98468940D01*
X132399199Y-98551801D01*
X132482060Y-98607166D01*
X132555126Y-98621700D01*
X132804473Y-98621700D01*
X132804474Y-98621700D01*
X132877540Y-98607166D01*
X132934800Y-98568906D01*
X133002551Y-98547692D01*
X133071018Y-98566475D01*
X133074784Y-98568896D01*
X133092199Y-98580532D01*
X133132058Y-98607165D01*
X133132060Y-98607166D01*
X133205126Y-98621700D01*
X133454473Y-98621700D01*
X133454474Y-98621700D01*
X133527540Y-98607166D01*
X133584800Y-98568906D01*
X133652551Y-98547692D01*
X133721018Y-98566475D01*
X133724784Y-98568896D01*
X133742199Y-98580532D01*
X133782058Y-98607165D01*
X133782060Y-98607166D01*
X133855126Y-98621700D01*
X134104471Y-98621700D01*
X134104474Y-98621700D01*
X134167021Y-98609258D01*
X134237732Y-98615586D01*
X134293800Y-98659139D01*
X134317420Y-98726092D01*
X134301094Y-98795185D01*
X134280696Y-98821932D01*
X133166504Y-99936123D01*
X133152611Y-99946120D01*
X133114354Y-99988084D01*
X133110337Y-99992290D01*
X132516505Y-100586122D01*
X132502611Y-100596120D01*
X132464353Y-100638085D01*
X132460341Y-100642287D01*
X132446879Y-100655749D01*
X132437791Y-100667222D01*
X132419883Y-100686866D01*
X132417462Y-100693116D01*
X132403926Y-100718796D01*
X132400143Y-100724319D01*
X132394059Y-100750183D01*
X132388900Y-100766845D01*
X132379300Y-100791627D01*
X132379300Y-100798318D01*
X132375953Y-100827166D01*
X132374420Y-100833679D01*
X132378092Y-100859996D01*
X132379300Y-100877404D01*
X132379300Y-100982159D01*
X132359298Y-101050280D01*
X132358067Y-101052158D01*
X132343834Y-101073459D01*
X132343833Y-101073460D01*
X132343834Y-101073460D01*
X132329300Y-101146526D01*
X132329300Y-102620874D01*
X132343834Y-102693940D01*
X132399199Y-102776801D01*
X132482060Y-102832166D01*
X132555126Y-102846700D01*
X132804473Y-102846700D01*
X132804474Y-102846700D01*
X132877540Y-102832166D01*
X132877541Y-102832165D01*
X132878718Y-102831931D01*
X132949432Y-102838259D01*
X133005499Y-102881813D01*
X133029119Y-102948765D01*
X133029300Y-102955510D01*
X133029300Y-103276351D01*
X133009298Y-103344472D01*
X132992396Y-103365446D01*
X132925384Y-103432457D01*
X132883984Y-103526220D01*
X132882270Y-103530102D01*
X132879500Y-103553977D01*
X132879500Y-103557622D01*
X132879500Y-103557623D01*
X132879500Y-103905583D01*
X132879500Y-103905600D01*
X132879501Y-103909222D01*
X132879919Y-103912830D01*
X132879920Y-103912839D01*
X132882269Y-103933096D01*
X132925385Y-104030743D01*
X133000856Y-104106214D01*
X133000857Y-104106214D01*
X133000859Y-104106216D01*
X133046426Y-104126336D01*
X133100662Y-104172148D01*
X133121521Y-104240011D01*
X133102379Y-104308378D01*
X133049314Y-104355544D01*
X133046428Y-104356862D01*
X133000857Y-104376984D01*
X132925385Y-104452456D01*
X132889289Y-104534206D01*
X132882270Y-104550102D01*
X132879500Y-104573977D01*
X132879500Y-104577622D01*
X132879500Y-104577623D01*
X132879500Y-104925583D01*
X132879500Y-104925600D01*
X132879501Y-104929222D01*
X132879919Y-104932830D01*
X132879920Y-104932839D01*
X132882269Y-104953096D01*
X132925385Y-105050743D01*
X133000856Y-105126214D01*
X133000857Y-105126214D01*
X133000859Y-105126216D01*
X133098502Y-105169330D01*
X133122377Y-105172100D01*
X133577622Y-105172099D01*
X133601498Y-105169330D01*
X133699141Y-105126216D01*
X133736353Y-105089003D01*
X133798663Y-105054980D01*
X133825447Y-105052100D01*
X134445339Y-105052100D01*
X134513460Y-105072102D01*
X134534428Y-105088999D01*
X134942997Y-105497568D01*
X134977020Y-105559877D01*
X134979900Y-105586660D01*
X134979900Y-106017518D01*
X134959898Y-106085639D01*
X134942996Y-106106613D01*
X134426607Y-106623001D01*
X134414823Y-106548595D01*
X134354422Y-106430053D01*
X134260347Y-106335978D01*
X134141805Y-106275577D01*
X134067397Y-106263792D01*
X134607932Y-105723256D01*
X134515348Y-105665930D01*
X134320414Y-105590413D01*
X134114923Y-105552000D01*
X133905877Y-105552000D01*
X133700385Y-105590413D01*
X133505451Y-105665930D01*
X133412866Y-105723257D01*
X133953401Y-106263792D01*
X133878995Y-106275577D01*
X133760453Y-106335978D01*
X133666378Y-106430053D01*
X133605977Y-106548595D01*
X133594192Y-106623001D01*
X133050511Y-106079320D01*
X133050509Y-106079320D01*
X133047247Y-106083639D01*
X132954064Y-106270777D01*
X132896856Y-106471844D01*
X132877567Y-106679999D01*
X132896856Y-106888155D01*
X132954066Y-107089227D01*
X133047244Y-107276354D01*
X133050510Y-107280678D01*
X133594192Y-106736996D01*
X133605977Y-106811405D01*
X133666378Y-106929947D01*
X133760453Y-107024022D01*
X133878995Y-107084423D01*
X133953402Y-107096207D01*
X133412867Y-107636741D01*
X133505454Y-107694070D01*
X133700385Y-107769586D01*
X133905877Y-107808000D01*
X134114923Y-107808000D01*
X134320414Y-107769586D01*
X134340682Y-107761734D01*
X134411429Y-107755775D01*
X134474165Y-107789011D01*
X134508975Y-107850888D01*
X134511410Y-107893331D01*
X134505025Y-107949999D01*
X134511410Y-108006668D01*
X134499160Y-108076600D01*
X134451047Y-108128808D01*
X134382346Y-108146716D01*
X134340686Y-108138267D01*
X134320414Y-108130413D01*
X134114923Y-108092000D01*
X133905877Y-108092000D01*
X133700385Y-108130413D01*
X133505451Y-108205930D01*
X133412867Y-108263257D01*
X133953403Y-108803792D01*
X133878995Y-108815577D01*
X133760453Y-108875978D01*
X133666378Y-108970053D01*
X133605977Y-109088595D01*
X133594192Y-109163001D01*
X133050510Y-108619320D01*
X133050509Y-108619320D01*
X133047247Y-108623639D01*
X132954064Y-108810777D01*
X132896856Y-109011844D01*
X132877567Y-109219999D01*
X132896856Y-109428155D01*
X132954066Y-109629227D01*
X133047244Y-109816354D01*
X133050511Y-109820678D01*
X133594192Y-109276997D01*
X133605977Y-109351405D01*
X133666378Y-109469947D01*
X133760453Y-109564022D01*
X133878995Y-109624423D01*
X133953402Y-109636207D01*
X133412867Y-110176741D01*
X133505454Y-110234070D01*
X133700385Y-110309586D01*
X133905877Y-110348000D01*
X134114923Y-110348000D01*
X134320414Y-110309586D01*
X134515349Y-110234068D01*
X134607931Y-110176742D01*
X134067397Y-109636207D01*
X134141805Y-109624423D01*
X134260347Y-109564022D01*
X134354422Y-109469947D01*
X134414823Y-109351405D01*
X134426607Y-109276997D01*
X134970287Y-109820678D01*
X134970289Y-109820678D01*
X134973550Y-109816361D01*
X135066735Y-109629222D01*
X135123943Y-109428155D01*
X135143232Y-109219999D01*
X135123943Y-109011846D01*
X135085975Y-108878402D01*
X135086571Y-108807408D01*
X135125455Y-108748006D01*
X135190281Y-108719056D01*
X135221264Y-108718712D01*
X135280400Y-108725375D01*
X135339530Y-108718712D01*
X135409458Y-108730961D01*
X135461666Y-108779073D01*
X135479575Y-108847774D01*
X135474824Y-108878401D01*
X135436856Y-109011844D01*
X135417567Y-109220000D01*
X135436856Y-109428155D01*
X135494066Y-109629227D01*
X135587244Y-109816354D01*
X135590511Y-109820678D01*
X136134192Y-109276997D01*
X136145977Y-109351405D01*
X136206378Y-109469947D01*
X136300453Y-109564022D01*
X136418995Y-109624423D01*
X136493402Y-109636207D01*
X135952867Y-110176741D01*
X136045454Y-110234070D01*
X136240385Y-110309586D01*
X136445877Y-110348000D01*
X136654923Y-110348000D01*
X136860414Y-110309586D01*
X137055349Y-110234068D01*
X137147931Y-110176742D01*
X136607397Y-109636207D01*
X136681805Y-109624423D01*
X136800347Y-109564022D01*
X136894422Y-109469947D01*
X136954823Y-109351405D01*
X136966607Y-109276996D01*
X137510288Y-109820678D01*
X137510289Y-109820678D01*
X137513550Y-109816361D01*
X137606735Y-109629222D01*
X137663943Y-109428155D01*
X137683232Y-109220000D01*
X137663943Y-109011844D01*
X137606733Y-108810772D01*
X137513553Y-108623642D01*
X137510288Y-108619319D01*
X136966607Y-109163000D01*
X136954823Y-109088595D01*
X136894422Y-108970053D01*
X136800347Y-108875978D01*
X136681805Y-108815577D01*
X136607398Y-108803792D01*
X137147932Y-108263256D01*
X137055348Y-108205930D01*
X136860414Y-108130413D01*
X136654923Y-108092000D01*
X136445877Y-108092000D01*
X136240382Y-108130414D01*
X136220112Y-108138267D01*
X136149366Y-108144223D01*
X136086630Y-108110985D01*
X136051823Y-108049106D01*
X136049389Y-108006673D01*
X136055775Y-107950000D01*
X136049389Y-107893328D01*
X136061638Y-107823400D01*
X136109750Y-107771192D01*
X136178451Y-107753283D01*
X136220115Y-107761733D01*
X136240385Y-107769586D01*
X136445877Y-107808000D01*
X136654923Y-107808000D01*
X136860414Y-107769586D01*
X137055349Y-107694068D01*
X137147931Y-107636742D01*
X137147931Y-107636741D01*
X136607397Y-107096207D01*
X136681805Y-107084423D01*
X136800347Y-107024022D01*
X136894422Y-106929947D01*
X136954823Y-106811405D01*
X136966607Y-106736998D01*
X137510287Y-107280678D01*
X137510289Y-107280678D01*
X137513550Y-107276361D01*
X137606735Y-107089222D01*
X137663943Y-106888155D01*
X137683232Y-106680000D01*
X137663943Y-106471844D01*
X137606733Y-106270772D01*
X137513553Y-106083642D01*
X137510288Y-106079320D01*
X136966607Y-106623001D01*
X136954823Y-106548595D01*
X136894422Y-106430053D01*
X136800347Y-106335978D01*
X136681805Y-106275577D01*
X136607397Y-106263792D01*
X137147932Y-105723256D01*
X137055348Y-105665930D01*
X136860414Y-105590413D01*
X136654923Y-105552000D01*
X136445877Y-105552000D01*
X136240385Y-105590413D01*
X136045451Y-105665930D01*
X135952866Y-105723257D01*
X136493401Y-106263792D01*
X136418995Y-106275577D01*
X136300453Y-106335978D01*
X136206378Y-106430053D01*
X136145977Y-106548595D01*
X136134192Y-106623002D01*
X135617804Y-106106614D01*
X135583779Y-106044302D01*
X135580900Y-106017519D01*
X135580900Y-105479571D01*
X135583655Y-105462681D01*
X135583172Y-105452236D01*
X135583173Y-105452235D01*
X135581034Y-105405963D01*
X135580900Y-105400146D01*
X135580900Y-105381095D01*
X135579211Y-105366554D01*
X135577985Y-105340008D01*
X135575277Y-105333877D01*
X135566689Y-105306138D01*
X135566199Y-105303516D01*
X135565461Y-105299567D01*
X135551477Y-105276981D01*
X135543342Y-105261548D01*
X135532607Y-105237237D01*
X135532606Y-105237236D01*
X135532606Y-105237235D01*
X135527873Y-105232502D01*
X135509845Y-105209742D01*
X135506319Y-105204048D01*
X135485113Y-105188034D01*
X135471950Y-105176579D01*
X134883682Y-104588311D01*
X134873684Y-104574414D01*
X134831716Y-104536155D01*
X134827526Y-104532155D01*
X134814797Y-104519426D01*
X134814796Y-104519425D01*
X134814048Y-104518677D01*
X134802575Y-104509589D01*
X134782933Y-104491683D01*
X134776685Y-104489263D01*
X134750999Y-104475724D01*
X134745481Y-104471944D01*
X134745480Y-104471943D01*
X134745479Y-104471943D01*
X134719618Y-104465860D01*
X134702955Y-104460700D01*
X134678174Y-104451100D01*
X134678173Y-104451100D01*
X134671481Y-104451100D01*
X134642632Y-104447753D01*
X134636119Y-104446221D01*
X134609804Y-104449892D01*
X134592396Y-104451100D01*
X133825447Y-104451100D01*
X133757326Y-104431098D01*
X133736356Y-104414199D01*
X133699141Y-104376984D01*
X133699140Y-104376983D01*
X133653574Y-104356864D01*
X133599337Y-104311051D01*
X133578478Y-104243187D01*
X133597620Y-104174820D01*
X133650686Y-104127655D01*
X133653574Y-104126336D01*
X133654811Y-104125789D01*
X133699141Y-104106216D01*
X133774616Y-104030741D01*
X133817730Y-103933098D01*
X133820500Y-103909223D01*
X133820499Y-103663259D01*
X133840501Y-103595140D01*
X133894156Y-103548647D01*
X133964430Y-103538542D01*
X134029011Y-103568035D01*
X134035594Y-103574165D01*
X134053519Y-103592090D01*
X134063517Y-103605986D01*
X134105482Y-103644242D01*
X134109671Y-103648242D01*
X134122403Y-103660974D01*
X134122406Y-103660976D01*
X134123148Y-103661718D01*
X134134627Y-103670812D01*
X134154267Y-103688716D01*
X134160509Y-103691134D01*
X134186202Y-103704677D01*
X134191719Y-103708456D01*
X134217582Y-103714538D01*
X134234232Y-103719693D01*
X134259027Y-103729300D01*
X134265719Y-103729300D01*
X134294567Y-103732646D01*
X134301081Y-103734179D01*
X134327396Y-103730507D01*
X134344804Y-103729300D01*
X135718830Y-103729300D01*
X135735721Y-103732055D01*
X135746163Y-103731572D01*
X135746165Y-103731573D01*
X135790182Y-103729538D01*
X135792437Y-103729434D01*
X135798254Y-103729300D01*
X135817304Y-103729300D01*
X135831842Y-103727611D01*
X135858392Y-103726385D01*
X135864518Y-103723679D01*
X135892257Y-103715090D01*
X135898833Y-103713861D01*
X135921426Y-103699871D01*
X135936854Y-103691740D01*
X135961165Y-103681006D01*
X135965895Y-103676275D01*
X135988663Y-103658241D01*
X135994352Y-103654719D01*
X136010373Y-103633502D01*
X136021815Y-103620354D01*
X136081288Y-103560881D01*
X136095180Y-103550887D01*
X136102224Y-103543159D01*
X136102228Y-103543158D01*
X136133466Y-103508889D01*
X136137422Y-103504747D01*
X136150174Y-103491997D01*
X136150178Y-103491990D01*
X136150925Y-103491244D01*
X136160011Y-103479772D01*
X136177916Y-103460133D01*
X136180333Y-103453891D01*
X136193875Y-103428199D01*
X136197656Y-103422681D01*
X136203739Y-103396814D01*
X136208900Y-103380151D01*
X136218500Y-103355373D01*
X136218500Y-103348680D01*
X136221847Y-103319831D01*
X136223379Y-103313319D01*
X136219708Y-103287002D01*
X136218500Y-103269595D01*
X136218500Y-101623708D01*
X136238502Y-101555587D01*
X136292158Y-101509094D01*
X136362432Y-101498990D01*
X136408639Y-101515254D01*
X136478604Y-101556631D01*
X136624000Y-101598872D01*
X136624000Y-101041200D01*
X137132000Y-101041200D01*
X137132000Y-101598872D01*
X137277395Y-101556631D01*
X137418323Y-101473287D01*
X137534087Y-101357523D01*
X137617430Y-101216596D01*
X137663108Y-101059374D01*
X137664539Y-101041200D01*
X137132000Y-101041200D01*
X136624000Y-101041200D01*
X136624000Y-100659200D01*
X136644002Y-100591079D01*
X136697658Y-100544586D01*
X136750000Y-100533200D01*
X137664538Y-100533200D01*
X137663108Y-100515025D01*
X137630519Y-100402853D01*
X137630722Y-100331856D01*
X137669275Y-100272240D01*
X137733940Y-100242931D01*
X137751506Y-100241699D01*
X137996022Y-100241699D01*
X138019898Y-100238930D01*
X138117541Y-100195816D01*
X138193016Y-100120341D01*
X138213136Y-100074773D01*
X138258947Y-100020537D01*
X138326810Y-99999678D01*
X138395178Y-100018820D01*
X138442344Y-100071885D01*
X138443662Y-100074772D01*
X138463783Y-100120341D01*
X138539256Y-100195814D01*
X138539257Y-100195814D01*
X138539259Y-100195816D01*
X138636902Y-100238930D01*
X138660777Y-100241700D01*
X139016022Y-100241699D01*
X139039898Y-100238930D01*
X139137541Y-100195816D01*
X139168941Y-100164416D01*
X139201953Y-100131405D01*
X139264265Y-100097379D01*
X139291048Y-100094500D01*
X139329080Y-100094500D01*
X139397201Y-100114502D01*
X139418177Y-100131406D01*
X139460412Y-100173642D01*
X139494436Y-100235954D01*
X139489370Y-100306770D01*
X139460411Y-100351831D01*
X139376984Y-100435258D01*
X139340169Y-100518637D01*
X139333870Y-100532902D01*
X139331100Y-100556777D01*
X139331100Y-100560422D01*
X139331100Y-100560423D01*
X139331100Y-100908383D01*
X139331100Y-100908400D01*
X139331101Y-100912022D01*
X139331519Y-100915630D01*
X139331520Y-100915639D01*
X139333869Y-100935896D01*
X139376985Y-101033543D01*
X139452456Y-101109014D01*
X139452457Y-101109014D01*
X139452459Y-101109016D01*
X139498026Y-101129136D01*
X139552262Y-101174948D01*
X139573121Y-101242811D01*
X139553979Y-101311178D01*
X139500914Y-101358344D01*
X139498028Y-101359662D01*
X139452457Y-101379784D01*
X139376985Y-101455256D01*
X139335932Y-101548233D01*
X139333870Y-101552902D01*
X139331100Y-101576777D01*
X139331100Y-101580422D01*
X139331100Y-101580423D01*
X139331100Y-101928383D01*
X139331100Y-101928400D01*
X139331101Y-101932022D01*
X139331519Y-101935630D01*
X139331520Y-101935639D01*
X139333869Y-101955896D01*
X139376985Y-102053543D01*
X139452456Y-102129014D01*
X139452457Y-102129014D01*
X139452459Y-102129016D01*
X139550102Y-102172130D01*
X139573977Y-102174900D01*
X139961995Y-102174899D01*
X140030115Y-102194901D01*
X140046878Y-102207781D01*
X140055268Y-102215429D01*
X140059460Y-102219432D01*
X140068142Y-102228114D01*
X140072950Y-102232922D01*
X140084430Y-102242014D01*
X140104067Y-102259916D01*
X140110310Y-102262334D01*
X140135996Y-102275873D01*
X140141520Y-102279657D01*
X140160779Y-102284186D01*
X140167382Y-102285740D01*
X140184048Y-102290901D01*
X140208827Y-102300500D01*
X140215519Y-102300500D01*
X140244348Y-102303842D01*
X140248255Y-102304761D01*
X140309989Y-102339820D01*
X140342970Y-102402691D01*
X140336725Y-102473412D01*
X140308515Y-102516512D01*
X140086705Y-102738322D01*
X140072811Y-102748320D01*
X140034553Y-102790285D01*
X140030541Y-102794487D01*
X140017079Y-102807949D01*
X140007991Y-102819422D01*
X139990083Y-102839066D01*
X139987662Y-102845316D01*
X139974126Y-102870996D01*
X139970343Y-102876519D01*
X139964259Y-102902383D01*
X139959100Y-102919045D01*
X139949500Y-102943827D01*
X139949500Y-102950518D01*
X139946153Y-102979366D01*
X139944620Y-102985879D01*
X139948292Y-103012196D01*
X139949500Y-103029604D01*
X139949500Y-103467930D01*
X139946744Y-103484821D01*
X139949366Y-103541536D01*
X139949500Y-103547353D01*
X139949500Y-103566403D01*
X139951186Y-103580944D01*
X139952413Y-103607491D01*
X139955120Y-103613621D01*
X139963707Y-103641350D01*
X139964937Y-103647932D01*
X139978925Y-103670524D01*
X139987059Y-103685954D01*
X139997105Y-103708706D01*
X139997794Y-103710265D01*
X140002525Y-103714996D01*
X140020555Y-103737758D01*
X140024081Y-103743452D01*
X140027455Y-103746000D01*
X140045286Y-103759465D01*
X140058450Y-103770921D01*
X140337595Y-104050066D01*
X140371621Y-104112378D01*
X140374500Y-104139161D01*
X140374500Y-104541292D01*
X140384957Y-104613069D01*
X140439080Y-104723780D01*
X140526218Y-104810918D01*
X140526219Y-104810918D01*
X140526220Y-104810919D01*
X140636933Y-104865043D01*
X140643347Y-104865977D01*
X140707872Y-104895590D01*
X140746145Y-104955387D01*
X140746013Y-105026384D01*
X140741592Y-105038878D01*
X140713669Y-105106290D01*
X140694750Y-105249999D01*
X140713669Y-105393709D01*
X140769137Y-105527623D01*
X140793887Y-105559877D01*
X140857379Y-105642621D01*
X140927753Y-105696621D01*
X140972376Y-105730862D01*
X141106290Y-105786330D01*
X141128078Y-105789198D01*
X141250000Y-105805250D01*
X141303519Y-105798203D01*
X141373665Y-105809142D01*
X141409059Y-105834030D01*
X144538319Y-108963290D01*
X144548317Y-108977186D01*
X144558431Y-108986406D01*
X144590197Y-109015365D01*
X144590282Y-109015442D01*
X144594471Y-109019442D01*
X144607203Y-109032174D01*
X144607206Y-109032176D01*
X144607948Y-109032918D01*
X144619427Y-109042012D01*
X144639067Y-109059916D01*
X144645309Y-109062334D01*
X144671002Y-109075877D01*
X144676519Y-109079656D01*
X144702382Y-109085738D01*
X144719032Y-109090893D01*
X144743827Y-109100500D01*
X144750519Y-109100500D01*
X144779367Y-109103846D01*
X144785881Y-109105379D01*
X144812196Y-109101707D01*
X144829604Y-109100500D01*
X144900873Y-109100500D01*
X144968994Y-109120502D01*
X145004569Y-109154924D01*
X145059517Y-109234530D01*
X145137797Y-109303879D01*
X145177761Y-109339284D01*
X145240096Y-109372000D01*
X145317635Y-109412696D01*
X145471015Y-109450500D01*
X145628983Y-109450500D01*
X145628985Y-109450500D01*
X145782365Y-109412696D01*
X145922240Y-109339283D01*
X146040483Y-109234530D01*
X146130220Y-109104523D01*
X146186237Y-108956818D01*
X146205278Y-108800000D01*
X146187736Y-108655529D01*
X146199381Y-108585496D01*
X146223718Y-108551251D01*
X146437567Y-108337404D01*
X146499881Y-108303379D01*
X146526663Y-108300500D01*
X147173500Y-108300500D01*
X147241621Y-108320502D01*
X147288114Y-108374158D01*
X147299500Y-108426500D01*
X147299500Y-108752299D01*
X147279498Y-108820420D01*
X147225842Y-108866913D01*
X147191666Y-108876983D01*
X147136930Y-108884957D01*
X147026219Y-108939080D01*
X146939081Y-109026218D01*
X146884957Y-109136931D01*
X146874500Y-109208707D01*
X146874500Y-109791292D01*
X146884957Y-109863069D01*
X146939080Y-109973780D01*
X147026218Y-110060918D01*
X147026219Y-110060918D01*
X147026220Y-110060919D01*
X147136933Y-110115043D01*
X147208705Y-110125500D01*
X147716294Y-110125499D01*
X147788067Y-110115043D01*
X147898780Y-110060919D01*
X147946106Y-110013592D01*
X148008416Y-109979569D01*
X148079232Y-109984633D01*
X148136068Y-110027179D01*
X148154805Y-110063059D01*
X148155606Y-110065477D01*
X148244797Y-110210077D01*
X148364922Y-110330202D01*
X148509519Y-110419391D01*
X148670788Y-110472830D01*
X148767145Y-110482674D01*
X148773530Y-110482999D01*
X148783500Y-110482998D01*
X148783500Y-109754000D01*
X149291500Y-109754000D01*
X149291500Y-110482999D01*
X149301465Y-110482999D01*
X149307857Y-110482673D01*
X149404212Y-110472830D01*
X149565482Y-110419391D01*
X149683853Y-110346379D01*
X149752332Y-110327641D01*
X149816147Y-110346379D01*
X149934516Y-110419390D01*
X150095788Y-110472830D01*
X150192145Y-110482674D01*
X150198530Y-110482999D01*
X150208500Y-110482998D01*
X150208500Y-109754000D01*
X149291500Y-109754000D01*
X148783500Y-109754000D01*
X148783500Y-109372000D01*
X148803502Y-109303879D01*
X148857158Y-109257386D01*
X148909500Y-109246000D01*
X150590500Y-109246000D01*
X150658621Y-109266002D01*
X150705114Y-109319658D01*
X150716500Y-109372000D01*
X150716500Y-110482999D01*
X150726465Y-110482999D01*
X150732857Y-110482673D01*
X150829212Y-110472830D01*
X150990479Y-110419392D01*
X151135077Y-110330202D01*
X151255202Y-110210077D01*
X151344392Y-110065479D01*
X151345195Y-110063058D01*
X151351529Y-110053908D01*
X151352124Y-110052945D01*
X151352174Y-110052976D01*
X151385609Y-110004686D01*
X151451165Y-109977430D01*
X151521051Y-109989943D01*
X151553895Y-110013595D01*
X151601218Y-110060918D01*
X151601219Y-110060918D01*
X151601220Y-110060919D01*
X151711933Y-110115043D01*
X151783705Y-110125500D01*
X152291294Y-110125499D01*
X152363067Y-110115043D01*
X152473780Y-110060919D01*
X152560919Y-109973780D01*
X152615043Y-109863067D01*
X152625500Y-109791295D01*
X152625499Y-109208706D01*
X152615043Y-109136933D01*
X152615042Y-109136930D01*
X152560919Y-109026219D01*
X152473781Y-108939081D01*
X152408661Y-108907246D01*
X152356247Y-108859358D01*
X152338000Y-108794049D01*
X152338000Y-108426500D01*
X152358002Y-108358379D01*
X152411658Y-108311886D01*
X152464000Y-108300500D01*
X153030430Y-108300500D01*
X153047321Y-108303255D01*
X153057763Y-108302772D01*
X153057765Y-108302773D01*
X153101782Y-108300738D01*
X153104037Y-108300634D01*
X153109854Y-108300500D01*
X153128904Y-108300500D01*
X153143442Y-108298811D01*
X153169992Y-108297585D01*
X153176118Y-108294879D01*
X153203857Y-108286290D01*
X153210433Y-108285061D01*
X153233026Y-108271071D01*
X153248454Y-108262940D01*
X153272765Y-108252206D01*
X153277495Y-108247475D01*
X153300263Y-108229441D01*
X153305952Y-108225919D01*
X153321973Y-108204702D01*
X153333415Y-108191554D01*
X153777496Y-107747473D01*
X153800257Y-107729444D01*
X153805952Y-107725919D01*
X153821973Y-107704702D01*
X153833415Y-107691554D01*
X154163288Y-107361681D01*
X154177180Y-107351687D01*
X154184224Y-107343959D01*
X154184228Y-107343958D01*
X154215466Y-107309689D01*
X154219422Y-107305547D01*
X154232174Y-107292797D01*
X154232178Y-107292790D01*
X154232925Y-107292044D01*
X154242011Y-107280572D01*
X154259916Y-107260933D01*
X154259916Y-107260930D01*
X154260654Y-107260122D01*
X154262041Y-107257765D01*
X154262072Y-107257675D01*
X154277597Y-107226485D01*
X154279656Y-107223481D01*
X154285455Y-107198820D01*
X155639500Y-107198820D01*
X155643630Y-107219580D01*
X155648233Y-107242724D01*
X155681495Y-107292504D01*
X155731275Y-107325766D01*
X155731277Y-107325766D01*
X155731278Y-107325767D01*
X155775180Y-107334500D01*
X156304819Y-107334500D01*
X156304820Y-107334500D01*
X156348722Y-107325767D01*
X156348723Y-107325766D01*
X156348724Y-107325766D01*
X156398504Y-107292504D01*
X156431766Y-107242724D01*
X156431766Y-107242723D01*
X156431767Y-107242722D01*
X156440500Y-107198820D01*
X156440500Y-107010660D01*
X156460502Y-106942540D01*
X156477405Y-106921566D01*
X159932971Y-103466000D01*
X163784000Y-103466000D01*
X163784000Y-103770352D01*
X163784449Y-103777859D01*
X163794382Y-103860575D01*
X163848637Y-103998155D01*
X163938000Y-104115999D01*
X164055844Y-104205362D01*
X164193424Y-104259617D01*
X164276140Y-104269550D01*
X164283648Y-104270000D01*
X164338000Y-104270000D01*
X164338000Y-103466000D01*
X164846000Y-103466000D01*
X164846000Y-104270000D01*
X164900352Y-104270000D01*
X164907859Y-104269550D01*
X164990575Y-104259617D01*
X165128155Y-104205362D01*
X165245999Y-104115999D01*
X165335362Y-103998155D01*
X165389617Y-103860575D01*
X165399550Y-103777859D01*
X165400000Y-103770352D01*
X165400000Y-103466000D01*
X164846000Y-103466000D01*
X164338000Y-103466000D01*
X163784000Y-103466000D01*
X159932971Y-103466000D01*
X160445566Y-102953405D01*
X160507878Y-102919379D01*
X160534661Y-102916500D01*
X162843430Y-102916500D01*
X162860321Y-102919255D01*
X162870763Y-102918772D01*
X162870765Y-102918773D01*
X162914782Y-102916738D01*
X162917037Y-102916634D01*
X162922854Y-102916500D01*
X162941904Y-102916500D01*
X162956444Y-102914811D01*
X162982992Y-102913585D01*
X162982993Y-102913584D01*
X163003563Y-102912634D01*
X163009377Y-102912500D01*
X163686309Y-102912500D01*
X163754430Y-102932502D01*
X163775404Y-102949405D01*
X163783999Y-102958000D01*
X164338000Y-102958000D01*
X164846000Y-102958000D01*
X165400001Y-102958000D01*
X165408596Y-102949405D01*
X165470908Y-102915379D01*
X165497691Y-102912500D01*
X166695761Y-102912500D01*
X166695762Y-102912500D01*
X166751329Y-102901447D01*
X166780714Y-102881813D01*
X166810766Y-102861734D01*
X166878519Y-102840520D01*
X166880766Y-102840500D01*
X167783500Y-102840500D01*
X167851621Y-102860502D01*
X167898114Y-102914158D01*
X167909500Y-102966500D01*
X167909500Y-103404820D01*
X167913052Y-103422678D01*
X167918233Y-103448724D01*
X167951495Y-103498504D01*
X168001275Y-103531766D01*
X168001277Y-103531766D01*
X168001278Y-103531767D01*
X168045180Y-103540500D01*
X169774819Y-103540500D01*
X169774820Y-103540500D01*
X169818722Y-103531767D01*
X169818723Y-103531766D01*
X169818724Y-103531766D01*
X169868504Y-103498504D01*
X169901766Y-103448724D01*
X169901766Y-103448723D01*
X169901767Y-103448722D01*
X169910500Y-103404820D01*
X169910500Y-101675180D01*
X169901767Y-101631278D01*
X169901766Y-101631277D01*
X169901766Y-101631275D01*
X169868504Y-101581495D01*
X169818724Y-101548233D01*
X169789453Y-101542410D01*
X169774820Y-101539500D01*
X169774819Y-101539500D01*
X169362994Y-101539500D01*
X169294873Y-101519498D01*
X169248380Y-101465842D01*
X169238276Y-101395568D01*
X169267770Y-101330988D01*
X169322082Y-101294327D01*
X169457368Y-101247883D01*
X169655302Y-101140766D01*
X169832903Y-101002533D01*
X169985321Y-100836962D01*
X170108419Y-100648548D01*
X170198822Y-100442451D01*
X170246544Y-100254000D01*
X169341116Y-100254000D01*
X169369493Y-100209844D01*
X169410000Y-100071889D01*
X169410000Y-99928111D01*
X169369493Y-99790156D01*
X169341116Y-99746000D01*
X170246544Y-99746000D01*
X170246544Y-99745999D01*
X170198822Y-99557548D01*
X170108419Y-99351451D01*
X169985321Y-99163037D01*
X169832903Y-98997466D01*
X169655302Y-98859233D01*
X169457368Y-98752116D01*
X169244508Y-98679041D01*
X169190630Y-98670051D01*
X169126730Y-98639110D01*
X169089703Y-98578533D01*
X169091304Y-98507555D01*
X169131025Y-98448709D01*
X169174789Y-98425196D01*
X169294727Y-98388814D01*
X169468538Y-98295910D01*
X169620883Y-98170883D01*
X169745910Y-98018538D01*
X169838814Y-97844727D01*
X169896024Y-97656132D01*
X169915341Y-97460000D01*
X169906507Y-97370301D01*
X169896024Y-97263867D01*
X169859568Y-97143691D01*
X169838814Y-97075273D01*
X169745910Y-96901462D01*
X169702411Y-96848458D01*
X169620883Y-96749116D01*
X169468537Y-96624089D01*
X169294725Y-96531185D01*
X169106132Y-96473975D01*
X168910000Y-96454658D01*
X168713867Y-96473975D01*
X168525274Y-96531185D01*
X168351462Y-96624089D01*
X168199116Y-96749116D01*
X168074089Y-96901461D01*
X167975336Y-97086218D01*
X167973001Y-97084970D01*
X167943844Y-97129460D01*
X167879002Y-97158373D01*
X167862188Y-97159500D01*
X166962435Y-97159500D01*
X166894314Y-97139498D01*
X166857669Y-97103501D01*
X166856447Y-97101672D01*
X166856447Y-97101671D01*
X166814343Y-97038657D01*
X166751329Y-96996553D01*
X166695762Y-96985500D01*
X166695761Y-96985500D01*
X165497691Y-96985500D01*
X165429570Y-96965498D01*
X165408596Y-96948595D01*
X165400001Y-96940000D01*
X164846000Y-96940000D01*
X164846000Y-98132000D01*
X165400001Y-98132000D01*
X165408596Y-98123405D01*
X165470908Y-98089379D01*
X165497691Y-98086500D01*
X166695761Y-98086500D01*
X166695762Y-98086500D01*
X166751329Y-98075447D01*
X166814343Y-98033343D01*
X166856447Y-97970329D01*
X166867500Y-97914762D01*
X166867500Y-97886499D01*
X166887502Y-97818379D01*
X166941158Y-97771886D01*
X166993500Y-97760500D01*
X167862188Y-97760500D01*
X167930309Y-97780502D01*
X167976802Y-97834158D01*
X167979858Y-97842243D01*
X168074089Y-98018538D01*
X168199116Y-98170883D01*
X168345835Y-98291292D01*
X168351462Y-98295910D01*
X168525273Y-98388814D01*
X168569952Y-98402367D01*
X168645206Y-98425196D01*
X168704587Y-98464111D01*
X168733503Y-98528952D01*
X168722772Y-98599133D01*
X168675802Y-98652372D01*
X168629370Y-98670051D01*
X168575490Y-98679042D01*
X168362631Y-98752116D01*
X168164697Y-98859233D01*
X167987096Y-98997466D01*
X167834678Y-99163037D01*
X167711580Y-99351451D01*
X167621177Y-99557548D01*
X167573455Y-99745999D01*
X167573456Y-99746000D01*
X168478884Y-99746000D01*
X168450507Y-99790156D01*
X168410000Y-99928111D01*
X168410000Y-100071889D01*
X168450507Y-100209844D01*
X168478884Y-100254000D01*
X167573455Y-100254000D01*
X167621177Y-100442451D01*
X167711580Y-100648548D01*
X167834678Y-100836962D01*
X167987096Y-101002533D01*
X168164697Y-101140766D01*
X168362631Y-101247883D01*
X168497918Y-101294327D01*
X168555853Y-101335364D01*
X168582405Y-101401209D01*
X168569144Y-101470956D01*
X168520279Y-101522461D01*
X168457006Y-101539500D01*
X168045181Y-101539500D01*
X168045180Y-101539500D01*
X168034204Y-101541683D01*
X168001275Y-101548233D01*
X167951495Y-101581495D01*
X167918233Y-101631275D01*
X167909500Y-101675181D01*
X167909500Y-102113500D01*
X167889498Y-102181621D01*
X167835842Y-102228114D01*
X167783500Y-102239500D01*
X166993500Y-102239500D01*
X166925379Y-102219498D01*
X166878886Y-102165842D01*
X166867500Y-102113500D01*
X166867500Y-101983239D01*
X166867500Y-101983238D01*
X166856447Y-101927671D01*
X166814343Y-101864657D01*
X166751329Y-101822553D01*
X166695762Y-101811500D01*
X166695761Y-101811500D01*
X165497691Y-101811500D01*
X165429570Y-101791498D01*
X165408596Y-101774595D01*
X165400001Y-101766000D01*
X164846000Y-101766000D01*
X164846000Y-102958000D01*
X164338000Y-102958000D01*
X164338000Y-102407649D01*
X164392000Y-102407649D01*
X164431613Y-102489905D01*
X164502992Y-102546827D01*
X164569468Y-102562000D01*
X164614532Y-102562000D01*
X164681008Y-102546827D01*
X164752387Y-102489905D01*
X164792000Y-102407649D01*
X164792000Y-102316351D01*
X164752387Y-102234095D01*
X164681008Y-102177173D01*
X164614532Y-102162000D01*
X164569468Y-102162000D01*
X164502992Y-102177173D01*
X164431613Y-102234095D01*
X164392000Y-102316351D01*
X164392000Y-102407649D01*
X164338000Y-102407649D01*
X164338000Y-101766000D01*
X163783999Y-101766000D01*
X163775404Y-101774595D01*
X163713092Y-101808621D01*
X163686309Y-101811500D01*
X162488239Y-101811500D01*
X162488238Y-101811500D01*
X162432671Y-101822553D01*
X162369657Y-101864657D01*
X162327553Y-101927671D01*
X162316802Y-101981723D01*
X162316500Y-101983239D01*
X162316500Y-102189500D01*
X162296498Y-102257621D01*
X162242842Y-102304114D01*
X162190500Y-102315500D01*
X160427570Y-102315500D01*
X160410678Y-102312744D01*
X160353963Y-102315366D01*
X160348146Y-102315500D01*
X160329098Y-102315500D01*
X160314557Y-102317186D01*
X160288009Y-102318413D01*
X160281878Y-102321121D01*
X160254150Y-102329707D01*
X160247566Y-102330938D01*
X160224969Y-102344928D01*
X160209544Y-102353059D01*
X160185234Y-102363793D01*
X160180499Y-102368529D01*
X160157745Y-102386552D01*
X160152048Y-102390079D01*
X160136030Y-102411290D01*
X160124578Y-102424449D01*
X156052434Y-106496595D01*
X155990122Y-106530620D01*
X155963339Y-106533500D01*
X155775180Y-106533500D01*
X155764204Y-106535683D01*
X155731275Y-106542233D01*
X155681495Y-106575495D01*
X155648233Y-106625275D01*
X155644608Y-106643502D01*
X155639500Y-106669180D01*
X155639500Y-107198820D01*
X154285455Y-107198820D01*
X154285740Y-107197610D01*
X154290900Y-107180951D01*
X154300500Y-107156173D01*
X154300500Y-107156171D01*
X154302585Y-107150790D01*
X154303256Y-107146677D01*
X154303159Y-107144578D01*
X154305741Y-107116716D01*
X154304932Y-107110919D01*
X154301906Y-107089222D01*
X154301708Y-107087801D01*
X154300500Y-107070395D01*
X154300500Y-106469576D01*
X154303256Y-106452678D01*
X154302773Y-106442237D01*
X154302774Y-106442236D01*
X154300634Y-106395952D01*
X154300500Y-106390132D01*
X154300500Y-106371098D01*
X154298812Y-106356553D01*
X154297585Y-106330009D01*
X154294881Y-106323885D01*
X154286289Y-106296138D01*
X154285061Y-106289569D01*
X154285061Y-106289567D01*
X154271069Y-106266969D01*
X154262943Y-106251553D01*
X154252206Y-106227235D01*
X154247473Y-106222502D01*
X154229445Y-106199742D01*
X154225919Y-106194048D01*
X154204713Y-106178034D01*
X154191550Y-106166579D01*
X153261682Y-105236711D01*
X153251684Y-105222814D01*
X153209716Y-105184555D01*
X153205526Y-105180555D01*
X153192797Y-105167826D01*
X153192796Y-105167825D01*
X153192048Y-105167077D01*
X153180575Y-105157989D01*
X153160933Y-105140083D01*
X153154685Y-105137663D01*
X153128999Y-105124124D01*
X153123481Y-105120344D01*
X153123480Y-105120343D01*
X153123479Y-105120343D01*
X153097618Y-105114260D01*
X153080955Y-105109100D01*
X153056174Y-105099500D01*
X153056173Y-105099500D01*
X153049481Y-105099500D01*
X153020632Y-105096153D01*
X153014119Y-105094621D01*
X152998901Y-105096744D01*
X152987804Y-105098292D01*
X152970396Y-105099500D01*
X150692769Y-105099500D01*
X150624648Y-105079498D01*
X150578155Y-105025842D01*
X150568051Y-104955568D01*
X150597545Y-104890988D01*
X150626621Y-104866260D01*
X150685076Y-104830203D01*
X150805202Y-104710077D01*
X150894392Y-104565479D01*
X150895195Y-104563058D01*
X150901529Y-104553908D01*
X150902124Y-104552945D01*
X150902174Y-104552976D01*
X150935609Y-104504686D01*
X151001165Y-104477430D01*
X151071051Y-104489943D01*
X151103895Y-104513595D01*
X151151218Y-104560918D01*
X151151219Y-104560918D01*
X151151220Y-104560919D01*
X151261933Y-104615043D01*
X151333705Y-104625500D01*
X151841294Y-104625499D01*
X151913067Y-104615043D01*
X152023780Y-104560919D01*
X152110919Y-104473780D01*
X152165043Y-104363067D01*
X152175500Y-104291295D01*
X152175499Y-103708706D01*
X152165043Y-103636933D01*
X152164077Y-103634957D01*
X152110919Y-103526219D01*
X152023781Y-103439081D01*
X151958661Y-103407246D01*
X151906247Y-103359358D01*
X151888000Y-103294049D01*
X151888000Y-102715358D01*
X153645960Y-102715358D01*
X153645961Y-102715359D01*
X153690570Y-102731595D01*
X153696675Y-102733472D01*
X153790591Y-102757179D01*
X153960411Y-102762121D01*
X154126788Y-102727767D01*
X154280763Y-102655967D01*
X154414025Y-102550597D01*
X154519398Y-102417330D01*
X154561596Y-102330168D01*
X154564096Y-102324255D01*
X154567502Y-102314895D01*
X154567501Y-102314893D01*
X153882468Y-102065562D01*
X153882466Y-102065563D01*
X153645960Y-102715358D01*
X151888000Y-102715358D01*
X151888000Y-102126000D01*
X151908002Y-102057879D01*
X151961658Y-102011386D01*
X152014000Y-102000000D01*
X152599661Y-102000000D01*
X152667782Y-102020002D01*
X152714275Y-102073658D01*
X152715469Y-102077312D01*
X152792287Y-102242047D01*
X152897657Y-102375311D01*
X153030923Y-102480683D01*
X153118081Y-102522879D01*
X153124001Y-102525382D01*
X153168596Y-102541614D01*
X153168597Y-102541613D01*
X153535755Y-101532854D01*
X153577849Y-101475682D01*
X153644170Y-101450344D01*
X153697250Y-101457547D01*
X154741248Y-101837529D01*
X154741249Y-101837529D01*
X154744655Y-101828172D01*
X154746537Y-101822049D01*
X154770243Y-101728139D01*
X154775184Y-101558321D01*
X154764659Y-101507349D01*
X154770472Y-101436591D01*
X154813617Y-101380208D01*
X154880396Y-101356101D01*
X154949606Y-101371925D01*
X154977151Y-101392773D01*
X155347668Y-101763290D01*
X155371359Y-101796213D01*
X155374286Y-101802090D01*
X155387500Y-101858262D01*
X155387500Y-101864818D01*
X155396233Y-101908724D01*
X155429495Y-101958504D01*
X155479275Y-101991766D01*
X155479277Y-101991766D01*
X155479278Y-101991767D01*
X155523180Y-102000500D01*
X156052819Y-102000500D01*
X156052820Y-102000500D01*
X156096722Y-101991767D01*
X156096723Y-101991766D01*
X156096724Y-101991766D01*
X156146504Y-101958504D01*
X156179766Y-101908724D01*
X156179766Y-101908723D01*
X156179767Y-101908722D01*
X156188500Y-101864820D01*
X156188500Y-101335180D01*
X156179767Y-101291278D01*
X156179766Y-101291277D01*
X156179766Y-101291275D01*
X156146504Y-101241495D01*
X156096724Y-101208233D01*
X156060426Y-101201013D01*
X156052820Y-101199500D01*
X156052819Y-101199500D01*
X155686011Y-101199500D01*
X155617890Y-101179498D01*
X155596916Y-101162595D01*
X154927521Y-100493200D01*
X154893495Y-100430888D01*
X154898215Y-100361010D01*
X154900197Y-100355566D01*
X154921513Y-100297000D01*
X154943920Y-100235438D01*
X154947149Y-100219863D01*
X154958643Y-100164416D01*
X154945649Y-100041869D01*
X154893568Y-99930181D01*
X154893567Y-99930180D01*
X154891293Y-99925303D01*
X154880632Y-99855112D01*
X154909612Y-99790299D01*
X154969031Y-99751442D01*
X155040026Y-99750879D01*
X155053707Y-99755645D01*
X155098817Y-99774331D01*
X155257538Y-99795225D01*
X155416256Y-99774331D01*
X155465339Y-99754000D01*
X157517001Y-99754000D01*
X157517001Y-99801465D01*
X157517326Y-99807857D01*
X157527169Y-99904212D01*
X157580607Y-100065479D01*
X157669797Y-100210077D01*
X157789922Y-100330202D01*
X157934519Y-100419391D01*
X158095788Y-100472830D01*
X158192145Y-100482674D01*
X158198530Y-100482999D01*
X158208500Y-100482998D01*
X158208500Y-99754000D01*
X157517001Y-99754000D01*
X155465339Y-99754000D01*
X155564160Y-99713067D01*
X155656014Y-99642584D01*
X155662199Y-99637160D01*
X155987978Y-99311380D01*
X155987978Y-99311379D01*
X155922599Y-99246000D01*
X157517000Y-99246000D01*
X158208500Y-99246000D01*
X158208500Y-98254000D01*
X157517001Y-98254000D01*
X157517001Y-98301465D01*
X157517326Y-98307857D01*
X157527169Y-98404212D01*
X157580607Y-98565479D01*
X157653621Y-98683853D01*
X157672358Y-98752332D01*
X157653621Y-98816147D01*
X157580608Y-98934519D01*
X157527169Y-99095788D01*
X157517325Y-99192142D01*
X157517000Y-99198532D01*
X157517000Y-99246000D01*
X155922599Y-99246000D01*
X155435021Y-98758422D01*
X155400995Y-98696110D01*
X155402910Y-98669329D01*
X155911612Y-98669329D01*
X156270820Y-99028537D01*
X156270821Y-99028537D01*
X156596605Y-98702753D01*
X156602028Y-98696570D01*
X156672505Y-98604722D01*
X156733772Y-98456814D01*
X156754666Y-98298096D01*
X156733772Y-98139378D01*
X156672508Y-97991474D01*
X156636452Y-97944486D01*
X155911612Y-98669327D01*
X155911612Y-98669329D01*
X155402910Y-98669329D01*
X155406060Y-98625295D01*
X155435021Y-98580231D01*
X155628769Y-98386484D01*
X156269254Y-97746000D01*
X157517000Y-97746000D01*
X158208500Y-97746000D01*
X158208500Y-97017000D01*
X158208499Y-97016999D01*
X158198537Y-97017000D01*
X158192140Y-97017326D01*
X158095787Y-97027169D01*
X157934520Y-97080607D01*
X157789922Y-97169797D01*
X157669797Y-97289922D01*
X157580608Y-97434519D01*
X157527169Y-97595788D01*
X157517325Y-97692142D01*
X157517000Y-97698532D01*
X157517000Y-97746000D01*
X156269254Y-97746000D01*
X156340412Y-97674842D01*
X156402724Y-97640816D01*
X156429507Y-97637937D01*
X156487696Y-97637937D01*
X156608353Y-97598734D01*
X156685172Y-97542921D01*
X157542921Y-96685172D01*
X157598734Y-96608353D01*
X157637937Y-96487696D01*
X157637937Y-96360832D01*
X157631758Y-96341816D01*
X157626457Y-96325499D01*
X157598734Y-96240175D01*
X157542921Y-96163356D01*
X157542920Y-96163355D01*
X157542918Y-96163352D01*
X157414725Y-96035159D01*
X157380699Y-95972847D01*
X157385764Y-95902032D01*
X157428311Y-95845196D01*
X157487375Y-95821142D01*
X157546111Y-95813410D01*
X157616260Y-95824350D01*
X157651651Y-95849237D01*
X157678791Y-95876377D01*
X157678794Y-95876379D01*
X157678795Y-95876380D01*
X157740737Y-95917768D01*
X157808279Y-95931203D01*
X157871187Y-95964111D01*
X157906318Y-96025807D01*
X157907273Y-96030198D01*
X157920709Y-96097739D01*
X157920709Y-96097740D01*
X157920710Y-96097741D01*
X157951180Y-96143343D01*
X157962100Y-96159686D01*
X158138410Y-96335996D01*
X158138413Y-96335998D01*
X158138414Y-96335999D01*
X158200356Y-96377387D01*
X158298097Y-96396830D01*
X158395837Y-96377387D01*
X158457780Y-96335999D01*
X159116396Y-95677382D01*
X159178707Y-95643359D01*
X159249522Y-95648423D01*
X159306358Y-95690970D01*
X159331169Y-95757490D01*
X159331490Y-95766479D01*
X159331490Y-97065187D01*
X159311488Y-97133308D01*
X159257832Y-97179801D01*
X159187558Y-97189905D01*
X159139343Y-97172428D01*
X158990480Y-97080608D01*
X158829211Y-97027169D01*
X158732857Y-97017325D01*
X158726468Y-97017000D01*
X158716500Y-97017000D01*
X158716500Y-100470571D01*
X158696498Y-100538692D01*
X158642842Y-100585185D01*
X158641385Y-100585839D01*
X158623075Y-100593922D01*
X158595350Y-100602507D01*
X158588769Y-100603737D01*
X158566174Y-100617727D01*
X158550745Y-100625859D01*
X158526436Y-100636593D01*
X158521700Y-100641329D01*
X158498945Y-100659353D01*
X158493247Y-100662881D01*
X158477233Y-100684086D01*
X158465782Y-100697245D01*
X158000434Y-101162595D01*
X157938121Y-101196620D01*
X157911338Y-101199500D01*
X157723180Y-101199500D01*
X157715574Y-101201013D01*
X157679275Y-101208233D01*
X157629495Y-101241495D01*
X157596233Y-101291275D01*
X157595626Y-101294327D01*
X157587755Y-101333901D01*
X157587500Y-101335181D01*
X157587500Y-101864818D01*
X157596233Y-101908724D01*
X157629495Y-101958504D01*
X157679275Y-101991766D01*
X157679277Y-101991766D01*
X157679278Y-101991767D01*
X157723180Y-102000500D01*
X158252819Y-102000500D01*
X158252820Y-102000500D01*
X158296722Y-101991767D01*
X158296723Y-101991766D01*
X158296724Y-101991766D01*
X158346504Y-101958504D01*
X158379766Y-101908724D01*
X158379766Y-101908723D01*
X158379767Y-101908722D01*
X158388500Y-101864820D01*
X158388500Y-101676660D01*
X158408502Y-101608539D01*
X158425396Y-101587574D01*
X158754970Y-101258000D01*
X163784000Y-101258000D01*
X164338000Y-101258000D01*
X164338000Y-100454000D01*
X164846000Y-100454000D01*
X164846000Y-101258000D01*
X165400000Y-101258000D01*
X165400000Y-100953647D01*
X165399550Y-100946140D01*
X165389617Y-100863424D01*
X165335362Y-100725844D01*
X165245999Y-100608000D01*
X165128155Y-100518637D01*
X164990575Y-100464382D01*
X164907859Y-100454449D01*
X164900352Y-100454000D01*
X164846000Y-100454000D01*
X164338000Y-100454000D01*
X164283648Y-100454000D01*
X164276140Y-100454449D01*
X164193424Y-100464382D01*
X164055844Y-100518637D01*
X163938000Y-100608000D01*
X163848637Y-100725844D01*
X163794382Y-100863424D01*
X163784449Y-100946140D01*
X163784000Y-100953647D01*
X163784000Y-101258000D01*
X158754970Y-101258000D01*
X158786768Y-101226202D01*
X158849078Y-101192179D01*
X158875861Y-101189300D01*
X162236430Y-101189300D01*
X162253321Y-101192055D01*
X162263763Y-101191572D01*
X162263765Y-101191573D01*
X162307782Y-101189538D01*
X162310037Y-101189434D01*
X162315854Y-101189300D01*
X162334904Y-101189300D01*
X162349442Y-101187611D01*
X162375992Y-101186385D01*
X162382118Y-101183679D01*
X162409857Y-101175090D01*
X162416433Y-101173861D01*
X162439026Y-101159871D01*
X162454454Y-101151740D01*
X162478765Y-101141006D01*
X162483495Y-101136275D01*
X162506263Y-101118241D01*
X162511952Y-101114719D01*
X162527973Y-101093502D01*
X162539415Y-101080354D01*
X163330288Y-100289481D01*
X163344180Y-100279487D01*
X163351224Y-100271759D01*
X163351228Y-100271758D01*
X163382466Y-100237489D01*
X163386422Y-100233347D01*
X163399174Y-100220597D01*
X163399178Y-100220590D01*
X163399925Y-100219844D01*
X163409011Y-100208372D01*
X163426916Y-100188733D01*
X163429333Y-100182493D01*
X163442878Y-100156797D01*
X163446657Y-100151281D01*
X163452742Y-100125405D01*
X163457903Y-100108744D01*
X163458854Y-100106291D01*
X163467500Y-100083973D01*
X163467500Y-100077281D01*
X163470847Y-100048432D01*
X163472379Y-100041918D01*
X163468708Y-100015601D01*
X163467500Y-99998194D01*
X163467500Y-98640000D01*
X163784000Y-98640000D01*
X163784000Y-98944352D01*
X163784449Y-98951859D01*
X163794382Y-99034575D01*
X163848637Y-99172155D01*
X163938000Y-99289999D01*
X164055844Y-99379362D01*
X164193424Y-99433617D01*
X164276140Y-99443550D01*
X164283648Y-99444000D01*
X164338000Y-99444000D01*
X164338000Y-98640000D01*
X164846000Y-98640000D01*
X164846000Y-99444000D01*
X164900352Y-99444000D01*
X164907859Y-99443550D01*
X164990575Y-99433617D01*
X165128155Y-99379362D01*
X165245999Y-99289999D01*
X165335362Y-99172155D01*
X165389617Y-99034575D01*
X165399550Y-98951859D01*
X165400000Y-98944352D01*
X165400000Y-98640000D01*
X164846000Y-98640000D01*
X164338000Y-98640000D01*
X163784000Y-98640000D01*
X163467500Y-98640000D01*
X163467500Y-98212500D01*
X163487502Y-98144379D01*
X163541158Y-98097886D01*
X163593500Y-98086500D01*
X163686309Y-98086500D01*
X163754430Y-98106502D01*
X163775404Y-98123405D01*
X163783999Y-98132000D01*
X164338000Y-98132000D01*
X164338000Y-97581649D01*
X164392000Y-97581649D01*
X164431613Y-97663905D01*
X164502992Y-97720827D01*
X164569468Y-97736000D01*
X164614532Y-97736000D01*
X164681008Y-97720827D01*
X164752387Y-97663905D01*
X164792000Y-97581649D01*
X164792000Y-97490351D01*
X164752387Y-97408095D01*
X164681008Y-97351173D01*
X164614532Y-97336000D01*
X164569468Y-97336000D01*
X164502992Y-97351173D01*
X164431613Y-97408095D01*
X164392000Y-97490351D01*
X164392000Y-97581649D01*
X164338000Y-97581649D01*
X164338000Y-96940000D01*
X163783999Y-96940000D01*
X163775404Y-96948595D01*
X163713092Y-96982621D01*
X163686309Y-96985500D01*
X162488239Y-96985500D01*
X162488238Y-96985500D01*
X162432671Y-96996553D01*
X162369657Y-97038657D01*
X162327553Y-97101671D01*
X162316500Y-97157238D01*
X162316500Y-97914762D01*
X162327553Y-97970329D01*
X162369657Y-98033343D01*
X162432671Y-98075447D01*
X162488238Y-98086500D01*
X162740500Y-98086500D01*
X162808621Y-98106502D01*
X162855114Y-98160158D01*
X162866500Y-98212500D01*
X162866500Y-99851139D01*
X162846498Y-99919260D01*
X162829595Y-99940234D01*
X162218434Y-100551395D01*
X162156122Y-100585421D01*
X162129339Y-100588300D01*
X159160926Y-100588300D01*
X159092805Y-100568298D01*
X159046312Y-100514642D01*
X159036208Y-100444368D01*
X159065702Y-100379788D01*
X159094779Y-100355059D01*
X159135077Y-100330202D01*
X159255202Y-100210077D01*
X159344392Y-100065479D01*
X159345195Y-100063058D01*
X159351529Y-100053908D01*
X159352124Y-100052945D01*
X159352174Y-100052976D01*
X159385609Y-100004686D01*
X159451165Y-99977430D01*
X159521051Y-99989943D01*
X159553895Y-100013595D01*
X159601218Y-100060918D01*
X159601219Y-100060918D01*
X159601220Y-100060919D01*
X159711933Y-100115043D01*
X159783705Y-100125500D01*
X160291294Y-100125499D01*
X160363067Y-100115043D01*
X160473780Y-100060919D01*
X160560919Y-99973780D01*
X160615043Y-99863067D01*
X160625500Y-99791295D01*
X160625499Y-99208706D01*
X160615043Y-99136933D01*
X160615042Y-99136930D01*
X160560919Y-99026219D01*
X160473781Y-98939081D01*
X160433660Y-98919467D01*
X160381246Y-98871578D01*
X160363000Y-98806270D01*
X160363000Y-98693729D01*
X160383002Y-98625608D01*
X160433662Y-98580532D01*
X160473780Y-98560919D01*
X160560918Y-98473781D01*
X160560919Y-98473780D01*
X160615043Y-98363067D01*
X160625500Y-98291295D01*
X160625499Y-97708706D01*
X160615043Y-97636933D01*
X160614988Y-97636820D01*
X160560919Y-97526219D01*
X160473781Y-97439081D01*
X160355031Y-97381028D01*
X160302617Y-97333140D01*
X160301275Y-97330872D01*
X160290694Y-97312545D01*
X160261823Y-97288319D01*
X160253720Y-97280893D01*
X160019395Y-97046568D01*
X159985369Y-96984256D01*
X159982490Y-96957473D01*
X159982490Y-96432000D01*
X163784000Y-96432000D01*
X164338000Y-96432000D01*
X164338000Y-95628000D01*
X164846000Y-95628000D01*
X164846000Y-96432000D01*
X165400000Y-96432000D01*
X165400000Y-96127647D01*
X165399550Y-96120140D01*
X165389617Y-96037424D01*
X165335362Y-95899844D01*
X165245999Y-95782000D01*
X165128155Y-95692637D01*
X164990575Y-95638382D01*
X164907859Y-95628449D01*
X164900352Y-95628000D01*
X164846000Y-95628000D01*
X164338000Y-95628000D01*
X164283648Y-95628000D01*
X164276140Y-95628449D01*
X164193424Y-95638382D01*
X164055844Y-95692637D01*
X163938000Y-95782000D01*
X163848637Y-95899844D01*
X163794382Y-96037424D01*
X163784449Y-96120140D01*
X163784000Y-96127647D01*
X163784000Y-96432000D01*
X159982490Y-96432000D01*
X159982490Y-95080490D01*
X159982969Y-95069509D01*
X159982987Y-95069306D01*
X159986253Y-95031972D01*
X159976499Y-94995573D01*
X159974121Y-94984844D01*
X159970423Y-94963872D01*
X159967578Y-94947734D01*
X159967577Y-94947732D01*
X159967363Y-94946517D01*
X159957255Y-94922112D01*
X159956544Y-94921097D01*
X159956544Y-94921095D01*
X159934915Y-94890206D01*
X159929032Y-94880970D01*
X159910184Y-94848324D01*
X159881319Y-94824103D01*
X159873217Y-94816679D01*
X159340315Y-94283778D01*
X159332888Y-94275673D01*
X159325072Y-94266358D01*
X159308666Y-94246806D01*
X159308665Y-94246805D01*
X159276027Y-94227961D01*
X159266760Y-94222057D01*
X159234885Y-94199739D01*
X159210475Y-94189627D01*
X159209256Y-94189412D01*
X159172138Y-94182866D01*
X159161429Y-94180492D01*
X159125017Y-94170735D01*
X159089737Y-94173822D01*
X159087482Y-94174020D01*
X159076501Y-94174500D01*
X158937178Y-94174500D01*
X158869057Y-94154498D01*
X158822564Y-94100842D01*
X158820769Y-94096718D01*
X158793828Y-94031677D01*
X158757772Y-93984687D01*
X157839183Y-94903277D01*
X157776871Y-94937303D01*
X157706056Y-94932238D01*
X157660992Y-94903277D01*
X157556340Y-94798624D01*
X157522315Y-94736312D01*
X157527381Y-94665496D01*
X157556341Y-94620433D01*
X158474929Y-93701845D01*
X158427945Y-93665792D01*
X158280038Y-93604526D01*
X158121319Y-93583631D01*
X157954066Y-93605650D01*
X157883918Y-93594710D01*
X157848527Y-93569824D01*
X157821384Y-93542681D01*
X157820694Y-93542220D01*
X157790995Y-93522376D01*
X157759442Y-93501293D01*
X157698278Y-93489126D01*
X157691899Y-93487857D01*
X157628989Y-93454948D01*
X157593859Y-93393252D01*
X157592908Y-93388886D01*
X157579468Y-93321319D01*
X157538080Y-93259377D01*
X157538079Y-93259376D01*
X157538077Y-93259373D01*
X157361767Y-93083063D01*
X157305377Y-93045385D01*
X157299822Y-93041673D01*
X157299821Y-93041672D01*
X157299820Y-93041672D01*
X157232279Y-93028236D01*
X157169370Y-92995328D01*
X157134240Y-92933632D01*
X157133289Y-92929267D01*
X157119849Y-92861700D01*
X157078461Y-92799758D01*
X157078460Y-92799757D01*
X157078458Y-92799754D01*
X156902148Y-92623444D01*
X156840203Y-92582054D01*
X156769794Y-92568048D01*
X156742462Y-92562611D01*
X156742461Y-92562611D01*
X156717879Y-92557721D01*
X156718550Y-92554345D01*
X156692967Y-92552054D01*
X156636905Y-92508494D01*
X156623849Y-92485704D01*
X156623438Y-92484774D01*
X156623437Y-92484773D01*
X156623437Y-92484772D01*
X156618704Y-92480039D01*
X156600676Y-92457279D01*
X156597150Y-92451585D01*
X156575944Y-92435571D01*
X156562781Y-92424116D01*
X156468515Y-92329850D01*
X156434489Y-92267538D01*
X156438436Y-92199844D01*
X156461973Y-92131286D01*
X156461973Y-92008053D01*
X156459386Y-92000518D01*
X156421959Y-91891497D01*
X156421959Y-91891496D01*
X156378602Y-91833351D01*
X155966649Y-91421399D01*
X155908504Y-91378041D01*
X155791947Y-91338027D01*
X155668712Y-91338027D01*
X155600155Y-91361562D01*
X155529231Y-91364762D01*
X155470149Y-91331484D01*
X155225376Y-91086711D01*
X155215378Y-91072814D01*
X155173410Y-91034555D01*
X155169220Y-91030555D01*
X155156491Y-91017826D01*
X155156490Y-91017825D01*
X155155742Y-91017077D01*
X155144269Y-91007989D01*
X155124627Y-90990083D01*
X155118379Y-90987663D01*
X155092693Y-90974124D01*
X155087175Y-90970344D01*
X155087174Y-90970343D01*
X155087173Y-90970343D01*
X155061312Y-90964260D01*
X155044649Y-90959100D01*
X155019868Y-90949500D01*
X155019867Y-90949500D01*
X155013175Y-90949500D01*
X154984326Y-90946153D01*
X154977813Y-90944621D01*
X154951498Y-90948292D01*
X154934090Y-90949500D01*
X154399127Y-90949500D01*
X154331006Y-90929498D01*
X154295431Y-90895076D01*
X154285005Y-90879971D01*
X154240483Y-90815470D01*
X154122240Y-90710717D01*
X154122238Y-90710715D01*
X153982368Y-90637305D01*
X153982365Y-90637304D01*
X153828985Y-90599500D01*
X153828983Y-90599500D01*
X153671017Y-90599500D01*
X153671015Y-90599500D01*
X153517635Y-90637304D01*
X153517631Y-90637305D01*
X153377761Y-90710715D01*
X153259516Y-90815470D01*
X153169779Y-90945477D01*
X153113762Y-91093183D01*
X153094721Y-91250000D01*
X153112263Y-91394468D01*
X153100618Y-91464503D01*
X153076277Y-91498750D01*
X152786705Y-91788322D01*
X152772811Y-91798320D01*
X152734553Y-91840285D01*
X152730541Y-91844487D01*
X152717079Y-91857949D01*
X152707991Y-91869422D01*
X152690083Y-91889066D01*
X152687662Y-91895316D01*
X152674126Y-91920996D01*
X152670343Y-91926519D01*
X152664259Y-91952383D01*
X152659100Y-91969045D01*
X152649500Y-91993827D01*
X152649500Y-92000518D01*
X152646153Y-92029366D01*
X152644620Y-92035879D01*
X152648292Y-92062196D01*
X152649500Y-92079604D01*
X152649500Y-93480430D01*
X152646744Y-93497321D01*
X152649366Y-93554036D01*
X152649500Y-93559853D01*
X152649500Y-93578903D01*
X152651186Y-93593444D01*
X152652413Y-93619991D01*
X152655120Y-93626121D01*
X152663707Y-93653850D01*
X152664937Y-93660432D01*
X152678925Y-93683024D01*
X152687059Y-93698454D01*
X152688797Y-93702391D01*
X152697794Y-93722765D01*
X152702525Y-93727496D01*
X152720555Y-93750258D01*
X152724080Y-93755951D01*
X152745286Y-93771965D01*
X152758450Y-93783421D01*
X152888331Y-93913302D01*
X152922357Y-93975614D01*
X152918409Y-94043308D01*
X152894874Y-94111865D01*
X152894874Y-94235100D01*
X152901022Y-94253010D01*
X152934888Y-94351657D01*
X152978245Y-94409802D01*
X153390198Y-94821754D01*
X153448343Y-94865112D01*
X153564900Y-94905126D01*
X153688133Y-94905126D01*
X153804690Y-94865112D01*
X153862835Y-94821755D01*
X154221754Y-94462835D01*
X154265112Y-94404690D01*
X154305126Y-94288133D01*
X154305126Y-94288131D01*
X154310873Y-94271391D01*
X154351910Y-94213456D01*
X154417755Y-94186904D01*
X154459104Y-94189699D01*
X154584726Y-94219472D01*
X154754614Y-94219472D01*
X154919923Y-94180293D01*
X155071745Y-94104044D01*
X155146832Y-94042878D01*
X155151584Y-94038586D01*
X155158632Y-94031537D01*
X153768461Y-92641366D01*
X153761414Y-92648415D01*
X153757119Y-92653171D01*
X153695954Y-92728253D01*
X153619706Y-92880076D01*
X153580528Y-93045385D01*
X153580528Y-93215276D01*
X153610299Y-93340897D01*
X153606545Y-93411794D01*
X153565057Y-93469407D01*
X153528607Y-93489126D01*
X153443309Y-93518409D01*
X153372385Y-93521610D01*
X153313302Y-93488331D01*
X153287403Y-93462432D01*
X153253379Y-93400119D01*
X153250500Y-93373338D01*
X153250500Y-92226661D01*
X153270502Y-92158540D01*
X153287400Y-92137570D01*
X153503199Y-91921770D01*
X153565509Y-91887747D01*
X153622447Y-91888528D01*
X153634485Y-91891496D01*
X153671014Y-91900500D01*
X153671015Y-91900500D01*
X153828983Y-91900500D01*
X153828985Y-91900500D01*
X153982365Y-91862696D01*
X154122240Y-91789283D01*
X154240483Y-91684530D01*
X154295430Y-91604924D01*
X154350589Y-91560224D01*
X154399127Y-91550500D01*
X154787033Y-91550500D01*
X154855154Y-91570502D01*
X154876128Y-91587405D01*
X155045178Y-91756455D01*
X155079204Y-91818767D01*
X155075256Y-91886461D01*
X155051721Y-91955018D01*
X155051721Y-92021948D01*
X155031719Y-92090069D01*
X154978063Y-92136562D01*
X154907789Y-92146666D01*
X154869174Y-92134546D01*
X154866895Y-92133401D01*
X154701581Y-92094222D01*
X154531692Y-92094222D01*
X154366382Y-92133400D01*
X154214560Y-92209649D01*
X154139473Y-92270815D01*
X154134715Y-92275112D01*
X154127672Y-92282155D01*
X154643153Y-92797636D01*
X155527803Y-93682287D01*
X155562003Y-93692329D01*
X155608496Y-93745985D01*
X155617461Y-93773743D01*
X155622613Y-93799644D01*
X155664003Y-93861589D01*
X155840313Y-94037899D01*
X155840316Y-94037901D01*
X155840317Y-94037902D01*
X155902259Y-94079290D01*
X155969801Y-94092725D01*
X156032709Y-94125633D01*
X156067840Y-94187329D01*
X156068795Y-94191720D01*
X156082231Y-94259261D01*
X156082231Y-94259262D01*
X156082232Y-94259263D01*
X156117739Y-94312403D01*
X156123622Y-94321208D01*
X156299932Y-94497518D01*
X156299935Y-94497520D01*
X156299936Y-94497521D01*
X156361878Y-94538909D01*
X156429420Y-94552344D01*
X156492329Y-94585252D01*
X156527460Y-94646947D01*
X156528416Y-94651340D01*
X156541852Y-94718883D01*
X156569049Y-94759586D01*
X156581367Y-94778023D01*
X156583240Y-94780825D01*
X156610382Y-94807967D01*
X156644407Y-94870277D01*
X156646209Y-94913509D01*
X156638476Y-94972246D01*
X156609753Y-95037173D01*
X156550488Y-95076264D01*
X156479497Y-95077109D01*
X156424460Y-95044895D01*
X155836644Y-94457079D01*
X155759825Y-94401266D01*
X155639168Y-94362063D01*
X155512304Y-94362063D01*
X155391647Y-94401266D01*
X155314828Y-94457078D01*
X155141720Y-94630185D01*
X155079408Y-94664210D01*
X155023732Y-94662885D01*
X154987172Y-94666084D01*
X154983644Y-94666393D01*
X154972663Y-94666873D01*
X154827337Y-94666873D01*
X154816355Y-94666393D01*
X154813439Y-94666137D01*
X154778818Y-94663108D01*
X154742407Y-94672864D01*
X154731681Y-94675242D01*
X154693369Y-94681998D01*
X154668947Y-94692114D01*
X154637068Y-94714435D01*
X154627806Y-94720336D01*
X154595172Y-94739178D01*
X154570942Y-94768054D01*
X154563517Y-94776155D01*
X153772121Y-95567551D01*
X153709809Y-95601577D01*
X153707609Y-95602035D01*
X153701903Y-95603170D01*
X153682056Y-95607118D01*
X153604162Y-95622613D01*
X153542219Y-95664001D01*
X153180058Y-96026161D01*
X153117746Y-96060186D01*
X153114675Y-96060790D01*
X153090088Y-96070974D01*
X153058220Y-96093287D01*
X153048957Y-96099188D01*
X153016314Y-96118035D01*
X152992093Y-96146900D01*
X152984670Y-96155001D01*
X152033781Y-97105891D01*
X152025679Y-97113315D01*
X151996806Y-97137543D01*
X151977963Y-97170179D01*
X151972062Y-97179441D01*
X151949741Y-97211320D01*
X151939625Y-97235742D01*
X151932869Y-97274054D01*
X151930491Y-97284780D01*
X151920735Y-97321191D01*
X151924020Y-97358725D01*
X151924500Y-97369709D01*
X151924500Y-97730289D01*
X151924020Y-97741272D01*
X151920735Y-97778806D01*
X151930492Y-97815218D01*
X151932867Y-97825932D01*
X151937485Y-97852121D01*
X151929617Y-97922679D01*
X151884850Y-97977783D01*
X151817399Y-97999937D01*
X151813400Y-98000000D01*
X151327161Y-98000000D01*
X151259040Y-97979998D01*
X151238066Y-97963095D01*
X149986607Y-96711636D01*
X149952581Y-96649324D01*
X149957646Y-96578509D01*
X149986605Y-96533447D01*
X150029180Y-96490873D01*
X150085878Y-96379598D01*
X150100500Y-96287276D01*
X150100500Y-95312724D01*
X150085878Y-95220402D01*
X150029180Y-95109127D01*
X150029179Y-95109126D01*
X150029178Y-95109124D01*
X149940875Y-95020821D01*
X149829598Y-94964122D01*
X149828020Y-94963872D01*
X149737276Y-94949500D01*
X149737275Y-94949500D01*
X149223834Y-94949500D01*
X149155713Y-94929498D01*
X149109220Y-94875842D01*
X149099116Y-94805568D01*
X149128610Y-94740988D01*
X149178318Y-94706008D01*
X149234949Y-94684068D01*
X149327531Y-94626742D01*
X148786997Y-94086207D01*
X148861405Y-94074423D01*
X148979947Y-94014022D01*
X149074022Y-93919947D01*
X149134423Y-93801405D01*
X149145937Y-93728702D01*
X149156116Y-93736905D01*
X149689888Y-94270678D01*
X149689889Y-94270678D01*
X149693150Y-94266361D01*
X149786335Y-94079222D01*
X149843543Y-93878155D01*
X149849454Y-93814374D01*
X149875656Y-93748389D01*
X149933373Y-93707046D01*
X149974916Y-93700000D01*
X150025084Y-93700000D01*
X150093205Y-93720002D01*
X150139698Y-93773658D01*
X150150546Y-93814374D01*
X150156456Y-93878155D01*
X150213664Y-94079222D01*
X150306848Y-94266361D01*
X150312542Y-94273902D01*
X150312543Y-94273903D01*
X150849543Y-93736904D01*
X150854898Y-93733979D01*
X150865577Y-93801405D01*
X150925978Y-93919947D01*
X151020053Y-94014022D01*
X151138595Y-94074423D01*
X151208118Y-94085434D01*
X150668972Y-94624579D01*
X150765051Y-94684069D01*
X150931141Y-94748412D01*
X150987436Y-94791671D01*
X151011407Y-94858499D01*
X150995443Y-94927677D01*
X150944613Y-94977243D01*
X150942829Y-94978170D01*
X150859126Y-95020819D01*
X150770821Y-95109124D01*
X150714122Y-95220401D01*
X150706811Y-95266563D01*
X150699500Y-95312724D01*
X150699500Y-96287276D01*
X150702800Y-96308109D01*
X150714122Y-96379598D01*
X150770821Y-96490875D01*
X150859124Y-96579178D01*
X150859126Y-96579179D01*
X150859127Y-96579180D01*
X150970402Y-96635878D01*
X151062724Y-96650500D01*
X151612275Y-96650500D01*
X151612276Y-96650500D01*
X151704598Y-96635878D01*
X151815873Y-96579180D01*
X151904180Y-96490873D01*
X151960878Y-96379598D01*
X151975500Y-96287276D01*
X151975500Y-96221409D01*
X151995502Y-96153288D01*
X152049158Y-96106795D01*
X152050601Y-96106147D01*
X152069989Y-96097585D01*
X152069992Y-96097585D01*
X152076118Y-96094879D01*
X152103857Y-96086290D01*
X152110433Y-96085061D01*
X152133026Y-96071071D01*
X152148454Y-96062940D01*
X152172765Y-96052206D01*
X152177496Y-96047474D01*
X152200261Y-96029443D01*
X152202262Y-96028203D01*
X152205952Y-96025919D01*
X152205952Y-96025917D01*
X152207409Y-96025016D01*
X152262655Y-95984018D01*
X152333491Y-95979248D01*
X152347105Y-95983082D01*
X152451206Y-96018820D01*
X152574439Y-96018820D01*
X152690996Y-95978806D01*
X152749141Y-95935449D01*
X153108060Y-95576529D01*
X153151418Y-95518384D01*
X153191432Y-95401827D01*
X153191432Y-95278594D01*
X153185562Y-95261496D01*
X153159784Y-95186406D01*
X153151418Y-95162037D01*
X153108061Y-95103892D01*
X152696108Y-94691940D01*
X152637963Y-94648582D01*
X152521406Y-94608568D01*
X152398173Y-94608568D01*
X152281617Y-94648581D01*
X152223465Y-94691943D01*
X151932751Y-94982658D01*
X151870439Y-95016684D01*
X151799624Y-95011619D01*
X151786452Y-95005829D01*
X151704599Y-94964122D01*
X151703561Y-94963957D01*
X151703018Y-94963871D01*
X151638866Y-94933460D01*
X151601339Y-94873191D01*
X151602353Y-94802202D01*
X151641586Y-94743030D01*
X151677214Y-94721931D01*
X151774945Y-94684070D01*
X151871026Y-94624578D01*
X151331882Y-94085434D01*
X151401405Y-94074423D01*
X151519947Y-94014022D01*
X151614022Y-93919947D01*
X151674423Y-93801405D01*
X151685434Y-93731882D01*
X152227454Y-94273902D01*
X152227455Y-94273902D01*
X152233152Y-94266358D01*
X152326335Y-94079222D01*
X152383543Y-93878155D01*
X152402832Y-93670000D01*
X152383543Y-93461844D01*
X152326335Y-93260777D01*
X152233152Y-93073641D01*
X152227455Y-93066096D01*
X151685434Y-93608117D01*
X151674423Y-93538595D01*
X151614022Y-93420053D01*
X151519947Y-93325978D01*
X151401405Y-93265577D01*
X151332744Y-93254702D01*
X151336905Y-93249540D01*
X151871025Y-92715419D01*
X151774948Y-92655930D01*
X151580009Y-92580411D01*
X151402847Y-92547293D01*
X151339561Y-92515114D01*
X151303720Y-92453829D01*
X151300000Y-92423439D01*
X151300000Y-92376560D01*
X151320002Y-92308439D01*
X151373658Y-92261946D01*
X151402847Y-92252705D01*
X151580014Y-92219586D01*
X151774949Y-92144068D01*
X151867531Y-92086742D01*
X151867531Y-92086741D01*
X151336905Y-91556115D01*
X151331137Y-91545552D01*
X151401405Y-91534423D01*
X151519947Y-91474022D01*
X151614022Y-91379947D01*
X151674423Y-91261405D01*
X151686207Y-91186998D01*
X152229887Y-91730678D01*
X152229889Y-91730678D01*
X152233150Y-91726361D01*
X152326335Y-91539222D01*
X152383543Y-91338155D01*
X152402832Y-91129999D01*
X152383543Y-90921844D01*
X152326333Y-90720772D01*
X152233153Y-90533642D01*
X152229888Y-90529320D01*
X151686207Y-91073001D01*
X151674423Y-90998595D01*
X151614022Y-90880053D01*
X151519947Y-90785978D01*
X151401405Y-90725577D01*
X151326997Y-90713792D01*
X151867532Y-90173256D01*
X151774948Y-90115930D01*
X151580014Y-90040413D01*
X151374523Y-90002000D01*
X151165477Y-90002000D01*
X150959985Y-90040413D01*
X150765051Y-90115930D01*
X150672466Y-90173257D01*
X151213001Y-90713792D01*
X151138595Y-90725577D01*
X151020053Y-90785978D01*
X150925978Y-90880053D01*
X150865577Y-90998595D01*
X150854062Y-91071297D01*
X150843884Y-91063095D01*
X150310110Y-90529320D01*
X150310109Y-90529320D01*
X150306847Y-90533639D01*
X150213664Y-90720777D01*
X150156456Y-90921844D01*
X150150546Y-90985626D01*
X150124344Y-91051611D01*
X150066627Y-91092954D01*
X150025084Y-91100000D01*
X149974916Y-91100000D01*
X149906795Y-91079998D01*
X149860302Y-91026342D01*
X149849454Y-90985626D01*
X149843543Y-90921844D01*
X149786333Y-90720772D01*
X149693153Y-90533642D01*
X149689888Y-90529320D01*
X149156115Y-91063095D01*
X149145552Y-91068862D01*
X149134423Y-90998595D01*
X149074022Y-90880053D01*
X148979947Y-90785978D01*
X148861405Y-90725577D01*
X148786997Y-90713792D01*
X149327532Y-90173256D01*
X149234948Y-90115930D01*
X149040014Y-90040413D01*
X148834523Y-90002000D01*
X148625477Y-90002000D01*
X148419985Y-90040413D01*
X148225051Y-90115930D01*
X148132466Y-90173257D01*
X148673001Y-90713792D01*
X148598595Y-90725577D01*
X148480053Y-90785978D01*
X148385978Y-90880053D01*
X148325577Y-90998595D01*
X148313792Y-91073001D01*
X147770111Y-90529320D01*
X147770109Y-90529320D01*
X147766847Y-90533639D01*
X147673664Y-90720777D01*
X147616456Y-90921844D01*
X147597167Y-91129999D01*
X147616456Y-91338155D01*
X147673666Y-91539227D01*
X147766844Y-91726354D01*
X147770110Y-91730678D01*
X148313792Y-91186996D01*
X148325577Y-91261405D01*
X148385978Y-91379947D01*
X148480053Y-91474022D01*
X148598595Y-91534423D01*
X148671295Y-91545937D01*
X148663095Y-91556113D01*
X148156613Y-92062595D01*
X148094301Y-92096621D01*
X148067518Y-92099500D01*
X146669573Y-92099500D01*
X146652676Y-92096743D01*
X146595951Y-92099366D01*
X146590133Y-92099500D01*
X146571107Y-92099500D01*
X146556561Y-92101186D01*
X146530008Y-92102414D01*
X146523876Y-92105122D01*
X146496150Y-92113707D01*
X146489569Y-92114937D01*
X146466974Y-92128927D01*
X146451545Y-92137059D01*
X146427236Y-92147793D01*
X146422500Y-92152529D01*
X146399745Y-92170553D01*
X146394047Y-92174081D01*
X146378030Y-92195290D01*
X146366579Y-92208449D01*
X145527481Y-93047546D01*
X145465171Y-93081570D01*
X145438388Y-93084450D01*
X145315052Y-93084450D01*
X145215523Y-93123006D01*
X145199535Y-93135670D01*
X145199523Y-93135680D01*
X145196682Y-93137931D01*
X145194118Y-93140494D01*
X145194109Y-93140503D01*
X144948052Y-93386561D01*
X144948043Y-93386570D01*
X144945486Y-93389128D01*
X144943238Y-93391965D01*
X144943236Y-93391968D01*
X144930560Y-93407970D01*
X144892004Y-93507498D01*
X144892003Y-93614238D01*
X144909996Y-93660684D01*
X144915952Y-93731430D01*
X144882713Y-93794165D01*
X144820834Y-93828972D01*
X144749960Y-93824798D01*
X144746990Y-93823690D01*
X144700545Y-93805698D01*
X144700543Y-93805698D01*
X144593805Y-93805698D01*
X144593804Y-93805698D01*
X144494275Y-93844254D01*
X144478287Y-93856918D01*
X144478275Y-93856928D01*
X144475434Y-93859179D01*
X144472870Y-93861742D01*
X144472861Y-93861751D01*
X144226804Y-94107809D01*
X144226795Y-94107818D01*
X144224238Y-94110376D01*
X144221990Y-94113213D01*
X144221988Y-94113216D01*
X144209312Y-94129218D01*
X144170756Y-94228746D01*
X144170756Y-94352081D01*
X144150754Y-94420202D01*
X144133852Y-94441176D01*
X143392434Y-95182595D01*
X143330121Y-95216620D01*
X143303338Y-95219500D01*
X142810180Y-95219500D01*
X142767387Y-95228012D01*
X142696673Y-95221684D01*
X142640606Y-95178130D01*
X142616987Y-95111177D01*
X142618122Y-95086271D01*
X142625500Y-95035636D01*
X142625500Y-94651659D01*
X142645502Y-94583539D01*
X142662399Y-94562570D01*
X142840942Y-94384027D01*
X142903250Y-94350005D01*
X142946477Y-94348203D01*
X143000000Y-94355250D01*
X143143709Y-94336330D01*
X143201475Y-94312403D01*
X143277623Y-94280862D01*
X143277623Y-94280861D01*
X143277625Y-94280861D01*
X143392621Y-94192621D01*
X143480861Y-94077625D01*
X143495254Y-94042878D01*
X143536330Y-93943709D01*
X143539458Y-93919947D01*
X143555250Y-93800000D01*
X143536330Y-93656291D01*
X143535319Y-93653850D01*
X143480862Y-93522376D01*
X143440108Y-93469265D01*
X143392621Y-93407379D01*
X143321034Y-93352448D01*
X143277623Y-93319137D01*
X143143709Y-93263669D01*
X143000000Y-93244750D01*
X142856290Y-93263669D01*
X142722376Y-93319137D01*
X142607379Y-93407379D01*
X142590248Y-93429705D01*
X142532910Y-93471572D01*
X142490286Y-93479000D01*
X141017000Y-93479000D01*
X141017000Y-93495638D01*
X141017325Y-93502028D01*
X141027256Y-93599238D01*
X141081152Y-93761885D01*
X141171111Y-93907731D01*
X141292268Y-94028888D01*
X141433609Y-94116068D01*
X141481087Y-94168854D01*
X141492490Y-94238929D01*
X141464198Y-94304044D01*
X141456559Y-94312403D01*
X141440173Y-94328788D01*
X141385134Y-94441373D01*
X141385133Y-94441375D01*
X141385134Y-94441375D01*
X141374500Y-94514364D01*
X141374500Y-95035636D01*
X141379435Y-95069509D01*
X141380284Y-95075335D01*
X141370311Y-95145628D01*
X141323919Y-95199370D01*
X141255836Y-95219500D01*
X140910180Y-95219500D01*
X140905651Y-95220401D01*
X140866275Y-95228233D01*
X140816495Y-95261495D01*
X140783233Y-95311275D01*
X140774500Y-95355181D01*
X140774500Y-96124000D01*
X140754498Y-96192121D01*
X140700842Y-96238614D01*
X140648500Y-96250000D01*
X140000000Y-96250000D01*
X140000000Y-97244300D01*
X139979998Y-97312421D01*
X139926342Y-97358914D01*
X139874001Y-97370300D01*
X139629616Y-97370300D01*
X139629598Y-97370300D01*
X139625978Y-97370301D01*
X139622375Y-97370718D01*
X139622372Y-97370719D01*
X139586379Y-97374893D01*
X139516408Y-97362869D01*
X139464045Y-97314926D01*
X139463413Y-97313870D01*
X139430705Y-97258564D01*
X139315832Y-97143691D01*
X139175998Y-97060993D01*
X139037600Y-97020785D01*
X139037600Y-98660813D01*
X139179947Y-98619458D01*
X139250943Y-98619661D01*
X139310560Y-98658215D01*
X139339868Y-98722879D01*
X139341100Y-98740455D01*
X139341100Y-99013733D01*
X139341100Y-99013750D01*
X139341101Y-99017372D01*
X139341519Y-99020982D01*
X139341520Y-99020987D01*
X139343917Y-99041661D01*
X139387786Y-99141015D01*
X139387787Y-99141016D01*
X139464584Y-99217813D01*
X139464585Y-99217813D01*
X139471675Y-99224903D01*
X139505700Y-99287215D01*
X139500636Y-99358031D01*
X139471676Y-99403094D01*
X139418176Y-99456595D01*
X139355864Y-99490620D01*
X139329080Y-99493500D01*
X139326662Y-99493500D01*
X139258541Y-99473498D01*
X139220148Y-99429190D01*
X139137543Y-99346585D01*
X139039898Y-99303470D01*
X139039889Y-99303469D01*
X139016023Y-99300700D01*
X139012376Y-99300700D01*
X138664416Y-99300700D01*
X138664398Y-99300700D01*
X138660778Y-99300701D01*
X138657170Y-99301119D01*
X138657160Y-99301120D01*
X138636903Y-99303469D01*
X138539256Y-99346585D01*
X138463785Y-99422056D01*
X138443664Y-99467626D01*
X138397850Y-99521863D01*
X138329986Y-99542721D01*
X138261619Y-99523578D01*
X138214454Y-99470512D01*
X138213136Y-99467626D01*
X138208265Y-99456595D01*
X138193016Y-99422059D01*
X138193014Y-99422057D01*
X138193014Y-99422056D01*
X138117543Y-99346585D01*
X138019898Y-99303470D01*
X138019889Y-99303469D01*
X137996023Y-99300700D01*
X137992376Y-99300700D01*
X137644416Y-99300700D01*
X137644398Y-99300700D01*
X137640778Y-99300701D01*
X137637170Y-99301119D01*
X137637160Y-99301120D01*
X137616903Y-99303469D01*
X137519257Y-99346584D01*
X137452294Y-99413548D01*
X137389981Y-99447573D01*
X137319166Y-99442507D01*
X137274104Y-99413547D01*
X137245403Y-99384845D01*
X137211379Y-99322533D01*
X137208500Y-99295752D01*
X137208500Y-99197719D01*
X137228502Y-99129598D01*
X137245403Y-99108625D01*
X137261813Y-99092216D01*
X137305682Y-98992862D01*
X137308500Y-98968573D01*
X137308499Y-98541828D01*
X137305682Y-98517538D01*
X137261813Y-98418184D01*
X137261812Y-98418183D01*
X137261812Y-98418182D01*
X137185017Y-98341387D01*
X137085663Y-98297518D01*
X137082741Y-98297179D01*
X137061373Y-98294700D01*
X137057726Y-98294700D01*
X136698266Y-98294700D01*
X136698248Y-98294700D01*
X136694628Y-98294701D01*
X136691018Y-98295119D01*
X136691012Y-98295120D01*
X136670338Y-98297517D01*
X136570982Y-98341387D01*
X136487095Y-98425275D01*
X136424783Y-98459301D01*
X136353968Y-98454236D01*
X136308905Y-98425275D01*
X136225017Y-98341387D01*
X136125663Y-98297518D01*
X136122741Y-98297179D01*
X136101373Y-98294700D01*
X136097726Y-98294700D01*
X135780461Y-98294700D01*
X135712340Y-98274698D01*
X135691366Y-98257795D01*
X135528371Y-98094800D01*
X138005919Y-98094800D01*
X138008468Y-98127188D01*
X138053792Y-98283194D01*
X138136494Y-98423035D01*
X138251364Y-98537905D01*
X138391205Y-98620607D01*
X138529599Y-98660814D01*
X138529600Y-98660814D01*
X138529600Y-98094800D01*
X138005919Y-98094800D01*
X135528371Y-98094800D01*
X135020371Y-97586800D01*
X138005919Y-97586800D01*
X138529600Y-97586800D01*
X138529600Y-97020785D01*
X138391201Y-97060993D01*
X138251367Y-97143691D01*
X138136494Y-97258564D01*
X138053792Y-97398405D01*
X138008468Y-97554411D01*
X138005919Y-97586800D01*
X135020371Y-97586800D01*
X135017205Y-97583634D01*
X134983179Y-97521322D01*
X134980300Y-97494539D01*
X134980300Y-96921527D01*
X134976309Y-96901462D01*
X134965766Y-96848460D01*
X134910401Y-96765599D01*
X134827540Y-96710234D01*
X134754474Y-96695700D01*
X134754473Y-96695700D01*
X134505124Y-96695700D01*
X134461480Y-96704381D01*
X134390766Y-96698053D01*
X134334699Y-96654498D01*
X134311081Y-96587545D01*
X134310900Y-96580802D01*
X134310900Y-96540248D01*
X134330902Y-96472127D01*
X134347805Y-96451153D01*
X134435014Y-96363943D01*
X134435013Y-96363943D01*
X134435016Y-96363941D01*
X134478130Y-96266298D01*
X134480900Y-96242423D01*
X134480899Y-95887178D01*
X134478130Y-95863302D01*
X134435016Y-95765659D01*
X134435014Y-95765657D01*
X134435014Y-95765656D01*
X134359542Y-95690184D01*
X134313974Y-95670064D01*
X134259737Y-95624251D01*
X134238878Y-95556387D01*
X134258020Y-95488020D01*
X134311086Y-95440855D01*
X134313974Y-95439536D01*
X134315211Y-95438989D01*
X134359541Y-95419416D01*
X134435016Y-95343941D01*
X134478130Y-95246298D01*
X134480900Y-95222423D01*
X134480899Y-94867178D01*
X134478130Y-94843302D01*
X134435016Y-94745659D01*
X134435015Y-94745658D01*
X134425502Y-94724113D01*
X134426741Y-94723565D01*
X134409338Y-94691694D01*
X134414403Y-94620879D01*
X134432494Y-94588210D01*
X134491261Y-94511625D01*
X134520442Y-94441176D01*
X134546730Y-94377709D01*
X134550377Y-94350005D01*
X134565650Y-94234000D01*
X134547991Y-94099869D01*
X134546730Y-94090290D01*
X134491262Y-93956376D01*
X134418653Y-93861751D01*
X134403021Y-93841379D01*
X134403019Y-93841377D01*
X134403018Y-93841376D01*
X134360195Y-93808516D01*
X134318328Y-93751178D01*
X134310900Y-93708555D01*
X134310900Y-93704640D01*
X134330902Y-93636519D01*
X134332135Y-93634638D01*
X134341921Y-93619992D01*
X134346366Y-93613340D01*
X134360900Y-93540274D01*
X134360900Y-93511887D01*
X134380902Y-93443766D01*
X134410196Y-93411925D01*
X134544028Y-93309231D01*
X134641487Y-93182222D01*
X134702750Y-93034318D01*
X134711086Y-92971000D01*
X141017000Y-92971000D01*
X141746000Y-92971000D01*
X141746000Y-92267000D01*
X142254000Y-92267000D01*
X142254000Y-92971000D01*
X142983000Y-92971000D01*
X142983000Y-92954361D01*
X142982674Y-92947971D01*
X142972743Y-92850761D01*
X142918847Y-92688114D01*
X142828888Y-92542268D01*
X142707731Y-92421111D01*
X142561885Y-92331152D01*
X142399238Y-92277256D01*
X142302028Y-92267325D01*
X142295639Y-92267000D01*
X142254000Y-92267000D01*
X141746000Y-92267000D01*
X141704361Y-92267000D01*
X141697971Y-92267325D01*
X141600761Y-92277256D01*
X141438114Y-92331152D01*
X141292268Y-92421111D01*
X141171111Y-92542268D01*
X141081152Y-92688114D01*
X141027256Y-92850761D01*
X141017325Y-92947971D01*
X141017000Y-92954361D01*
X141017000Y-92971000D01*
X134711086Y-92971000D01*
X134714430Y-92945600D01*
X133306371Y-92945600D01*
X133318049Y-93034319D01*
X133379312Y-93182222D01*
X133476770Y-93309229D01*
X133610604Y-93411926D01*
X133652471Y-93469265D01*
X133659899Y-93511885D01*
X133659899Y-93540272D01*
X133674434Y-93613340D01*
X133688665Y-93634638D01*
X133709880Y-93702391D01*
X133709900Y-93704640D01*
X133709900Y-93708555D01*
X133689898Y-93776676D01*
X133660605Y-93808516D01*
X133617781Y-93841376D01*
X133529537Y-93956376D01*
X133474069Y-94090290D01*
X133455150Y-94234000D01*
X133464304Y-94303536D01*
X133453364Y-94373684D01*
X133406236Y-94426783D01*
X133337882Y-94445972D01*
X133273893Y-94426352D01*
X133273621Y-94426813D01*
X133271710Y-94425683D01*
X133270004Y-94425160D01*
X133267837Y-94423392D01*
X133118995Y-94335368D01*
X132961773Y-94289690D01*
X132943600Y-94288259D01*
X132943600Y-95202800D01*
X132923598Y-95270921D01*
X132869942Y-95317414D01*
X132817600Y-95328800D01*
X131877927Y-95328800D01*
X131914899Y-95456060D01*
X131914696Y-95527057D01*
X131876142Y-95586673D01*
X131811477Y-95615981D01*
X131777456Y-95616135D01*
X131724400Y-95609150D01*
X131580690Y-95628069D01*
X131446776Y-95683537D01*
X131331779Y-95771779D01*
X131243537Y-95886776D01*
X131188069Y-96020690D01*
X131169150Y-96164400D01*
X125323940Y-96164400D01*
X125340454Y-96046519D01*
X125341235Y-96041655D01*
X125517120Y-95069300D01*
X125518109Y-95064395D01*
X125572254Y-94820800D01*
X131877927Y-94820800D01*
X132435600Y-94820800D01*
X132435600Y-94288259D01*
X132417426Y-94289690D01*
X132260204Y-94335368D01*
X132119276Y-94418712D01*
X132003512Y-94534476D01*
X131920168Y-94675404D01*
X131877927Y-94820800D01*
X125572254Y-94820800D01*
X125732506Y-94099832D01*
X125733672Y-94095037D01*
X125986270Y-93139679D01*
X125987620Y-93134957D01*
X126168801Y-92545599D01*
X133306369Y-92545599D01*
X133306370Y-92545600D01*
X133810400Y-92545600D01*
X133810400Y-92015519D01*
X134210399Y-92015519D01*
X134210400Y-92545600D01*
X134714429Y-92545600D01*
X134714429Y-92545599D01*
X134702750Y-92456880D01*
X134641487Y-92308977D01*
X134544029Y-92181970D01*
X134417022Y-92084512D01*
X134269120Y-92023249D01*
X134210400Y-92015519D01*
X134210399Y-92015519D01*
X133810400Y-92015519D01*
X133810399Y-92015519D01*
X133751679Y-92023249D01*
X133603777Y-92084512D01*
X133476770Y-92181970D01*
X133379312Y-92308977D01*
X133318049Y-92456881D01*
X133306369Y-92545599D01*
X126168801Y-92545599D01*
X126277981Y-92190452D01*
X126279546Y-92185702D01*
X126292871Y-92147794D01*
X126607218Y-91253518D01*
X126608969Y-91248838D01*
X126656130Y-91130001D01*
X126973440Y-90330422D01*
X126975378Y-90325810D01*
X127043057Y-90173256D01*
X127376097Y-89422558D01*
X127378174Y-89418117D01*
X127814494Y-88531497D01*
X127816766Y-88527104D01*
X128287989Y-87658533D01*
X128290404Y-87654284D01*
X128795799Y-86805111D01*
X128798419Y-86800901D01*
X129337145Y-85972539D01*
X129339949Y-85968411D01*
X129911169Y-85162139D01*
X129914095Y-85158178D01*
X130516950Y-84375213D01*
X130520050Y-84371348D01*
X131153552Y-83612974D01*
X131156789Y-83609252D01*
X131819923Y-82876683D01*
X131823313Y-82873084D01*
X132515047Y-82167456D01*
X132518617Y-82163957D01*
X132559209Y-82125717D01*
X133237867Y-81486379D01*
X133241526Y-81483067D01*
X133987151Y-80834617D01*
X133990921Y-80831468D01*
X134761761Y-80213153D01*
X134765646Y-80210162D01*
X135560475Y-79622969D01*
X135564470Y-79620138D01*
X136381998Y-79065023D01*
X136386101Y-79062354D01*
X137225069Y-78540169D01*
X137229318Y-78537640D01*
X138088311Y-78049262D01*
X138092653Y-78046906D01*
X138970415Y-77593048D01*
X138974874Y-77590854D01*
X139869975Y-77172257D01*
X139874474Y-77170261D01*
X140785520Y-76787577D01*
X140790137Y-76785745D01*
X141715681Y-76439582D01*
X141720324Y-76437950D01*
X142658870Y-76128866D01*
X142663595Y-76127413D01*
X143613738Y-75855872D01*
X143618525Y-75854607D01*
X144578662Y-75621068D01*
X144583491Y-75619995D01*
X145552138Y-75424815D01*
X145557051Y-75423926D01*
X146532697Y-75267410D01*
X146537620Y-75266720D01*
X147518704Y-75149117D01*
X147523639Y-75148624D01*
X148508694Y-75070114D01*
X148513630Y-75069819D01*
X149500938Y-75030537D01*
X149505948Y-75030437D01*
X150494052Y-75030437D01*
X150499061Y-75030537D01*
G37*
%TD.AperFunction*%
M02*
