%TF.GenerationSoftware,KiCad,Pcbnew,7.0.2*%
%TF.CreationDate,2023-05-30T15:48:39+02:00*%
%TF.ProjectId,oip_opa818,6f69705f-6f70-4613-9831-382e6b696361,rev?*%
%TF.SameCoordinates,Original*%
%TF.FileFunction,Legend,Top*%
%TF.FilePolarity,Positive*%
%FSLAX46Y46*%
G04 Gerber Fmt 4.6, Leading zero omitted, Abs format (unit mm)*
G04 Created by KiCad (PCBNEW 7.0.2) date 2023-05-30 15:48:39*
%MOMM*%
%LPD*%
G01*
G04 APERTURE LIST*
G04 Aperture macros list*
%AMRoundRect*
0 Rectangle with rounded corners*
0 $1 Rounding radius*
0 $2 $3 $4 $5 $6 $7 $8 $9 X,Y pos of 4 corners*
0 Add a 4 corners polygon primitive as box body*
4,1,4,$2,$3,$4,$5,$6,$7,$8,$9,$2,$3,0*
0 Add four circle primitives for the rounded corners*
1,1,$1+$1,$2,$3*
1,1,$1+$1,$4,$5*
1,1,$1+$1,$6,$7*
1,1,$1+$1,$8,$9*
0 Add four rect primitives between the rounded corners*
20,1,$1+$1,$2,$3,$4,$5,0*
20,1,$1+$1,$4,$5,$6,$7,0*
20,1,$1+$1,$6,$7,$8,$9,0*
20,1,$1+$1,$8,$9,$2,$3,0*%
G04 Aperture macros list end*
%ADD10C,0.250000*%
%ADD11C,0.100000*%
%ADD12C,0.150000*%
%ADD13C,0.125000*%
%ADD14C,0.120000*%
%ADD15C,2.500000*%
%ADD16RoundRect,0.135000X-0.185000X0.135000X-0.185000X-0.135000X0.185000X-0.135000X0.185000X0.135000X0*%
%ADD17RoundRect,0.100000X-0.100000X0.130000X-0.100000X-0.130000X0.100000X-0.130000X0.100000X0.130000X0*%
%ADD18RoundRect,0.100000X0.100000X-0.712500X0.100000X0.712500X-0.100000X0.712500X-0.100000X-0.712500X0*%
%ADD19RoundRect,0.135000X-0.035355X0.226274X-0.226274X0.035355X0.035355X-0.226274X0.226274X-0.035355X0*%
%ADD20RoundRect,0.135000X0.185000X-0.135000X0.185000X0.135000X-0.185000X0.135000X-0.185000X-0.135000X0*%
%ADD21RoundRect,0.140000X-0.170000X0.140000X-0.170000X-0.140000X0.170000X-0.140000X0.170000X0.140000X0*%
%ADD22O,1.000000X1.000000*%
%ADD23RoundRect,0.075000X0.650000X0.075000X-0.650000X0.075000X-0.650000X-0.075000X0.650000X-0.075000X0*%
%ADD24RoundRect,0.250000X0.590000X0.690000X-0.590000X0.690000X-0.590000X-0.690000X0.590000X-0.690000X0*%
%ADD25RoundRect,0.100000X-0.371231X-0.512652X0.512652X0.371231X0.371231X0.512652X-0.512652X-0.371231X0*%
%ADD26RoundRect,0.249999X0.424264X-1.237438X1.237438X-0.424264X-0.424264X1.237438X-1.237438X0.424264X0*%
%ADD27RoundRect,0.218750X0.218750X0.256250X-0.218750X0.256250X-0.218750X-0.256250X0.218750X-0.256250X0*%
%ADD28RoundRect,0.218750X0.256250X-0.218750X0.256250X0.218750X-0.256250X0.218750X-0.256250X-0.218750X0*%
%ADD29RoundRect,0.218750X-0.218750X-0.256250X0.218750X-0.256250X0.218750X0.256250X-0.218750X0.256250X0*%
%ADD30RoundRect,0.218750X0.165979X-0.293200X0.315613X0.117915X-0.165979X0.293200X-0.315613X-0.117915X0*%
%ADD31RoundRect,0.218750X0.026517X-0.335876X0.335876X-0.026517X-0.026517X0.335876X-0.335876X0.026517X0*%
%ADD32R,0.500000X0.500000*%
%ADD33RoundRect,0.243750X0.243750X0.456250X-0.243750X0.456250X-0.243750X-0.456250X0.243750X-0.456250X0*%
%ADD34RoundRect,0.218750X-0.026517X0.335876X-0.335876X0.026517X0.026517X-0.335876X0.335876X-0.026517X0*%
%ADD35RoundRect,0.147500X-0.147500X-0.172500X0.147500X-0.172500X0.147500X0.172500X-0.147500X0.172500X0*%
%ADD36R,0.600000X0.250000*%
%ADD37R,1.450000X2.400000*%
%ADD38RoundRect,0.218750X-0.256250X0.218750X-0.256250X-0.218750X0.256250X-0.218750X0.256250X0.218750X0*%
%ADD39RoundRect,0.225000X0.250000X-0.225000X0.250000X0.225000X-0.250000X0.225000X-0.250000X-0.225000X0*%
%ADD40R,0.650000X1.060000*%
%ADD41RoundRect,0.225000X-0.225000X-0.250000X0.225000X-0.250000X0.225000X0.250000X-0.225000X0.250000X0*%
%ADD42RoundRect,0.135000X0.135000X0.185000X-0.135000X0.185000X-0.135000X-0.185000X0.135000X-0.185000X0*%
%ADD43RoundRect,0.135000X-0.135000X-0.185000X0.135000X-0.185000X0.135000X0.185000X-0.135000X0.185000X0*%
%ADD44RoundRect,0.040000X0.660000X0.360000X-0.660000X0.360000X-0.660000X-0.360000X0.660000X-0.360000X0*%
%ADD45RoundRect,0.030000X0.270000X0.520000X-0.270000X0.520000X-0.270000X-0.520000X0.270000X-0.520000X0*%
%ADD46RoundRect,0.140000X0.140000X0.170000X-0.140000X0.170000X-0.140000X-0.170000X0.140000X-0.170000X0*%
%ADD47RoundRect,0.040000X-0.660000X-0.360000X0.660000X-0.360000X0.660000X0.360000X-0.660000X0.360000X0*%
%ADD48RoundRect,0.030000X-0.270000X-0.520000X0.270000X-0.520000X0.270000X0.520000X-0.270000X0.520000X0*%
%ADD49C,1.240000*%
%ADD50C,1.000000*%
%ADD51R,1.700000X1.700000*%
%ADD52O,1.700000X1.700000*%
G04 APERTURE END LIST*
D10*
X131454495Y-91520819D02*
X131454495Y-90520819D01*
X131930685Y-90854152D02*
X131930685Y-91520819D01*
X131930685Y-90949390D02*
X131978304Y-90901771D01*
X131978304Y-90901771D02*
X132073542Y-90854152D01*
X132073542Y-90854152D02*
X132216399Y-90854152D01*
X132216399Y-90854152D02*
X132311637Y-90901771D01*
X132311637Y-90901771D02*
X132359256Y-90997009D01*
X132359256Y-90997009D02*
X132359256Y-91520819D01*
X132692590Y-90854152D02*
X133073542Y-90854152D01*
X132835447Y-90520819D02*
X132835447Y-91377961D01*
X132835447Y-91377961D02*
X132883066Y-91473200D01*
X132883066Y-91473200D02*
X132978304Y-91520819D01*
X132978304Y-91520819D02*
X133073542Y-91520819D01*
X133787828Y-91473200D02*
X133692590Y-91520819D01*
X133692590Y-91520819D02*
X133502114Y-91520819D01*
X133502114Y-91520819D02*
X133406876Y-91473200D01*
X133406876Y-91473200D02*
X133359257Y-91377961D01*
X133359257Y-91377961D02*
X133359257Y-90997009D01*
X133359257Y-90997009D02*
X133406876Y-90901771D01*
X133406876Y-90901771D02*
X133502114Y-90854152D01*
X133502114Y-90854152D02*
X133692590Y-90854152D01*
X133692590Y-90854152D02*
X133787828Y-90901771D01*
X133787828Y-90901771D02*
X133835447Y-90997009D01*
X133835447Y-90997009D02*
X133835447Y-91092247D01*
X133835447Y-91092247D02*
X133359257Y-91187485D01*
X134264019Y-90854152D02*
X134264019Y-91520819D01*
X134264019Y-90949390D02*
X134311638Y-90901771D01*
X134311638Y-90901771D02*
X134406876Y-90854152D01*
X134406876Y-90854152D02*
X134549733Y-90854152D01*
X134549733Y-90854152D02*
X134644971Y-90901771D01*
X134644971Y-90901771D02*
X134692590Y-90997009D01*
X134692590Y-90997009D02*
X134692590Y-91520819D01*
X135121162Y-91473200D02*
X135216400Y-91520819D01*
X135216400Y-91520819D02*
X135406876Y-91520819D01*
X135406876Y-91520819D02*
X135502114Y-91473200D01*
X135502114Y-91473200D02*
X135549733Y-91377961D01*
X135549733Y-91377961D02*
X135549733Y-91330342D01*
X135549733Y-91330342D02*
X135502114Y-91235104D01*
X135502114Y-91235104D02*
X135406876Y-91187485D01*
X135406876Y-91187485D02*
X135264019Y-91187485D01*
X135264019Y-91187485D02*
X135168781Y-91139866D01*
X135168781Y-91139866D02*
X135121162Y-91044628D01*
X135121162Y-91044628D02*
X135121162Y-90997009D01*
X135121162Y-90997009D02*
X135168781Y-90901771D01*
X135168781Y-90901771D02*
X135264019Y-90854152D01*
X135264019Y-90854152D02*
X135406876Y-90854152D01*
X135406876Y-90854152D02*
X135502114Y-90901771D01*
X135978305Y-91520819D02*
X135978305Y-90854152D01*
X135978305Y-90520819D02*
X135930686Y-90568438D01*
X135930686Y-90568438D02*
X135978305Y-90616057D01*
X135978305Y-90616057D02*
X136025924Y-90568438D01*
X136025924Y-90568438D02*
X135978305Y-90520819D01*
X135978305Y-90520819D02*
X135978305Y-90616057D01*
X136311638Y-90854152D02*
X136692590Y-90854152D01*
X136454495Y-90520819D02*
X136454495Y-91377961D01*
X136454495Y-91377961D02*
X136502114Y-91473200D01*
X136502114Y-91473200D02*
X136597352Y-91520819D01*
X136597352Y-91520819D02*
X136692590Y-91520819D01*
X136930686Y-90854152D02*
X137168781Y-91520819D01*
X137406876Y-90854152D02*
X137168781Y-91520819D01*
X137168781Y-91520819D02*
X137073543Y-91758914D01*
X137073543Y-91758914D02*
X137025924Y-91806533D01*
X137025924Y-91806533D02*
X136930686Y-91854152D01*
X132775295Y-111948019D02*
X132775295Y-110948019D01*
X132775295Y-110948019D02*
X133108628Y-111662304D01*
X133108628Y-111662304D02*
X133441961Y-110948019D01*
X133441961Y-110948019D02*
X133441961Y-111948019D01*
X134108628Y-110948019D02*
X134299104Y-110948019D01*
X134299104Y-110948019D02*
X134394342Y-110995638D01*
X134394342Y-110995638D02*
X134489580Y-111090876D01*
X134489580Y-111090876D02*
X134537199Y-111281352D01*
X134537199Y-111281352D02*
X134537199Y-111614685D01*
X134537199Y-111614685D02*
X134489580Y-111805161D01*
X134489580Y-111805161D02*
X134394342Y-111900400D01*
X134394342Y-111900400D02*
X134299104Y-111948019D01*
X134299104Y-111948019D02*
X134108628Y-111948019D01*
X134108628Y-111948019D02*
X134013390Y-111900400D01*
X134013390Y-111900400D02*
X133918152Y-111805161D01*
X133918152Y-111805161D02*
X133870533Y-111614685D01*
X133870533Y-111614685D02*
X133870533Y-111281352D01*
X133870533Y-111281352D02*
X133918152Y-111090876D01*
X133918152Y-111090876D02*
X134013390Y-110995638D01*
X134013390Y-110995638D02*
X134108628Y-110948019D01*
X134965771Y-111948019D02*
X134965771Y-110948019D01*
X134965771Y-110948019D02*
X135537199Y-111948019D01*
X135537199Y-111948019D02*
X135537199Y-110948019D01*
X136013390Y-111948019D02*
X136013390Y-110948019D01*
X136346723Y-110948019D02*
X136918151Y-110948019D01*
X136632437Y-111948019D02*
X136632437Y-110948019D01*
X137441961Y-110948019D02*
X137632437Y-110948019D01*
X137632437Y-110948019D02*
X137727675Y-110995638D01*
X137727675Y-110995638D02*
X137822913Y-111090876D01*
X137822913Y-111090876D02*
X137870532Y-111281352D01*
X137870532Y-111281352D02*
X137870532Y-111614685D01*
X137870532Y-111614685D02*
X137822913Y-111805161D01*
X137822913Y-111805161D02*
X137727675Y-111900400D01*
X137727675Y-111900400D02*
X137632437Y-111948019D01*
X137632437Y-111948019D02*
X137441961Y-111948019D01*
X137441961Y-111948019D02*
X137346723Y-111900400D01*
X137346723Y-111900400D02*
X137251485Y-111805161D01*
X137251485Y-111805161D02*
X137203866Y-111614685D01*
X137203866Y-111614685D02*
X137203866Y-111281352D01*
X137203866Y-111281352D02*
X137251485Y-111090876D01*
X137251485Y-111090876D02*
X137346723Y-110995638D01*
X137346723Y-110995638D02*
X137441961Y-110948019D01*
X138870532Y-111948019D02*
X138537199Y-111471828D01*
X138299104Y-111948019D02*
X138299104Y-110948019D01*
X138299104Y-110948019D02*
X138680056Y-110948019D01*
X138680056Y-110948019D02*
X138775294Y-110995638D01*
X138775294Y-110995638D02*
X138822913Y-111043257D01*
X138822913Y-111043257D02*
X138870532Y-111138495D01*
X138870532Y-111138495D02*
X138870532Y-111281352D01*
X138870532Y-111281352D02*
X138822913Y-111376590D01*
X138822913Y-111376590D02*
X138775294Y-111424209D01*
X138775294Y-111424209D02*
X138680056Y-111471828D01*
X138680056Y-111471828D02*
X138299104Y-111471828D01*
X133537200Y-112901352D02*
X132775295Y-113187066D01*
X132775295Y-113187066D02*
X133537200Y-113472780D01*
X135299104Y-113568019D02*
X134727676Y-113568019D01*
X135013390Y-113568019D02*
X135013390Y-112568019D01*
X135013390Y-112568019D02*
X134918152Y-112710876D01*
X134918152Y-112710876D02*
X134822914Y-112806114D01*
X134822914Y-112806114D02*
X134727676Y-112853733D01*
X135918152Y-112568019D02*
X136013390Y-112568019D01*
X136013390Y-112568019D02*
X136108628Y-112615638D01*
X136108628Y-112615638D02*
X136156247Y-112663257D01*
X136156247Y-112663257D02*
X136203866Y-112758495D01*
X136203866Y-112758495D02*
X136251485Y-112948971D01*
X136251485Y-112948971D02*
X136251485Y-113187066D01*
X136251485Y-113187066D02*
X136203866Y-113377542D01*
X136203866Y-113377542D02*
X136156247Y-113472780D01*
X136156247Y-113472780D02*
X136108628Y-113520400D01*
X136108628Y-113520400D02*
X136013390Y-113568019D01*
X136013390Y-113568019D02*
X135918152Y-113568019D01*
X135918152Y-113568019D02*
X135822914Y-113520400D01*
X135822914Y-113520400D02*
X135775295Y-113472780D01*
X135775295Y-113472780D02*
X135727676Y-113377542D01*
X135727676Y-113377542D02*
X135680057Y-113187066D01*
X135680057Y-113187066D02*
X135680057Y-112948971D01*
X135680057Y-112948971D02*
X135727676Y-112758495D01*
X135727676Y-112758495D02*
X135775295Y-112663257D01*
X135775295Y-112663257D02*
X135822914Y-112615638D01*
X135822914Y-112615638D02*
X135918152Y-112568019D01*
X137441962Y-113568019D02*
X137441962Y-112568019D01*
X137537200Y-113187066D02*
X137822914Y-113568019D01*
X137822914Y-112901352D02*
X137441962Y-113282304D01*
X138251486Y-113568019D02*
X138251486Y-112568019D01*
X138251486Y-113044209D02*
X138822914Y-113044209D01*
X138822914Y-113568019D02*
X138822914Y-112568019D01*
X139203867Y-112901352D02*
X139727676Y-112901352D01*
X139727676Y-112901352D02*
X139203867Y-113568019D01*
X139203867Y-113568019D02*
X139727676Y-113568019D01*
X146148323Y-87456819D02*
X145814990Y-86980628D01*
X145576895Y-87456819D02*
X145576895Y-86456819D01*
X145576895Y-86456819D02*
X145957847Y-86456819D01*
X145957847Y-86456819D02*
X146053085Y-86504438D01*
X146053085Y-86504438D02*
X146100704Y-86552057D01*
X146100704Y-86552057D02*
X146148323Y-86647295D01*
X146148323Y-86647295D02*
X146148323Y-86790152D01*
X146148323Y-86790152D02*
X146100704Y-86885390D01*
X146100704Y-86885390D02*
X146053085Y-86933009D01*
X146053085Y-86933009D02*
X145957847Y-86980628D01*
X145957847Y-86980628D02*
X145576895Y-86980628D01*
X146910228Y-86933009D02*
X146576895Y-86933009D01*
X146576895Y-87456819D02*
X146576895Y-86456819D01*
X146576895Y-86456819D02*
X147053085Y-86456819D01*
X148195943Y-86790152D02*
X148957848Y-87075866D01*
X148957848Y-87075866D02*
X148195943Y-87361580D01*
X150719752Y-87456819D02*
X150148324Y-87456819D01*
X150434038Y-87456819D02*
X150434038Y-86456819D01*
X150434038Y-86456819D02*
X150338800Y-86599676D01*
X150338800Y-86599676D02*
X150243562Y-86694914D01*
X150243562Y-86694914D02*
X150148324Y-86742533D01*
X151624514Y-86456819D02*
X151148324Y-86456819D01*
X151148324Y-86456819D02*
X151100705Y-86933009D01*
X151100705Y-86933009D02*
X151148324Y-86885390D01*
X151148324Y-86885390D02*
X151243562Y-86837771D01*
X151243562Y-86837771D02*
X151481657Y-86837771D01*
X151481657Y-86837771D02*
X151576895Y-86885390D01*
X151576895Y-86885390D02*
X151624514Y-86933009D01*
X151624514Y-86933009D02*
X151672133Y-87028247D01*
X151672133Y-87028247D02*
X151672133Y-87266342D01*
X151672133Y-87266342D02*
X151624514Y-87361580D01*
X151624514Y-87361580D02*
X151576895Y-87409200D01*
X151576895Y-87409200D02*
X151481657Y-87456819D01*
X151481657Y-87456819D02*
X151243562Y-87456819D01*
X151243562Y-87456819D02*
X151148324Y-87409200D01*
X151148324Y-87409200D02*
X151100705Y-87361580D01*
X152862610Y-87456819D02*
X152862610Y-86456819D01*
X152957848Y-87075866D02*
X153243562Y-87456819D01*
X153243562Y-86790152D02*
X152862610Y-87171104D01*
X153672134Y-87456819D02*
X153672134Y-86456819D01*
X153672134Y-86933009D02*
X154243562Y-86933009D01*
X154243562Y-87456819D02*
X154243562Y-86456819D01*
X154624515Y-86790152D02*
X155148324Y-86790152D01*
X155148324Y-86790152D02*
X154624515Y-87456819D01*
X154624515Y-87456819D02*
X155148324Y-87456819D01*
X164795104Y-99458438D02*
X164699866Y-99410819D01*
X164699866Y-99410819D02*
X164557009Y-99410819D01*
X164557009Y-99410819D02*
X164414152Y-99458438D01*
X164414152Y-99458438D02*
X164318914Y-99553676D01*
X164318914Y-99553676D02*
X164271295Y-99648914D01*
X164271295Y-99648914D02*
X164223676Y-99839390D01*
X164223676Y-99839390D02*
X164223676Y-99982247D01*
X164223676Y-99982247D02*
X164271295Y-100172723D01*
X164271295Y-100172723D02*
X164318914Y-100267961D01*
X164318914Y-100267961D02*
X164414152Y-100363200D01*
X164414152Y-100363200D02*
X164557009Y-100410819D01*
X164557009Y-100410819D02*
X164652247Y-100410819D01*
X164652247Y-100410819D02*
X164795104Y-100363200D01*
X164795104Y-100363200D02*
X164842723Y-100315580D01*
X164842723Y-100315580D02*
X164842723Y-99982247D01*
X164842723Y-99982247D02*
X164652247Y-99982247D01*
X165271295Y-100410819D02*
X165271295Y-99410819D01*
X165271295Y-99410819D02*
X165842723Y-100410819D01*
X165842723Y-100410819D02*
X165842723Y-99410819D01*
X166318914Y-100410819D02*
X166318914Y-99410819D01*
X166318914Y-99410819D02*
X166557009Y-99410819D01*
X166557009Y-99410819D02*
X166699866Y-99458438D01*
X166699866Y-99458438D02*
X166795104Y-99553676D01*
X166795104Y-99553676D02*
X166842723Y-99648914D01*
X166842723Y-99648914D02*
X166890342Y-99839390D01*
X166890342Y-99839390D02*
X166890342Y-99982247D01*
X166890342Y-99982247D02*
X166842723Y-100172723D01*
X166842723Y-100172723D02*
X166795104Y-100267961D01*
X166795104Y-100267961D02*
X166699866Y-100363200D01*
X166699866Y-100363200D02*
X166557009Y-100410819D01*
X166557009Y-100410819D02*
X166318914Y-100410819D01*
X167065295Y-105313066D02*
X167827200Y-105313066D01*
X167446247Y-105694019D02*
X167446247Y-104932114D01*
X168827199Y-105694019D02*
X168255771Y-105694019D01*
X168541485Y-105694019D02*
X168541485Y-104694019D01*
X168541485Y-104694019D02*
X168446247Y-104836876D01*
X168446247Y-104836876D02*
X168351009Y-104932114D01*
X168351009Y-104932114D02*
X168255771Y-104979733D01*
X169208152Y-104789257D02*
X169255771Y-104741638D01*
X169255771Y-104741638D02*
X169351009Y-104694019D01*
X169351009Y-104694019D02*
X169589104Y-104694019D01*
X169589104Y-104694019D02*
X169684342Y-104741638D01*
X169684342Y-104741638D02*
X169731961Y-104789257D01*
X169731961Y-104789257D02*
X169779580Y-104884495D01*
X169779580Y-104884495D02*
X169779580Y-104979733D01*
X169779580Y-104979733D02*
X169731961Y-105122590D01*
X169731961Y-105122590D02*
X169160533Y-105694019D01*
X169160533Y-105694019D02*
X169779580Y-105694019D01*
X170065295Y-104694019D02*
X170398628Y-105694019D01*
X170398628Y-105694019D02*
X170731961Y-104694019D01*
X167065295Y-95000666D02*
X167827200Y-95000666D01*
X168827199Y-95381619D02*
X168255771Y-95381619D01*
X168541485Y-95381619D02*
X168541485Y-94381619D01*
X168541485Y-94381619D02*
X168446247Y-94524476D01*
X168446247Y-94524476D02*
X168351009Y-94619714D01*
X168351009Y-94619714D02*
X168255771Y-94667333D01*
X169208152Y-94476857D02*
X169255771Y-94429238D01*
X169255771Y-94429238D02*
X169351009Y-94381619D01*
X169351009Y-94381619D02*
X169589104Y-94381619D01*
X169589104Y-94381619D02*
X169684342Y-94429238D01*
X169684342Y-94429238D02*
X169731961Y-94476857D01*
X169731961Y-94476857D02*
X169779580Y-94572095D01*
X169779580Y-94572095D02*
X169779580Y-94667333D01*
X169779580Y-94667333D02*
X169731961Y-94810190D01*
X169731961Y-94810190D02*
X169160533Y-95381619D01*
X169160533Y-95381619D02*
X169779580Y-95381619D01*
X170065295Y-94381619D02*
X170398628Y-95381619D01*
X170398628Y-95381619D02*
X170731961Y-94381619D01*
D11*
X152345238Y-90540833D02*
X152726191Y-90540833D01*
X152892858Y-90231309D02*
X153059524Y-90731309D01*
X153059524Y-90731309D02*
X153226191Y-90231309D01*
D12*
X155869048Y-107831666D02*
X156630953Y-107831666D01*
X156250000Y-108212619D02*
X156250000Y-107450714D01*
X159869048Y-101081666D02*
X160630953Y-101081666D01*
D11*
X145495238Y-109840833D02*
X145876191Y-109840833D01*
X145685714Y-110031309D02*
X145685714Y-109650357D01*
X146042858Y-109531309D02*
X146209524Y-110031309D01*
X146209524Y-110031309D02*
X146376191Y-109531309D01*
D13*
X135156109Y-95638133D02*
X134918014Y-95804799D01*
X135156109Y-95923847D02*
X134656109Y-95923847D01*
X134656109Y-95923847D02*
X134656109Y-95733371D01*
X134656109Y-95733371D02*
X134679919Y-95685752D01*
X134679919Y-95685752D02*
X134703728Y-95661942D01*
X134703728Y-95661942D02*
X134751347Y-95638133D01*
X134751347Y-95638133D02*
X134822776Y-95638133D01*
X134822776Y-95638133D02*
X134870395Y-95661942D01*
X134870395Y-95661942D02*
X134894204Y-95685752D01*
X134894204Y-95685752D02*
X134918014Y-95733371D01*
X134918014Y-95733371D02*
X134918014Y-95923847D01*
X134656109Y-95209561D02*
X134656109Y-95304799D01*
X134656109Y-95304799D02*
X134679919Y-95352418D01*
X134679919Y-95352418D02*
X134703728Y-95376228D01*
X134703728Y-95376228D02*
X134775157Y-95423847D01*
X134775157Y-95423847D02*
X134870395Y-95447656D01*
X134870395Y-95447656D02*
X135060871Y-95447656D01*
X135060871Y-95447656D02*
X135108490Y-95423847D01*
X135108490Y-95423847D02*
X135132300Y-95400037D01*
X135132300Y-95400037D02*
X135156109Y-95352418D01*
X135156109Y-95352418D02*
X135156109Y-95257180D01*
X135156109Y-95257180D02*
X135132300Y-95209561D01*
X135132300Y-95209561D02*
X135108490Y-95185752D01*
X135108490Y-95185752D02*
X135060871Y-95161942D01*
X135060871Y-95161942D02*
X134941823Y-95161942D01*
X134941823Y-95161942D02*
X134894204Y-95185752D01*
X134894204Y-95185752D02*
X134870395Y-95209561D01*
X134870395Y-95209561D02*
X134846585Y-95257180D01*
X134846585Y-95257180D02*
X134846585Y-95352418D01*
X134846585Y-95352418D02*
X134870395Y-95400037D01*
X134870395Y-95400037D02*
X134894204Y-95423847D01*
X134894204Y-95423847D02*
X134941823Y-95447656D01*
X135291709Y-93434647D02*
X134791709Y-93434647D01*
X134791709Y-93434647D02*
X134791709Y-93315599D01*
X134791709Y-93315599D02*
X134815519Y-93244171D01*
X134815519Y-93244171D02*
X134863138Y-93196552D01*
X134863138Y-93196552D02*
X134910757Y-93172742D01*
X134910757Y-93172742D02*
X135005995Y-93148933D01*
X135005995Y-93148933D02*
X135077423Y-93148933D01*
X135077423Y-93148933D02*
X135172661Y-93172742D01*
X135172661Y-93172742D02*
X135220280Y-93196552D01*
X135220280Y-93196552D02*
X135267900Y-93244171D01*
X135267900Y-93244171D02*
X135291709Y-93315599D01*
X135291709Y-93315599D02*
X135291709Y-93434647D01*
X135291709Y-92672742D02*
X135291709Y-92958456D01*
X135291709Y-92815599D02*
X134791709Y-92815599D01*
X134791709Y-92815599D02*
X134863138Y-92863218D01*
X134863138Y-92863218D02*
X134910757Y-92910837D01*
X134910757Y-92910837D02*
X134934566Y-92958456D01*
X130936109Y-100152152D02*
X131340871Y-100152152D01*
X131340871Y-100152152D02*
X131388490Y-100128342D01*
X131388490Y-100128342D02*
X131412300Y-100104533D01*
X131412300Y-100104533D02*
X131436109Y-100056914D01*
X131436109Y-100056914D02*
X131436109Y-99961676D01*
X131436109Y-99961676D02*
X131412300Y-99914057D01*
X131412300Y-99914057D02*
X131388490Y-99890247D01*
X131388490Y-99890247D02*
X131340871Y-99866438D01*
X131340871Y-99866438D02*
X130936109Y-99866438D01*
X131436109Y-99366437D02*
X131436109Y-99652151D01*
X131436109Y-99509294D02*
X130936109Y-99509294D01*
X130936109Y-99509294D02*
X131007538Y-99556913D01*
X131007538Y-99556913D02*
X131055157Y-99604532D01*
X131055157Y-99604532D02*
X131078966Y-99652151D01*
D12*
X145406303Y-95902568D02*
X144833883Y-95801553D01*
X145002242Y-96306629D02*
X144295135Y-95599523D01*
X144295135Y-95599523D02*
X144564509Y-95330149D01*
X144564509Y-95330149D02*
X144665524Y-95296477D01*
X144665524Y-95296477D02*
X144732868Y-95296477D01*
X144732868Y-95296477D02*
X144833883Y-95330149D01*
X144833883Y-95330149D02*
X144934898Y-95431164D01*
X144934898Y-95431164D02*
X144968570Y-95532179D01*
X144968570Y-95532179D02*
X144968570Y-95599523D01*
X144968570Y-95599523D02*
X144934898Y-95700538D01*
X144934898Y-95700538D02*
X144665524Y-95969912D01*
X146079738Y-95229133D02*
X145675677Y-95633194D01*
X145877707Y-95431164D02*
X145170600Y-94724057D01*
X145170600Y-94724057D02*
X145204272Y-94892416D01*
X145204272Y-94892416D02*
X145204272Y-95027103D01*
X145204272Y-95027103D02*
X145170600Y-95128118D01*
X145810364Y-94084294D02*
X145877707Y-94016950D01*
X145877707Y-94016950D02*
X145978723Y-93983279D01*
X145978723Y-93983279D02*
X146046066Y-93983279D01*
X146046066Y-93983279D02*
X146147081Y-94016950D01*
X146147081Y-94016950D02*
X146315440Y-94117966D01*
X146315440Y-94117966D02*
X146483799Y-94286324D01*
X146483799Y-94286324D02*
X146584814Y-94454683D01*
X146584814Y-94454683D02*
X146618486Y-94555698D01*
X146618486Y-94555698D02*
X146618486Y-94623042D01*
X146618486Y-94623042D02*
X146584814Y-94724057D01*
X146584814Y-94724057D02*
X146517471Y-94791401D01*
X146517471Y-94791401D02*
X146416455Y-94825072D01*
X146416455Y-94825072D02*
X146349112Y-94825072D01*
X146349112Y-94825072D02*
X146248097Y-94791401D01*
X146248097Y-94791401D02*
X146079738Y-94690385D01*
X146079738Y-94690385D02*
X145911379Y-94522027D01*
X145911379Y-94522027D02*
X145810364Y-94353668D01*
X145810364Y-94353668D02*
X145776692Y-94252653D01*
X145776692Y-94252653D02*
X145776692Y-94185309D01*
X145776692Y-94185309D02*
X145810364Y-94084294D01*
X146652158Y-93242500D02*
X146517471Y-93377187D01*
X146517471Y-93377187D02*
X146483799Y-93478202D01*
X146483799Y-93478202D02*
X146483799Y-93545546D01*
X146483799Y-93545546D02*
X146517471Y-93713905D01*
X146517471Y-93713905D02*
X146618486Y-93882263D01*
X146618486Y-93882263D02*
X146887860Y-94151637D01*
X146887860Y-94151637D02*
X146988875Y-94185309D01*
X146988875Y-94185309D02*
X147056219Y-94185309D01*
X147056219Y-94185309D02*
X147157234Y-94151637D01*
X147157234Y-94151637D02*
X147291921Y-94016950D01*
X147291921Y-94016950D02*
X147325593Y-93915935D01*
X147325593Y-93915935D02*
X147325593Y-93848592D01*
X147325593Y-93848592D02*
X147291921Y-93747576D01*
X147291921Y-93747576D02*
X147123562Y-93579218D01*
X147123562Y-93579218D02*
X147022547Y-93545546D01*
X147022547Y-93545546D02*
X146955203Y-93545546D01*
X146955203Y-93545546D02*
X146854188Y-93579218D01*
X146854188Y-93579218D02*
X146719501Y-93713905D01*
X146719501Y-93713905D02*
X146685829Y-93814920D01*
X146685829Y-93814920D02*
X146685829Y-93882263D01*
X146685829Y-93882263D02*
X146719501Y-93983279D01*
D13*
X132411309Y-104324933D02*
X132173214Y-104491599D01*
X132411309Y-104610647D02*
X131911309Y-104610647D01*
X131911309Y-104610647D02*
X131911309Y-104420171D01*
X131911309Y-104420171D02*
X131935119Y-104372552D01*
X131935119Y-104372552D02*
X131958928Y-104348742D01*
X131958928Y-104348742D02*
X132006547Y-104324933D01*
X132006547Y-104324933D02*
X132077976Y-104324933D01*
X132077976Y-104324933D02*
X132125595Y-104348742D01*
X132125595Y-104348742D02*
X132149404Y-104372552D01*
X132149404Y-104372552D02*
X132173214Y-104420171D01*
X132173214Y-104420171D02*
X132173214Y-104610647D01*
X131911309Y-103872552D02*
X131911309Y-104110647D01*
X131911309Y-104110647D02*
X132149404Y-104134456D01*
X132149404Y-104134456D02*
X132125595Y-104110647D01*
X132125595Y-104110647D02*
X132101785Y-104063028D01*
X132101785Y-104063028D02*
X132101785Y-103943980D01*
X132101785Y-103943980D02*
X132125595Y-103896361D01*
X132125595Y-103896361D02*
X132149404Y-103872552D01*
X132149404Y-103872552D02*
X132197023Y-103848742D01*
X132197023Y-103848742D02*
X132316071Y-103848742D01*
X132316071Y-103848742D02*
X132363690Y-103872552D01*
X132363690Y-103872552D02*
X132387500Y-103896361D01*
X132387500Y-103896361D02*
X132411309Y-103943980D01*
X132411309Y-103943980D02*
X132411309Y-104063028D01*
X132411309Y-104063028D02*
X132387500Y-104110647D01*
X132387500Y-104110647D02*
X132363690Y-104134456D01*
X131958890Y-95079333D02*
X131982700Y-95103142D01*
X131982700Y-95103142D02*
X132006509Y-95174571D01*
X132006509Y-95174571D02*
X132006509Y-95222190D01*
X132006509Y-95222190D02*
X131982700Y-95293618D01*
X131982700Y-95293618D02*
X131935080Y-95341237D01*
X131935080Y-95341237D02*
X131887461Y-95365047D01*
X131887461Y-95365047D02*
X131792223Y-95388856D01*
X131792223Y-95388856D02*
X131720795Y-95388856D01*
X131720795Y-95388856D02*
X131625557Y-95365047D01*
X131625557Y-95365047D02*
X131577938Y-95341237D01*
X131577938Y-95341237D02*
X131530319Y-95293618D01*
X131530319Y-95293618D02*
X131506509Y-95222190D01*
X131506509Y-95222190D02*
X131506509Y-95174571D01*
X131506509Y-95174571D02*
X131530319Y-95103142D01*
X131530319Y-95103142D02*
X131554128Y-95079333D01*
X132006509Y-94603142D02*
X132006509Y-94888856D01*
X132006509Y-94745999D02*
X131506509Y-94745999D01*
X131506509Y-94745999D02*
X131577938Y-94793618D01*
X131577938Y-94793618D02*
X131625557Y-94841237D01*
X131625557Y-94841237D02*
X131649366Y-94888856D01*
D11*
X152942857Y-108331309D02*
X152942857Y-108736071D01*
X152942857Y-108736071D02*
X152966667Y-108783690D01*
X152966667Y-108783690D02*
X152990476Y-108807500D01*
X152990476Y-108807500D02*
X153038095Y-108831309D01*
X153038095Y-108831309D02*
X153133333Y-108831309D01*
X153133333Y-108831309D02*
X153180952Y-108807500D01*
X153180952Y-108807500D02*
X153204762Y-108783690D01*
X153204762Y-108783690D02*
X153228571Y-108736071D01*
X153228571Y-108736071D02*
X153228571Y-108331309D01*
X153728572Y-108831309D02*
X153442858Y-108831309D01*
X153585715Y-108831309D02*
X153585715Y-108331309D01*
X153585715Y-108331309D02*
X153538096Y-108402738D01*
X153538096Y-108402738D02*
X153490477Y-108450357D01*
X153490477Y-108450357D02*
X153442858Y-108474166D01*
X154038095Y-108331309D02*
X154085714Y-108331309D01*
X154085714Y-108331309D02*
X154133333Y-108355119D01*
X154133333Y-108355119D02*
X154157143Y-108378928D01*
X154157143Y-108378928D02*
X154180952Y-108426547D01*
X154180952Y-108426547D02*
X154204762Y-108521785D01*
X154204762Y-108521785D02*
X154204762Y-108640833D01*
X154204762Y-108640833D02*
X154180952Y-108736071D01*
X154180952Y-108736071D02*
X154157143Y-108783690D01*
X154157143Y-108783690D02*
X154133333Y-108807500D01*
X154133333Y-108807500D02*
X154085714Y-108831309D01*
X154085714Y-108831309D02*
X154038095Y-108831309D01*
X154038095Y-108831309D02*
X153990476Y-108807500D01*
X153990476Y-108807500D02*
X153966667Y-108783690D01*
X153966667Y-108783690D02*
X153942857Y-108736071D01*
X153942857Y-108736071D02*
X153919048Y-108640833D01*
X153919048Y-108640833D02*
X153919048Y-108521785D01*
X153919048Y-108521785D02*
X153942857Y-108426547D01*
X153942857Y-108426547D02*
X153966667Y-108378928D01*
X153966667Y-108378928D02*
X153990476Y-108355119D01*
X153990476Y-108355119D02*
X154038095Y-108331309D01*
X154680952Y-108831309D02*
X154395238Y-108831309D01*
X154538095Y-108831309D02*
X154538095Y-108331309D01*
X154538095Y-108331309D02*
X154490476Y-108402738D01*
X154490476Y-108402738D02*
X154442857Y-108450357D01*
X154442857Y-108450357D02*
X154395238Y-108474166D01*
X152283901Y-96803915D02*
X151997691Y-97090125D01*
X151997691Y-97090125D02*
X151980855Y-97140633D01*
X151980855Y-97140633D02*
X151980855Y-97174305D01*
X151980855Y-97174305D02*
X151997691Y-97224812D01*
X151997691Y-97224812D02*
X152065035Y-97292156D01*
X152065035Y-97292156D02*
X152115542Y-97308992D01*
X152115542Y-97308992D02*
X152149214Y-97308992D01*
X152149214Y-97308992D02*
X152199722Y-97292156D01*
X152199722Y-97292156D02*
X152485932Y-97005946D01*
X152485932Y-97713053D02*
X152283902Y-97511023D01*
X152384917Y-97612038D02*
X152738470Y-97258484D01*
X152738470Y-97258484D02*
X152654291Y-97275320D01*
X152654291Y-97275320D02*
X152586947Y-97275320D01*
X152586947Y-97275320D02*
X152536440Y-97258484D01*
X153058351Y-97578366D02*
X153092023Y-97612037D01*
X153092023Y-97612037D02*
X153108859Y-97662545D01*
X153108859Y-97662545D02*
X153108859Y-97696217D01*
X153108859Y-97696217D02*
X153092023Y-97746724D01*
X153092023Y-97746724D02*
X153041516Y-97830904D01*
X153041516Y-97830904D02*
X152957336Y-97915083D01*
X152957336Y-97915083D02*
X152873157Y-97965591D01*
X152873157Y-97965591D02*
X152822649Y-97982427D01*
X152822649Y-97982427D02*
X152788977Y-97982427D01*
X152788977Y-97982427D02*
X152738470Y-97965591D01*
X152738470Y-97965591D02*
X152704798Y-97931919D01*
X152704798Y-97931919D02*
X152687962Y-97881411D01*
X152687962Y-97881411D02*
X152687962Y-97847740D01*
X152687962Y-97847740D02*
X152704798Y-97797232D01*
X152704798Y-97797232D02*
X152755306Y-97713053D01*
X152755306Y-97713053D02*
X152839485Y-97628873D01*
X152839485Y-97628873D02*
X152923664Y-97578366D01*
X152923664Y-97578366D02*
X152974172Y-97561530D01*
X152974172Y-97561530D02*
X153007844Y-97561530D01*
X153007844Y-97561530D02*
X153058351Y-97578366D01*
X153277217Y-97864575D02*
X153310889Y-97864575D01*
X153310889Y-97864575D02*
X153361397Y-97881411D01*
X153361397Y-97881411D02*
X153445576Y-97965591D01*
X153445576Y-97965591D02*
X153462412Y-98016098D01*
X153462412Y-98016098D02*
X153462412Y-98049770D01*
X153462412Y-98049770D02*
X153445576Y-98100278D01*
X153445576Y-98100278D02*
X153411905Y-98133949D01*
X153411905Y-98133949D02*
X153344561Y-98167621D01*
X153344561Y-98167621D02*
X152940500Y-98167621D01*
X152940500Y-98167621D02*
X153159366Y-98386487D01*
X150640476Y-110783690D02*
X150616667Y-110807500D01*
X150616667Y-110807500D02*
X150545238Y-110831309D01*
X150545238Y-110831309D02*
X150497619Y-110831309D01*
X150497619Y-110831309D02*
X150426191Y-110807500D01*
X150426191Y-110807500D02*
X150378572Y-110759880D01*
X150378572Y-110759880D02*
X150354762Y-110712261D01*
X150354762Y-110712261D02*
X150330953Y-110617023D01*
X150330953Y-110617023D02*
X150330953Y-110545595D01*
X150330953Y-110545595D02*
X150354762Y-110450357D01*
X150354762Y-110450357D02*
X150378572Y-110402738D01*
X150378572Y-110402738D02*
X150426191Y-110355119D01*
X150426191Y-110355119D02*
X150497619Y-110331309D01*
X150497619Y-110331309D02*
X150545238Y-110331309D01*
X150545238Y-110331309D02*
X150616667Y-110355119D01*
X150616667Y-110355119D02*
X150640476Y-110378928D01*
X151116667Y-110831309D02*
X150830953Y-110831309D01*
X150973810Y-110831309D02*
X150973810Y-110331309D01*
X150973810Y-110331309D02*
X150926191Y-110402738D01*
X150926191Y-110402738D02*
X150878572Y-110450357D01*
X150878572Y-110450357D02*
X150830953Y-110474166D01*
X151426190Y-110331309D02*
X151473809Y-110331309D01*
X151473809Y-110331309D02*
X151521428Y-110355119D01*
X151521428Y-110355119D02*
X151545238Y-110378928D01*
X151545238Y-110378928D02*
X151569047Y-110426547D01*
X151569047Y-110426547D02*
X151592857Y-110521785D01*
X151592857Y-110521785D02*
X151592857Y-110640833D01*
X151592857Y-110640833D02*
X151569047Y-110736071D01*
X151569047Y-110736071D02*
X151545238Y-110783690D01*
X151545238Y-110783690D02*
X151521428Y-110807500D01*
X151521428Y-110807500D02*
X151473809Y-110831309D01*
X151473809Y-110831309D02*
X151426190Y-110831309D01*
X151426190Y-110831309D02*
X151378571Y-110807500D01*
X151378571Y-110807500D02*
X151354762Y-110783690D01*
X151354762Y-110783690D02*
X151330952Y-110736071D01*
X151330952Y-110736071D02*
X151307143Y-110640833D01*
X151307143Y-110640833D02*
X151307143Y-110521785D01*
X151307143Y-110521785D02*
X151330952Y-110426547D01*
X151330952Y-110426547D02*
X151354762Y-110378928D01*
X151354762Y-110378928D02*
X151378571Y-110355119D01*
X151378571Y-110355119D02*
X151426190Y-110331309D01*
X152069047Y-110831309D02*
X151783333Y-110831309D01*
X151926190Y-110831309D02*
X151926190Y-110331309D01*
X151926190Y-110331309D02*
X151878571Y-110402738D01*
X151878571Y-110402738D02*
X151830952Y-110450357D01*
X151830952Y-110450357D02*
X151783333Y-110474166D01*
X146440476Y-94983690D02*
X146416667Y-95007500D01*
X146416667Y-95007500D02*
X146345238Y-95031309D01*
X146345238Y-95031309D02*
X146297619Y-95031309D01*
X146297619Y-95031309D02*
X146226191Y-95007500D01*
X146226191Y-95007500D02*
X146178572Y-94959880D01*
X146178572Y-94959880D02*
X146154762Y-94912261D01*
X146154762Y-94912261D02*
X146130953Y-94817023D01*
X146130953Y-94817023D02*
X146130953Y-94745595D01*
X146130953Y-94745595D02*
X146154762Y-94650357D01*
X146154762Y-94650357D02*
X146178572Y-94602738D01*
X146178572Y-94602738D02*
X146226191Y-94555119D01*
X146226191Y-94555119D02*
X146297619Y-94531309D01*
X146297619Y-94531309D02*
X146345238Y-94531309D01*
X146345238Y-94531309D02*
X146416667Y-94555119D01*
X146416667Y-94555119D02*
X146440476Y-94578928D01*
X146916667Y-95031309D02*
X146630953Y-95031309D01*
X146773810Y-95031309D02*
X146773810Y-94531309D01*
X146773810Y-94531309D02*
X146726191Y-94602738D01*
X146726191Y-94602738D02*
X146678572Y-94650357D01*
X146678572Y-94650357D02*
X146630953Y-94674166D01*
X147226190Y-94531309D02*
X147273809Y-94531309D01*
X147273809Y-94531309D02*
X147321428Y-94555119D01*
X147321428Y-94555119D02*
X147345238Y-94578928D01*
X147345238Y-94578928D02*
X147369047Y-94626547D01*
X147369047Y-94626547D02*
X147392857Y-94721785D01*
X147392857Y-94721785D02*
X147392857Y-94840833D01*
X147392857Y-94840833D02*
X147369047Y-94936071D01*
X147369047Y-94936071D02*
X147345238Y-94983690D01*
X147345238Y-94983690D02*
X147321428Y-95007500D01*
X147321428Y-95007500D02*
X147273809Y-95031309D01*
X147273809Y-95031309D02*
X147226190Y-95031309D01*
X147226190Y-95031309D02*
X147178571Y-95007500D01*
X147178571Y-95007500D02*
X147154762Y-94983690D01*
X147154762Y-94983690D02*
X147130952Y-94936071D01*
X147130952Y-94936071D02*
X147107143Y-94840833D01*
X147107143Y-94840833D02*
X147107143Y-94721785D01*
X147107143Y-94721785D02*
X147130952Y-94626547D01*
X147130952Y-94626547D02*
X147154762Y-94578928D01*
X147154762Y-94578928D02*
X147178571Y-94555119D01*
X147178571Y-94555119D02*
X147226190Y-94531309D01*
X147583333Y-94578928D02*
X147607142Y-94555119D01*
X147607142Y-94555119D02*
X147654761Y-94531309D01*
X147654761Y-94531309D02*
X147773809Y-94531309D01*
X147773809Y-94531309D02*
X147821428Y-94555119D01*
X147821428Y-94555119D02*
X147845237Y-94578928D01*
X147845237Y-94578928D02*
X147869047Y-94626547D01*
X147869047Y-94626547D02*
X147869047Y-94674166D01*
X147869047Y-94674166D02*
X147845237Y-94745595D01*
X147845237Y-94745595D02*
X147559523Y-95031309D01*
X147559523Y-95031309D02*
X147869047Y-95031309D01*
X144483690Y-108859523D02*
X144507500Y-108883332D01*
X144507500Y-108883332D02*
X144531309Y-108954761D01*
X144531309Y-108954761D02*
X144531309Y-109002380D01*
X144531309Y-109002380D02*
X144507500Y-109073808D01*
X144507500Y-109073808D02*
X144459880Y-109121427D01*
X144459880Y-109121427D02*
X144412261Y-109145237D01*
X144412261Y-109145237D02*
X144317023Y-109169046D01*
X144317023Y-109169046D02*
X144245595Y-109169046D01*
X144245595Y-109169046D02*
X144150357Y-109145237D01*
X144150357Y-109145237D02*
X144102738Y-109121427D01*
X144102738Y-109121427D02*
X144055119Y-109073808D01*
X144055119Y-109073808D02*
X144031309Y-109002380D01*
X144031309Y-109002380D02*
X144031309Y-108954761D01*
X144031309Y-108954761D02*
X144055119Y-108883332D01*
X144055119Y-108883332D02*
X144078928Y-108859523D01*
X144531309Y-108383332D02*
X144531309Y-108669046D01*
X144531309Y-108526189D02*
X144031309Y-108526189D01*
X144031309Y-108526189D02*
X144102738Y-108573808D01*
X144102738Y-108573808D02*
X144150357Y-108621427D01*
X144150357Y-108621427D02*
X144174166Y-108669046D01*
X144031309Y-108073809D02*
X144031309Y-108026190D01*
X144031309Y-108026190D02*
X144055119Y-107978571D01*
X144055119Y-107978571D02*
X144078928Y-107954761D01*
X144078928Y-107954761D02*
X144126547Y-107930952D01*
X144126547Y-107930952D02*
X144221785Y-107907142D01*
X144221785Y-107907142D02*
X144340833Y-107907142D01*
X144340833Y-107907142D02*
X144436071Y-107930952D01*
X144436071Y-107930952D02*
X144483690Y-107954761D01*
X144483690Y-107954761D02*
X144507500Y-107978571D01*
X144507500Y-107978571D02*
X144531309Y-108026190D01*
X144531309Y-108026190D02*
X144531309Y-108073809D01*
X144531309Y-108073809D02*
X144507500Y-108121428D01*
X144507500Y-108121428D02*
X144483690Y-108145237D01*
X144483690Y-108145237D02*
X144436071Y-108169047D01*
X144436071Y-108169047D02*
X144340833Y-108192856D01*
X144340833Y-108192856D02*
X144221785Y-108192856D01*
X144221785Y-108192856D02*
X144126547Y-108169047D01*
X144126547Y-108169047D02*
X144078928Y-108145237D01*
X144078928Y-108145237D02*
X144055119Y-108121428D01*
X144055119Y-108121428D02*
X144031309Y-108073809D01*
X144031309Y-107740476D02*
X144031309Y-107430952D01*
X144031309Y-107430952D02*
X144221785Y-107597619D01*
X144221785Y-107597619D02*
X144221785Y-107526190D01*
X144221785Y-107526190D02*
X144245595Y-107478571D01*
X144245595Y-107478571D02*
X144269404Y-107454762D01*
X144269404Y-107454762D02*
X144317023Y-107430952D01*
X144317023Y-107430952D02*
X144436071Y-107430952D01*
X144436071Y-107430952D02*
X144483690Y-107454762D01*
X144483690Y-107454762D02*
X144507500Y-107478571D01*
X144507500Y-107478571D02*
X144531309Y-107526190D01*
X144531309Y-107526190D02*
X144531309Y-107669047D01*
X144531309Y-107669047D02*
X144507500Y-107716666D01*
X144507500Y-107716666D02*
X144483690Y-107740476D01*
X147840476Y-110683690D02*
X147816667Y-110707500D01*
X147816667Y-110707500D02*
X147745238Y-110731309D01*
X147745238Y-110731309D02*
X147697619Y-110731309D01*
X147697619Y-110731309D02*
X147626191Y-110707500D01*
X147626191Y-110707500D02*
X147578572Y-110659880D01*
X147578572Y-110659880D02*
X147554762Y-110612261D01*
X147554762Y-110612261D02*
X147530953Y-110517023D01*
X147530953Y-110517023D02*
X147530953Y-110445595D01*
X147530953Y-110445595D02*
X147554762Y-110350357D01*
X147554762Y-110350357D02*
X147578572Y-110302738D01*
X147578572Y-110302738D02*
X147626191Y-110255119D01*
X147626191Y-110255119D02*
X147697619Y-110231309D01*
X147697619Y-110231309D02*
X147745238Y-110231309D01*
X147745238Y-110231309D02*
X147816667Y-110255119D01*
X147816667Y-110255119D02*
X147840476Y-110278928D01*
X148316667Y-110731309D02*
X148030953Y-110731309D01*
X148173810Y-110731309D02*
X148173810Y-110231309D01*
X148173810Y-110231309D02*
X148126191Y-110302738D01*
X148126191Y-110302738D02*
X148078572Y-110350357D01*
X148078572Y-110350357D02*
X148030953Y-110374166D01*
X148626190Y-110231309D02*
X148673809Y-110231309D01*
X148673809Y-110231309D02*
X148721428Y-110255119D01*
X148721428Y-110255119D02*
X148745238Y-110278928D01*
X148745238Y-110278928D02*
X148769047Y-110326547D01*
X148769047Y-110326547D02*
X148792857Y-110421785D01*
X148792857Y-110421785D02*
X148792857Y-110540833D01*
X148792857Y-110540833D02*
X148769047Y-110636071D01*
X148769047Y-110636071D02*
X148745238Y-110683690D01*
X148745238Y-110683690D02*
X148721428Y-110707500D01*
X148721428Y-110707500D02*
X148673809Y-110731309D01*
X148673809Y-110731309D02*
X148626190Y-110731309D01*
X148626190Y-110731309D02*
X148578571Y-110707500D01*
X148578571Y-110707500D02*
X148554762Y-110683690D01*
X148554762Y-110683690D02*
X148530952Y-110636071D01*
X148530952Y-110636071D02*
X148507143Y-110540833D01*
X148507143Y-110540833D02*
X148507143Y-110421785D01*
X148507143Y-110421785D02*
X148530952Y-110326547D01*
X148530952Y-110326547D02*
X148554762Y-110278928D01*
X148554762Y-110278928D02*
X148578571Y-110255119D01*
X148578571Y-110255119D02*
X148626190Y-110231309D01*
X148959523Y-110231309D02*
X149292856Y-110231309D01*
X149292856Y-110231309D02*
X149078571Y-110731309D01*
X141940476Y-105683690D02*
X141916667Y-105707500D01*
X141916667Y-105707500D02*
X141845238Y-105731309D01*
X141845238Y-105731309D02*
X141797619Y-105731309D01*
X141797619Y-105731309D02*
X141726191Y-105707500D01*
X141726191Y-105707500D02*
X141678572Y-105659880D01*
X141678572Y-105659880D02*
X141654762Y-105612261D01*
X141654762Y-105612261D02*
X141630953Y-105517023D01*
X141630953Y-105517023D02*
X141630953Y-105445595D01*
X141630953Y-105445595D02*
X141654762Y-105350357D01*
X141654762Y-105350357D02*
X141678572Y-105302738D01*
X141678572Y-105302738D02*
X141726191Y-105255119D01*
X141726191Y-105255119D02*
X141797619Y-105231309D01*
X141797619Y-105231309D02*
X141845238Y-105231309D01*
X141845238Y-105231309D02*
X141916667Y-105255119D01*
X141916667Y-105255119D02*
X141940476Y-105278928D01*
X142416667Y-105731309D02*
X142130953Y-105731309D01*
X142273810Y-105731309D02*
X142273810Y-105231309D01*
X142273810Y-105231309D02*
X142226191Y-105302738D01*
X142226191Y-105302738D02*
X142178572Y-105350357D01*
X142178572Y-105350357D02*
X142130953Y-105374166D01*
X142726190Y-105231309D02*
X142773809Y-105231309D01*
X142773809Y-105231309D02*
X142821428Y-105255119D01*
X142821428Y-105255119D02*
X142845238Y-105278928D01*
X142845238Y-105278928D02*
X142869047Y-105326547D01*
X142869047Y-105326547D02*
X142892857Y-105421785D01*
X142892857Y-105421785D02*
X142892857Y-105540833D01*
X142892857Y-105540833D02*
X142869047Y-105636071D01*
X142869047Y-105636071D02*
X142845238Y-105683690D01*
X142845238Y-105683690D02*
X142821428Y-105707500D01*
X142821428Y-105707500D02*
X142773809Y-105731309D01*
X142773809Y-105731309D02*
X142726190Y-105731309D01*
X142726190Y-105731309D02*
X142678571Y-105707500D01*
X142678571Y-105707500D02*
X142654762Y-105683690D01*
X142654762Y-105683690D02*
X142630952Y-105636071D01*
X142630952Y-105636071D02*
X142607143Y-105540833D01*
X142607143Y-105540833D02*
X142607143Y-105421785D01*
X142607143Y-105421785D02*
X142630952Y-105326547D01*
X142630952Y-105326547D02*
X142654762Y-105278928D01*
X142654762Y-105278928D02*
X142678571Y-105255119D01*
X142678571Y-105255119D02*
X142726190Y-105231309D01*
X143178571Y-105445595D02*
X143130952Y-105421785D01*
X143130952Y-105421785D02*
X143107142Y-105397976D01*
X143107142Y-105397976D02*
X143083333Y-105350357D01*
X143083333Y-105350357D02*
X143083333Y-105326547D01*
X143083333Y-105326547D02*
X143107142Y-105278928D01*
X143107142Y-105278928D02*
X143130952Y-105255119D01*
X143130952Y-105255119D02*
X143178571Y-105231309D01*
X143178571Y-105231309D02*
X143273809Y-105231309D01*
X143273809Y-105231309D02*
X143321428Y-105255119D01*
X143321428Y-105255119D02*
X143345237Y-105278928D01*
X143345237Y-105278928D02*
X143369047Y-105326547D01*
X143369047Y-105326547D02*
X143369047Y-105350357D01*
X143369047Y-105350357D02*
X143345237Y-105397976D01*
X143345237Y-105397976D02*
X143321428Y-105421785D01*
X143321428Y-105421785D02*
X143273809Y-105445595D01*
X143273809Y-105445595D02*
X143178571Y-105445595D01*
X143178571Y-105445595D02*
X143130952Y-105469404D01*
X143130952Y-105469404D02*
X143107142Y-105493214D01*
X143107142Y-105493214D02*
X143083333Y-105540833D01*
X143083333Y-105540833D02*
X143083333Y-105636071D01*
X143083333Y-105636071D02*
X143107142Y-105683690D01*
X143107142Y-105683690D02*
X143130952Y-105707500D01*
X143130952Y-105707500D02*
X143178571Y-105731309D01*
X143178571Y-105731309D02*
X143273809Y-105731309D01*
X143273809Y-105731309D02*
X143321428Y-105707500D01*
X143321428Y-105707500D02*
X143345237Y-105683690D01*
X143345237Y-105683690D02*
X143369047Y-105636071D01*
X143369047Y-105636071D02*
X143369047Y-105540833D01*
X143369047Y-105540833D02*
X143345237Y-105493214D01*
X143345237Y-105493214D02*
X143321428Y-105469404D01*
X143321428Y-105469404D02*
X143273809Y-105445595D01*
X152731244Y-104838605D02*
X152745474Y-104869122D01*
X152745474Y-104869122D02*
X152743418Y-104944386D01*
X152743418Y-104944386D02*
X152727131Y-104989134D01*
X152727131Y-104989134D02*
X152680328Y-105048111D01*
X152680328Y-105048111D02*
X152619294Y-105076572D01*
X152619294Y-105076572D02*
X152566403Y-105082659D01*
X152566403Y-105082659D02*
X152468765Y-105072459D01*
X152468765Y-105072459D02*
X152401644Y-105048029D01*
X152401644Y-105048029D02*
X152320293Y-104993082D01*
X152320293Y-104993082D02*
X152283689Y-104954422D01*
X152283689Y-104954422D02*
X152255228Y-104893388D01*
X152255228Y-104893388D02*
X152257285Y-104818123D01*
X152257285Y-104818123D02*
X152273572Y-104773376D01*
X152273572Y-104773376D02*
X152320375Y-104714399D01*
X152320375Y-104714399D02*
X152350892Y-104700168D01*
X152938858Y-104407419D02*
X152841138Y-104675903D01*
X152889998Y-104541661D02*
X152420152Y-104370651D01*
X152420152Y-104370651D02*
X152470986Y-104439828D01*
X152470986Y-104439828D02*
X152499446Y-104500862D01*
X152499446Y-104500862D02*
X152505533Y-104553753D01*
X153101724Y-103959947D02*
X153004004Y-104228430D01*
X153052864Y-104094189D02*
X152583018Y-103923179D01*
X152583018Y-103923179D02*
X152633852Y-103992356D01*
X152633852Y-103992356D02*
X152662313Y-104053390D01*
X152662313Y-104053390D02*
X152668400Y-104106280D01*
X152741772Y-103626235D02*
X152727542Y-103595718D01*
X152727542Y-103595718D02*
X152721455Y-103542827D01*
X152721455Y-103542827D02*
X152762171Y-103430959D01*
X152762171Y-103430959D02*
X152800832Y-103394355D01*
X152800832Y-103394355D02*
X152831349Y-103380125D01*
X152831349Y-103380125D02*
X152884239Y-103374038D01*
X152884239Y-103374038D02*
X152928987Y-103390325D01*
X152928987Y-103390325D02*
X152987964Y-103437128D01*
X152987964Y-103437128D02*
X153158728Y-103803332D01*
X153158728Y-103803332D02*
X153264591Y-103512475D01*
X156190476Y-99433690D02*
X156166667Y-99457500D01*
X156166667Y-99457500D02*
X156095238Y-99481309D01*
X156095238Y-99481309D02*
X156047619Y-99481309D01*
X156047619Y-99481309D02*
X155976191Y-99457500D01*
X155976191Y-99457500D02*
X155928572Y-99409880D01*
X155928572Y-99409880D02*
X155904762Y-99362261D01*
X155904762Y-99362261D02*
X155880953Y-99267023D01*
X155880953Y-99267023D02*
X155880953Y-99195595D01*
X155880953Y-99195595D02*
X155904762Y-99100357D01*
X155904762Y-99100357D02*
X155928572Y-99052738D01*
X155928572Y-99052738D02*
X155976191Y-99005119D01*
X155976191Y-99005119D02*
X156047619Y-98981309D01*
X156047619Y-98981309D02*
X156095238Y-98981309D01*
X156095238Y-98981309D02*
X156166667Y-99005119D01*
X156166667Y-99005119D02*
X156190476Y-99028928D01*
X156666667Y-99481309D02*
X156380953Y-99481309D01*
X156523810Y-99481309D02*
X156523810Y-98981309D01*
X156523810Y-98981309D02*
X156476191Y-99052738D01*
X156476191Y-99052738D02*
X156428572Y-99100357D01*
X156428572Y-99100357D02*
X156380953Y-99124166D01*
X157142857Y-99481309D02*
X156857143Y-99481309D01*
X157000000Y-99481309D02*
X157000000Y-98981309D01*
X157000000Y-98981309D02*
X156952381Y-99052738D01*
X156952381Y-99052738D02*
X156904762Y-99100357D01*
X156904762Y-99100357D02*
X156857143Y-99124166D01*
X157309523Y-98981309D02*
X157619047Y-98981309D01*
X157619047Y-98981309D02*
X157452380Y-99171785D01*
X157452380Y-99171785D02*
X157523809Y-99171785D01*
X157523809Y-99171785D02*
X157571428Y-99195595D01*
X157571428Y-99195595D02*
X157595237Y-99219404D01*
X157595237Y-99219404D02*
X157619047Y-99267023D01*
X157619047Y-99267023D02*
X157619047Y-99386071D01*
X157619047Y-99386071D02*
X157595237Y-99433690D01*
X157595237Y-99433690D02*
X157571428Y-99457500D01*
X157571428Y-99457500D02*
X157523809Y-99481309D01*
X157523809Y-99481309D02*
X157380952Y-99481309D01*
X157380952Y-99481309D02*
X157333333Y-99457500D01*
X157333333Y-99457500D02*
X157309523Y-99433690D01*
X154634245Y-91725531D02*
X154634245Y-91759203D01*
X154634245Y-91759203D02*
X154600573Y-91826546D01*
X154600573Y-91826546D02*
X154566901Y-91860218D01*
X154566901Y-91860218D02*
X154499558Y-91893890D01*
X154499558Y-91893890D02*
X154432214Y-91893890D01*
X154432214Y-91893890D02*
X154381707Y-91877054D01*
X154381707Y-91877054D02*
X154297527Y-91826546D01*
X154297527Y-91826546D02*
X154247020Y-91776038D01*
X154247020Y-91776038D02*
X154196512Y-91691859D01*
X154196512Y-91691859D02*
X154179676Y-91641351D01*
X154179676Y-91641351D02*
X154179676Y-91574008D01*
X154179676Y-91574008D02*
X154213348Y-91506664D01*
X154213348Y-91506664D02*
X154247020Y-91472993D01*
X154247020Y-91472993D02*
X154314363Y-91439321D01*
X154314363Y-91439321D02*
X154348035Y-91439321D01*
X155004634Y-91422485D02*
X154802603Y-91624516D01*
X154903619Y-91523500D02*
X154550065Y-91169947D01*
X154550065Y-91169947D02*
X154566901Y-91254126D01*
X154566901Y-91254126D02*
X154566901Y-91321470D01*
X154566901Y-91321470D02*
X154550065Y-91371977D01*
X155341351Y-91085768D02*
X155139321Y-91287798D01*
X155240336Y-91186783D02*
X154886783Y-90833230D01*
X154886783Y-90833230D02*
X154903618Y-90917409D01*
X154903618Y-90917409D02*
X154903618Y-90984753D01*
X154903618Y-90984753D02*
X154886783Y-91035260D01*
X155408694Y-90547020D02*
X155644397Y-90782722D01*
X155189828Y-90496513D02*
X155358187Y-90833230D01*
X155358187Y-90833230D02*
X155577053Y-90614364D01*
X159340714Y-102700889D02*
X158840714Y-102700889D01*
X158840714Y-102700889D02*
X158840714Y-102581841D01*
X158840714Y-102581841D02*
X158864524Y-102510413D01*
X158864524Y-102510413D02*
X158912143Y-102462794D01*
X158912143Y-102462794D02*
X158959762Y-102438984D01*
X158959762Y-102438984D02*
X159055000Y-102415175D01*
X159055000Y-102415175D02*
X159126428Y-102415175D01*
X159126428Y-102415175D02*
X159221666Y-102438984D01*
X159221666Y-102438984D02*
X159269285Y-102462794D01*
X159269285Y-102462794D02*
X159316905Y-102510413D01*
X159316905Y-102510413D02*
X159340714Y-102581841D01*
X159340714Y-102581841D02*
X159340714Y-102700889D01*
X159340714Y-101938984D02*
X159340714Y-102224698D01*
X159340714Y-102081841D02*
X158840714Y-102081841D01*
X158840714Y-102081841D02*
X158912143Y-102129460D01*
X158912143Y-102129460D02*
X158959762Y-102177079D01*
X158959762Y-102177079D02*
X158983571Y-102224698D01*
X158840714Y-101629461D02*
X158840714Y-101581842D01*
X158840714Y-101581842D02*
X158864524Y-101534223D01*
X158864524Y-101534223D02*
X158888333Y-101510413D01*
X158888333Y-101510413D02*
X158935952Y-101486604D01*
X158935952Y-101486604D02*
X159031190Y-101462794D01*
X159031190Y-101462794D02*
X159150238Y-101462794D01*
X159150238Y-101462794D02*
X159245476Y-101486604D01*
X159245476Y-101486604D02*
X159293095Y-101510413D01*
X159293095Y-101510413D02*
X159316905Y-101534223D01*
X159316905Y-101534223D02*
X159340714Y-101581842D01*
X159340714Y-101581842D02*
X159340714Y-101629461D01*
X159340714Y-101629461D02*
X159316905Y-101677080D01*
X159316905Y-101677080D02*
X159293095Y-101700889D01*
X159293095Y-101700889D02*
X159245476Y-101724699D01*
X159245476Y-101724699D02*
X159150238Y-101748508D01*
X159150238Y-101748508D02*
X159031190Y-101748508D01*
X159031190Y-101748508D02*
X158935952Y-101724699D01*
X158935952Y-101724699D02*
X158888333Y-101700889D01*
X158888333Y-101700889D02*
X158864524Y-101677080D01*
X158864524Y-101677080D02*
X158840714Y-101629461D01*
X158840714Y-101296128D02*
X158840714Y-100986604D01*
X158840714Y-100986604D02*
X159031190Y-101153271D01*
X159031190Y-101153271D02*
X159031190Y-101081842D01*
X159031190Y-101081842D02*
X159055000Y-101034223D01*
X159055000Y-101034223D02*
X159078809Y-101010414D01*
X159078809Y-101010414D02*
X159126428Y-100986604D01*
X159126428Y-100986604D02*
X159245476Y-100986604D01*
X159245476Y-100986604D02*
X159293095Y-101010414D01*
X159293095Y-101010414D02*
X159316905Y-101034223D01*
X159316905Y-101034223D02*
X159340714Y-101081842D01*
X159340714Y-101081842D02*
X159340714Y-101224699D01*
X159340714Y-101224699D02*
X159316905Y-101272318D01*
X159316905Y-101272318D02*
X159293095Y-101296128D01*
X149640476Y-94831309D02*
X149402381Y-94831309D01*
X149402381Y-94831309D02*
X149402381Y-94331309D01*
X150069048Y-94831309D02*
X149783334Y-94831309D01*
X149926191Y-94831309D02*
X149926191Y-94331309D01*
X149926191Y-94331309D02*
X149878572Y-94402738D01*
X149878572Y-94402738D02*
X149830953Y-94450357D01*
X149830953Y-94450357D02*
X149783334Y-94474166D01*
X150378571Y-94331309D02*
X150426190Y-94331309D01*
X150426190Y-94331309D02*
X150473809Y-94355119D01*
X150473809Y-94355119D02*
X150497619Y-94378928D01*
X150497619Y-94378928D02*
X150521428Y-94426547D01*
X150521428Y-94426547D02*
X150545238Y-94521785D01*
X150545238Y-94521785D02*
X150545238Y-94640833D01*
X150545238Y-94640833D02*
X150521428Y-94736071D01*
X150521428Y-94736071D02*
X150497619Y-94783690D01*
X150497619Y-94783690D02*
X150473809Y-94807500D01*
X150473809Y-94807500D02*
X150426190Y-94831309D01*
X150426190Y-94831309D02*
X150378571Y-94831309D01*
X150378571Y-94831309D02*
X150330952Y-94807500D01*
X150330952Y-94807500D02*
X150307143Y-94783690D01*
X150307143Y-94783690D02*
X150283333Y-94736071D01*
X150283333Y-94736071D02*
X150259524Y-94640833D01*
X150259524Y-94640833D02*
X150259524Y-94521785D01*
X150259524Y-94521785D02*
X150283333Y-94426547D01*
X150283333Y-94426547D02*
X150307143Y-94378928D01*
X150307143Y-94378928D02*
X150330952Y-94355119D01*
X150330952Y-94355119D02*
X150378571Y-94331309D01*
X151021428Y-94831309D02*
X150735714Y-94831309D01*
X150878571Y-94831309D02*
X150878571Y-94331309D01*
X150878571Y-94331309D02*
X150830952Y-94402738D01*
X150830952Y-94402738D02*
X150783333Y-94450357D01*
X150783333Y-94450357D02*
X150735714Y-94474166D01*
X147981309Y-104809523D02*
X147743214Y-104976189D01*
X147981309Y-105095237D02*
X147481309Y-105095237D01*
X147481309Y-105095237D02*
X147481309Y-104904761D01*
X147481309Y-104904761D02*
X147505119Y-104857142D01*
X147505119Y-104857142D02*
X147528928Y-104833332D01*
X147528928Y-104833332D02*
X147576547Y-104809523D01*
X147576547Y-104809523D02*
X147647976Y-104809523D01*
X147647976Y-104809523D02*
X147695595Y-104833332D01*
X147695595Y-104833332D02*
X147719404Y-104857142D01*
X147719404Y-104857142D02*
X147743214Y-104904761D01*
X147743214Y-104904761D02*
X147743214Y-105095237D01*
X147981309Y-104333332D02*
X147981309Y-104619046D01*
X147981309Y-104476189D02*
X147481309Y-104476189D01*
X147481309Y-104476189D02*
X147552738Y-104523808D01*
X147552738Y-104523808D02*
X147600357Y-104571427D01*
X147600357Y-104571427D02*
X147624166Y-104619046D01*
X147481309Y-104023809D02*
X147481309Y-103976190D01*
X147481309Y-103976190D02*
X147505119Y-103928571D01*
X147505119Y-103928571D02*
X147528928Y-103904761D01*
X147528928Y-103904761D02*
X147576547Y-103880952D01*
X147576547Y-103880952D02*
X147671785Y-103857142D01*
X147671785Y-103857142D02*
X147790833Y-103857142D01*
X147790833Y-103857142D02*
X147886071Y-103880952D01*
X147886071Y-103880952D02*
X147933690Y-103904761D01*
X147933690Y-103904761D02*
X147957500Y-103928571D01*
X147957500Y-103928571D02*
X147981309Y-103976190D01*
X147981309Y-103976190D02*
X147981309Y-104023809D01*
X147981309Y-104023809D02*
X147957500Y-104071428D01*
X147957500Y-104071428D02*
X147933690Y-104095237D01*
X147933690Y-104095237D02*
X147886071Y-104119047D01*
X147886071Y-104119047D02*
X147790833Y-104142856D01*
X147790833Y-104142856D02*
X147671785Y-104142856D01*
X147671785Y-104142856D02*
X147576547Y-104119047D01*
X147576547Y-104119047D02*
X147528928Y-104095237D01*
X147528928Y-104095237D02*
X147505119Y-104071428D01*
X147505119Y-104071428D02*
X147481309Y-104023809D01*
X147981309Y-103380952D02*
X147981309Y-103666666D01*
X147981309Y-103523809D02*
X147481309Y-103523809D01*
X147481309Y-103523809D02*
X147552738Y-103571428D01*
X147552738Y-103571428D02*
X147600357Y-103619047D01*
X147600357Y-103619047D02*
X147624166Y-103666666D01*
X152067917Y-94659204D02*
X151781708Y-94608696D01*
X151865887Y-94861234D02*
X151512334Y-94507681D01*
X151512334Y-94507681D02*
X151647021Y-94372994D01*
X151647021Y-94372994D02*
X151697528Y-94356158D01*
X151697528Y-94356158D02*
X151731200Y-94356158D01*
X151731200Y-94356158D02*
X151781708Y-94372994D01*
X151781708Y-94372994D02*
X151832215Y-94423501D01*
X151832215Y-94423501D02*
X151849051Y-94474009D01*
X151849051Y-94474009D02*
X151849051Y-94507681D01*
X151849051Y-94507681D02*
X151832215Y-94558188D01*
X151832215Y-94558188D02*
X151697528Y-94692875D01*
X152404635Y-94322486D02*
X152202604Y-94524517D01*
X152303620Y-94423501D02*
X151950066Y-94069948D01*
X151950066Y-94069948D02*
X151966902Y-94154127D01*
X151966902Y-94154127D02*
X151966902Y-94221471D01*
X151966902Y-94221471D02*
X151950066Y-94271978D01*
X152269948Y-93750067D02*
X152303619Y-93716395D01*
X152303619Y-93716395D02*
X152354127Y-93699559D01*
X152354127Y-93699559D02*
X152387799Y-93699559D01*
X152387799Y-93699559D02*
X152438306Y-93716395D01*
X152438306Y-93716395D02*
X152522486Y-93766903D01*
X152522486Y-93766903D02*
X152606665Y-93851082D01*
X152606665Y-93851082D02*
X152657173Y-93935261D01*
X152657173Y-93935261D02*
X152674009Y-93985769D01*
X152674009Y-93985769D02*
X152674009Y-94019441D01*
X152674009Y-94019441D02*
X152657173Y-94069948D01*
X152657173Y-94069948D02*
X152623501Y-94103620D01*
X152623501Y-94103620D02*
X152572993Y-94120456D01*
X152572993Y-94120456D02*
X152539322Y-94120456D01*
X152539322Y-94120456D02*
X152488814Y-94103620D01*
X152488814Y-94103620D02*
X152404635Y-94053112D01*
X152404635Y-94053112D02*
X152320455Y-93968933D01*
X152320455Y-93968933D02*
X152269948Y-93884754D01*
X152269948Y-93884754D02*
X152253112Y-93834246D01*
X152253112Y-93834246D02*
X152253112Y-93800574D01*
X152253112Y-93800574D02*
X152269948Y-93750067D01*
X152556157Y-93531201D02*
X152556157Y-93497529D01*
X152556157Y-93497529D02*
X152572993Y-93447021D01*
X152572993Y-93447021D02*
X152657172Y-93362842D01*
X152657172Y-93362842D02*
X152707680Y-93346006D01*
X152707680Y-93346006D02*
X152741352Y-93346006D01*
X152741352Y-93346006D02*
X152791859Y-93362842D01*
X152791859Y-93362842D02*
X152825531Y-93396514D01*
X152825531Y-93396514D02*
X152859203Y-93463857D01*
X152859203Y-93463857D02*
X152859203Y-93867918D01*
X152859203Y-93867918D02*
X153078069Y-93649052D01*
X158690476Y-97231309D02*
X158523810Y-96993214D01*
X158404762Y-97231309D02*
X158404762Y-96731309D01*
X158404762Y-96731309D02*
X158595238Y-96731309D01*
X158595238Y-96731309D02*
X158642857Y-96755119D01*
X158642857Y-96755119D02*
X158666667Y-96778928D01*
X158666667Y-96778928D02*
X158690476Y-96826547D01*
X158690476Y-96826547D02*
X158690476Y-96897976D01*
X158690476Y-96897976D02*
X158666667Y-96945595D01*
X158666667Y-96945595D02*
X158642857Y-96969404D01*
X158642857Y-96969404D02*
X158595238Y-96993214D01*
X158595238Y-96993214D02*
X158404762Y-96993214D01*
X159166667Y-97231309D02*
X158880953Y-97231309D01*
X159023810Y-97231309D02*
X159023810Y-96731309D01*
X159023810Y-96731309D02*
X158976191Y-96802738D01*
X158976191Y-96802738D02*
X158928572Y-96850357D01*
X158928572Y-96850357D02*
X158880953Y-96874166D01*
X159476190Y-96731309D02*
X159523809Y-96731309D01*
X159523809Y-96731309D02*
X159571428Y-96755119D01*
X159571428Y-96755119D02*
X159595238Y-96778928D01*
X159595238Y-96778928D02*
X159619047Y-96826547D01*
X159619047Y-96826547D02*
X159642857Y-96921785D01*
X159642857Y-96921785D02*
X159642857Y-97040833D01*
X159642857Y-97040833D02*
X159619047Y-97136071D01*
X159619047Y-97136071D02*
X159595238Y-97183690D01*
X159595238Y-97183690D02*
X159571428Y-97207500D01*
X159571428Y-97207500D02*
X159523809Y-97231309D01*
X159523809Y-97231309D02*
X159476190Y-97231309D01*
X159476190Y-97231309D02*
X159428571Y-97207500D01*
X159428571Y-97207500D02*
X159404762Y-97183690D01*
X159404762Y-97183690D02*
X159380952Y-97136071D01*
X159380952Y-97136071D02*
X159357143Y-97040833D01*
X159357143Y-97040833D02*
X159357143Y-96921785D01*
X159357143Y-96921785D02*
X159380952Y-96826547D01*
X159380952Y-96826547D02*
X159404762Y-96778928D01*
X159404762Y-96778928D02*
X159428571Y-96755119D01*
X159428571Y-96755119D02*
X159476190Y-96731309D01*
X159809523Y-96731309D02*
X160142856Y-96731309D01*
X160142856Y-96731309D02*
X159928571Y-97231309D01*
D13*
X144542857Y-103631309D02*
X144542857Y-104036071D01*
X144542857Y-104036071D02*
X144566667Y-104083690D01*
X144566667Y-104083690D02*
X144590476Y-104107500D01*
X144590476Y-104107500D02*
X144638095Y-104131309D01*
X144638095Y-104131309D02*
X144733333Y-104131309D01*
X144733333Y-104131309D02*
X144780952Y-104107500D01*
X144780952Y-104107500D02*
X144804762Y-104083690D01*
X144804762Y-104083690D02*
X144828571Y-104036071D01*
X144828571Y-104036071D02*
X144828571Y-103631309D01*
X145328572Y-104131309D02*
X145042858Y-104131309D01*
X145185715Y-104131309D02*
X145185715Y-103631309D01*
X145185715Y-103631309D02*
X145138096Y-103702738D01*
X145138096Y-103702738D02*
X145090477Y-103750357D01*
X145090477Y-103750357D02*
X145042858Y-103774166D01*
X145638095Y-103631309D02*
X145685714Y-103631309D01*
X145685714Y-103631309D02*
X145733333Y-103655119D01*
X145733333Y-103655119D02*
X145757143Y-103678928D01*
X145757143Y-103678928D02*
X145780952Y-103726547D01*
X145780952Y-103726547D02*
X145804762Y-103821785D01*
X145804762Y-103821785D02*
X145804762Y-103940833D01*
X145804762Y-103940833D02*
X145780952Y-104036071D01*
X145780952Y-104036071D02*
X145757143Y-104083690D01*
X145757143Y-104083690D02*
X145733333Y-104107500D01*
X145733333Y-104107500D02*
X145685714Y-104131309D01*
X145685714Y-104131309D02*
X145638095Y-104131309D01*
X145638095Y-104131309D02*
X145590476Y-104107500D01*
X145590476Y-104107500D02*
X145566667Y-104083690D01*
X145566667Y-104083690D02*
X145542857Y-104036071D01*
X145542857Y-104036071D02*
X145519048Y-103940833D01*
X145519048Y-103940833D02*
X145519048Y-103821785D01*
X145519048Y-103821785D02*
X145542857Y-103726547D01*
X145542857Y-103726547D02*
X145566667Y-103678928D01*
X145566667Y-103678928D02*
X145590476Y-103655119D01*
X145590476Y-103655119D02*
X145638095Y-103631309D01*
X145971428Y-103631309D02*
X146280952Y-103631309D01*
X146280952Y-103631309D02*
X146114285Y-103821785D01*
X146114285Y-103821785D02*
X146185714Y-103821785D01*
X146185714Y-103821785D02*
X146233333Y-103845595D01*
X146233333Y-103845595D02*
X146257142Y-103869404D01*
X146257142Y-103869404D02*
X146280952Y-103917023D01*
X146280952Y-103917023D02*
X146280952Y-104036071D01*
X146280952Y-104036071D02*
X146257142Y-104083690D01*
X146257142Y-104083690D02*
X146233333Y-104107500D01*
X146233333Y-104107500D02*
X146185714Y-104131309D01*
X146185714Y-104131309D02*
X146042857Y-104131309D01*
X146042857Y-104131309D02*
X145995238Y-104107500D01*
X145995238Y-104107500D02*
X145971428Y-104083690D01*
D11*
X146083690Y-98509523D02*
X146107500Y-98533332D01*
X146107500Y-98533332D02*
X146131309Y-98604761D01*
X146131309Y-98604761D02*
X146131309Y-98652380D01*
X146131309Y-98652380D02*
X146107500Y-98723808D01*
X146107500Y-98723808D02*
X146059880Y-98771427D01*
X146059880Y-98771427D02*
X146012261Y-98795237D01*
X146012261Y-98795237D02*
X145917023Y-98819046D01*
X145917023Y-98819046D02*
X145845595Y-98819046D01*
X145845595Y-98819046D02*
X145750357Y-98795237D01*
X145750357Y-98795237D02*
X145702738Y-98771427D01*
X145702738Y-98771427D02*
X145655119Y-98723808D01*
X145655119Y-98723808D02*
X145631309Y-98652380D01*
X145631309Y-98652380D02*
X145631309Y-98604761D01*
X145631309Y-98604761D02*
X145655119Y-98533332D01*
X145655119Y-98533332D02*
X145678928Y-98509523D01*
X146131309Y-98033332D02*
X146131309Y-98319046D01*
X146131309Y-98176189D02*
X145631309Y-98176189D01*
X145631309Y-98176189D02*
X145702738Y-98223808D01*
X145702738Y-98223808D02*
X145750357Y-98271427D01*
X145750357Y-98271427D02*
X145774166Y-98319046D01*
X145631309Y-97723809D02*
X145631309Y-97676190D01*
X145631309Y-97676190D02*
X145655119Y-97628571D01*
X145655119Y-97628571D02*
X145678928Y-97604761D01*
X145678928Y-97604761D02*
X145726547Y-97580952D01*
X145726547Y-97580952D02*
X145821785Y-97557142D01*
X145821785Y-97557142D02*
X145940833Y-97557142D01*
X145940833Y-97557142D02*
X146036071Y-97580952D01*
X146036071Y-97580952D02*
X146083690Y-97604761D01*
X146083690Y-97604761D02*
X146107500Y-97628571D01*
X146107500Y-97628571D02*
X146131309Y-97676190D01*
X146131309Y-97676190D02*
X146131309Y-97723809D01*
X146131309Y-97723809D02*
X146107500Y-97771428D01*
X146107500Y-97771428D02*
X146083690Y-97795237D01*
X146083690Y-97795237D02*
X146036071Y-97819047D01*
X146036071Y-97819047D02*
X145940833Y-97842856D01*
X145940833Y-97842856D02*
X145821785Y-97842856D01*
X145821785Y-97842856D02*
X145726547Y-97819047D01*
X145726547Y-97819047D02*
X145678928Y-97795237D01*
X145678928Y-97795237D02*
X145655119Y-97771428D01*
X145655119Y-97771428D02*
X145631309Y-97723809D01*
X145631309Y-97104762D02*
X145631309Y-97342857D01*
X145631309Y-97342857D02*
X145869404Y-97366666D01*
X145869404Y-97366666D02*
X145845595Y-97342857D01*
X145845595Y-97342857D02*
X145821785Y-97295238D01*
X145821785Y-97295238D02*
X145821785Y-97176190D01*
X145821785Y-97176190D02*
X145845595Y-97128571D01*
X145845595Y-97128571D02*
X145869404Y-97104762D01*
X145869404Y-97104762D02*
X145917023Y-97080952D01*
X145917023Y-97080952D02*
X146036071Y-97080952D01*
X146036071Y-97080952D02*
X146083690Y-97104762D01*
X146083690Y-97104762D02*
X146107500Y-97128571D01*
X146107500Y-97128571D02*
X146131309Y-97176190D01*
X146131309Y-97176190D02*
X146131309Y-97295238D01*
X146131309Y-97295238D02*
X146107500Y-97342857D01*
X146107500Y-97342857D02*
X146083690Y-97366666D01*
D12*
X140937380Y-95119047D02*
X140985000Y-95166666D01*
X140985000Y-95166666D02*
X141032619Y-95309523D01*
X141032619Y-95309523D02*
X141032619Y-95404761D01*
X141032619Y-95404761D02*
X140985000Y-95547618D01*
X140985000Y-95547618D02*
X140889761Y-95642856D01*
X140889761Y-95642856D02*
X140794523Y-95690475D01*
X140794523Y-95690475D02*
X140604047Y-95738094D01*
X140604047Y-95738094D02*
X140461190Y-95738094D01*
X140461190Y-95738094D02*
X140270714Y-95690475D01*
X140270714Y-95690475D02*
X140175476Y-95642856D01*
X140175476Y-95642856D02*
X140080238Y-95547618D01*
X140080238Y-95547618D02*
X140032619Y-95404761D01*
X140032619Y-95404761D02*
X140032619Y-95309523D01*
X140032619Y-95309523D02*
X140080238Y-95166666D01*
X140080238Y-95166666D02*
X140127857Y-95119047D01*
X141032619Y-94166666D02*
X141032619Y-94738094D01*
X141032619Y-94452380D02*
X140032619Y-94452380D01*
X140032619Y-94452380D02*
X140175476Y-94547618D01*
X140175476Y-94547618D02*
X140270714Y-94642856D01*
X140270714Y-94642856D02*
X140318333Y-94738094D01*
X140032619Y-93547618D02*
X140032619Y-93452380D01*
X140032619Y-93452380D02*
X140080238Y-93357142D01*
X140080238Y-93357142D02*
X140127857Y-93309523D01*
X140127857Y-93309523D02*
X140223095Y-93261904D01*
X140223095Y-93261904D02*
X140413571Y-93214285D01*
X140413571Y-93214285D02*
X140651666Y-93214285D01*
X140651666Y-93214285D02*
X140842142Y-93261904D01*
X140842142Y-93261904D02*
X140937380Y-93309523D01*
X140937380Y-93309523D02*
X140985000Y-93357142D01*
X140985000Y-93357142D02*
X141032619Y-93452380D01*
X141032619Y-93452380D02*
X141032619Y-93547618D01*
X141032619Y-93547618D02*
X140985000Y-93642856D01*
X140985000Y-93642856D02*
X140937380Y-93690475D01*
X140937380Y-93690475D02*
X140842142Y-93738094D01*
X140842142Y-93738094D02*
X140651666Y-93785713D01*
X140651666Y-93785713D02*
X140413571Y-93785713D01*
X140413571Y-93785713D02*
X140223095Y-93738094D01*
X140223095Y-93738094D02*
X140127857Y-93690475D01*
X140127857Y-93690475D02*
X140080238Y-93642856D01*
X140080238Y-93642856D02*
X140032619Y-93547618D01*
X140032619Y-92357142D02*
X140032619Y-92547618D01*
X140032619Y-92547618D02*
X140080238Y-92642856D01*
X140080238Y-92642856D02*
X140127857Y-92690475D01*
X140127857Y-92690475D02*
X140270714Y-92785713D01*
X140270714Y-92785713D02*
X140461190Y-92833332D01*
X140461190Y-92833332D02*
X140842142Y-92833332D01*
X140842142Y-92833332D02*
X140937380Y-92785713D01*
X140937380Y-92785713D02*
X140985000Y-92738094D01*
X140985000Y-92738094D02*
X141032619Y-92642856D01*
X141032619Y-92642856D02*
X141032619Y-92452380D01*
X141032619Y-92452380D02*
X140985000Y-92357142D01*
X140985000Y-92357142D02*
X140937380Y-92309523D01*
X140937380Y-92309523D02*
X140842142Y-92261904D01*
X140842142Y-92261904D02*
X140604047Y-92261904D01*
X140604047Y-92261904D02*
X140508809Y-92309523D01*
X140508809Y-92309523D02*
X140461190Y-92357142D01*
X140461190Y-92357142D02*
X140413571Y-92452380D01*
X140413571Y-92452380D02*
X140413571Y-92642856D01*
X140413571Y-92642856D02*
X140461190Y-92738094D01*
X140461190Y-92738094D02*
X140508809Y-92785713D01*
X140508809Y-92785713D02*
X140604047Y-92833332D01*
D11*
X139731309Y-98457142D02*
X140136071Y-98457142D01*
X140136071Y-98457142D02*
X140183690Y-98433332D01*
X140183690Y-98433332D02*
X140207500Y-98409523D01*
X140207500Y-98409523D02*
X140231309Y-98361904D01*
X140231309Y-98361904D02*
X140231309Y-98266666D01*
X140231309Y-98266666D02*
X140207500Y-98219047D01*
X140207500Y-98219047D02*
X140183690Y-98195237D01*
X140183690Y-98195237D02*
X140136071Y-98171428D01*
X140136071Y-98171428D02*
X139731309Y-98171428D01*
X140231309Y-97671427D02*
X140231309Y-97957141D01*
X140231309Y-97814284D02*
X139731309Y-97814284D01*
X139731309Y-97814284D02*
X139802738Y-97861903D01*
X139802738Y-97861903D02*
X139850357Y-97909522D01*
X139850357Y-97909522D02*
X139874166Y-97957141D01*
X139731309Y-97361904D02*
X139731309Y-97314285D01*
X139731309Y-97314285D02*
X139755119Y-97266666D01*
X139755119Y-97266666D02*
X139778928Y-97242856D01*
X139778928Y-97242856D02*
X139826547Y-97219047D01*
X139826547Y-97219047D02*
X139921785Y-97195237D01*
X139921785Y-97195237D02*
X140040833Y-97195237D01*
X140040833Y-97195237D02*
X140136071Y-97219047D01*
X140136071Y-97219047D02*
X140183690Y-97242856D01*
X140183690Y-97242856D02*
X140207500Y-97266666D01*
X140207500Y-97266666D02*
X140231309Y-97314285D01*
X140231309Y-97314285D02*
X140231309Y-97361904D01*
X140231309Y-97361904D02*
X140207500Y-97409523D01*
X140207500Y-97409523D02*
X140183690Y-97433332D01*
X140183690Y-97433332D02*
X140136071Y-97457142D01*
X140136071Y-97457142D02*
X140040833Y-97480951D01*
X140040833Y-97480951D02*
X139921785Y-97480951D01*
X139921785Y-97480951D02*
X139826547Y-97457142D01*
X139826547Y-97457142D02*
X139778928Y-97433332D01*
X139778928Y-97433332D02*
X139755119Y-97409523D01*
X139755119Y-97409523D02*
X139731309Y-97361904D01*
X139897976Y-96766666D02*
X140231309Y-96766666D01*
X139707500Y-96885714D02*
X140064642Y-97004761D01*
X140064642Y-97004761D02*
X140064642Y-96695238D01*
D13*
X143509276Y-100158090D02*
X143485467Y-100181900D01*
X143485467Y-100181900D02*
X143414038Y-100205709D01*
X143414038Y-100205709D02*
X143366419Y-100205709D01*
X143366419Y-100205709D02*
X143294991Y-100181900D01*
X143294991Y-100181900D02*
X143247372Y-100134280D01*
X143247372Y-100134280D02*
X143223562Y-100086661D01*
X143223562Y-100086661D02*
X143199753Y-99991423D01*
X143199753Y-99991423D02*
X143199753Y-99919995D01*
X143199753Y-99919995D02*
X143223562Y-99824757D01*
X143223562Y-99824757D02*
X143247372Y-99777138D01*
X143247372Y-99777138D02*
X143294991Y-99729519D01*
X143294991Y-99729519D02*
X143366419Y-99705709D01*
X143366419Y-99705709D02*
X143414038Y-99705709D01*
X143414038Y-99705709D02*
X143485467Y-99729519D01*
X143485467Y-99729519D02*
X143509276Y-99753328D01*
X143985467Y-100205709D02*
X143699753Y-100205709D01*
X143842610Y-100205709D02*
X143842610Y-99705709D01*
X143842610Y-99705709D02*
X143794991Y-99777138D01*
X143794991Y-99777138D02*
X143747372Y-99824757D01*
X143747372Y-99824757D02*
X143699753Y-99848566D01*
X144294990Y-99705709D02*
X144342609Y-99705709D01*
X144342609Y-99705709D02*
X144390228Y-99729519D01*
X144390228Y-99729519D02*
X144414038Y-99753328D01*
X144414038Y-99753328D02*
X144437847Y-99800947D01*
X144437847Y-99800947D02*
X144461657Y-99896185D01*
X144461657Y-99896185D02*
X144461657Y-100015233D01*
X144461657Y-100015233D02*
X144437847Y-100110471D01*
X144437847Y-100110471D02*
X144414038Y-100158090D01*
X144414038Y-100158090D02*
X144390228Y-100181900D01*
X144390228Y-100181900D02*
X144342609Y-100205709D01*
X144342609Y-100205709D02*
X144294990Y-100205709D01*
X144294990Y-100205709D02*
X144247371Y-100181900D01*
X144247371Y-100181900D02*
X144223562Y-100158090D01*
X144223562Y-100158090D02*
X144199752Y-100110471D01*
X144199752Y-100110471D02*
X144175943Y-100015233D01*
X144175943Y-100015233D02*
X144175943Y-99896185D01*
X144175943Y-99896185D02*
X144199752Y-99800947D01*
X144199752Y-99800947D02*
X144223562Y-99753328D01*
X144223562Y-99753328D02*
X144247371Y-99729519D01*
X144247371Y-99729519D02*
X144294990Y-99705709D01*
X144699752Y-100205709D02*
X144794990Y-100205709D01*
X144794990Y-100205709D02*
X144842609Y-100181900D01*
X144842609Y-100181900D02*
X144866418Y-100158090D01*
X144866418Y-100158090D02*
X144914037Y-100086661D01*
X144914037Y-100086661D02*
X144937847Y-99991423D01*
X144937847Y-99991423D02*
X144937847Y-99800947D01*
X144937847Y-99800947D02*
X144914037Y-99753328D01*
X144914037Y-99753328D02*
X144890228Y-99729519D01*
X144890228Y-99729519D02*
X144842609Y-99705709D01*
X144842609Y-99705709D02*
X144747371Y-99705709D01*
X144747371Y-99705709D02*
X144699752Y-99729519D01*
X144699752Y-99729519D02*
X144675942Y-99753328D01*
X144675942Y-99753328D02*
X144652133Y-99800947D01*
X144652133Y-99800947D02*
X144652133Y-99919995D01*
X144652133Y-99919995D02*
X144675942Y-99967614D01*
X144675942Y-99967614D02*
X144699752Y-99991423D01*
X144699752Y-99991423D02*
X144747371Y-100015233D01*
X144747371Y-100015233D02*
X144842609Y-100015233D01*
X144842609Y-100015233D02*
X144890228Y-99991423D01*
X144890228Y-99991423D02*
X144914037Y-99967614D01*
X144914037Y-99967614D02*
X144937847Y-99919995D01*
D11*
X150340476Y-105283690D02*
X150316667Y-105307500D01*
X150316667Y-105307500D02*
X150245238Y-105331309D01*
X150245238Y-105331309D02*
X150197619Y-105331309D01*
X150197619Y-105331309D02*
X150126191Y-105307500D01*
X150126191Y-105307500D02*
X150078572Y-105259880D01*
X150078572Y-105259880D02*
X150054762Y-105212261D01*
X150054762Y-105212261D02*
X150030953Y-105117023D01*
X150030953Y-105117023D02*
X150030953Y-105045595D01*
X150030953Y-105045595D02*
X150054762Y-104950357D01*
X150054762Y-104950357D02*
X150078572Y-104902738D01*
X150078572Y-104902738D02*
X150126191Y-104855119D01*
X150126191Y-104855119D02*
X150197619Y-104831309D01*
X150197619Y-104831309D02*
X150245238Y-104831309D01*
X150245238Y-104831309D02*
X150316667Y-104855119D01*
X150316667Y-104855119D02*
X150340476Y-104878928D01*
X150816667Y-105331309D02*
X150530953Y-105331309D01*
X150673810Y-105331309D02*
X150673810Y-104831309D01*
X150673810Y-104831309D02*
X150626191Y-104902738D01*
X150626191Y-104902738D02*
X150578572Y-104950357D01*
X150578572Y-104950357D02*
X150530953Y-104974166D01*
X151126190Y-104831309D02*
X151173809Y-104831309D01*
X151173809Y-104831309D02*
X151221428Y-104855119D01*
X151221428Y-104855119D02*
X151245238Y-104878928D01*
X151245238Y-104878928D02*
X151269047Y-104926547D01*
X151269047Y-104926547D02*
X151292857Y-105021785D01*
X151292857Y-105021785D02*
X151292857Y-105140833D01*
X151292857Y-105140833D02*
X151269047Y-105236071D01*
X151269047Y-105236071D02*
X151245238Y-105283690D01*
X151245238Y-105283690D02*
X151221428Y-105307500D01*
X151221428Y-105307500D02*
X151173809Y-105331309D01*
X151173809Y-105331309D02*
X151126190Y-105331309D01*
X151126190Y-105331309D02*
X151078571Y-105307500D01*
X151078571Y-105307500D02*
X151054762Y-105283690D01*
X151054762Y-105283690D02*
X151030952Y-105236071D01*
X151030952Y-105236071D02*
X151007143Y-105140833D01*
X151007143Y-105140833D02*
X151007143Y-105021785D01*
X151007143Y-105021785D02*
X151030952Y-104926547D01*
X151030952Y-104926547D02*
X151054762Y-104878928D01*
X151054762Y-104878928D02*
X151078571Y-104855119D01*
X151078571Y-104855119D02*
X151126190Y-104831309D01*
X151721428Y-104997976D02*
X151721428Y-105331309D01*
X151602380Y-104807500D02*
X151483333Y-105164642D01*
X151483333Y-105164642D02*
X151792856Y-105164642D01*
X153344762Y-108415309D02*
X153344762Y-107915309D01*
X153344762Y-107915309D02*
X153463810Y-107915309D01*
X153463810Y-107915309D02*
X153535238Y-107939119D01*
X153535238Y-107939119D02*
X153582857Y-107986738D01*
X153582857Y-107986738D02*
X153606667Y-108034357D01*
X153606667Y-108034357D02*
X153630476Y-108129595D01*
X153630476Y-108129595D02*
X153630476Y-108201023D01*
X153630476Y-108201023D02*
X153606667Y-108296261D01*
X153606667Y-108296261D02*
X153582857Y-108343880D01*
X153582857Y-108343880D02*
X153535238Y-108391500D01*
X153535238Y-108391500D02*
X153463810Y-108415309D01*
X153463810Y-108415309D02*
X153344762Y-108415309D01*
X154106667Y-108415309D02*
X153820953Y-108415309D01*
X153963810Y-108415309D02*
X153963810Y-107915309D01*
X153963810Y-107915309D02*
X153916191Y-107986738D01*
X153916191Y-107986738D02*
X153868572Y-108034357D01*
X153868572Y-108034357D02*
X153820953Y-108058166D01*
X154416190Y-107915309D02*
X154463809Y-107915309D01*
X154463809Y-107915309D02*
X154511428Y-107939119D01*
X154511428Y-107939119D02*
X154535238Y-107962928D01*
X154535238Y-107962928D02*
X154559047Y-108010547D01*
X154559047Y-108010547D02*
X154582857Y-108105785D01*
X154582857Y-108105785D02*
X154582857Y-108224833D01*
X154582857Y-108224833D02*
X154559047Y-108320071D01*
X154559047Y-108320071D02*
X154535238Y-108367690D01*
X154535238Y-108367690D02*
X154511428Y-108391500D01*
X154511428Y-108391500D02*
X154463809Y-108415309D01*
X154463809Y-108415309D02*
X154416190Y-108415309D01*
X154416190Y-108415309D02*
X154368571Y-108391500D01*
X154368571Y-108391500D02*
X154344762Y-108367690D01*
X154344762Y-108367690D02*
X154320952Y-108320071D01*
X154320952Y-108320071D02*
X154297143Y-108224833D01*
X154297143Y-108224833D02*
X154297143Y-108105785D01*
X154297143Y-108105785D02*
X154320952Y-108010547D01*
X154320952Y-108010547D02*
X154344762Y-107962928D01*
X154344762Y-107962928D02*
X154368571Y-107939119D01*
X154368571Y-107939119D02*
X154416190Y-107915309D01*
X155059047Y-108415309D02*
X154773333Y-108415309D01*
X154916190Y-108415309D02*
X154916190Y-107915309D01*
X154916190Y-107915309D02*
X154868571Y-107986738D01*
X154868571Y-107986738D02*
X154820952Y-108034357D01*
X154820952Y-108034357D02*
X154773333Y-108058166D01*
D13*
X137991066Y-97056109D02*
X137824400Y-96818014D01*
X137705352Y-97056109D02*
X137705352Y-96556109D01*
X137705352Y-96556109D02*
X137895828Y-96556109D01*
X137895828Y-96556109D02*
X137943447Y-96579919D01*
X137943447Y-96579919D02*
X137967257Y-96603728D01*
X137967257Y-96603728D02*
X137991066Y-96651347D01*
X137991066Y-96651347D02*
X137991066Y-96722776D01*
X137991066Y-96722776D02*
X137967257Y-96770395D01*
X137967257Y-96770395D02*
X137943447Y-96794204D01*
X137943447Y-96794204D02*
X137895828Y-96818014D01*
X137895828Y-96818014D02*
X137705352Y-96818014D01*
X138419638Y-96722776D02*
X138419638Y-97056109D01*
X138300590Y-96532300D02*
X138181543Y-96889442D01*
X138181543Y-96889442D02*
X138491066Y-96889442D01*
X137848509Y-98940133D02*
X137610414Y-99106799D01*
X137848509Y-99225847D02*
X137348509Y-99225847D01*
X137348509Y-99225847D02*
X137348509Y-99035371D01*
X137348509Y-99035371D02*
X137372319Y-98987752D01*
X137372319Y-98987752D02*
X137396128Y-98963942D01*
X137396128Y-98963942D02*
X137443747Y-98940133D01*
X137443747Y-98940133D02*
X137515176Y-98940133D01*
X137515176Y-98940133D02*
X137562795Y-98963942D01*
X137562795Y-98963942D02*
X137586604Y-98987752D01*
X137586604Y-98987752D02*
X137610414Y-99035371D01*
X137610414Y-99035371D02*
X137610414Y-99225847D01*
X137348509Y-98773466D02*
X137348509Y-98463942D01*
X137348509Y-98463942D02*
X137538985Y-98630609D01*
X137538985Y-98630609D02*
X137538985Y-98559180D01*
X137538985Y-98559180D02*
X137562795Y-98511561D01*
X137562795Y-98511561D02*
X137586604Y-98487752D01*
X137586604Y-98487752D02*
X137634223Y-98463942D01*
X137634223Y-98463942D02*
X137753271Y-98463942D01*
X137753271Y-98463942D02*
X137800890Y-98487752D01*
X137800890Y-98487752D02*
X137824700Y-98511561D01*
X137824700Y-98511561D02*
X137848509Y-98559180D01*
X137848509Y-98559180D02*
X137848509Y-98702037D01*
X137848509Y-98702037D02*
X137824700Y-98749656D01*
X137824700Y-98749656D02*
X137800890Y-98773466D01*
X163035466Y-96652890D02*
X163011657Y-96676700D01*
X163011657Y-96676700D02*
X162940228Y-96700509D01*
X162940228Y-96700509D02*
X162892609Y-96700509D01*
X162892609Y-96700509D02*
X162821181Y-96676700D01*
X162821181Y-96676700D02*
X162773562Y-96629080D01*
X162773562Y-96629080D02*
X162749752Y-96581461D01*
X162749752Y-96581461D02*
X162725943Y-96486223D01*
X162725943Y-96486223D02*
X162725943Y-96414795D01*
X162725943Y-96414795D02*
X162749752Y-96319557D01*
X162749752Y-96319557D02*
X162773562Y-96271938D01*
X162773562Y-96271938D02*
X162821181Y-96224319D01*
X162821181Y-96224319D02*
X162892609Y-96200509D01*
X162892609Y-96200509D02*
X162940228Y-96200509D01*
X162940228Y-96200509D02*
X163011657Y-96224319D01*
X163011657Y-96224319D02*
X163035466Y-96248128D01*
X163464038Y-96200509D02*
X163368800Y-96200509D01*
X163368800Y-96200509D02*
X163321181Y-96224319D01*
X163321181Y-96224319D02*
X163297371Y-96248128D01*
X163297371Y-96248128D02*
X163249752Y-96319557D01*
X163249752Y-96319557D02*
X163225943Y-96414795D01*
X163225943Y-96414795D02*
X163225943Y-96605271D01*
X163225943Y-96605271D02*
X163249752Y-96652890D01*
X163249752Y-96652890D02*
X163273562Y-96676700D01*
X163273562Y-96676700D02*
X163321181Y-96700509D01*
X163321181Y-96700509D02*
X163416419Y-96700509D01*
X163416419Y-96700509D02*
X163464038Y-96676700D01*
X163464038Y-96676700D02*
X163487847Y-96652890D01*
X163487847Y-96652890D02*
X163511657Y-96605271D01*
X163511657Y-96605271D02*
X163511657Y-96486223D01*
X163511657Y-96486223D02*
X163487847Y-96438604D01*
X163487847Y-96438604D02*
X163464038Y-96414795D01*
X163464038Y-96414795D02*
X163416419Y-96390985D01*
X163416419Y-96390985D02*
X163321181Y-96390985D01*
X163321181Y-96390985D02*
X163273562Y-96414795D01*
X163273562Y-96414795D02*
X163249752Y-96438604D01*
X163249752Y-96438604D02*
X163225943Y-96486223D01*
X136365466Y-97313290D02*
X136341657Y-97337100D01*
X136341657Y-97337100D02*
X136270228Y-97360909D01*
X136270228Y-97360909D02*
X136222609Y-97360909D01*
X136222609Y-97360909D02*
X136151181Y-97337100D01*
X136151181Y-97337100D02*
X136103562Y-97289480D01*
X136103562Y-97289480D02*
X136079752Y-97241861D01*
X136079752Y-97241861D02*
X136055943Y-97146623D01*
X136055943Y-97146623D02*
X136055943Y-97075195D01*
X136055943Y-97075195D02*
X136079752Y-96979957D01*
X136079752Y-96979957D02*
X136103562Y-96932338D01*
X136103562Y-96932338D02*
X136151181Y-96884719D01*
X136151181Y-96884719D02*
X136222609Y-96860909D01*
X136222609Y-96860909D02*
X136270228Y-96860909D01*
X136270228Y-96860909D02*
X136341657Y-96884719D01*
X136341657Y-96884719D02*
X136365466Y-96908528D01*
X136532133Y-96860909D02*
X136841657Y-96860909D01*
X136841657Y-96860909D02*
X136674990Y-97051385D01*
X136674990Y-97051385D02*
X136746419Y-97051385D01*
X136746419Y-97051385D02*
X136794038Y-97075195D01*
X136794038Y-97075195D02*
X136817847Y-97099004D01*
X136817847Y-97099004D02*
X136841657Y-97146623D01*
X136841657Y-97146623D02*
X136841657Y-97265671D01*
X136841657Y-97265671D02*
X136817847Y-97313290D01*
X136817847Y-97313290D02*
X136794038Y-97337100D01*
X136794038Y-97337100D02*
X136746419Y-97360909D01*
X136746419Y-97360909D02*
X136603562Y-97360909D01*
X136603562Y-97360909D02*
X136555943Y-97337100D01*
X136555943Y-97337100D02*
X136532133Y-97313290D01*
X140032909Y-103292018D02*
X139794814Y-103458684D01*
X140032909Y-103577732D02*
X139532909Y-103577732D01*
X139532909Y-103577732D02*
X139532909Y-103387256D01*
X139532909Y-103387256D02*
X139556719Y-103339637D01*
X139556719Y-103339637D02*
X139580528Y-103315827D01*
X139580528Y-103315827D02*
X139628147Y-103292018D01*
X139628147Y-103292018D02*
X139699576Y-103292018D01*
X139699576Y-103292018D02*
X139747195Y-103315827D01*
X139747195Y-103315827D02*
X139771004Y-103339637D01*
X139771004Y-103339637D02*
X139794814Y-103387256D01*
X139794814Y-103387256D02*
X139794814Y-103577732D01*
X139771004Y-102911065D02*
X139771004Y-103077732D01*
X140032909Y-103077732D02*
X139532909Y-103077732D01*
X139532909Y-103077732D02*
X139532909Y-102839637D01*
X140032909Y-102387256D02*
X140032909Y-102672970D01*
X140032909Y-102530113D02*
X139532909Y-102530113D01*
X139532909Y-102530113D02*
X139604338Y-102577732D01*
X139604338Y-102577732D02*
X139651957Y-102625351D01*
X139651957Y-102625351D02*
X139675766Y-102672970D01*
X136365466Y-98122909D02*
X136198800Y-97884814D01*
X136079752Y-98122909D02*
X136079752Y-97622909D01*
X136079752Y-97622909D02*
X136270228Y-97622909D01*
X136270228Y-97622909D02*
X136317847Y-97646719D01*
X136317847Y-97646719D02*
X136341657Y-97670528D01*
X136341657Y-97670528D02*
X136365466Y-97718147D01*
X136365466Y-97718147D02*
X136365466Y-97789576D01*
X136365466Y-97789576D02*
X136341657Y-97837195D01*
X136341657Y-97837195D02*
X136317847Y-97861004D01*
X136317847Y-97861004D02*
X136270228Y-97884814D01*
X136270228Y-97884814D02*
X136079752Y-97884814D01*
X136555943Y-97670528D02*
X136579752Y-97646719D01*
X136579752Y-97646719D02*
X136627371Y-97622909D01*
X136627371Y-97622909D02*
X136746419Y-97622909D01*
X136746419Y-97622909D02*
X136794038Y-97646719D01*
X136794038Y-97646719D02*
X136817847Y-97670528D01*
X136817847Y-97670528D02*
X136841657Y-97718147D01*
X136841657Y-97718147D02*
X136841657Y-97765766D01*
X136841657Y-97765766D02*
X136817847Y-97837195D01*
X136817847Y-97837195D02*
X136532133Y-98122909D01*
X136532133Y-98122909D02*
X136841657Y-98122909D01*
X140620290Y-99397333D02*
X140644100Y-99421142D01*
X140644100Y-99421142D02*
X140667909Y-99492571D01*
X140667909Y-99492571D02*
X140667909Y-99540190D01*
X140667909Y-99540190D02*
X140644100Y-99611618D01*
X140644100Y-99611618D02*
X140596480Y-99659237D01*
X140596480Y-99659237D02*
X140548861Y-99683047D01*
X140548861Y-99683047D02*
X140453623Y-99706856D01*
X140453623Y-99706856D02*
X140382195Y-99706856D01*
X140382195Y-99706856D02*
X140286957Y-99683047D01*
X140286957Y-99683047D02*
X140239338Y-99659237D01*
X140239338Y-99659237D02*
X140191719Y-99611618D01*
X140191719Y-99611618D02*
X140167909Y-99540190D01*
X140167909Y-99540190D02*
X140167909Y-99492571D01*
X140167909Y-99492571D02*
X140191719Y-99421142D01*
X140191719Y-99421142D02*
X140215528Y-99397333D01*
X140167909Y-98944952D02*
X140167909Y-99183047D01*
X140167909Y-99183047D02*
X140406004Y-99206856D01*
X140406004Y-99206856D02*
X140382195Y-99183047D01*
X140382195Y-99183047D02*
X140358385Y-99135428D01*
X140358385Y-99135428D02*
X140358385Y-99016380D01*
X140358385Y-99016380D02*
X140382195Y-98968761D01*
X140382195Y-98968761D02*
X140406004Y-98944952D01*
X140406004Y-98944952D02*
X140453623Y-98921142D01*
X140453623Y-98921142D02*
X140572671Y-98921142D01*
X140572671Y-98921142D02*
X140620290Y-98944952D01*
X140620290Y-98944952D02*
X140644100Y-98968761D01*
X140644100Y-98968761D02*
X140667909Y-99016380D01*
X140667909Y-99016380D02*
X140667909Y-99135428D01*
X140667909Y-99135428D02*
X140644100Y-99183047D01*
X140644100Y-99183047D02*
X140620290Y-99206856D01*
X136619466Y-101986890D02*
X136595657Y-102010700D01*
X136595657Y-102010700D02*
X136524228Y-102034509D01*
X136524228Y-102034509D02*
X136476609Y-102034509D01*
X136476609Y-102034509D02*
X136405181Y-102010700D01*
X136405181Y-102010700D02*
X136357562Y-101963080D01*
X136357562Y-101963080D02*
X136333752Y-101915461D01*
X136333752Y-101915461D02*
X136309943Y-101820223D01*
X136309943Y-101820223D02*
X136309943Y-101748795D01*
X136309943Y-101748795D02*
X136333752Y-101653557D01*
X136333752Y-101653557D02*
X136357562Y-101605938D01*
X136357562Y-101605938D02*
X136405181Y-101558319D01*
X136405181Y-101558319D02*
X136476609Y-101534509D01*
X136476609Y-101534509D02*
X136524228Y-101534509D01*
X136524228Y-101534509D02*
X136595657Y-101558319D01*
X136595657Y-101558319D02*
X136619466Y-101582128D01*
X137048038Y-101701176D02*
X137048038Y-102034509D01*
X136928990Y-101510700D02*
X136809943Y-101867842D01*
X136809943Y-101867842D02*
X137119466Y-101867842D01*
X162984666Y-103714090D02*
X162960857Y-103737900D01*
X162960857Y-103737900D02*
X162889428Y-103761709D01*
X162889428Y-103761709D02*
X162841809Y-103761709D01*
X162841809Y-103761709D02*
X162770381Y-103737900D01*
X162770381Y-103737900D02*
X162722762Y-103690280D01*
X162722762Y-103690280D02*
X162698952Y-103642661D01*
X162698952Y-103642661D02*
X162675143Y-103547423D01*
X162675143Y-103547423D02*
X162675143Y-103475995D01*
X162675143Y-103475995D02*
X162698952Y-103380757D01*
X162698952Y-103380757D02*
X162722762Y-103333138D01*
X162722762Y-103333138D02*
X162770381Y-103285519D01*
X162770381Y-103285519D02*
X162841809Y-103261709D01*
X162841809Y-103261709D02*
X162889428Y-103261709D01*
X162889428Y-103261709D02*
X162960857Y-103285519D01*
X162960857Y-103285519D02*
X162984666Y-103309328D01*
X163151333Y-103261709D02*
X163484666Y-103261709D01*
X163484666Y-103261709D02*
X163270381Y-103761709D01*
D14*
X134390400Y-95401159D02*
X134390400Y-95708441D01*
X133630400Y-95401159D02*
X133630400Y-95708441D01*
D11*
X134060400Y-92205600D02*
G75*
G03*
X134060400Y-92205600I-50000J0D01*
G01*
D14*
X135264800Y-99771200D02*
X135264800Y-101271200D01*
X132044800Y-99771200D02*
X132044800Y-102696200D01*
X135264800Y-99771200D02*
X135264800Y-98271200D01*
X132044800Y-99771200D02*
X132044800Y-98271200D01*
X145420494Y-94116907D02*
X145203213Y-94334188D01*
X144883093Y-93579506D02*
X144665812Y-93796787D01*
X132970000Y-104395241D02*
X132970000Y-104087959D01*
X133730000Y-104395241D02*
X133730000Y-104087959D01*
X132329600Y-95446964D02*
X132329600Y-95662636D01*
X133049600Y-95446964D02*
X133049600Y-95662636D01*
X146535552Y-97505501D02*
X147447719Y-98417669D01*
X147525501Y-96515552D02*
X146535552Y-97505501D01*
X148437669Y-97427719D02*
X147525501Y-96515552D01*
X147447850Y-98417456D02*
G75*
G03*
X148437669Y-97427719I2572150J-1582544D01*
G01*
X149750000Y-108610000D02*
X152625000Y-108610000D01*
X149750000Y-108610000D02*
X148250000Y-108610000D01*
X149750000Y-105390000D02*
X151250000Y-105390000D01*
X149750000Y-105390000D02*
X148250000Y-105390000D01*
X154508005Y-94508005D02*
X152475073Y-96540937D01*
X154508005Y-94508005D02*
X155568665Y-93447345D01*
X157491995Y-97491995D02*
X156431335Y-98552655D01*
X157491995Y-97491995D02*
X158552655Y-96431335D01*
X151412779Y-110010000D02*
X151087221Y-110010000D01*
X151412779Y-108990000D02*
X151087221Y-108990000D01*
X147312779Y-96210000D02*
X146987221Y-96210000D01*
X147312779Y-95190000D02*
X146987221Y-95190000D01*
X143790000Y-105962779D02*
X143790000Y-105637221D01*
X144810000Y-105962779D02*
X144810000Y-105637221D01*
X148087221Y-108990000D02*
X148412779Y-108990000D01*
X148087221Y-110010000D02*
X148412779Y-110010000D01*
X141912779Y-104760000D02*
X141587221Y-104760000D01*
X141912779Y-103740000D02*
X141587221Y-103740000D01*
X153465083Y-100978532D02*
X153576430Y-100672608D01*
X154423570Y-101327392D02*
X154534917Y-101021468D01*
X159087221Y-98990000D02*
X159412779Y-98990000D01*
X159087221Y-100010000D02*
X159412779Y-100010000D01*
X154724273Y-92354478D02*
X154954478Y-92124273D01*
X155445522Y-93075727D02*
X155675727Y-92845522D01*
X158388000Y-102450000D02*
X158388000Y-100750000D01*
X158388000Y-102450000D02*
X155838000Y-102450000D01*
X158388000Y-100750000D02*
X155838000Y-100750000D01*
X150658578Y-96510000D02*
X150141422Y-96510000D01*
X150658578Y-95090000D02*
X150141422Y-95090000D01*
X145290000Y-105962779D02*
X145290000Y-105637221D01*
X146310000Y-105962779D02*
X146310000Y-105637221D01*
X153518880Y-95002369D02*
X153288675Y-95232574D01*
X152797631Y-94281120D02*
X152567426Y-94511325D01*
X159087221Y-97490000D02*
X159412779Y-97490000D01*
X159087221Y-98510000D02*
X159412779Y-98510000D01*
X144000000Y-103370000D02*
X141500000Y-103370000D01*
X141500000Y-100130000D02*
X143500000Y-100130000D01*
X145310000Y-97837221D02*
X145310000Y-98162779D01*
X144290000Y-97837221D02*
X144290000Y-98162779D01*
X141490000Y-94140580D02*
X141490000Y-93859420D01*
X142510000Y-94140580D02*
X142510000Y-93859420D01*
X140590000Y-96100000D02*
X140590000Y-97900000D01*
X143810000Y-97900000D02*
X143810000Y-95450000D01*
X141659420Y-98890000D02*
X141940580Y-98890000D01*
X141659420Y-99910000D02*
X141940580Y-99910000D01*
X150962779Y-104510000D02*
X150637221Y-104510000D01*
X150962779Y-103490000D02*
X150637221Y-103490000D01*
X153440000Y-106084000D02*
X153440000Y-107784000D01*
X153440000Y-106084000D02*
X155990000Y-106084000D01*
X153440000Y-107784000D02*
X155990000Y-107784000D01*
X139447241Y-98220800D02*
X139139959Y-98220800D01*
X139447241Y-97460800D02*
X139139959Y-97460800D01*
X138174759Y-99391200D02*
X138482041Y-99391200D01*
X138174759Y-100151200D02*
X138482041Y-100151200D01*
X165492000Y-97011000D02*
X163692000Y-97011000D01*
X163692000Y-97011000D02*
X163692000Y-98061000D01*
X163692000Y-98061000D02*
X165492000Y-98061000D01*
X165492000Y-98061000D02*
X165492000Y-97011000D01*
X136505836Y-99115200D02*
X136290164Y-99115200D01*
X136505836Y-98395200D02*
X136290164Y-98395200D01*
X140181600Y-101090759D02*
X140181600Y-101398041D01*
X139421600Y-101090759D02*
X139421600Y-101398041D01*
X136244359Y-99391200D02*
X136551641Y-99391200D01*
X136244359Y-100151200D02*
X136551641Y-100151200D01*
X140161600Y-99206164D02*
X140161600Y-99421836D01*
X139441600Y-99206164D02*
X139441600Y-99421836D01*
X136505836Y-101147200D02*
X136290164Y-101147200D01*
X136505836Y-100427200D02*
X136290164Y-100427200D01*
X163692000Y-102887000D02*
X165492000Y-102887000D01*
X165492000Y-102887000D02*
X165492000Y-101837000D01*
X165492000Y-101837000D02*
X163692000Y-101837000D01*
X163692000Y-101837000D02*
X163692000Y-102887000D01*
X133410400Y-108570000D02*
X133410400Y-107330000D01*
X135900400Y-106080000D02*
X134660400Y-106080000D01*
X135900400Y-109820000D02*
X134660400Y-109820000D01*
X137150400Y-108570000D02*
X137150400Y-107330000D01*
X151870000Y-91780000D02*
X151870000Y-93020000D01*
X149380000Y-90530000D02*
X150620000Y-90530000D01*
X149380000Y-94270000D02*
X150620000Y-94270000D01*
X148130000Y-91780000D02*
X148130000Y-93020000D01*
%LPC*%
D13*
X138033066Y-115763266D02*
X138033066Y-116329933D01*
X138033066Y-116329933D02*
X137999733Y-116396600D01*
X137999733Y-116396600D02*
X137966400Y-116429933D01*
X137966400Y-116429933D02*
X137899733Y-116463266D01*
X137899733Y-116463266D02*
X137799733Y-116463266D01*
X137799733Y-116463266D02*
X137733066Y-116429933D01*
X138033066Y-116196600D02*
X137966400Y-116229933D01*
X137966400Y-116229933D02*
X137833066Y-116229933D01*
X137833066Y-116229933D02*
X137766400Y-116196600D01*
X137766400Y-116196600D02*
X137733066Y-116163266D01*
X137733066Y-116163266D02*
X137699733Y-116096600D01*
X137699733Y-116096600D02*
X137699733Y-115896600D01*
X137699733Y-115896600D02*
X137733066Y-115829933D01*
X137733066Y-115829933D02*
X137766400Y-115796600D01*
X137766400Y-115796600D02*
X137833066Y-115763266D01*
X137833066Y-115763266D02*
X137966400Y-115763266D01*
X137966400Y-115763266D02*
X138033066Y-115796600D01*
X138366399Y-116229933D02*
X138366399Y-115763266D01*
X138366399Y-115529933D02*
X138333066Y-115563266D01*
X138333066Y-115563266D02*
X138366399Y-115596600D01*
X138366399Y-115596600D02*
X138399733Y-115563266D01*
X138399733Y-115563266D02*
X138366399Y-115529933D01*
X138366399Y-115529933D02*
X138366399Y-115596600D01*
X138599732Y-115763266D02*
X138866399Y-115763266D01*
X138699732Y-115529933D02*
X138699732Y-116129933D01*
X138699732Y-116129933D02*
X138733066Y-116196600D01*
X138733066Y-116196600D02*
X138799732Y-116229933D01*
X138799732Y-116229933D02*
X138866399Y-116229933D01*
X139099732Y-116229933D02*
X139099732Y-115529933D01*
X139399732Y-116229933D02*
X139399732Y-115863266D01*
X139399732Y-115863266D02*
X139366399Y-115796600D01*
X139366399Y-115796600D02*
X139299732Y-115763266D01*
X139299732Y-115763266D02*
X139199732Y-115763266D01*
X139199732Y-115763266D02*
X139133066Y-115796600D01*
X139133066Y-115796600D02*
X139099732Y-115829933D01*
X140033065Y-115763266D02*
X140033065Y-116229933D01*
X139733065Y-115763266D02*
X139733065Y-116129933D01*
X139733065Y-116129933D02*
X139766399Y-116196600D01*
X139766399Y-116196600D02*
X139833065Y-116229933D01*
X139833065Y-116229933D02*
X139933065Y-116229933D01*
X139933065Y-116229933D02*
X139999732Y-116196600D01*
X139999732Y-116196600D02*
X140033065Y-116163266D01*
X140366398Y-116229933D02*
X140366398Y-115529933D01*
X140366398Y-115796600D02*
X140433065Y-115763266D01*
X140433065Y-115763266D02*
X140566398Y-115763266D01*
X140566398Y-115763266D02*
X140633065Y-115796600D01*
X140633065Y-115796600D02*
X140666398Y-115829933D01*
X140666398Y-115829933D02*
X140699732Y-115896600D01*
X140699732Y-115896600D02*
X140699732Y-116096600D01*
X140699732Y-116096600D02*
X140666398Y-116163266D01*
X140666398Y-116163266D02*
X140633065Y-116196600D01*
X140633065Y-116196600D02*
X140566398Y-116229933D01*
X140566398Y-116229933D02*
X140433065Y-116229933D01*
X140433065Y-116229933D02*
X140366398Y-116196600D01*
X140999731Y-116163266D02*
X141033065Y-116196600D01*
X141033065Y-116196600D02*
X140999731Y-116229933D01*
X140999731Y-116229933D02*
X140966398Y-116196600D01*
X140966398Y-116196600D02*
X140999731Y-116163266D01*
X140999731Y-116163266D02*
X140999731Y-116229933D01*
X141633064Y-116196600D02*
X141566398Y-116229933D01*
X141566398Y-116229933D02*
X141433064Y-116229933D01*
X141433064Y-116229933D02*
X141366398Y-116196600D01*
X141366398Y-116196600D02*
X141333064Y-116163266D01*
X141333064Y-116163266D02*
X141299731Y-116096600D01*
X141299731Y-116096600D02*
X141299731Y-115896600D01*
X141299731Y-115896600D02*
X141333064Y-115829933D01*
X141333064Y-115829933D02*
X141366398Y-115796600D01*
X141366398Y-115796600D02*
X141433064Y-115763266D01*
X141433064Y-115763266D02*
X141566398Y-115763266D01*
X141566398Y-115763266D02*
X141633064Y-115796600D01*
X142033064Y-116229933D02*
X141966398Y-116196600D01*
X141966398Y-116196600D02*
X141933064Y-116163266D01*
X141933064Y-116163266D02*
X141899731Y-116096600D01*
X141899731Y-116096600D02*
X141899731Y-115896600D01*
X141899731Y-115896600D02*
X141933064Y-115829933D01*
X141933064Y-115829933D02*
X141966398Y-115796600D01*
X141966398Y-115796600D02*
X142033064Y-115763266D01*
X142033064Y-115763266D02*
X142133064Y-115763266D01*
X142133064Y-115763266D02*
X142199731Y-115796600D01*
X142199731Y-115796600D02*
X142233064Y-115829933D01*
X142233064Y-115829933D02*
X142266398Y-115896600D01*
X142266398Y-115896600D02*
X142266398Y-116096600D01*
X142266398Y-116096600D02*
X142233064Y-116163266D01*
X142233064Y-116163266D02*
X142199731Y-116196600D01*
X142199731Y-116196600D02*
X142133064Y-116229933D01*
X142133064Y-116229933D02*
X142033064Y-116229933D01*
X142566397Y-116229933D02*
X142566397Y-115763266D01*
X142566397Y-115829933D02*
X142599731Y-115796600D01*
X142599731Y-115796600D02*
X142666397Y-115763266D01*
X142666397Y-115763266D02*
X142766397Y-115763266D01*
X142766397Y-115763266D02*
X142833064Y-115796600D01*
X142833064Y-115796600D02*
X142866397Y-115863266D01*
X142866397Y-115863266D02*
X142866397Y-116229933D01*
X142866397Y-115863266D02*
X142899731Y-115796600D01*
X142899731Y-115796600D02*
X142966397Y-115763266D01*
X142966397Y-115763266D02*
X143066397Y-115763266D01*
X143066397Y-115763266D02*
X143133064Y-115796600D01*
X143133064Y-115796600D02*
X143166397Y-115863266D01*
X143166397Y-115863266D02*
X143166397Y-116229933D01*
X143999730Y-115496600D02*
X143399730Y-116396600D01*
X144166397Y-115529933D02*
X144333063Y-116229933D01*
X144333063Y-116229933D02*
X144466397Y-115729933D01*
X144466397Y-115729933D02*
X144599730Y-116229933D01*
X144599730Y-116229933D02*
X144766397Y-115529933D01*
X145033063Y-116229933D02*
X145033063Y-115763266D01*
X145033063Y-115529933D02*
X144999730Y-115563266D01*
X144999730Y-115563266D02*
X145033063Y-115596600D01*
X145033063Y-115596600D02*
X145066397Y-115563266D01*
X145066397Y-115563266D02*
X145033063Y-115529933D01*
X145033063Y-115529933D02*
X145033063Y-115596600D01*
X145266396Y-115763266D02*
X145533063Y-115763266D01*
X145366396Y-115529933D02*
X145366396Y-116129933D01*
X145366396Y-116129933D02*
X145399730Y-116196600D01*
X145399730Y-116196600D02*
X145466396Y-116229933D01*
X145466396Y-116229933D02*
X145533063Y-116229933D01*
X145733063Y-116196600D02*
X145799730Y-116229933D01*
X145799730Y-116229933D02*
X145933063Y-116229933D01*
X145933063Y-116229933D02*
X145999730Y-116196600D01*
X145999730Y-116196600D02*
X146033063Y-116129933D01*
X146033063Y-116129933D02*
X146033063Y-116096600D01*
X146033063Y-116096600D02*
X145999730Y-116029933D01*
X145999730Y-116029933D02*
X145933063Y-115996600D01*
X145933063Y-115996600D02*
X145833063Y-115996600D01*
X145833063Y-115996600D02*
X145766396Y-115963266D01*
X145766396Y-115963266D02*
X145733063Y-115896600D01*
X145733063Y-115896600D02*
X145733063Y-115863266D01*
X145733063Y-115863266D02*
X145766396Y-115796600D01*
X145766396Y-115796600D02*
X145833063Y-115763266D01*
X145833063Y-115763266D02*
X145933063Y-115763266D01*
X145933063Y-115763266D02*
X145999730Y-115796600D01*
X146466397Y-115529933D02*
X146599730Y-115529933D01*
X146599730Y-115529933D02*
X146666397Y-115563266D01*
X146666397Y-115563266D02*
X146733063Y-115629933D01*
X146733063Y-115629933D02*
X146766397Y-115763266D01*
X146766397Y-115763266D02*
X146766397Y-115996600D01*
X146766397Y-115996600D02*
X146733063Y-116129933D01*
X146733063Y-116129933D02*
X146666397Y-116196600D01*
X146666397Y-116196600D02*
X146599730Y-116229933D01*
X146599730Y-116229933D02*
X146466397Y-116229933D01*
X146466397Y-116229933D02*
X146399730Y-116196600D01*
X146399730Y-116196600D02*
X146333063Y-116129933D01*
X146333063Y-116129933D02*
X146299730Y-115996600D01*
X146299730Y-115996600D02*
X146299730Y-115763266D01*
X146299730Y-115763266D02*
X146333063Y-115629933D01*
X146333063Y-115629933D02*
X146399730Y-115563266D01*
X146399730Y-115563266D02*
X146466397Y-115529933D01*
X147466396Y-116163266D02*
X147433063Y-116196600D01*
X147433063Y-116196600D02*
X147333063Y-116229933D01*
X147333063Y-116229933D02*
X147266396Y-116229933D01*
X147266396Y-116229933D02*
X147166396Y-116196600D01*
X147166396Y-116196600D02*
X147099730Y-116129933D01*
X147099730Y-116129933D02*
X147066396Y-116063266D01*
X147066396Y-116063266D02*
X147033063Y-115929933D01*
X147033063Y-115929933D02*
X147033063Y-115829933D01*
X147033063Y-115829933D02*
X147066396Y-115696600D01*
X147066396Y-115696600D02*
X147099730Y-115629933D01*
X147099730Y-115629933D02*
X147166396Y-115563266D01*
X147166396Y-115563266D02*
X147266396Y-115529933D01*
X147266396Y-115529933D02*
X147333063Y-115529933D01*
X147333063Y-115529933D02*
X147433063Y-115563266D01*
X147433063Y-115563266D02*
X147466396Y-115596600D01*
X148099730Y-116229933D02*
X147766396Y-116229933D01*
X147766396Y-116229933D02*
X147766396Y-115529933D01*
X148633063Y-116229933D02*
X148633063Y-115863266D01*
X148633063Y-115863266D02*
X148599730Y-115796600D01*
X148599730Y-115796600D02*
X148533063Y-115763266D01*
X148533063Y-115763266D02*
X148399730Y-115763266D01*
X148399730Y-115763266D02*
X148333063Y-115796600D01*
X148633063Y-116196600D02*
X148566397Y-116229933D01*
X148566397Y-116229933D02*
X148399730Y-116229933D01*
X148399730Y-116229933D02*
X148333063Y-116196600D01*
X148333063Y-116196600D02*
X148299730Y-116129933D01*
X148299730Y-116129933D02*
X148299730Y-116063266D01*
X148299730Y-116063266D02*
X148333063Y-115996600D01*
X148333063Y-115996600D02*
X148399730Y-115963266D01*
X148399730Y-115963266D02*
X148566397Y-115963266D01*
X148566397Y-115963266D02*
X148633063Y-115929933D01*
X148966396Y-116229933D02*
X148966396Y-115529933D01*
X148966396Y-115796600D02*
X149033063Y-115763266D01*
X149033063Y-115763266D02*
X149166396Y-115763266D01*
X149166396Y-115763266D02*
X149233063Y-115796600D01*
X149233063Y-115796600D02*
X149266396Y-115829933D01*
X149266396Y-115829933D02*
X149299730Y-115896600D01*
X149299730Y-115896600D02*
X149299730Y-116096600D01*
X149299730Y-116096600D02*
X149266396Y-116163266D01*
X149266396Y-116163266D02*
X149233063Y-116196600D01*
X149233063Y-116196600D02*
X149166396Y-116229933D01*
X149166396Y-116229933D02*
X149033063Y-116229933D01*
X149033063Y-116229933D02*
X148966396Y-116196600D01*
X150099729Y-115496600D02*
X149499729Y-116396600D01*
X150233062Y-115529933D02*
X150633062Y-115529933D01*
X150433062Y-116229933D02*
X150433062Y-115529933D01*
X150799729Y-115763266D02*
X150933062Y-116229933D01*
X150933062Y-116229933D02*
X151066395Y-115896600D01*
X151066395Y-115896600D02*
X151199729Y-116229933D01*
X151199729Y-116229933D02*
X151333062Y-115763266D01*
X151699728Y-116229933D02*
X151633062Y-116196600D01*
X151633062Y-116196600D02*
X151599728Y-116163266D01*
X151599728Y-116163266D02*
X151566395Y-116096600D01*
X151566395Y-116096600D02*
X151566395Y-115896600D01*
X151566395Y-115896600D02*
X151599728Y-115829933D01*
X151599728Y-115829933D02*
X151633062Y-115796600D01*
X151633062Y-115796600D02*
X151699728Y-115763266D01*
X151699728Y-115763266D02*
X151799728Y-115763266D01*
X151799728Y-115763266D02*
X151866395Y-115796600D01*
X151866395Y-115796600D02*
X151899728Y-115829933D01*
X151899728Y-115829933D02*
X151933062Y-115896600D01*
X151933062Y-115896600D02*
X151933062Y-116096600D01*
X151933062Y-116096600D02*
X151899728Y-116163266D01*
X151899728Y-116163266D02*
X151866395Y-116196600D01*
X151866395Y-116196600D02*
X151799728Y-116229933D01*
X151799728Y-116229933D02*
X151699728Y-116229933D01*
X152233061Y-115963266D02*
X152766395Y-115963266D01*
X153099728Y-116229933D02*
X153099728Y-115529933D01*
X153433061Y-115763266D02*
X153433061Y-116229933D01*
X153433061Y-115829933D02*
X153466395Y-115796600D01*
X153466395Y-115796600D02*
X153533061Y-115763266D01*
X153533061Y-115763266D02*
X153633061Y-115763266D01*
X153633061Y-115763266D02*
X153699728Y-115796600D01*
X153699728Y-115796600D02*
X153733061Y-115863266D01*
X153733061Y-115863266D02*
X153733061Y-116229933D01*
X154366394Y-116196600D02*
X154299728Y-116229933D01*
X154299728Y-116229933D02*
X154166394Y-116229933D01*
X154166394Y-116229933D02*
X154099728Y-116196600D01*
X154099728Y-116196600D02*
X154066394Y-116163266D01*
X154066394Y-116163266D02*
X154033061Y-116096600D01*
X154033061Y-116096600D02*
X154033061Y-115896600D01*
X154033061Y-115896600D02*
X154066394Y-115829933D01*
X154066394Y-115829933D02*
X154099728Y-115796600D01*
X154099728Y-115796600D02*
X154166394Y-115763266D01*
X154166394Y-115763266D02*
X154299728Y-115763266D01*
X154299728Y-115763266D02*
X154366394Y-115796600D01*
X154666394Y-116229933D02*
X154666394Y-115529933D01*
X154966394Y-116229933D02*
X154966394Y-115863266D01*
X154966394Y-115863266D02*
X154933061Y-115796600D01*
X154933061Y-115796600D02*
X154866394Y-115763266D01*
X154866394Y-115763266D02*
X154766394Y-115763266D01*
X154766394Y-115763266D02*
X154699728Y-115796600D01*
X154699728Y-115796600D02*
X154666394Y-115829933D01*
X155299727Y-115963266D02*
X155833061Y-115963266D01*
X156166394Y-116229933D02*
X156166394Y-115529933D01*
X156166394Y-115529933D02*
X156433061Y-115529933D01*
X156433061Y-115529933D02*
X156499728Y-115563266D01*
X156499728Y-115563266D02*
X156533061Y-115596600D01*
X156533061Y-115596600D02*
X156566394Y-115663266D01*
X156566394Y-115663266D02*
X156566394Y-115763266D01*
X156566394Y-115763266D02*
X156533061Y-115829933D01*
X156533061Y-115829933D02*
X156499728Y-115863266D01*
X156499728Y-115863266D02*
X156433061Y-115896600D01*
X156433061Y-115896600D02*
X156166394Y-115896600D01*
X156866394Y-116229933D02*
X156866394Y-115529933D01*
X157166394Y-116229933D02*
X157166394Y-115863266D01*
X157166394Y-115863266D02*
X157133061Y-115796600D01*
X157133061Y-115796600D02*
X157066394Y-115763266D01*
X157066394Y-115763266D02*
X156966394Y-115763266D01*
X156966394Y-115763266D02*
X156899728Y-115796600D01*
X156899728Y-115796600D02*
X156866394Y-115829933D01*
X157599727Y-116229933D02*
X157533061Y-116196600D01*
X157533061Y-116196600D02*
X157499727Y-116163266D01*
X157499727Y-116163266D02*
X157466394Y-116096600D01*
X157466394Y-116096600D02*
X157466394Y-115896600D01*
X157466394Y-115896600D02*
X157499727Y-115829933D01*
X157499727Y-115829933D02*
X157533061Y-115796600D01*
X157533061Y-115796600D02*
X157599727Y-115763266D01*
X157599727Y-115763266D02*
X157699727Y-115763266D01*
X157699727Y-115763266D02*
X157766394Y-115796600D01*
X157766394Y-115796600D02*
X157799727Y-115829933D01*
X157799727Y-115829933D02*
X157833061Y-115896600D01*
X157833061Y-115896600D02*
X157833061Y-116096600D01*
X157833061Y-116096600D02*
X157799727Y-116163266D01*
X157799727Y-116163266D02*
X157766394Y-116196600D01*
X157766394Y-116196600D02*
X157699727Y-116229933D01*
X157699727Y-116229933D02*
X157599727Y-116229933D01*
X158033060Y-115763266D02*
X158299727Y-115763266D01*
X158133060Y-115529933D02*
X158133060Y-116129933D01*
X158133060Y-116129933D02*
X158166394Y-116196600D01*
X158166394Y-116196600D02*
X158233060Y-116229933D01*
X158233060Y-116229933D02*
X158299727Y-116229933D01*
X158633060Y-116229933D02*
X158566394Y-116196600D01*
X158566394Y-116196600D02*
X158533060Y-116163266D01*
X158533060Y-116163266D02*
X158499727Y-116096600D01*
X158499727Y-116096600D02*
X158499727Y-115896600D01*
X158499727Y-115896600D02*
X158533060Y-115829933D01*
X158533060Y-115829933D02*
X158566394Y-115796600D01*
X158566394Y-115796600D02*
X158633060Y-115763266D01*
X158633060Y-115763266D02*
X158733060Y-115763266D01*
X158733060Y-115763266D02*
X158799727Y-115796600D01*
X158799727Y-115796600D02*
X158833060Y-115829933D01*
X158833060Y-115829933D02*
X158866394Y-115896600D01*
X158866394Y-115896600D02*
X158866394Y-116096600D01*
X158866394Y-116096600D02*
X158833060Y-116163266D01*
X158833060Y-116163266D02*
X158799727Y-116196600D01*
X158799727Y-116196600D02*
X158733060Y-116229933D01*
X158733060Y-116229933D02*
X158633060Y-116229933D01*
X159466393Y-116229933D02*
X159466393Y-115529933D01*
X159466393Y-116196600D02*
X159399727Y-116229933D01*
X159399727Y-116229933D02*
X159266393Y-116229933D01*
X159266393Y-116229933D02*
X159199727Y-116196600D01*
X159199727Y-116196600D02*
X159166393Y-116163266D01*
X159166393Y-116163266D02*
X159133060Y-116096600D01*
X159133060Y-116096600D02*
X159133060Y-115896600D01*
X159133060Y-115896600D02*
X159166393Y-115829933D01*
X159166393Y-115829933D02*
X159199727Y-115796600D01*
X159199727Y-115796600D02*
X159266393Y-115763266D01*
X159266393Y-115763266D02*
X159399727Y-115763266D01*
X159399727Y-115763266D02*
X159466393Y-115796600D01*
X160066393Y-116196600D02*
X159999726Y-116229933D01*
X159999726Y-116229933D02*
X159866393Y-116229933D01*
X159866393Y-116229933D02*
X159799726Y-116196600D01*
X159799726Y-116196600D02*
X159766393Y-116129933D01*
X159766393Y-116129933D02*
X159766393Y-115863266D01*
X159766393Y-115863266D02*
X159799726Y-115796600D01*
X159799726Y-115796600D02*
X159866393Y-115763266D01*
X159866393Y-115763266D02*
X159999726Y-115763266D01*
X159999726Y-115763266D02*
X160066393Y-115796600D01*
X160066393Y-115796600D02*
X160099726Y-115863266D01*
X160099726Y-115863266D02*
X160099726Y-115929933D01*
X160099726Y-115929933D02*
X159766393Y-115996600D01*
X160299726Y-115763266D02*
X160566393Y-115763266D01*
X160399726Y-115529933D02*
X160399726Y-116129933D01*
X160399726Y-116129933D02*
X160433060Y-116196600D01*
X160433060Y-116196600D02*
X160499726Y-116229933D01*
X160499726Y-116229933D02*
X160566393Y-116229933D01*
X161066393Y-116196600D02*
X160999726Y-116229933D01*
X160999726Y-116229933D02*
X160866393Y-116229933D01*
X160866393Y-116229933D02*
X160799726Y-116196600D01*
X160799726Y-116196600D02*
X160766393Y-116129933D01*
X160766393Y-116129933D02*
X160766393Y-115863266D01*
X160766393Y-115863266D02*
X160799726Y-115796600D01*
X160799726Y-115796600D02*
X160866393Y-115763266D01*
X160866393Y-115763266D02*
X160999726Y-115763266D01*
X160999726Y-115763266D02*
X161066393Y-115796600D01*
X161066393Y-115796600D02*
X161099726Y-115863266D01*
X161099726Y-115863266D02*
X161099726Y-115929933D01*
X161099726Y-115929933D02*
X160766393Y-115996600D01*
X161699726Y-116196600D02*
X161633060Y-116229933D01*
X161633060Y-116229933D02*
X161499726Y-116229933D01*
X161499726Y-116229933D02*
X161433060Y-116196600D01*
X161433060Y-116196600D02*
X161399726Y-116163266D01*
X161399726Y-116163266D02*
X161366393Y-116096600D01*
X161366393Y-116096600D02*
X161366393Y-115896600D01*
X161366393Y-115896600D02*
X161399726Y-115829933D01*
X161399726Y-115829933D02*
X161433060Y-115796600D01*
X161433060Y-115796600D02*
X161499726Y-115763266D01*
X161499726Y-115763266D02*
X161633060Y-115763266D01*
X161633060Y-115763266D02*
X161699726Y-115796600D01*
X161899726Y-115763266D02*
X162166393Y-115763266D01*
X161999726Y-115529933D02*
X161999726Y-116129933D01*
X161999726Y-116129933D02*
X162033060Y-116196600D01*
X162033060Y-116196600D02*
X162099726Y-116229933D01*
X162099726Y-116229933D02*
X162166393Y-116229933D01*
X162499726Y-116229933D02*
X162433060Y-116196600D01*
X162433060Y-116196600D02*
X162399726Y-116163266D01*
X162399726Y-116163266D02*
X162366393Y-116096600D01*
X162366393Y-116096600D02*
X162366393Y-115896600D01*
X162366393Y-115896600D02*
X162399726Y-115829933D01*
X162399726Y-115829933D02*
X162433060Y-115796600D01*
X162433060Y-115796600D02*
X162499726Y-115763266D01*
X162499726Y-115763266D02*
X162599726Y-115763266D01*
X162599726Y-115763266D02*
X162666393Y-115796600D01*
X162666393Y-115796600D02*
X162699726Y-115829933D01*
X162699726Y-115829933D02*
X162733060Y-115896600D01*
X162733060Y-115896600D02*
X162733060Y-116096600D01*
X162733060Y-116096600D02*
X162699726Y-116163266D01*
X162699726Y-116163266D02*
X162666393Y-116196600D01*
X162666393Y-116196600D02*
X162599726Y-116229933D01*
X162599726Y-116229933D02*
X162499726Y-116229933D01*
X163033059Y-116229933D02*
X163033059Y-115763266D01*
X163033059Y-115896600D02*
X163066393Y-115829933D01*
X163066393Y-115829933D02*
X163099726Y-115796600D01*
X163099726Y-115796600D02*
X163166393Y-115763266D01*
X163166393Y-115763266D02*
X163233059Y-115763266D01*
X137733066Y-117363933D02*
X137733066Y-116663933D01*
X137733066Y-116663933D02*
X137966400Y-117163933D01*
X137966400Y-117163933D02*
X138199733Y-116663933D01*
X138199733Y-116663933D02*
X138199733Y-117363933D01*
X138533066Y-117363933D02*
X138533066Y-116897266D01*
X138533066Y-116663933D02*
X138499733Y-116697266D01*
X138499733Y-116697266D02*
X138533066Y-116730600D01*
X138533066Y-116730600D02*
X138566400Y-116697266D01*
X138566400Y-116697266D02*
X138533066Y-116663933D01*
X138533066Y-116663933D02*
X138533066Y-116730600D01*
X138766399Y-116897266D02*
X139033066Y-116897266D01*
X138866399Y-116663933D02*
X138866399Y-117263933D01*
X138866399Y-117263933D02*
X138899733Y-117330600D01*
X138899733Y-117330600D02*
X138966399Y-117363933D01*
X138966399Y-117363933D02*
X139033066Y-117363933D01*
X139566399Y-117330600D02*
X139499733Y-117363933D01*
X139499733Y-117363933D02*
X139366399Y-117363933D01*
X139366399Y-117363933D02*
X139299733Y-117330600D01*
X139299733Y-117330600D02*
X139266399Y-117297266D01*
X139266399Y-117297266D02*
X139233066Y-117230600D01*
X139233066Y-117230600D02*
X139233066Y-117030600D01*
X139233066Y-117030600D02*
X139266399Y-116963933D01*
X139266399Y-116963933D02*
X139299733Y-116930600D01*
X139299733Y-116930600D02*
X139366399Y-116897266D01*
X139366399Y-116897266D02*
X139499733Y-116897266D01*
X139499733Y-116897266D02*
X139566399Y-116930600D01*
X139866399Y-117363933D02*
X139866399Y-116663933D01*
X140166399Y-117363933D02*
X140166399Y-116997266D01*
X140166399Y-116997266D02*
X140133066Y-116930600D01*
X140133066Y-116930600D02*
X140066399Y-116897266D01*
X140066399Y-116897266D02*
X139966399Y-116897266D01*
X139966399Y-116897266D02*
X139899733Y-116930600D01*
X139899733Y-116930600D02*
X139866399Y-116963933D01*
X140766399Y-117330600D02*
X140699732Y-117363933D01*
X140699732Y-117363933D02*
X140566399Y-117363933D01*
X140566399Y-117363933D02*
X140499732Y-117330600D01*
X140499732Y-117330600D02*
X140466399Y-117263933D01*
X140466399Y-117263933D02*
X140466399Y-116997266D01*
X140466399Y-116997266D02*
X140499732Y-116930600D01*
X140499732Y-116930600D02*
X140566399Y-116897266D01*
X140566399Y-116897266D02*
X140699732Y-116897266D01*
X140699732Y-116897266D02*
X140766399Y-116930600D01*
X140766399Y-116930600D02*
X140799732Y-116997266D01*
X140799732Y-116997266D02*
X140799732Y-117063933D01*
X140799732Y-117063933D02*
X140466399Y-117130600D01*
X141199732Y-117363933D02*
X141133066Y-117330600D01*
X141133066Y-117330600D02*
X141099732Y-117263933D01*
X141099732Y-117263933D02*
X141099732Y-116663933D01*
X141566399Y-117363933D02*
X141499733Y-117330600D01*
X141499733Y-117330600D02*
X141466399Y-117263933D01*
X141466399Y-117263933D02*
X141466399Y-116663933D01*
X142333066Y-117163933D02*
X142666399Y-117163933D01*
X142266399Y-117363933D02*
X142499733Y-116663933D01*
X142499733Y-116663933D02*
X142733066Y-117363933D01*
X142966399Y-117297266D02*
X142999733Y-117330600D01*
X142999733Y-117330600D02*
X142966399Y-117363933D01*
X142966399Y-117363933D02*
X142933066Y-117330600D01*
X142933066Y-117330600D02*
X142966399Y-117297266D01*
X142966399Y-117297266D02*
X142966399Y-117363933D01*
X144233065Y-117297266D02*
X144199732Y-117330600D01*
X144199732Y-117330600D02*
X144099732Y-117363933D01*
X144099732Y-117363933D02*
X144033065Y-117363933D01*
X144033065Y-117363933D02*
X143933065Y-117330600D01*
X143933065Y-117330600D02*
X143866399Y-117263933D01*
X143866399Y-117263933D02*
X143833065Y-117197266D01*
X143833065Y-117197266D02*
X143799732Y-117063933D01*
X143799732Y-117063933D02*
X143799732Y-116963933D01*
X143799732Y-116963933D02*
X143833065Y-116830600D01*
X143833065Y-116830600D02*
X143866399Y-116763933D01*
X143866399Y-116763933D02*
X143933065Y-116697266D01*
X143933065Y-116697266D02*
X144033065Y-116663933D01*
X144033065Y-116663933D02*
X144099732Y-116663933D01*
X144099732Y-116663933D02*
X144199732Y-116697266D01*
X144199732Y-116697266D02*
X144233065Y-116730600D01*
X144633065Y-117363933D02*
X144566399Y-117330600D01*
X144566399Y-117330600D02*
X144533065Y-117297266D01*
X144533065Y-117297266D02*
X144499732Y-117230600D01*
X144499732Y-117230600D02*
X144499732Y-117030600D01*
X144499732Y-117030600D02*
X144533065Y-116963933D01*
X144533065Y-116963933D02*
X144566399Y-116930600D01*
X144566399Y-116930600D02*
X144633065Y-116897266D01*
X144633065Y-116897266D02*
X144733065Y-116897266D01*
X144733065Y-116897266D02*
X144799732Y-116930600D01*
X144799732Y-116930600D02*
X144833065Y-116963933D01*
X144833065Y-116963933D02*
X144866399Y-117030600D01*
X144866399Y-117030600D02*
X144866399Y-117230600D01*
X144866399Y-117230600D02*
X144833065Y-117297266D01*
X144833065Y-117297266D02*
X144799732Y-117330600D01*
X144799732Y-117330600D02*
X144733065Y-117363933D01*
X144733065Y-117363933D02*
X144633065Y-117363933D01*
X145099732Y-117363933D02*
X145466398Y-116897266D01*
X145099732Y-116897266D02*
X145466398Y-117363933D01*
X146233065Y-116730600D02*
X146266398Y-116697266D01*
X146266398Y-116697266D02*
X146333065Y-116663933D01*
X146333065Y-116663933D02*
X146499732Y-116663933D01*
X146499732Y-116663933D02*
X146566398Y-116697266D01*
X146566398Y-116697266D02*
X146599732Y-116730600D01*
X146599732Y-116730600D02*
X146633065Y-116797266D01*
X146633065Y-116797266D02*
X146633065Y-116863933D01*
X146633065Y-116863933D02*
X146599732Y-116963933D01*
X146599732Y-116963933D02*
X146199732Y-117363933D01*
X146199732Y-117363933D02*
X146633065Y-117363933D01*
X147066399Y-116663933D02*
X147133065Y-116663933D01*
X147133065Y-116663933D02*
X147199732Y-116697266D01*
X147199732Y-116697266D02*
X147233065Y-116730600D01*
X147233065Y-116730600D02*
X147266399Y-116797266D01*
X147266399Y-116797266D02*
X147299732Y-116930600D01*
X147299732Y-116930600D02*
X147299732Y-117097266D01*
X147299732Y-117097266D02*
X147266399Y-117230600D01*
X147266399Y-117230600D02*
X147233065Y-117297266D01*
X147233065Y-117297266D02*
X147199732Y-117330600D01*
X147199732Y-117330600D02*
X147133065Y-117363933D01*
X147133065Y-117363933D02*
X147066399Y-117363933D01*
X147066399Y-117363933D02*
X146999732Y-117330600D01*
X146999732Y-117330600D02*
X146966399Y-117297266D01*
X146966399Y-117297266D02*
X146933065Y-117230600D01*
X146933065Y-117230600D02*
X146899732Y-117097266D01*
X146899732Y-117097266D02*
X146899732Y-116930600D01*
X146899732Y-116930600D02*
X146933065Y-116797266D01*
X146933065Y-116797266D02*
X146966399Y-116730600D01*
X146966399Y-116730600D02*
X146999732Y-116697266D01*
X146999732Y-116697266D02*
X147066399Y-116663933D01*
X147566399Y-116730600D02*
X147599732Y-116697266D01*
X147599732Y-116697266D02*
X147666399Y-116663933D01*
X147666399Y-116663933D02*
X147833066Y-116663933D01*
X147833066Y-116663933D02*
X147899732Y-116697266D01*
X147899732Y-116697266D02*
X147933066Y-116730600D01*
X147933066Y-116730600D02*
X147966399Y-116797266D01*
X147966399Y-116797266D02*
X147966399Y-116863933D01*
X147966399Y-116863933D02*
X147933066Y-116963933D01*
X147933066Y-116963933D02*
X147533066Y-117363933D01*
X147533066Y-117363933D02*
X147966399Y-117363933D01*
X148199733Y-116663933D02*
X148633066Y-116663933D01*
X148633066Y-116663933D02*
X148399733Y-116930600D01*
X148399733Y-116930600D02*
X148499733Y-116930600D01*
X148499733Y-116930600D02*
X148566399Y-116963933D01*
X148566399Y-116963933D02*
X148599733Y-116997266D01*
X148599733Y-116997266D02*
X148633066Y-117063933D01*
X148633066Y-117063933D02*
X148633066Y-117230600D01*
X148633066Y-117230600D02*
X148599733Y-117297266D01*
X148599733Y-117297266D02*
X148566399Y-117330600D01*
X148566399Y-117330600D02*
X148499733Y-117363933D01*
X148499733Y-117363933D02*
X148299733Y-117363933D01*
X148299733Y-117363933D02*
X148233066Y-117330600D01*
X148233066Y-117330600D02*
X148199733Y-117297266D01*
D15*
X174000000Y-100000000D02*
G75*
G03*
X174000000Y-100000000I-24000000J0D01*
G01*
D16*
X134010400Y-95044800D03*
X134010400Y-96064800D03*
D17*
X134010400Y-92745600D03*
X134010400Y-93385600D03*
D18*
X132679800Y-101883700D03*
X133329800Y-101883700D03*
X133979800Y-101883700D03*
X134629800Y-101883700D03*
X134629800Y-97658700D03*
X133979800Y-97658700D03*
X133329800Y-97658700D03*
X132679800Y-97658700D03*
D19*
X145403777Y-93596223D03*
X144682529Y-94317471D03*
D20*
X133350000Y-104751600D03*
X133350000Y-103731600D03*
D21*
X132689600Y-95074800D03*
X132689600Y-96034800D03*
D22*
X148750000Y-100000000D03*
X150020000Y-101270000D03*
X151290000Y-100000000D03*
D23*
X151900000Y-108000000D03*
X151900000Y-107500000D03*
X151900000Y-107000000D03*
X151900000Y-106500000D03*
X151900000Y-106000000D03*
X147600000Y-106000000D03*
X147600000Y-106500000D03*
X147600000Y-107000000D03*
X147600000Y-107500000D03*
X147600000Y-108000000D03*
D24*
X149750000Y-107000000D03*
D25*
X153330672Y-96371231D03*
X153790291Y-96830850D03*
X154249911Y-97290470D03*
X154709530Y-97750089D03*
X155169150Y-98209709D03*
X155628769Y-98669328D03*
X158669328Y-95628769D03*
X158209709Y-95169150D03*
X157750089Y-94709530D03*
X157290470Y-94249911D03*
X156830850Y-93790291D03*
X156371231Y-93330672D03*
D26*
X156000000Y-96000000D03*
D27*
X152037500Y-109500000D03*
X150462500Y-109500000D03*
X147937500Y-95700000D03*
X146362500Y-95700000D03*
D28*
X144300000Y-106587500D03*
X144300000Y-105012500D03*
D29*
X147462500Y-109500000D03*
X149037500Y-109500000D03*
D27*
X142537500Y-104250000D03*
X140962500Y-104250000D03*
D30*
X153730659Y-101740008D03*
X154269341Y-100259992D03*
D29*
X158462500Y-99500000D03*
X160037500Y-99500000D03*
D31*
X154643153Y-93156847D03*
X155756847Y-92043153D03*
D32*
X157988000Y-101600000D03*
X155788000Y-101600000D03*
D33*
X151337500Y-95800000D03*
X149462500Y-95800000D03*
D28*
X145800000Y-106587500D03*
X145800000Y-105012500D03*
D34*
X153600000Y-94200000D03*
X152486306Y-95313694D03*
D35*
X145015000Y-102000000D03*
X145985000Y-102000000D03*
D29*
X158462500Y-98000000D03*
X160037500Y-98000000D03*
D35*
X145015000Y-103000000D03*
X145985000Y-103000000D03*
X145015000Y-101000000D03*
X145985000Y-101000000D03*
D36*
X143900000Y-102500000D03*
X143900000Y-102000000D03*
X143900000Y-101500000D03*
X143900000Y-101000000D03*
X141100000Y-101000000D03*
X141100000Y-101500000D03*
X141100000Y-102000000D03*
X141100000Y-102500000D03*
D37*
X142500000Y-101750000D03*
D38*
X144800000Y-97212500D03*
X144800000Y-98787500D03*
D39*
X142000000Y-94775000D03*
X142000000Y-93225000D03*
D40*
X143150000Y-95900000D03*
X142200000Y-95900000D03*
X141250000Y-95900000D03*
X141250000Y-98100000D03*
X143150000Y-98100000D03*
D41*
X141025000Y-99400000D03*
X142575000Y-99400000D03*
D27*
X151587500Y-104000000D03*
X150012500Y-104000000D03*
D32*
X153840000Y-106934000D03*
X156040000Y-106934000D03*
D42*
X139803600Y-97840800D03*
X138783600Y-97840800D03*
D43*
X137818400Y-99771200D03*
X138838400Y-99771200D03*
D44*
X166017000Y-97536000D03*
D45*
X164592000Y-98386000D03*
X164592000Y-96686000D03*
D44*
X163167000Y-97536000D03*
D46*
X136878000Y-98755200D03*
X135918000Y-98755200D03*
D16*
X139801600Y-100734400D03*
X139801600Y-101754400D03*
D43*
X135888000Y-99771200D03*
X136908000Y-99771200D03*
D21*
X139801600Y-98834000D03*
X139801600Y-99794000D03*
D46*
X136878000Y-100787200D03*
X135918000Y-100787200D03*
D47*
X163167000Y-102362000D03*
D48*
X164592000Y-101512000D03*
X164592000Y-103212000D03*
D47*
X166017000Y-102362000D03*
D49*
X135280400Y-107950000D03*
X134010400Y-106680000D03*
X134010400Y-109220000D03*
X136550400Y-106680000D03*
X136550400Y-109220000D03*
X150000000Y-92400000D03*
X151270000Y-91130000D03*
X151270000Y-93670000D03*
X148730000Y-91130000D03*
X148730000Y-93670000D03*
D50*
X153750000Y-91250000D03*
X145550000Y-108800000D03*
D51*
X168910000Y-102540000D03*
D52*
X168910000Y-100000000D03*
X168910000Y-97460000D03*
%LPD*%
M02*
