%TF.GenerationSoftware,KiCad,Pcbnew,7.0.2*%
%TF.CreationDate,2023-05-30T15:49:42+02:00*%
%TF.ProjectId,oip_opa818,6f69705f-6f70-4613-9831-382e6b696361,rev?*%
%TF.SameCoordinates,Original*%
%TF.FileFunction,Drillmap*%
%TF.FilePolarity,Positive*%
%FSLAX45Y45*%
G04 Gerber Fmt 4.5, Leading zero omitted, Abs format (unit mm)*
G04 Created by KiCad (PCBNEW 7.0.2) date 2023-05-30 15:49:42*
%MOMM*%
%LPD*%
G01*
G04 APERTURE LIST*
%ADD10C,0.050000*%
%ADD11C,0.200000*%
%ADD12C,0.040000*%
%ADD13C,0.084000*%
%ADD14C,0.100000*%
G04 APERTURE END LIST*
D10*
X17500000Y-10000000D02*
G75*
G03*
X17500000Y-10000000I-2500000J0D01*
G01*
D11*
D12*
X13152440Y-9596440D02*
X13192440Y-9636440D01*
X13192440Y-9596440D02*
X13152440Y-9636440D01*
X13248960Y-9372920D02*
X13288960Y-9412920D01*
X13288960Y-9372920D02*
X13248960Y-9412920D01*
X13381040Y-9403400D02*
X13421040Y-9443400D01*
X13421040Y-9403400D02*
X13381040Y-9443400D01*
X13442000Y-9987600D02*
X13482000Y-10027600D01*
X13482000Y-9987600D02*
X13442000Y-10027600D01*
X13777280Y-9764080D02*
X13817280Y-9804080D01*
X13817280Y-9764080D02*
X13777280Y-9804080D01*
X13812840Y-9875840D02*
X13852840Y-9915840D01*
X13852840Y-9875840D02*
X13812840Y-9915840D01*
X13823000Y-10058720D02*
X13863000Y-10098720D01*
X13863000Y-10058720D02*
X13823000Y-10098720D01*
X13833160Y-10170480D02*
X13873160Y-10210480D01*
X13873160Y-10170480D02*
X13833160Y-10210480D01*
X13853480Y-10282240D02*
X13893480Y-10322240D01*
X13893480Y-10282240D02*
X13853480Y-10322240D01*
X13886285Y-9624631D02*
X13926285Y-9664631D01*
X13926285Y-9624631D02*
X13886285Y-9664631D01*
X13894120Y-10388920D02*
X13934120Y-10428920D01*
X13934120Y-10388920D02*
X13894120Y-10428920D01*
X13929423Y-9512253D02*
X13969423Y-9552253D01*
X13969423Y-9512253D02*
X13929423Y-9552253D01*
X13939840Y-10500680D02*
X13979840Y-10540680D01*
X13979840Y-10500680D02*
X13939840Y-10540680D01*
X13984071Y-9405000D02*
X14024071Y-9445000D01*
X14024071Y-9405000D02*
X13984071Y-9445000D01*
X14049630Y-9304047D02*
X14089630Y-9344047D01*
X14089630Y-9304047D02*
X14049630Y-9344047D01*
X14049630Y-10655953D02*
X14089630Y-10695953D01*
X14089630Y-10655953D02*
X14049630Y-10695953D01*
X14080000Y-10005000D02*
X14120000Y-10045000D01*
X14120000Y-10005000D02*
X14080000Y-10045000D01*
X14105000Y-10505000D02*
X14145000Y-10545000D01*
X14145000Y-10505000D02*
X14105000Y-10545000D01*
X14125000Y-9210000D02*
X14165000Y-9250000D01*
X14165000Y-9210000D02*
X14125000Y-9250000D01*
X14125383Y-10749500D02*
X14165383Y-10789500D01*
X14165383Y-10749500D02*
X14125383Y-10789500D01*
X14200000Y-10080000D02*
X14240000Y-10120000D01*
X14240000Y-10080000D02*
X14200000Y-10120000D01*
X14200000Y-10160000D02*
X14240000Y-10200000D01*
X14240000Y-10160000D02*
X14200000Y-10200000D01*
X14200000Y-10240000D02*
X14240000Y-10280000D01*
X14240000Y-10240000D02*
X14200000Y-10280000D01*
X14210500Y-9125384D02*
X14250500Y-9165384D01*
X14250500Y-9125384D02*
X14210500Y-9165384D01*
X14210500Y-10834617D02*
X14250500Y-10874617D01*
X14250500Y-10834617D02*
X14210500Y-10874617D01*
X14260000Y-10080000D02*
X14300000Y-10120000D01*
X14300000Y-10080000D02*
X14260000Y-10120000D01*
X14260000Y-10160000D02*
X14300000Y-10200000D01*
X14300000Y-10160000D02*
X14260000Y-10200000D01*
X14260000Y-10240000D02*
X14300000Y-10280000D01*
X14300000Y-10240000D02*
X14260000Y-10280000D01*
X14280000Y-9360000D02*
X14320000Y-9400000D01*
X14320000Y-9360000D02*
X14280000Y-9400000D01*
X14304047Y-9049631D02*
X14344047Y-9089631D01*
X14344047Y-9049631D02*
X14304047Y-9089631D01*
X14304047Y-10910370D02*
X14344047Y-10950370D01*
X14344047Y-10910370D02*
X14304047Y-10950370D01*
X14330000Y-9890000D02*
X14370000Y-9930000D01*
X14370000Y-9890000D02*
X14330000Y-9930000D01*
X14380000Y-10360000D02*
X14420000Y-10400000D01*
X14420000Y-10360000D02*
X14380000Y-10400000D01*
X14405000Y-8984071D02*
X14445000Y-9024071D01*
X14445000Y-8984071D02*
X14405000Y-9024071D01*
X14405000Y-10975929D02*
X14445000Y-11015929D01*
X14445000Y-10975929D02*
X14405000Y-11015929D01*
X14460000Y-9560000D02*
X14500000Y-9600000D01*
X14500000Y-9560000D02*
X14460000Y-9600000D01*
X14512253Y-8929423D02*
X14552253Y-8969423D01*
X14552253Y-8929423D02*
X14512253Y-8969423D01*
X14512253Y-11030577D02*
X14552253Y-11070577D01*
X14552253Y-11030577D02*
X14512253Y-11070577D01*
X14590000Y-9685000D02*
X14630000Y-9725000D01*
X14630000Y-9685000D02*
X14590000Y-9725000D01*
X14600000Y-9120000D02*
X14640000Y-9160000D01*
X14640000Y-9120000D02*
X14600000Y-9160000D01*
X14624630Y-11073715D02*
X14664630Y-11113715D01*
X14664630Y-11073715D02*
X14624630Y-11113715D01*
X14625000Y-8885000D02*
X14665000Y-8925000D01*
X14665000Y-8885000D02*
X14625000Y-8925000D01*
X14640000Y-9880000D02*
X14680000Y-9920000D01*
X14680000Y-9880000D02*
X14640000Y-9920000D01*
X14660000Y-9400000D02*
X14700000Y-9440000D01*
X14700000Y-9400000D02*
X14660000Y-9440000D01*
X14680000Y-10480000D02*
X14720000Y-10520000D01*
X14720000Y-10480000D02*
X14680000Y-10520000D01*
X14740902Y-8855130D02*
X14780902Y-8895130D01*
X14780902Y-8855130D02*
X14740902Y-8895130D01*
X14740902Y-11104870D02*
X14780902Y-11144870D01*
X14780902Y-11104870D02*
X14740902Y-11144870D01*
X14800000Y-9740000D02*
X14840000Y-9780000D01*
X14840000Y-9740000D02*
X14800000Y-9780000D01*
X14859792Y-8836300D02*
X14899792Y-8876300D01*
X14899792Y-8836300D02*
X14859792Y-8876300D01*
X14859792Y-11123700D02*
X14899792Y-11163700D01*
X14899792Y-11123700D02*
X14859792Y-11163700D01*
X14955000Y-10680000D02*
X14995000Y-10720000D01*
X14995000Y-10680000D02*
X14955000Y-10720000D01*
X14980000Y-8830000D02*
X15020000Y-8870000D01*
X15020000Y-8830000D02*
X14980000Y-8870000D01*
X14980000Y-11130000D02*
X15020000Y-11170000D01*
X15020000Y-11130000D02*
X14980000Y-11170000D01*
X14982000Y-10243000D02*
X15022000Y-10283000D01*
X15022000Y-10243000D02*
X14982000Y-10283000D01*
X15100208Y-8836300D02*
X15140208Y-8876300D01*
X15140208Y-8836300D02*
X15100208Y-8876300D01*
X15100208Y-11123700D02*
X15140208Y-11163700D01*
X15140208Y-11123700D02*
X15100208Y-11163700D01*
X15125000Y-9730000D02*
X15165000Y-9770000D01*
X15165000Y-9730000D02*
X15125000Y-9770000D01*
X15219098Y-8855130D02*
X15259098Y-8895130D01*
X15259098Y-8855130D02*
X15219098Y-8895130D01*
X15219098Y-11104870D02*
X15259098Y-11144870D01*
X15259098Y-11104870D02*
X15219098Y-11144870D01*
X15320000Y-10260000D02*
X15360000Y-10300000D01*
X15360000Y-10260000D02*
X15320000Y-10300000D01*
X15335369Y-8886285D02*
X15375369Y-8926285D01*
X15375369Y-8886285D02*
X15335369Y-8926285D01*
X15335369Y-11073715D02*
X15375369Y-11113715D01*
X15375369Y-11073715D02*
X15335369Y-11113715D01*
X15360000Y-9215000D02*
X15400000Y-9255000D01*
X15400000Y-9215000D02*
X15360000Y-9255000D01*
X15447747Y-8929423D02*
X15487747Y-8969423D01*
X15487747Y-8929423D02*
X15447747Y-8969423D01*
X15447747Y-11030577D02*
X15487747Y-11070577D01*
X15487747Y-11030577D02*
X15447747Y-11070577D01*
X15555000Y-8984071D02*
X15595000Y-9024071D01*
X15595000Y-8984071D02*
X15555000Y-9024071D01*
X15555000Y-10975929D02*
X15595000Y-11015929D01*
X15595000Y-10975929D02*
X15555000Y-11015929D01*
X15655953Y-9049631D02*
X15695953Y-9089631D01*
X15695953Y-9049631D02*
X15655953Y-9089631D01*
X15655953Y-10910370D02*
X15695953Y-10950370D01*
X15695953Y-10910370D02*
X15655953Y-10950370D01*
X15680000Y-9855000D02*
X15720000Y-9895000D01*
X15720000Y-9855000D02*
X15680000Y-9895000D01*
X15680000Y-9960000D02*
X15720000Y-10000000D01*
X15720000Y-9960000D02*
X15680000Y-10000000D01*
X15749500Y-9125384D02*
X15789500Y-9165384D01*
X15789500Y-9125384D02*
X15749500Y-9165384D01*
X15749500Y-10834617D02*
X15789500Y-10874617D01*
X15789500Y-10834617D02*
X15749500Y-10874617D01*
X15834616Y-9210500D02*
X15874616Y-9250500D01*
X15874616Y-9210500D02*
X15834616Y-9250500D01*
X15834616Y-10749500D02*
X15874616Y-10789500D01*
X15874616Y-10749500D02*
X15834616Y-10789500D01*
X15910369Y-9304047D02*
X15950369Y-9344047D01*
X15950369Y-9304047D02*
X15910369Y-9344047D01*
X15915960Y-10658160D02*
X15955960Y-10698160D01*
X15955960Y-10658160D02*
X15915960Y-10698160D01*
X15975929Y-9405000D02*
X16015929Y-9445000D01*
X16015929Y-9405000D02*
X15975929Y-9445000D01*
X15975929Y-10555000D02*
X16015929Y-10595000D01*
X16015929Y-10555000D02*
X15975929Y-10595000D01*
X16030577Y-9512253D02*
X16070577Y-9552253D01*
X16070577Y-9512253D02*
X16030577Y-9552253D01*
X16030577Y-10447747D02*
X16070577Y-10487747D01*
X16070577Y-10447747D02*
X16030577Y-10487747D01*
X16073715Y-9624631D02*
X16113715Y-9664631D01*
X16113715Y-9624631D02*
X16073715Y-9664631D01*
X16088680Y-10343200D02*
X16128680Y-10383200D01*
X16128680Y-10343200D02*
X16088680Y-10383200D01*
X16104870Y-9740902D02*
X16144870Y-9780902D01*
X16144870Y-9740902D02*
X16104870Y-9780902D01*
X16119160Y-10155240D02*
X16159160Y-10195240D01*
X16159160Y-10155240D02*
X16119160Y-10195240D01*
X16123700Y-9859792D02*
X16163700Y-9899792D01*
X16163700Y-9859792D02*
X16123700Y-9899792D01*
X16130000Y-9980000D02*
X16170000Y-10020000D01*
X16170000Y-9980000D02*
X16130000Y-10020000D01*
X16479200Y-9753600D02*
G75*
G03*
X16479200Y-9753600I-20000J0D01*
G01*
X16479200Y-10236200D02*
G75*
G03*
X16479200Y-10236200I-20000J0D01*
G01*
D10*
X14555000Y-10855000D02*
X14555000Y-10905000D01*
X14530000Y-10880000D02*
X14580000Y-10880000D01*
X14875000Y-9975000D02*
X14875000Y-10025000D01*
X14850000Y-10000000D02*
X14900000Y-10000000D01*
X15002000Y-10102000D02*
X15002000Y-10152000D01*
X14977000Y-10127000D02*
X15027000Y-10127000D01*
X15129000Y-9975000D02*
X15129000Y-10025000D01*
X15104000Y-10000000D02*
X15154000Y-10000000D01*
X15375000Y-9100000D02*
X15375000Y-9150000D01*
X15350000Y-9125000D02*
X15400000Y-9125000D01*
D13*
X13430739Y-10697699D02*
X13430739Y-10638301D01*
X13371341Y-10638301D01*
X13371341Y-10697699D01*
X13430739Y-10697699D01*
X13430739Y-10951699D02*
X13430739Y-10892301D01*
X13371341Y-10892301D01*
X13371341Y-10951699D01*
X13430739Y-10951699D01*
X13557739Y-10824699D02*
X13557739Y-10765301D01*
X13498341Y-10765301D01*
X13498341Y-10824699D01*
X13557739Y-10824699D01*
X13684739Y-10697699D02*
X13684739Y-10638301D01*
X13625341Y-10638301D01*
X13625341Y-10697699D01*
X13684739Y-10697699D01*
X13684739Y-10951699D02*
X13684739Y-10892301D01*
X13625341Y-10892301D01*
X13625341Y-10951699D01*
X13684739Y-10951699D01*
X14902699Y-9142699D02*
X14902699Y-9083301D01*
X14843301Y-9083301D01*
X14843301Y-9142699D01*
X14902699Y-9142699D01*
X14902699Y-9396699D02*
X14902699Y-9337301D01*
X14843301Y-9337301D01*
X14843301Y-9396699D01*
X14902699Y-9396699D01*
X15029699Y-9269699D02*
X15029699Y-9210301D01*
X14970301Y-9210301D01*
X14970301Y-9269699D01*
X15029699Y-9269699D01*
X15156699Y-9142699D02*
X15156699Y-9083301D01*
X15097301Y-9083301D01*
X15097301Y-9142699D01*
X15156699Y-9142699D01*
X15156699Y-9396699D02*
X15156699Y-9337301D01*
X15097301Y-9337301D01*
X15097301Y-9396699D01*
X15156699Y-9396699D01*
D14*
X16891000Y-9796000D02*
X16941000Y-9746000D01*
X16891000Y-9696000D01*
X16841000Y-9746000D01*
X16891000Y-9796000D01*
X16891000Y-10050000D02*
X16941000Y-10000000D01*
X16891000Y-9950000D01*
X16841000Y-10000000D01*
X16891000Y-10050000D01*
X16891000Y-10304000D02*
X16941000Y-10254000D01*
X16891000Y-10204000D01*
X16841000Y-10254000D01*
X16891000Y-10304000D01*
D11*
X12745119Y-12815024D02*
X12745119Y-12615024D01*
X12745119Y-12615024D02*
X12792738Y-12615024D01*
X12792738Y-12615024D02*
X12821309Y-12624548D01*
X12821309Y-12624548D02*
X12840357Y-12643595D01*
X12840357Y-12643595D02*
X12849881Y-12662643D01*
X12849881Y-12662643D02*
X12859405Y-12700738D01*
X12859405Y-12700738D02*
X12859405Y-12729309D01*
X12859405Y-12729309D02*
X12849881Y-12767405D01*
X12849881Y-12767405D02*
X12840357Y-12786452D01*
X12840357Y-12786452D02*
X12821309Y-12805500D01*
X12821309Y-12805500D02*
X12792738Y-12815024D01*
X12792738Y-12815024D02*
X12745119Y-12815024D01*
X12945119Y-12815024D02*
X12945119Y-12681690D01*
X12945119Y-12719786D02*
X12954643Y-12700738D01*
X12954643Y-12700738D02*
X12964167Y-12691214D01*
X12964167Y-12691214D02*
X12983214Y-12681690D01*
X12983214Y-12681690D02*
X13002262Y-12681690D01*
X13068928Y-12815024D02*
X13068928Y-12681690D01*
X13068928Y-12615024D02*
X13059405Y-12624548D01*
X13059405Y-12624548D02*
X13068928Y-12634071D01*
X13068928Y-12634071D02*
X13078452Y-12624548D01*
X13078452Y-12624548D02*
X13068928Y-12615024D01*
X13068928Y-12615024D02*
X13068928Y-12634071D01*
X13192738Y-12815024D02*
X13173690Y-12805500D01*
X13173690Y-12805500D02*
X13164167Y-12786452D01*
X13164167Y-12786452D02*
X13164167Y-12615024D01*
X13297500Y-12815024D02*
X13278452Y-12805500D01*
X13278452Y-12805500D02*
X13268928Y-12786452D01*
X13268928Y-12786452D02*
X13268928Y-12615024D01*
X13526071Y-12815024D02*
X13526071Y-12615024D01*
X13526071Y-12615024D02*
X13592738Y-12757881D01*
X13592738Y-12757881D02*
X13659405Y-12615024D01*
X13659405Y-12615024D02*
X13659405Y-12815024D01*
X13840357Y-12815024D02*
X13840357Y-12710262D01*
X13840357Y-12710262D02*
X13830833Y-12691214D01*
X13830833Y-12691214D02*
X13811786Y-12681690D01*
X13811786Y-12681690D02*
X13773690Y-12681690D01*
X13773690Y-12681690D02*
X13754643Y-12691214D01*
X13840357Y-12805500D02*
X13821309Y-12815024D01*
X13821309Y-12815024D02*
X13773690Y-12815024D01*
X13773690Y-12815024D02*
X13754643Y-12805500D01*
X13754643Y-12805500D02*
X13745119Y-12786452D01*
X13745119Y-12786452D02*
X13745119Y-12767405D01*
X13745119Y-12767405D02*
X13754643Y-12748357D01*
X13754643Y-12748357D02*
X13773690Y-12738833D01*
X13773690Y-12738833D02*
X13821309Y-12738833D01*
X13821309Y-12738833D02*
X13840357Y-12729309D01*
X13935595Y-12681690D02*
X13935595Y-12881690D01*
X13935595Y-12691214D02*
X13954643Y-12681690D01*
X13954643Y-12681690D02*
X13992738Y-12681690D01*
X13992738Y-12681690D02*
X14011786Y-12691214D01*
X14011786Y-12691214D02*
X14021309Y-12700738D01*
X14021309Y-12700738D02*
X14030833Y-12719786D01*
X14030833Y-12719786D02*
X14030833Y-12776928D01*
X14030833Y-12776928D02*
X14021309Y-12795976D01*
X14021309Y-12795976D02*
X14011786Y-12805500D01*
X14011786Y-12805500D02*
X13992738Y-12815024D01*
X13992738Y-12815024D02*
X13954643Y-12815024D01*
X13954643Y-12815024D02*
X13935595Y-12805500D01*
X14116548Y-12795976D02*
X14126071Y-12805500D01*
X14126071Y-12805500D02*
X14116548Y-12815024D01*
X14116548Y-12815024D02*
X14107024Y-12805500D01*
X14107024Y-12805500D02*
X14116548Y-12795976D01*
X14116548Y-12795976D02*
X14116548Y-12815024D01*
X14116548Y-12691214D02*
X14126071Y-12700738D01*
X14126071Y-12700738D02*
X14116548Y-12710262D01*
X14116548Y-12710262D02*
X14107024Y-12700738D01*
X14107024Y-12700738D02*
X14116548Y-12691214D01*
X14116548Y-12691214D02*
X14116548Y-12710262D01*
D12*
X12457500Y-13122500D02*
X12497500Y-13162500D01*
X12497500Y-13122500D02*
X12457500Y-13162500D01*
D11*
X12783214Y-13035024D02*
X12802262Y-13035024D01*
X12802262Y-13035024D02*
X12821309Y-13044548D01*
X12821309Y-13044548D02*
X12830833Y-13054071D01*
X12830833Y-13054071D02*
X12840357Y-13073119D01*
X12840357Y-13073119D02*
X12849881Y-13111214D01*
X12849881Y-13111214D02*
X12849881Y-13158833D01*
X12849881Y-13158833D02*
X12840357Y-13196928D01*
X12840357Y-13196928D02*
X12830833Y-13215976D01*
X12830833Y-13215976D02*
X12821309Y-13225500D01*
X12821309Y-13225500D02*
X12802262Y-13235024D01*
X12802262Y-13235024D02*
X12783214Y-13235024D01*
X12783214Y-13235024D02*
X12764167Y-13225500D01*
X12764167Y-13225500D02*
X12754643Y-13215976D01*
X12754643Y-13215976D02*
X12745119Y-13196928D01*
X12745119Y-13196928D02*
X12735595Y-13158833D01*
X12735595Y-13158833D02*
X12735595Y-13111214D01*
X12735595Y-13111214D02*
X12745119Y-13073119D01*
X12745119Y-13073119D02*
X12754643Y-13054071D01*
X12754643Y-13054071D02*
X12764167Y-13044548D01*
X12764167Y-13044548D02*
X12783214Y-13035024D01*
X12935595Y-13215976D02*
X12945119Y-13225500D01*
X12945119Y-13225500D02*
X12935595Y-13235024D01*
X12935595Y-13235024D02*
X12926071Y-13225500D01*
X12926071Y-13225500D02*
X12935595Y-13215976D01*
X12935595Y-13215976D02*
X12935595Y-13235024D01*
X13116548Y-13101690D02*
X13116548Y-13235024D01*
X13068928Y-13025500D02*
X13021309Y-13168357D01*
X13021309Y-13168357D02*
X13145119Y-13168357D01*
X13259405Y-13035024D02*
X13278452Y-13035024D01*
X13278452Y-13035024D02*
X13297500Y-13044548D01*
X13297500Y-13044548D02*
X13307024Y-13054071D01*
X13307024Y-13054071D02*
X13316548Y-13073119D01*
X13316548Y-13073119D02*
X13326071Y-13111214D01*
X13326071Y-13111214D02*
X13326071Y-13158833D01*
X13326071Y-13158833D02*
X13316548Y-13196928D01*
X13316548Y-13196928D02*
X13307024Y-13215976D01*
X13307024Y-13215976D02*
X13297500Y-13225500D01*
X13297500Y-13225500D02*
X13278452Y-13235024D01*
X13278452Y-13235024D02*
X13259405Y-13235024D01*
X13259405Y-13235024D02*
X13240357Y-13225500D01*
X13240357Y-13225500D02*
X13230833Y-13215976D01*
X13230833Y-13215976D02*
X13221309Y-13196928D01*
X13221309Y-13196928D02*
X13211786Y-13158833D01*
X13211786Y-13158833D02*
X13211786Y-13111214D01*
X13211786Y-13111214D02*
X13221309Y-13073119D01*
X13221309Y-13073119D02*
X13230833Y-13054071D01*
X13230833Y-13054071D02*
X13240357Y-13044548D01*
X13240357Y-13044548D02*
X13259405Y-13035024D01*
X13449881Y-13035024D02*
X13468929Y-13035024D01*
X13468929Y-13035024D02*
X13487976Y-13044548D01*
X13487976Y-13044548D02*
X13497500Y-13054071D01*
X13497500Y-13054071D02*
X13507024Y-13073119D01*
X13507024Y-13073119D02*
X13516548Y-13111214D01*
X13516548Y-13111214D02*
X13516548Y-13158833D01*
X13516548Y-13158833D02*
X13507024Y-13196928D01*
X13507024Y-13196928D02*
X13497500Y-13215976D01*
X13497500Y-13215976D02*
X13487976Y-13225500D01*
X13487976Y-13225500D02*
X13468929Y-13235024D01*
X13468929Y-13235024D02*
X13449881Y-13235024D01*
X13449881Y-13235024D02*
X13430833Y-13225500D01*
X13430833Y-13225500D02*
X13421309Y-13215976D01*
X13421309Y-13215976D02*
X13411786Y-13196928D01*
X13411786Y-13196928D02*
X13402262Y-13158833D01*
X13402262Y-13158833D02*
X13402262Y-13111214D01*
X13402262Y-13111214D02*
X13411786Y-13073119D01*
X13411786Y-13073119D02*
X13421309Y-13054071D01*
X13421309Y-13054071D02*
X13430833Y-13044548D01*
X13430833Y-13044548D02*
X13449881Y-13035024D01*
X13602262Y-13235024D02*
X13602262Y-13101690D01*
X13602262Y-13120738D02*
X13611786Y-13111214D01*
X13611786Y-13111214D02*
X13630833Y-13101690D01*
X13630833Y-13101690D02*
X13659405Y-13101690D01*
X13659405Y-13101690D02*
X13678452Y-13111214D01*
X13678452Y-13111214D02*
X13687976Y-13130262D01*
X13687976Y-13130262D02*
X13687976Y-13235024D01*
X13687976Y-13130262D02*
X13697500Y-13111214D01*
X13697500Y-13111214D02*
X13716548Y-13101690D01*
X13716548Y-13101690D02*
X13745119Y-13101690D01*
X13745119Y-13101690D02*
X13764167Y-13111214D01*
X13764167Y-13111214D02*
X13773690Y-13130262D01*
X13773690Y-13130262D02*
X13773690Y-13235024D01*
X13868929Y-13235024D02*
X13868929Y-13101690D01*
X13868929Y-13120738D02*
X13878452Y-13111214D01*
X13878452Y-13111214D02*
X13897500Y-13101690D01*
X13897500Y-13101690D02*
X13926071Y-13101690D01*
X13926071Y-13101690D02*
X13945119Y-13111214D01*
X13945119Y-13111214D02*
X13954643Y-13130262D01*
X13954643Y-13130262D02*
X13954643Y-13235024D01*
X13954643Y-13130262D02*
X13964167Y-13111214D01*
X13964167Y-13111214D02*
X13983214Y-13101690D01*
X13983214Y-13101690D02*
X14011786Y-13101690D01*
X14011786Y-13101690D02*
X14030833Y-13111214D01*
X14030833Y-13111214D02*
X14040357Y-13130262D01*
X14040357Y-13130262D02*
X14040357Y-13235024D01*
X14430833Y-13025500D02*
X14259405Y-13282643D01*
X14687976Y-13035024D02*
X14707024Y-13035024D01*
X14707024Y-13035024D02*
X14726072Y-13044548D01*
X14726072Y-13044548D02*
X14735595Y-13054071D01*
X14735595Y-13054071D02*
X14745119Y-13073119D01*
X14745119Y-13073119D02*
X14754643Y-13111214D01*
X14754643Y-13111214D02*
X14754643Y-13158833D01*
X14754643Y-13158833D02*
X14745119Y-13196928D01*
X14745119Y-13196928D02*
X14735595Y-13215976D01*
X14735595Y-13215976D02*
X14726072Y-13225500D01*
X14726072Y-13225500D02*
X14707024Y-13235024D01*
X14707024Y-13235024D02*
X14687976Y-13235024D01*
X14687976Y-13235024D02*
X14668929Y-13225500D01*
X14668929Y-13225500D02*
X14659405Y-13215976D01*
X14659405Y-13215976D02*
X14649881Y-13196928D01*
X14649881Y-13196928D02*
X14640357Y-13158833D01*
X14640357Y-13158833D02*
X14640357Y-13111214D01*
X14640357Y-13111214D02*
X14649881Y-13073119D01*
X14649881Y-13073119D02*
X14659405Y-13054071D01*
X14659405Y-13054071D02*
X14668929Y-13044548D01*
X14668929Y-13044548D02*
X14687976Y-13035024D01*
X14840357Y-13215976D02*
X14849881Y-13225500D01*
X14849881Y-13225500D02*
X14840357Y-13235024D01*
X14840357Y-13235024D02*
X14830833Y-13225500D01*
X14830833Y-13225500D02*
X14840357Y-13215976D01*
X14840357Y-13215976D02*
X14840357Y-13235024D01*
X14973691Y-13035024D02*
X14992738Y-13035024D01*
X14992738Y-13035024D02*
X15011786Y-13044548D01*
X15011786Y-13044548D02*
X15021310Y-13054071D01*
X15021310Y-13054071D02*
X15030833Y-13073119D01*
X15030833Y-13073119D02*
X15040357Y-13111214D01*
X15040357Y-13111214D02*
X15040357Y-13158833D01*
X15040357Y-13158833D02*
X15030833Y-13196928D01*
X15030833Y-13196928D02*
X15021310Y-13215976D01*
X15021310Y-13215976D02*
X15011786Y-13225500D01*
X15011786Y-13225500D02*
X14992738Y-13235024D01*
X14992738Y-13235024D02*
X14973691Y-13235024D01*
X14973691Y-13235024D02*
X14954643Y-13225500D01*
X14954643Y-13225500D02*
X14945119Y-13215976D01*
X14945119Y-13215976D02*
X14935595Y-13196928D01*
X14935595Y-13196928D02*
X14926072Y-13158833D01*
X14926072Y-13158833D02*
X14926072Y-13111214D01*
X14926072Y-13111214D02*
X14935595Y-13073119D01*
X14935595Y-13073119D02*
X14945119Y-13054071D01*
X14945119Y-13054071D02*
X14954643Y-13044548D01*
X14954643Y-13044548D02*
X14973691Y-13035024D01*
X15230833Y-13235024D02*
X15116548Y-13235024D01*
X15173691Y-13235024D02*
X15173691Y-13035024D01*
X15173691Y-13035024D02*
X15154643Y-13063595D01*
X15154643Y-13063595D02*
X15135595Y-13082643D01*
X15135595Y-13082643D02*
X15116548Y-13092167D01*
X15411786Y-13035024D02*
X15316548Y-13035024D01*
X15316548Y-13035024D02*
X15307024Y-13130262D01*
X15307024Y-13130262D02*
X15316548Y-13120738D01*
X15316548Y-13120738D02*
X15335595Y-13111214D01*
X15335595Y-13111214D02*
X15383214Y-13111214D01*
X15383214Y-13111214D02*
X15402262Y-13120738D01*
X15402262Y-13120738D02*
X15411786Y-13130262D01*
X15411786Y-13130262D02*
X15421310Y-13149309D01*
X15421310Y-13149309D02*
X15421310Y-13196928D01*
X15421310Y-13196928D02*
X15411786Y-13215976D01*
X15411786Y-13215976D02*
X15402262Y-13225500D01*
X15402262Y-13225500D02*
X15383214Y-13235024D01*
X15383214Y-13235024D02*
X15335595Y-13235024D01*
X15335595Y-13235024D02*
X15316548Y-13225500D01*
X15316548Y-13225500D02*
X15307024Y-13215976D01*
X15487976Y-13035024D02*
X15621310Y-13035024D01*
X15621310Y-13035024D02*
X15535595Y-13235024D01*
X15687976Y-13035024D02*
X15687976Y-13073119D01*
X15764167Y-13035024D02*
X15764167Y-13073119D01*
X16059405Y-13311214D02*
X16049881Y-13301690D01*
X16049881Y-13301690D02*
X16030834Y-13273119D01*
X16030834Y-13273119D02*
X16021310Y-13254071D01*
X16021310Y-13254071D02*
X16011786Y-13225500D01*
X16011786Y-13225500D02*
X16002262Y-13177881D01*
X16002262Y-13177881D02*
X16002262Y-13139786D01*
X16002262Y-13139786D02*
X16011786Y-13092167D01*
X16011786Y-13092167D02*
X16021310Y-13063595D01*
X16021310Y-13063595D02*
X16030834Y-13044548D01*
X16030834Y-13044548D02*
X16049881Y-13015976D01*
X16049881Y-13015976D02*
X16059405Y-13006452D01*
X16164167Y-13120738D02*
X16145119Y-13111214D01*
X16145119Y-13111214D02*
X16135595Y-13101690D01*
X16135595Y-13101690D02*
X16126072Y-13082643D01*
X16126072Y-13082643D02*
X16126072Y-13073119D01*
X16126072Y-13073119D02*
X16135595Y-13054071D01*
X16135595Y-13054071D02*
X16145119Y-13044548D01*
X16145119Y-13044548D02*
X16164167Y-13035024D01*
X16164167Y-13035024D02*
X16202262Y-13035024D01*
X16202262Y-13035024D02*
X16221310Y-13044548D01*
X16221310Y-13044548D02*
X16230834Y-13054071D01*
X16230834Y-13054071D02*
X16240357Y-13073119D01*
X16240357Y-13073119D02*
X16240357Y-13082643D01*
X16240357Y-13082643D02*
X16230834Y-13101690D01*
X16230834Y-13101690D02*
X16221310Y-13111214D01*
X16221310Y-13111214D02*
X16202262Y-13120738D01*
X16202262Y-13120738D02*
X16164167Y-13120738D01*
X16164167Y-13120738D02*
X16145119Y-13130262D01*
X16145119Y-13130262D02*
X16135595Y-13139786D01*
X16135595Y-13139786D02*
X16126072Y-13158833D01*
X16126072Y-13158833D02*
X16126072Y-13196928D01*
X16126072Y-13196928D02*
X16135595Y-13215976D01*
X16135595Y-13215976D02*
X16145119Y-13225500D01*
X16145119Y-13225500D02*
X16164167Y-13235024D01*
X16164167Y-13235024D02*
X16202262Y-13235024D01*
X16202262Y-13235024D02*
X16221310Y-13225500D01*
X16221310Y-13225500D02*
X16230834Y-13215976D01*
X16230834Y-13215976D02*
X16240357Y-13196928D01*
X16240357Y-13196928D02*
X16240357Y-13158833D01*
X16240357Y-13158833D02*
X16230834Y-13139786D01*
X16230834Y-13139786D02*
X16221310Y-13130262D01*
X16221310Y-13130262D02*
X16202262Y-13120738D01*
X16307024Y-13035024D02*
X16440357Y-13035024D01*
X16440357Y-13035024D02*
X16354643Y-13235024D01*
X16668929Y-13235024D02*
X16668929Y-13035024D01*
X16754643Y-13235024D02*
X16754643Y-13130262D01*
X16754643Y-13130262D02*
X16745119Y-13111214D01*
X16745119Y-13111214D02*
X16726072Y-13101690D01*
X16726072Y-13101690D02*
X16697500Y-13101690D01*
X16697500Y-13101690D02*
X16678453Y-13111214D01*
X16678453Y-13111214D02*
X16668929Y-13120738D01*
X16878453Y-13235024D02*
X16859405Y-13225500D01*
X16859405Y-13225500D02*
X16849881Y-13215976D01*
X16849881Y-13215976D02*
X16840358Y-13196928D01*
X16840358Y-13196928D02*
X16840358Y-13139786D01*
X16840358Y-13139786D02*
X16849881Y-13120738D01*
X16849881Y-13120738D02*
X16859405Y-13111214D01*
X16859405Y-13111214D02*
X16878453Y-13101690D01*
X16878453Y-13101690D02*
X16907024Y-13101690D01*
X16907024Y-13101690D02*
X16926072Y-13111214D01*
X16926072Y-13111214D02*
X16935596Y-13120738D01*
X16935596Y-13120738D02*
X16945119Y-13139786D01*
X16945119Y-13139786D02*
X16945119Y-13196928D01*
X16945119Y-13196928D02*
X16935596Y-13215976D01*
X16935596Y-13215976D02*
X16926072Y-13225500D01*
X16926072Y-13225500D02*
X16907024Y-13235024D01*
X16907024Y-13235024D02*
X16878453Y-13235024D01*
X17059405Y-13235024D02*
X17040358Y-13225500D01*
X17040358Y-13225500D02*
X17030834Y-13206452D01*
X17030834Y-13206452D02*
X17030834Y-13035024D01*
X17211786Y-13225500D02*
X17192739Y-13235024D01*
X17192739Y-13235024D02*
X17154643Y-13235024D01*
X17154643Y-13235024D02*
X17135596Y-13225500D01*
X17135596Y-13225500D02*
X17126072Y-13206452D01*
X17126072Y-13206452D02*
X17126072Y-13130262D01*
X17126072Y-13130262D02*
X17135596Y-13111214D01*
X17135596Y-13111214D02*
X17154643Y-13101690D01*
X17154643Y-13101690D02*
X17192739Y-13101690D01*
X17192739Y-13101690D02*
X17211786Y-13111214D01*
X17211786Y-13111214D02*
X17221310Y-13130262D01*
X17221310Y-13130262D02*
X17221310Y-13149309D01*
X17221310Y-13149309D02*
X17126072Y-13168357D01*
X17297500Y-13225500D02*
X17316548Y-13235024D01*
X17316548Y-13235024D02*
X17354643Y-13235024D01*
X17354643Y-13235024D02*
X17373691Y-13225500D01*
X17373691Y-13225500D02*
X17383215Y-13206452D01*
X17383215Y-13206452D02*
X17383215Y-13196928D01*
X17383215Y-13196928D02*
X17373691Y-13177881D01*
X17373691Y-13177881D02*
X17354643Y-13168357D01*
X17354643Y-13168357D02*
X17326072Y-13168357D01*
X17326072Y-13168357D02*
X17307024Y-13158833D01*
X17307024Y-13158833D02*
X17297500Y-13139786D01*
X17297500Y-13139786D02*
X17297500Y-13130262D01*
X17297500Y-13130262D02*
X17307024Y-13111214D01*
X17307024Y-13111214D02*
X17326072Y-13101690D01*
X17326072Y-13101690D02*
X17354643Y-13101690D01*
X17354643Y-13101690D02*
X17373691Y-13111214D01*
X17449881Y-13311214D02*
X17459405Y-13301690D01*
X17459405Y-13301690D02*
X17478453Y-13273119D01*
X17478453Y-13273119D02*
X17487977Y-13254071D01*
X17487977Y-13254071D02*
X17497500Y-13225500D01*
X17497500Y-13225500D02*
X17507024Y-13177881D01*
X17507024Y-13177881D02*
X17507024Y-13139786D01*
X17507024Y-13139786D02*
X17497500Y-13092167D01*
X17497500Y-13092167D02*
X17487977Y-13063595D01*
X17487977Y-13063595D02*
X17478453Y-13044548D01*
X17478453Y-13044548D02*
X17459405Y-13015976D01*
X17459405Y-13015976D02*
X17449881Y-13006452D01*
D12*
X12497500Y-13406500D02*
G75*
G03*
X12497500Y-13406500I-20000J0D01*
G01*
D11*
X12783214Y-13299024D02*
X12802262Y-13299024D01*
X12802262Y-13299024D02*
X12821309Y-13308548D01*
X12821309Y-13308548D02*
X12830833Y-13318071D01*
X12830833Y-13318071D02*
X12840357Y-13337119D01*
X12840357Y-13337119D02*
X12849881Y-13375214D01*
X12849881Y-13375214D02*
X12849881Y-13422833D01*
X12849881Y-13422833D02*
X12840357Y-13460928D01*
X12840357Y-13460928D02*
X12830833Y-13479976D01*
X12830833Y-13479976D02*
X12821309Y-13489500D01*
X12821309Y-13489500D02*
X12802262Y-13499024D01*
X12802262Y-13499024D02*
X12783214Y-13499024D01*
X12783214Y-13499024D02*
X12764167Y-13489500D01*
X12764167Y-13489500D02*
X12754643Y-13479976D01*
X12754643Y-13479976D02*
X12745119Y-13460928D01*
X12745119Y-13460928D02*
X12735595Y-13422833D01*
X12735595Y-13422833D02*
X12735595Y-13375214D01*
X12735595Y-13375214D02*
X12745119Y-13337119D01*
X12745119Y-13337119D02*
X12754643Y-13318071D01*
X12754643Y-13318071D02*
X12764167Y-13308548D01*
X12764167Y-13308548D02*
X12783214Y-13299024D01*
X12935595Y-13479976D02*
X12945119Y-13489500D01*
X12945119Y-13489500D02*
X12935595Y-13499024D01*
X12935595Y-13499024D02*
X12926071Y-13489500D01*
X12926071Y-13489500D02*
X12935595Y-13479976D01*
X12935595Y-13479976D02*
X12935595Y-13499024D01*
X13116548Y-13365690D02*
X13116548Y-13499024D01*
X13068928Y-13289500D02*
X13021309Y-13432357D01*
X13021309Y-13432357D02*
X13145119Y-13432357D01*
X13259405Y-13299024D02*
X13278452Y-13299024D01*
X13278452Y-13299024D02*
X13297500Y-13308548D01*
X13297500Y-13308548D02*
X13307024Y-13318071D01*
X13307024Y-13318071D02*
X13316548Y-13337119D01*
X13316548Y-13337119D02*
X13326071Y-13375214D01*
X13326071Y-13375214D02*
X13326071Y-13422833D01*
X13326071Y-13422833D02*
X13316548Y-13460928D01*
X13316548Y-13460928D02*
X13307024Y-13479976D01*
X13307024Y-13479976D02*
X13297500Y-13489500D01*
X13297500Y-13489500D02*
X13278452Y-13499024D01*
X13278452Y-13499024D02*
X13259405Y-13499024D01*
X13259405Y-13499024D02*
X13240357Y-13489500D01*
X13240357Y-13489500D02*
X13230833Y-13479976D01*
X13230833Y-13479976D02*
X13221309Y-13460928D01*
X13221309Y-13460928D02*
X13211786Y-13422833D01*
X13211786Y-13422833D02*
X13211786Y-13375214D01*
X13211786Y-13375214D02*
X13221309Y-13337119D01*
X13221309Y-13337119D02*
X13230833Y-13318071D01*
X13230833Y-13318071D02*
X13240357Y-13308548D01*
X13240357Y-13308548D02*
X13259405Y-13299024D01*
X13449881Y-13299024D02*
X13468929Y-13299024D01*
X13468929Y-13299024D02*
X13487976Y-13308548D01*
X13487976Y-13308548D02*
X13497500Y-13318071D01*
X13497500Y-13318071D02*
X13507024Y-13337119D01*
X13507024Y-13337119D02*
X13516548Y-13375214D01*
X13516548Y-13375214D02*
X13516548Y-13422833D01*
X13516548Y-13422833D02*
X13507024Y-13460928D01*
X13507024Y-13460928D02*
X13497500Y-13479976D01*
X13497500Y-13479976D02*
X13487976Y-13489500D01*
X13487976Y-13489500D02*
X13468929Y-13499024D01*
X13468929Y-13499024D02*
X13449881Y-13499024D01*
X13449881Y-13499024D02*
X13430833Y-13489500D01*
X13430833Y-13489500D02*
X13421309Y-13479976D01*
X13421309Y-13479976D02*
X13411786Y-13460928D01*
X13411786Y-13460928D02*
X13402262Y-13422833D01*
X13402262Y-13422833D02*
X13402262Y-13375214D01*
X13402262Y-13375214D02*
X13411786Y-13337119D01*
X13411786Y-13337119D02*
X13421309Y-13318071D01*
X13421309Y-13318071D02*
X13430833Y-13308548D01*
X13430833Y-13308548D02*
X13449881Y-13299024D01*
X13602262Y-13499024D02*
X13602262Y-13365690D01*
X13602262Y-13384738D02*
X13611786Y-13375214D01*
X13611786Y-13375214D02*
X13630833Y-13365690D01*
X13630833Y-13365690D02*
X13659405Y-13365690D01*
X13659405Y-13365690D02*
X13678452Y-13375214D01*
X13678452Y-13375214D02*
X13687976Y-13394262D01*
X13687976Y-13394262D02*
X13687976Y-13499024D01*
X13687976Y-13394262D02*
X13697500Y-13375214D01*
X13697500Y-13375214D02*
X13716548Y-13365690D01*
X13716548Y-13365690D02*
X13745119Y-13365690D01*
X13745119Y-13365690D02*
X13764167Y-13375214D01*
X13764167Y-13375214D02*
X13773690Y-13394262D01*
X13773690Y-13394262D02*
X13773690Y-13499024D01*
X13868929Y-13499024D02*
X13868929Y-13365690D01*
X13868929Y-13384738D02*
X13878452Y-13375214D01*
X13878452Y-13375214D02*
X13897500Y-13365690D01*
X13897500Y-13365690D02*
X13926071Y-13365690D01*
X13926071Y-13365690D02*
X13945119Y-13375214D01*
X13945119Y-13375214D02*
X13954643Y-13394262D01*
X13954643Y-13394262D02*
X13954643Y-13499024D01*
X13954643Y-13394262D02*
X13964167Y-13375214D01*
X13964167Y-13375214D02*
X13983214Y-13365690D01*
X13983214Y-13365690D02*
X14011786Y-13365690D01*
X14011786Y-13365690D02*
X14030833Y-13375214D01*
X14030833Y-13375214D02*
X14040357Y-13394262D01*
X14040357Y-13394262D02*
X14040357Y-13499024D01*
X14430833Y-13289500D02*
X14259405Y-13546643D01*
X14687976Y-13299024D02*
X14707024Y-13299024D01*
X14707024Y-13299024D02*
X14726072Y-13308548D01*
X14726072Y-13308548D02*
X14735595Y-13318071D01*
X14735595Y-13318071D02*
X14745119Y-13337119D01*
X14745119Y-13337119D02*
X14754643Y-13375214D01*
X14754643Y-13375214D02*
X14754643Y-13422833D01*
X14754643Y-13422833D02*
X14745119Y-13460928D01*
X14745119Y-13460928D02*
X14735595Y-13479976D01*
X14735595Y-13479976D02*
X14726072Y-13489500D01*
X14726072Y-13489500D02*
X14707024Y-13499024D01*
X14707024Y-13499024D02*
X14687976Y-13499024D01*
X14687976Y-13499024D02*
X14668929Y-13489500D01*
X14668929Y-13489500D02*
X14659405Y-13479976D01*
X14659405Y-13479976D02*
X14649881Y-13460928D01*
X14649881Y-13460928D02*
X14640357Y-13422833D01*
X14640357Y-13422833D02*
X14640357Y-13375214D01*
X14640357Y-13375214D02*
X14649881Y-13337119D01*
X14649881Y-13337119D02*
X14659405Y-13318071D01*
X14659405Y-13318071D02*
X14668929Y-13308548D01*
X14668929Y-13308548D02*
X14687976Y-13299024D01*
X14840357Y-13479976D02*
X14849881Y-13489500D01*
X14849881Y-13489500D02*
X14840357Y-13499024D01*
X14840357Y-13499024D02*
X14830833Y-13489500D01*
X14830833Y-13489500D02*
X14840357Y-13479976D01*
X14840357Y-13479976D02*
X14840357Y-13499024D01*
X14973691Y-13299024D02*
X14992738Y-13299024D01*
X14992738Y-13299024D02*
X15011786Y-13308548D01*
X15011786Y-13308548D02*
X15021310Y-13318071D01*
X15021310Y-13318071D02*
X15030833Y-13337119D01*
X15030833Y-13337119D02*
X15040357Y-13375214D01*
X15040357Y-13375214D02*
X15040357Y-13422833D01*
X15040357Y-13422833D02*
X15030833Y-13460928D01*
X15030833Y-13460928D02*
X15021310Y-13479976D01*
X15021310Y-13479976D02*
X15011786Y-13489500D01*
X15011786Y-13489500D02*
X14992738Y-13499024D01*
X14992738Y-13499024D02*
X14973691Y-13499024D01*
X14973691Y-13499024D02*
X14954643Y-13489500D01*
X14954643Y-13489500D02*
X14945119Y-13479976D01*
X14945119Y-13479976D02*
X14935595Y-13460928D01*
X14935595Y-13460928D02*
X14926072Y-13422833D01*
X14926072Y-13422833D02*
X14926072Y-13375214D01*
X14926072Y-13375214D02*
X14935595Y-13337119D01*
X14935595Y-13337119D02*
X14945119Y-13318071D01*
X14945119Y-13318071D02*
X14954643Y-13308548D01*
X14954643Y-13308548D02*
X14973691Y-13299024D01*
X15230833Y-13499024D02*
X15116548Y-13499024D01*
X15173691Y-13499024D02*
X15173691Y-13299024D01*
X15173691Y-13299024D02*
X15154643Y-13327595D01*
X15154643Y-13327595D02*
X15135595Y-13346643D01*
X15135595Y-13346643D02*
X15116548Y-13356167D01*
X15411786Y-13299024D02*
X15316548Y-13299024D01*
X15316548Y-13299024D02*
X15307024Y-13394262D01*
X15307024Y-13394262D02*
X15316548Y-13384738D01*
X15316548Y-13384738D02*
X15335595Y-13375214D01*
X15335595Y-13375214D02*
X15383214Y-13375214D01*
X15383214Y-13375214D02*
X15402262Y-13384738D01*
X15402262Y-13384738D02*
X15411786Y-13394262D01*
X15411786Y-13394262D02*
X15421310Y-13413309D01*
X15421310Y-13413309D02*
X15421310Y-13460928D01*
X15421310Y-13460928D02*
X15411786Y-13479976D01*
X15411786Y-13479976D02*
X15402262Y-13489500D01*
X15402262Y-13489500D02*
X15383214Y-13499024D01*
X15383214Y-13499024D02*
X15335595Y-13499024D01*
X15335595Y-13499024D02*
X15316548Y-13489500D01*
X15316548Y-13489500D02*
X15307024Y-13479976D01*
X15487976Y-13299024D02*
X15621310Y-13299024D01*
X15621310Y-13299024D02*
X15535595Y-13499024D01*
X15687976Y-13299024D02*
X15687976Y-13337119D01*
X15764167Y-13299024D02*
X15764167Y-13337119D01*
X16059405Y-13575214D02*
X16049881Y-13565690D01*
X16049881Y-13565690D02*
X16030834Y-13537119D01*
X16030834Y-13537119D02*
X16021310Y-13518071D01*
X16021310Y-13518071D02*
X16011786Y-13489500D01*
X16011786Y-13489500D02*
X16002262Y-13441881D01*
X16002262Y-13441881D02*
X16002262Y-13403786D01*
X16002262Y-13403786D02*
X16011786Y-13356167D01*
X16011786Y-13356167D02*
X16021310Y-13327595D01*
X16021310Y-13327595D02*
X16030834Y-13308548D01*
X16030834Y-13308548D02*
X16049881Y-13279976D01*
X16049881Y-13279976D02*
X16059405Y-13270452D01*
X16126072Y-13318071D02*
X16135595Y-13308548D01*
X16135595Y-13308548D02*
X16154643Y-13299024D01*
X16154643Y-13299024D02*
X16202262Y-13299024D01*
X16202262Y-13299024D02*
X16221310Y-13308548D01*
X16221310Y-13308548D02*
X16230834Y-13318071D01*
X16230834Y-13318071D02*
X16240357Y-13337119D01*
X16240357Y-13337119D02*
X16240357Y-13356167D01*
X16240357Y-13356167D02*
X16230834Y-13384738D01*
X16230834Y-13384738D02*
X16116548Y-13499024D01*
X16116548Y-13499024D02*
X16240357Y-13499024D01*
X16478453Y-13499024D02*
X16478453Y-13299024D01*
X16564167Y-13499024D02*
X16564167Y-13394262D01*
X16564167Y-13394262D02*
X16554643Y-13375214D01*
X16554643Y-13375214D02*
X16535596Y-13365690D01*
X16535596Y-13365690D02*
X16507024Y-13365690D01*
X16507024Y-13365690D02*
X16487976Y-13375214D01*
X16487976Y-13375214D02*
X16478453Y-13384738D01*
X16687976Y-13499024D02*
X16668929Y-13489500D01*
X16668929Y-13489500D02*
X16659405Y-13479976D01*
X16659405Y-13479976D02*
X16649881Y-13460928D01*
X16649881Y-13460928D02*
X16649881Y-13403786D01*
X16649881Y-13403786D02*
X16659405Y-13384738D01*
X16659405Y-13384738D02*
X16668929Y-13375214D01*
X16668929Y-13375214D02*
X16687976Y-13365690D01*
X16687976Y-13365690D02*
X16716548Y-13365690D01*
X16716548Y-13365690D02*
X16735596Y-13375214D01*
X16735596Y-13375214D02*
X16745119Y-13384738D01*
X16745119Y-13384738D02*
X16754643Y-13403786D01*
X16754643Y-13403786D02*
X16754643Y-13460928D01*
X16754643Y-13460928D02*
X16745119Y-13479976D01*
X16745119Y-13479976D02*
X16735596Y-13489500D01*
X16735596Y-13489500D02*
X16716548Y-13499024D01*
X16716548Y-13499024D02*
X16687976Y-13499024D01*
X16868929Y-13499024D02*
X16849881Y-13489500D01*
X16849881Y-13489500D02*
X16840358Y-13470452D01*
X16840358Y-13470452D02*
X16840358Y-13299024D01*
X17021310Y-13489500D02*
X17002262Y-13499024D01*
X17002262Y-13499024D02*
X16964167Y-13499024D01*
X16964167Y-13499024D02*
X16945119Y-13489500D01*
X16945119Y-13489500D02*
X16935596Y-13470452D01*
X16935596Y-13470452D02*
X16935596Y-13394262D01*
X16935596Y-13394262D02*
X16945119Y-13375214D01*
X16945119Y-13375214D02*
X16964167Y-13365690D01*
X16964167Y-13365690D02*
X17002262Y-13365690D01*
X17002262Y-13365690D02*
X17021310Y-13375214D01*
X17021310Y-13375214D02*
X17030834Y-13394262D01*
X17030834Y-13394262D02*
X17030834Y-13413309D01*
X17030834Y-13413309D02*
X16935596Y-13432357D01*
X17107024Y-13489500D02*
X17126072Y-13499024D01*
X17126072Y-13499024D02*
X17164167Y-13499024D01*
X17164167Y-13499024D02*
X17183215Y-13489500D01*
X17183215Y-13489500D02*
X17192739Y-13470452D01*
X17192739Y-13470452D02*
X17192739Y-13460928D01*
X17192739Y-13460928D02*
X17183215Y-13441881D01*
X17183215Y-13441881D02*
X17164167Y-13432357D01*
X17164167Y-13432357D02*
X17135596Y-13432357D01*
X17135596Y-13432357D02*
X17116548Y-13422833D01*
X17116548Y-13422833D02*
X17107024Y-13403786D01*
X17107024Y-13403786D02*
X17107024Y-13394262D01*
X17107024Y-13394262D02*
X17116548Y-13375214D01*
X17116548Y-13375214D02*
X17135596Y-13365690D01*
X17135596Y-13365690D02*
X17164167Y-13365690D01*
X17164167Y-13365690D02*
X17183215Y-13375214D01*
X17259405Y-13575214D02*
X17268929Y-13565690D01*
X17268929Y-13565690D02*
X17287977Y-13537119D01*
X17287977Y-13537119D02*
X17297500Y-13518071D01*
X17297500Y-13518071D02*
X17307024Y-13489500D01*
X17307024Y-13489500D02*
X17316548Y-13441881D01*
X17316548Y-13441881D02*
X17316548Y-13403786D01*
X17316548Y-13403786D02*
X17307024Y-13356167D01*
X17307024Y-13356167D02*
X17297500Y-13327595D01*
X17297500Y-13327595D02*
X17287977Y-13308548D01*
X17287977Y-13308548D02*
X17268929Y-13279976D01*
X17268929Y-13279976D02*
X17259405Y-13270452D01*
D10*
X12472500Y-13645500D02*
X12472500Y-13695500D01*
X12447500Y-13670500D02*
X12497500Y-13670500D01*
D11*
X12783214Y-13563024D02*
X12802262Y-13563024D01*
X12802262Y-13563024D02*
X12821309Y-13572548D01*
X12821309Y-13572548D02*
X12830833Y-13582071D01*
X12830833Y-13582071D02*
X12840357Y-13601119D01*
X12840357Y-13601119D02*
X12849881Y-13639214D01*
X12849881Y-13639214D02*
X12849881Y-13686833D01*
X12849881Y-13686833D02*
X12840357Y-13724928D01*
X12840357Y-13724928D02*
X12830833Y-13743976D01*
X12830833Y-13743976D02*
X12821309Y-13753500D01*
X12821309Y-13753500D02*
X12802262Y-13763024D01*
X12802262Y-13763024D02*
X12783214Y-13763024D01*
X12783214Y-13763024D02*
X12764167Y-13753500D01*
X12764167Y-13753500D02*
X12754643Y-13743976D01*
X12754643Y-13743976D02*
X12745119Y-13724928D01*
X12745119Y-13724928D02*
X12735595Y-13686833D01*
X12735595Y-13686833D02*
X12735595Y-13639214D01*
X12735595Y-13639214D02*
X12745119Y-13601119D01*
X12745119Y-13601119D02*
X12754643Y-13582071D01*
X12754643Y-13582071D02*
X12764167Y-13572548D01*
X12764167Y-13572548D02*
X12783214Y-13563024D01*
X12935595Y-13743976D02*
X12945119Y-13753500D01*
X12945119Y-13753500D02*
X12935595Y-13763024D01*
X12935595Y-13763024D02*
X12926071Y-13753500D01*
X12926071Y-13753500D02*
X12935595Y-13743976D01*
X12935595Y-13743976D02*
X12935595Y-13763024D01*
X13126071Y-13563024D02*
X13030833Y-13563024D01*
X13030833Y-13563024D02*
X13021309Y-13658262D01*
X13021309Y-13658262D02*
X13030833Y-13648738D01*
X13030833Y-13648738D02*
X13049881Y-13639214D01*
X13049881Y-13639214D02*
X13097500Y-13639214D01*
X13097500Y-13639214D02*
X13116548Y-13648738D01*
X13116548Y-13648738D02*
X13126071Y-13658262D01*
X13126071Y-13658262D02*
X13135595Y-13677309D01*
X13135595Y-13677309D02*
X13135595Y-13724928D01*
X13135595Y-13724928D02*
X13126071Y-13743976D01*
X13126071Y-13743976D02*
X13116548Y-13753500D01*
X13116548Y-13753500D02*
X13097500Y-13763024D01*
X13097500Y-13763024D02*
X13049881Y-13763024D01*
X13049881Y-13763024D02*
X13030833Y-13753500D01*
X13030833Y-13753500D02*
X13021309Y-13743976D01*
X13259405Y-13563024D02*
X13278452Y-13563024D01*
X13278452Y-13563024D02*
X13297500Y-13572548D01*
X13297500Y-13572548D02*
X13307024Y-13582071D01*
X13307024Y-13582071D02*
X13316548Y-13601119D01*
X13316548Y-13601119D02*
X13326071Y-13639214D01*
X13326071Y-13639214D02*
X13326071Y-13686833D01*
X13326071Y-13686833D02*
X13316548Y-13724928D01*
X13316548Y-13724928D02*
X13307024Y-13743976D01*
X13307024Y-13743976D02*
X13297500Y-13753500D01*
X13297500Y-13753500D02*
X13278452Y-13763024D01*
X13278452Y-13763024D02*
X13259405Y-13763024D01*
X13259405Y-13763024D02*
X13240357Y-13753500D01*
X13240357Y-13753500D02*
X13230833Y-13743976D01*
X13230833Y-13743976D02*
X13221309Y-13724928D01*
X13221309Y-13724928D02*
X13211786Y-13686833D01*
X13211786Y-13686833D02*
X13211786Y-13639214D01*
X13211786Y-13639214D02*
X13221309Y-13601119D01*
X13221309Y-13601119D02*
X13230833Y-13582071D01*
X13230833Y-13582071D02*
X13240357Y-13572548D01*
X13240357Y-13572548D02*
X13259405Y-13563024D01*
X13449881Y-13563024D02*
X13468929Y-13563024D01*
X13468929Y-13563024D02*
X13487976Y-13572548D01*
X13487976Y-13572548D02*
X13497500Y-13582071D01*
X13497500Y-13582071D02*
X13507024Y-13601119D01*
X13507024Y-13601119D02*
X13516548Y-13639214D01*
X13516548Y-13639214D02*
X13516548Y-13686833D01*
X13516548Y-13686833D02*
X13507024Y-13724928D01*
X13507024Y-13724928D02*
X13497500Y-13743976D01*
X13497500Y-13743976D02*
X13487976Y-13753500D01*
X13487976Y-13753500D02*
X13468929Y-13763024D01*
X13468929Y-13763024D02*
X13449881Y-13763024D01*
X13449881Y-13763024D02*
X13430833Y-13753500D01*
X13430833Y-13753500D02*
X13421309Y-13743976D01*
X13421309Y-13743976D02*
X13411786Y-13724928D01*
X13411786Y-13724928D02*
X13402262Y-13686833D01*
X13402262Y-13686833D02*
X13402262Y-13639214D01*
X13402262Y-13639214D02*
X13411786Y-13601119D01*
X13411786Y-13601119D02*
X13421309Y-13582071D01*
X13421309Y-13582071D02*
X13430833Y-13572548D01*
X13430833Y-13572548D02*
X13449881Y-13563024D01*
X13602262Y-13763024D02*
X13602262Y-13629690D01*
X13602262Y-13648738D02*
X13611786Y-13639214D01*
X13611786Y-13639214D02*
X13630833Y-13629690D01*
X13630833Y-13629690D02*
X13659405Y-13629690D01*
X13659405Y-13629690D02*
X13678452Y-13639214D01*
X13678452Y-13639214D02*
X13687976Y-13658262D01*
X13687976Y-13658262D02*
X13687976Y-13763024D01*
X13687976Y-13658262D02*
X13697500Y-13639214D01*
X13697500Y-13639214D02*
X13716548Y-13629690D01*
X13716548Y-13629690D02*
X13745119Y-13629690D01*
X13745119Y-13629690D02*
X13764167Y-13639214D01*
X13764167Y-13639214D02*
X13773690Y-13658262D01*
X13773690Y-13658262D02*
X13773690Y-13763024D01*
X13868929Y-13763024D02*
X13868929Y-13629690D01*
X13868929Y-13648738D02*
X13878452Y-13639214D01*
X13878452Y-13639214D02*
X13897500Y-13629690D01*
X13897500Y-13629690D02*
X13926071Y-13629690D01*
X13926071Y-13629690D02*
X13945119Y-13639214D01*
X13945119Y-13639214D02*
X13954643Y-13658262D01*
X13954643Y-13658262D02*
X13954643Y-13763024D01*
X13954643Y-13658262D02*
X13964167Y-13639214D01*
X13964167Y-13639214D02*
X13983214Y-13629690D01*
X13983214Y-13629690D02*
X14011786Y-13629690D01*
X14011786Y-13629690D02*
X14030833Y-13639214D01*
X14030833Y-13639214D02*
X14040357Y-13658262D01*
X14040357Y-13658262D02*
X14040357Y-13763024D01*
X14430833Y-13553500D02*
X14259405Y-13810643D01*
X14687976Y-13563024D02*
X14707024Y-13563024D01*
X14707024Y-13563024D02*
X14726072Y-13572548D01*
X14726072Y-13572548D02*
X14735595Y-13582071D01*
X14735595Y-13582071D02*
X14745119Y-13601119D01*
X14745119Y-13601119D02*
X14754643Y-13639214D01*
X14754643Y-13639214D02*
X14754643Y-13686833D01*
X14754643Y-13686833D02*
X14745119Y-13724928D01*
X14745119Y-13724928D02*
X14735595Y-13743976D01*
X14735595Y-13743976D02*
X14726072Y-13753500D01*
X14726072Y-13753500D02*
X14707024Y-13763024D01*
X14707024Y-13763024D02*
X14687976Y-13763024D01*
X14687976Y-13763024D02*
X14668929Y-13753500D01*
X14668929Y-13753500D02*
X14659405Y-13743976D01*
X14659405Y-13743976D02*
X14649881Y-13724928D01*
X14649881Y-13724928D02*
X14640357Y-13686833D01*
X14640357Y-13686833D02*
X14640357Y-13639214D01*
X14640357Y-13639214D02*
X14649881Y-13601119D01*
X14649881Y-13601119D02*
X14659405Y-13582071D01*
X14659405Y-13582071D02*
X14668929Y-13572548D01*
X14668929Y-13572548D02*
X14687976Y-13563024D01*
X14840357Y-13743976D02*
X14849881Y-13753500D01*
X14849881Y-13753500D02*
X14840357Y-13763024D01*
X14840357Y-13763024D02*
X14830833Y-13753500D01*
X14830833Y-13753500D02*
X14840357Y-13743976D01*
X14840357Y-13743976D02*
X14840357Y-13763024D01*
X14973691Y-13563024D02*
X14992738Y-13563024D01*
X14992738Y-13563024D02*
X15011786Y-13572548D01*
X15011786Y-13572548D02*
X15021310Y-13582071D01*
X15021310Y-13582071D02*
X15030833Y-13601119D01*
X15030833Y-13601119D02*
X15040357Y-13639214D01*
X15040357Y-13639214D02*
X15040357Y-13686833D01*
X15040357Y-13686833D02*
X15030833Y-13724928D01*
X15030833Y-13724928D02*
X15021310Y-13743976D01*
X15021310Y-13743976D02*
X15011786Y-13753500D01*
X15011786Y-13753500D02*
X14992738Y-13763024D01*
X14992738Y-13763024D02*
X14973691Y-13763024D01*
X14973691Y-13763024D02*
X14954643Y-13753500D01*
X14954643Y-13753500D02*
X14945119Y-13743976D01*
X14945119Y-13743976D02*
X14935595Y-13724928D01*
X14935595Y-13724928D02*
X14926072Y-13686833D01*
X14926072Y-13686833D02*
X14926072Y-13639214D01*
X14926072Y-13639214D02*
X14935595Y-13601119D01*
X14935595Y-13601119D02*
X14945119Y-13582071D01*
X14945119Y-13582071D02*
X14954643Y-13572548D01*
X14954643Y-13572548D02*
X14973691Y-13563024D01*
X15230833Y-13763024D02*
X15116548Y-13763024D01*
X15173691Y-13763024D02*
X15173691Y-13563024D01*
X15173691Y-13563024D02*
X15154643Y-13591595D01*
X15154643Y-13591595D02*
X15135595Y-13610643D01*
X15135595Y-13610643D02*
X15116548Y-13620167D01*
X15326072Y-13763024D02*
X15364167Y-13763024D01*
X15364167Y-13763024D02*
X15383214Y-13753500D01*
X15383214Y-13753500D02*
X15392738Y-13743976D01*
X15392738Y-13743976D02*
X15411786Y-13715405D01*
X15411786Y-13715405D02*
X15421310Y-13677309D01*
X15421310Y-13677309D02*
X15421310Y-13601119D01*
X15421310Y-13601119D02*
X15411786Y-13582071D01*
X15411786Y-13582071D02*
X15402262Y-13572548D01*
X15402262Y-13572548D02*
X15383214Y-13563024D01*
X15383214Y-13563024D02*
X15345119Y-13563024D01*
X15345119Y-13563024D02*
X15326072Y-13572548D01*
X15326072Y-13572548D02*
X15316548Y-13582071D01*
X15316548Y-13582071D02*
X15307024Y-13601119D01*
X15307024Y-13601119D02*
X15307024Y-13648738D01*
X15307024Y-13648738D02*
X15316548Y-13667786D01*
X15316548Y-13667786D02*
X15326072Y-13677309D01*
X15326072Y-13677309D02*
X15345119Y-13686833D01*
X15345119Y-13686833D02*
X15383214Y-13686833D01*
X15383214Y-13686833D02*
X15402262Y-13677309D01*
X15402262Y-13677309D02*
X15411786Y-13667786D01*
X15411786Y-13667786D02*
X15421310Y-13648738D01*
X15487976Y-13563024D02*
X15621310Y-13563024D01*
X15621310Y-13563024D02*
X15535595Y-13763024D01*
X15687976Y-13563024D02*
X15687976Y-13601119D01*
X15764167Y-13563024D02*
X15764167Y-13601119D01*
X16059405Y-13839214D02*
X16049881Y-13829690D01*
X16049881Y-13829690D02*
X16030834Y-13801119D01*
X16030834Y-13801119D02*
X16021310Y-13782071D01*
X16021310Y-13782071D02*
X16011786Y-13753500D01*
X16011786Y-13753500D02*
X16002262Y-13705881D01*
X16002262Y-13705881D02*
X16002262Y-13667786D01*
X16002262Y-13667786D02*
X16011786Y-13620167D01*
X16011786Y-13620167D02*
X16021310Y-13591595D01*
X16021310Y-13591595D02*
X16030834Y-13572548D01*
X16030834Y-13572548D02*
X16049881Y-13543976D01*
X16049881Y-13543976D02*
X16059405Y-13534452D01*
X16230834Y-13563024D02*
X16135595Y-13563024D01*
X16135595Y-13563024D02*
X16126072Y-13658262D01*
X16126072Y-13658262D02*
X16135595Y-13648738D01*
X16135595Y-13648738D02*
X16154643Y-13639214D01*
X16154643Y-13639214D02*
X16202262Y-13639214D01*
X16202262Y-13639214D02*
X16221310Y-13648738D01*
X16221310Y-13648738D02*
X16230834Y-13658262D01*
X16230834Y-13658262D02*
X16240357Y-13677309D01*
X16240357Y-13677309D02*
X16240357Y-13724928D01*
X16240357Y-13724928D02*
X16230834Y-13743976D01*
X16230834Y-13743976D02*
X16221310Y-13753500D01*
X16221310Y-13753500D02*
X16202262Y-13763024D01*
X16202262Y-13763024D02*
X16154643Y-13763024D01*
X16154643Y-13763024D02*
X16135595Y-13753500D01*
X16135595Y-13753500D02*
X16126072Y-13743976D01*
X16478453Y-13763024D02*
X16478453Y-13563024D01*
X16564167Y-13763024D02*
X16564167Y-13658262D01*
X16564167Y-13658262D02*
X16554643Y-13639214D01*
X16554643Y-13639214D02*
X16535596Y-13629690D01*
X16535596Y-13629690D02*
X16507024Y-13629690D01*
X16507024Y-13629690D02*
X16487976Y-13639214D01*
X16487976Y-13639214D02*
X16478453Y-13648738D01*
X16687976Y-13763024D02*
X16668929Y-13753500D01*
X16668929Y-13753500D02*
X16659405Y-13743976D01*
X16659405Y-13743976D02*
X16649881Y-13724928D01*
X16649881Y-13724928D02*
X16649881Y-13667786D01*
X16649881Y-13667786D02*
X16659405Y-13648738D01*
X16659405Y-13648738D02*
X16668929Y-13639214D01*
X16668929Y-13639214D02*
X16687976Y-13629690D01*
X16687976Y-13629690D02*
X16716548Y-13629690D01*
X16716548Y-13629690D02*
X16735596Y-13639214D01*
X16735596Y-13639214D02*
X16745119Y-13648738D01*
X16745119Y-13648738D02*
X16754643Y-13667786D01*
X16754643Y-13667786D02*
X16754643Y-13724928D01*
X16754643Y-13724928D02*
X16745119Y-13743976D01*
X16745119Y-13743976D02*
X16735596Y-13753500D01*
X16735596Y-13753500D02*
X16716548Y-13763024D01*
X16716548Y-13763024D02*
X16687976Y-13763024D01*
X16868929Y-13763024D02*
X16849881Y-13753500D01*
X16849881Y-13753500D02*
X16840358Y-13734452D01*
X16840358Y-13734452D02*
X16840358Y-13563024D01*
X17021310Y-13753500D02*
X17002262Y-13763024D01*
X17002262Y-13763024D02*
X16964167Y-13763024D01*
X16964167Y-13763024D02*
X16945119Y-13753500D01*
X16945119Y-13753500D02*
X16935596Y-13734452D01*
X16935596Y-13734452D02*
X16935596Y-13658262D01*
X16935596Y-13658262D02*
X16945119Y-13639214D01*
X16945119Y-13639214D02*
X16964167Y-13629690D01*
X16964167Y-13629690D02*
X17002262Y-13629690D01*
X17002262Y-13629690D02*
X17021310Y-13639214D01*
X17021310Y-13639214D02*
X17030834Y-13658262D01*
X17030834Y-13658262D02*
X17030834Y-13677309D01*
X17030834Y-13677309D02*
X16935596Y-13696357D01*
X17107024Y-13753500D02*
X17126072Y-13763024D01*
X17126072Y-13763024D02*
X17164167Y-13763024D01*
X17164167Y-13763024D02*
X17183215Y-13753500D01*
X17183215Y-13753500D02*
X17192739Y-13734452D01*
X17192739Y-13734452D02*
X17192739Y-13724928D01*
X17192739Y-13724928D02*
X17183215Y-13705881D01*
X17183215Y-13705881D02*
X17164167Y-13696357D01*
X17164167Y-13696357D02*
X17135596Y-13696357D01*
X17135596Y-13696357D02*
X17116548Y-13686833D01*
X17116548Y-13686833D02*
X17107024Y-13667786D01*
X17107024Y-13667786D02*
X17107024Y-13658262D01*
X17107024Y-13658262D02*
X17116548Y-13639214D01*
X17116548Y-13639214D02*
X17135596Y-13629690D01*
X17135596Y-13629690D02*
X17164167Y-13629690D01*
X17164167Y-13629690D02*
X17183215Y-13639214D01*
X17259405Y-13839214D02*
X17268929Y-13829690D01*
X17268929Y-13829690D02*
X17287977Y-13801119D01*
X17287977Y-13801119D02*
X17297500Y-13782071D01*
X17297500Y-13782071D02*
X17307024Y-13753500D01*
X17307024Y-13753500D02*
X17316548Y-13705881D01*
X17316548Y-13705881D02*
X17316548Y-13667786D01*
X17316548Y-13667786D02*
X17307024Y-13620167D01*
X17307024Y-13620167D02*
X17297500Y-13591595D01*
X17297500Y-13591595D02*
X17287977Y-13572548D01*
X17287977Y-13572548D02*
X17268929Y-13543976D01*
X17268929Y-13543976D02*
X17259405Y-13534452D01*
D13*
X12485199Y-13964199D02*
X12485199Y-13904801D01*
X12425801Y-13904801D01*
X12425801Y-13964199D01*
X12485199Y-13964199D01*
D11*
X12783214Y-13827024D02*
X12802262Y-13827024D01*
X12802262Y-13827024D02*
X12821309Y-13836548D01*
X12821309Y-13836548D02*
X12830833Y-13846071D01*
X12830833Y-13846071D02*
X12840357Y-13865119D01*
X12840357Y-13865119D02*
X12849881Y-13903214D01*
X12849881Y-13903214D02*
X12849881Y-13950833D01*
X12849881Y-13950833D02*
X12840357Y-13988928D01*
X12840357Y-13988928D02*
X12830833Y-14007976D01*
X12830833Y-14007976D02*
X12821309Y-14017500D01*
X12821309Y-14017500D02*
X12802262Y-14027024D01*
X12802262Y-14027024D02*
X12783214Y-14027024D01*
X12783214Y-14027024D02*
X12764167Y-14017500D01*
X12764167Y-14017500D02*
X12754643Y-14007976D01*
X12754643Y-14007976D02*
X12745119Y-13988928D01*
X12745119Y-13988928D02*
X12735595Y-13950833D01*
X12735595Y-13950833D02*
X12735595Y-13903214D01*
X12735595Y-13903214D02*
X12745119Y-13865119D01*
X12745119Y-13865119D02*
X12754643Y-13846071D01*
X12754643Y-13846071D02*
X12764167Y-13836548D01*
X12764167Y-13836548D02*
X12783214Y-13827024D01*
X12935595Y-14007976D02*
X12945119Y-14017500D01*
X12945119Y-14017500D02*
X12935595Y-14027024D01*
X12935595Y-14027024D02*
X12926071Y-14017500D01*
X12926071Y-14017500D02*
X12935595Y-14007976D01*
X12935595Y-14007976D02*
X12935595Y-14027024D01*
X13059405Y-13912738D02*
X13040357Y-13903214D01*
X13040357Y-13903214D02*
X13030833Y-13893690D01*
X13030833Y-13893690D02*
X13021309Y-13874643D01*
X13021309Y-13874643D02*
X13021309Y-13865119D01*
X13021309Y-13865119D02*
X13030833Y-13846071D01*
X13030833Y-13846071D02*
X13040357Y-13836548D01*
X13040357Y-13836548D02*
X13059405Y-13827024D01*
X13059405Y-13827024D02*
X13097500Y-13827024D01*
X13097500Y-13827024D02*
X13116548Y-13836548D01*
X13116548Y-13836548D02*
X13126071Y-13846071D01*
X13126071Y-13846071D02*
X13135595Y-13865119D01*
X13135595Y-13865119D02*
X13135595Y-13874643D01*
X13135595Y-13874643D02*
X13126071Y-13893690D01*
X13126071Y-13893690D02*
X13116548Y-13903214D01*
X13116548Y-13903214D02*
X13097500Y-13912738D01*
X13097500Y-13912738D02*
X13059405Y-13912738D01*
X13059405Y-13912738D02*
X13040357Y-13922262D01*
X13040357Y-13922262D02*
X13030833Y-13931786D01*
X13030833Y-13931786D02*
X13021309Y-13950833D01*
X13021309Y-13950833D02*
X13021309Y-13988928D01*
X13021309Y-13988928D02*
X13030833Y-14007976D01*
X13030833Y-14007976D02*
X13040357Y-14017500D01*
X13040357Y-14017500D02*
X13059405Y-14027024D01*
X13059405Y-14027024D02*
X13097500Y-14027024D01*
X13097500Y-14027024D02*
X13116548Y-14017500D01*
X13116548Y-14017500D02*
X13126071Y-14007976D01*
X13126071Y-14007976D02*
X13135595Y-13988928D01*
X13135595Y-13988928D02*
X13135595Y-13950833D01*
X13135595Y-13950833D02*
X13126071Y-13931786D01*
X13126071Y-13931786D02*
X13116548Y-13922262D01*
X13116548Y-13922262D02*
X13097500Y-13912738D01*
X13307024Y-13893690D02*
X13307024Y-14027024D01*
X13259405Y-13817500D02*
X13211786Y-13960357D01*
X13211786Y-13960357D02*
X13335595Y-13960357D01*
X13449881Y-13827024D02*
X13468929Y-13827024D01*
X13468929Y-13827024D02*
X13487976Y-13836548D01*
X13487976Y-13836548D02*
X13497500Y-13846071D01*
X13497500Y-13846071D02*
X13507024Y-13865119D01*
X13507024Y-13865119D02*
X13516548Y-13903214D01*
X13516548Y-13903214D02*
X13516548Y-13950833D01*
X13516548Y-13950833D02*
X13507024Y-13988928D01*
X13507024Y-13988928D02*
X13497500Y-14007976D01*
X13497500Y-14007976D02*
X13487976Y-14017500D01*
X13487976Y-14017500D02*
X13468929Y-14027024D01*
X13468929Y-14027024D02*
X13449881Y-14027024D01*
X13449881Y-14027024D02*
X13430833Y-14017500D01*
X13430833Y-14017500D02*
X13421309Y-14007976D01*
X13421309Y-14007976D02*
X13411786Y-13988928D01*
X13411786Y-13988928D02*
X13402262Y-13950833D01*
X13402262Y-13950833D02*
X13402262Y-13903214D01*
X13402262Y-13903214D02*
X13411786Y-13865119D01*
X13411786Y-13865119D02*
X13421309Y-13846071D01*
X13421309Y-13846071D02*
X13430833Y-13836548D01*
X13430833Y-13836548D02*
X13449881Y-13827024D01*
X13602262Y-14027024D02*
X13602262Y-13893690D01*
X13602262Y-13912738D02*
X13611786Y-13903214D01*
X13611786Y-13903214D02*
X13630833Y-13893690D01*
X13630833Y-13893690D02*
X13659405Y-13893690D01*
X13659405Y-13893690D02*
X13678452Y-13903214D01*
X13678452Y-13903214D02*
X13687976Y-13922262D01*
X13687976Y-13922262D02*
X13687976Y-14027024D01*
X13687976Y-13922262D02*
X13697500Y-13903214D01*
X13697500Y-13903214D02*
X13716548Y-13893690D01*
X13716548Y-13893690D02*
X13745119Y-13893690D01*
X13745119Y-13893690D02*
X13764167Y-13903214D01*
X13764167Y-13903214D02*
X13773690Y-13922262D01*
X13773690Y-13922262D02*
X13773690Y-14027024D01*
X13868929Y-14027024D02*
X13868929Y-13893690D01*
X13868929Y-13912738D02*
X13878452Y-13903214D01*
X13878452Y-13903214D02*
X13897500Y-13893690D01*
X13897500Y-13893690D02*
X13926071Y-13893690D01*
X13926071Y-13893690D02*
X13945119Y-13903214D01*
X13945119Y-13903214D02*
X13954643Y-13922262D01*
X13954643Y-13922262D02*
X13954643Y-14027024D01*
X13954643Y-13922262D02*
X13964167Y-13903214D01*
X13964167Y-13903214D02*
X13983214Y-13893690D01*
X13983214Y-13893690D02*
X14011786Y-13893690D01*
X14011786Y-13893690D02*
X14030833Y-13903214D01*
X14030833Y-13903214D02*
X14040357Y-13922262D01*
X14040357Y-13922262D02*
X14040357Y-14027024D01*
X14430833Y-13817500D02*
X14259405Y-14074643D01*
X14687976Y-13827024D02*
X14707024Y-13827024D01*
X14707024Y-13827024D02*
X14726072Y-13836548D01*
X14726072Y-13836548D02*
X14735595Y-13846071D01*
X14735595Y-13846071D02*
X14745119Y-13865119D01*
X14745119Y-13865119D02*
X14754643Y-13903214D01*
X14754643Y-13903214D02*
X14754643Y-13950833D01*
X14754643Y-13950833D02*
X14745119Y-13988928D01*
X14745119Y-13988928D02*
X14735595Y-14007976D01*
X14735595Y-14007976D02*
X14726072Y-14017500D01*
X14726072Y-14017500D02*
X14707024Y-14027024D01*
X14707024Y-14027024D02*
X14687976Y-14027024D01*
X14687976Y-14027024D02*
X14668929Y-14017500D01*
X14668929Y-14017500D02*
X14659405Y-14007976D01*
X14659405Y-14007976D02*
X14649881Y-13988928D01*
X14649881Y-13988928D02*
X14640357Y-13950833D01*
X14640357Y-13950833D02*
X14640357Y-13903214D01*
X14640357Y-13903214D02*
X14649881Y-13865119D01*
X14649881Y-13865119D02*
X14659405Y-13846071D01*
X14659405Y-13846071D02*
X14668929Y-13836548D01*
X14668929Y-13836548D02*
X14687976Y-13827024D01*
X14840357Y-14007976D02*
X14849881Y-14017500D01*
X14849881Y-14017500D02*
X14840357Y-14027024D01*
X14840357Y-14027024D02*
X14830833Y-14017500D01*
X14830833Y-14017500D02*
X14840357Y-14007976D01*
X14840357Y-14007976D02*
X14840357Y-14027024D01*
X14973691Y-13827024D02*
X14992738Y-13827024D01*
X14992738Y-13827024D02*
X15011786Y-13836548D01*
X15011786Y-13836548D02*
X15021310Y-13846071D01*
X15021310Y-13846071D02*
X15030833Y-13865119D01*
X15030833Y-13865119D02*
X15040357Y-13903214D01*
X15040357Y-13903214D02*
X15040357Y-13950833D01*
X15040357Y-13950833D02*
X15030833Y-13988928D01*
X15030833Y-13988928D02*
X15021310Y-14007976D01*
X15021310Y-14007976D02*
X15011786Y-14017500D01*
X15011786Y-14017500D02*
X14992738Y-14027024D01*
X14992738Y-14027024D02*
X14973691Y-14027024D01*
X14973691Y-14027024D02*
X14954643Y-14017500D01*
X14954643Y-14017500D02*
X14945119Y-14007976D01*
X14945119Y-14007976D02*
X14935595Y-13988928D01*
X14935595Y-13988928D02*
X14926072Y-13950833D01*
X14926072Y-13950833D02*
X14926072Y-13903214D01*
X14926072Y-13903214D02*
X14935595Y-13865119D01*
X14935595Y-13865119D02*
X14945119Y-13846071D01*
X14945119Y-13846071D02*
X14954643Y-13836548D01*
X14954643Y-13836548D02*
X14973691Y-13827024D01*
X15107024Y-13827024D02*
X15230833Y-13827024D01*
X15230833Y-13827024D02*
X15164167Y-13903214D01*
X15164167Y-13903214D02*
X15192738Y-13903214D01*
X15192738Y-13903214D02*
X15211786Y-13912738D01*
X15211786Y-13912738D02*
X15221310Y-13922262D01*
X15221310Y-13922262D02*
X15230833Y-13941309D01*
X15230833Y-13941309D02*
X15230833Y-13988928D01*
X15230833Y-13988928D02*
X15221310Y-14007976D01*
X15221310Y-14007976D02*
X15211786Y-14017500D01*
X15211786Y-14017500D02*
X15192738Y-14027024D01*
X15192738Y-14027024D02*
X15135595Y-14027024D01*
X15135595Y-14027024D02*
X15116548Y-14017500D01*
X15116548Y-14017500D02*
X15107024Y-14007976D01*
X15297500Y-13827024D02*
X15421310Y-13827024D01*
X15421310Y-13827024D02*
X15354643Y-13903214D01*
X15354643Y-13903214D02*
X15383214Y-13903214D01*
X15383214Y-13903214D02*
X15402262Y-13912738D01*
X15402262Y-13912738D02*
X15411786Y-13922262D01*
X15411786Y-13922262D02*
X15421310Y-13941309D01*
X15421310Y-13941309D02*
X15421310Y-13988928D01*
X15421310Y-13988928D02*
X15411786Y-14007976D01*
X15411786Y-14007976D02*
X15402262Y-14017500D01*
X15402262Y-14017500D02*
X15383214Y-14027024D01*
X15383214Y-14027024D02*
X15326072Y-14027024D01*
X15326072Y-14027024D02*
X15307024Y-14017500D01*
X15307024Y-14017500D02*
X15297500Y-14007976D01*
X15611786Y-14027024D02*
X15497500Y-14027024D01*
X15554643Y-14027024D02*
X15554643Y-13827024D01*
X15554643Y-13827024D02*
X15535595Y-13855595D01*
X15535595Y-13855595D02*
X15516548Y-13874643D01*
X15516548Y-13874643D02*
X15497500Y-13884167D01*
X15687976Y-13827024D02*
X15687976Y-13865119D01*
X15764167Y-13827024D02*
X15764167Y-13865119D01*
X16059405Y-14103214D02*
X16049881Y-14093690D01*
X16049881Y-14093690D02*
X16030834Y-14065119D01*
X16030834Y-14065119D02*
X16021310Y-14046071D01*
X16021310Y-14046071D02*
X16011786Y-14017500D01*
X16011786Y-14017500D02*
X16002262Y-13969881D01*
X16002262Y-13969881D02*
X16002262Y-13931786D01*
X16002262Y-13931786D02*
X16011786Y-13884167D01*
X16011786Y-13884167D02*
X16021310Y-13855595D01*
X16021310Y-13855595D02*
X16030834Y-13836548D01*
X16030834Y-13836548D02*
X16049881Y-13807976D01*
X16049881Y-13807976D02*
X16059405Y-13798452D01*
X16240357Y-14027024D02*
X16126072Y-14027024D01*
X16183214Y-14027024D02*
X16183214Y-13827024D01*
X16183214Y-13827024D02*
X16164167Y-13855595D01*
X16164167Y-13855595D02*
X16145119Y-13874643D01*
X16145119Y-13874643D02*
X16126072Y-13884167D01*
X16364167Y-13827024D02*
X16383215Y-13827024D01*
X16383215Y-13827024D02*
X16402262Y-13836548D01*
X16402262Y-13836548D02*
X16411786Y-13846071D01*
X16411786Y-13846071D02*
X16421310Y-13865119D01*
X16421310Y-13865119D02*
X16430834Y-13903214D01*
X16430834Y-13903214D02*
X16430834Y-13950833D01*
X16430834Y-13950833D02*
X16421310Y-13988928D01*
X16421310Y-13988928D02*
X16411786Y-14007976D01*
X16411786Y-14007976D02*
X16402262Y-14017500D01*
X16402262Y-14017500D02*
X16383215Y-14027024D01*
X16383215Y-14027024D02*
X16364167Y-14027024D01*
X16364167Y-14027024D02*
X16345119Y-14017500D01*
X16345119Y-14017500D02*
X16335595Y-14007976D01*
X16335595Y-14007976D02*
X16326072Y-13988928D01*
X16326072Y-13988928D02*
X16316548Y-13950833D01*
X16316548Y-13950833D02*
X16316548Y-13903214D01*
X16316548Y-13903214D02*
X16326072Y-13865119D01*
X16326072Y-13865119D02*
X16335595Y-13846071D01*
X16335595Y-13846071D02*
X16345119Y-13836548D01*
X16345119Y-13836548D02*
X16364167Y-13827024D01*
X16668929Y-14027024D02*
X16668929Y-13827024D01*
X16754643Y-14027024D02*
X16754643Y-13922262D01*
X16754643Y-13922262D02*
X16745119Y-13903214D01*
X16745119Y-13903214D02*
X16726072Y-13893690D01*
X16726072Y-13893690D02*
X16697500Y-13893690D01*
X16697500Y-13893690D02*
X16678453Y-13903214D01*
X16678453Y-13903214D02*
X16668929Y-13912738D01*
X16878453Y-14027024D02*
X16859405Y-14017500D01*
X16859405Y-14017500D02*
X16849881Y-14007976D01*
X16849881Y-14007976D02*
X16840358Y-13988928D01*
X16840358Y-13988928D02*
X16840358Y-13931786D01*
X16840358Y-13931786D02*
X16849881Y-13912738D01*
X16849881Y-13912738D02*
X16859405Y-13903214D01*
X16859405Y-13903214D02*
X16878453Y-13893690D01*
X16878453Y-13893690D02*
X16907024Y-13893690D01*
X16907024Y-13893690D02*
X16926072Y-13903214D01*
X16926072Y-13903214D02*
X16935596Y-13912738D01*
X16935596Y-13912738D02*
X16945119Y-13931786D01*
X16945119Y-13931786D02*
X16945119Y-13988928D01*
X16945119Y-13988928D02*
X16935596Y-14007976D01*
X16935596Y-14007976D02*
X16926072Y-14017500D01*
X16926072Y-14017500D02*
X16907024Y-14027024D01*
X16907024Y-14027024D02*
X16878453Y-14027024D01*
X17059405Y-14027024D02*
X17040358Y-14017500D01*
X17040358Y-14017500D02*
X17030834Y-13998452D01*
X17030834Y-13998452D02*
X17030834Y-13827024D01*
X17211786Y-14017500D02*
X17192739Y-14027024D01*
X17192739Y-14027024D02*
X17154643Y-14027024D01*
X17154643Y-14027024D02*
X17135596Y-14017500D01*
X17135596Y-14017500D02*
X17126072Y-13998452D01*
X17126072Y-13998452D02*
X17126072Y-13922262D01*
X17126072Y-13922262D02*
X17135596Y-13903214D01*
X17135596Y-13903214D02*
X17154643Y-13893690D01*
X17154643Y-13893690D02*
X17192739Y-13893690D01*
X17192739Y-13893690D02*
X17211786Y-13903214D01*
X17211786Y-13903214D02*
X17221310Y-13922262D01*
X17221310Y-13922262D02*
X17221310Y-13941309D01*
X17221310Y-13941309D02*
X17126072Y-13960357D01*
X17297500Y-14017500D02*
X17316548Y-14027024D01*
X17316548Y-14027024D02*
X17354643Y-14027024D01*
X17354643Y-14027024D02*
X17373691Y-14017500D01*
X17373691Y-14017500D02*
X17383215Y-13998452D01*
X17383215Y-13998452D02*
X17383215Y-13988928D01*
X17383215Y-13988928D02*
X17373691Y-13969881D01*
X17373691Y-13969881D02*
X17354643Y-13960357D01*
X17354643Y-13960357D02*
X17326072Y-13960357D01*
X17326072Y-13960357D02*
X17307024Y-13950833D01*
X17307024Y-13950833D02*
X17297500Y-13931786D01*
X17297500Y-13931786D02*
X17297500Y-13922262D01*
X17297500Y-13922262D02*
X17307024Y-13903214D01*
X17307024Y-13903214D02*
X17326072Y-13893690D01*
X17326072Y-13893690D02*
X17354643Y-13893690D01*
X17354643Y-13893690D02*
X17373691Y-13903214D01*
X17449881Y-14103214D02*
X17459405Y-14093690D01*
X17459405Y-14093690D02*
X17478453Y-14065119D01*
X17478453Y-14065119D02*
X17487977Y-14046071D01*
X17487977Y-14046071D02*
X17497500Y-14017500D01*
X17497500Y-14017500D02*
X17507024Y-13969881D01*
X17507024Y-13969881D02*
X17507024Y-13931786D01*
X17507024Y-13931786D02*
X17497500Y-13884167D01*
X17497500Y-13884167D02*
X17487977Y-13855595D01*
X17487977Y-13855595D02*
X17478453Y-13836548D01*
X17478453Y-13836548D02*
X17459405Y-13807976D01*
X17459405Y-13807976D02*
X17449881Y-13798452D01*
D14*
X12447500Y-14248500D02*
X12497500Y-14198500D01*
X12447500Y-14148500D01*
X12397500Y-14198500D01*
X12447500Y-14248500D01*
D11*
X12849881Y-14291024D02*
X12735595Y-14291024D01*
X12792738Y-14291024D02*
X12792738Y-14091024D01*
X12792738Y-14091024D02*
X12773690Y-14119595D01*
X12773690Y-14119595D02*
X12754643Y-14138643D01*
X12754643Y-14138643D02*
X12735595Y-14148167D01*
X12935595Y-14271976D02*
X12945119Y-14281500D01*
X12945119Y-14281500D02*
X12935595Y-14291024D01*
X12935595Y-14291024D02*
X12926071Y-14281500D01*
X12926071Y-14281500D02*
X12935595Y-14271976D01*
X12935595Y-14271976D02*
X12935595Y-14291024D01*
X13068928Y-14091024D02*
X13087976Y-14091024D01*
X13087976Y-14091024D02*
X13107024Y-14100548D01*
X13107024Y-14100548D02*
X13116548Y-14110071D01*
X13116548Y-14110071D02*
X13126071Y-14129119D01*
X13126071Y-14129119D02*
X13135595Y-14167214D01*
X13135595Y-14167214D02*
X13135595Y-14214833D01*
X13135595Y-14214833D02*
X13126071Y-14252928D01*
X13126071Y-14252928D02*
X13116548Y-14271976D01*
X13116548Y-14271976D02*
X13107024Y-14281500D01*
X13107024Y-14281500D02*
X13087976Y-14291024D01*
X13087976Y-14291024D02*
X13068928Y-14291024D01*
X13068928Y-14291024D02*
X13049881Y-14281500D01*
X13049881Y-14281500D02*
X13040357Y-14271976D01*
X13040357Y-14271976D02*
X13030833Y-14252928D01*
X13030833Y-14252928D02*
X13021309Y-14214833D01*
X13021309Y-14214833D02*
X13021309Y-14167214D01*
X13021309Y-14167214D02*
X13030833Y-14129119D01*
X13030833Y-14129119D02*
X13040357Y-14110071D01*
X13040357Y-14110071D02*
X13049881Y-14100548D01*
X13049881Y-14100548D02*
X13068928Y-14091024D01*
X13259405Y-14091024D02*
X13278452Y-14091024D01*
X13278452Y-14091024D02*
X13297500Y-14100548D01*
X13297500Y-14100548D02*
X13307024Y-14110071D01*
X13307024Y-14110071D02*
X13316548Y-14129119D01*
X13316548Y-14129119D02*
X13326071Y-14167214D01*
X13326071Y-14167214D02*
X13326071Y-14214833D01*
X13326071Y-14214833D02*
X13316548Y-14252928D01*
X13316548Y-14252928D02*
X13307024Y-14271976D01*
X13307024Y-14271976D02*
X13297500Y-14281500D01*
X13297500Y-14281500D02*
X13278452Y-14291024D01*
X13278452Y-14291024D02*
X13259405Y-14291024D01*
X13259405Y-14291024D02*
X13240357Y-14281500D01*
X13240357Y-14281500D02*
X13230833Y-14271976D01*
X13230833Y-14271976D02*
X13221309Y-14252928D01*
X13221309Y-14252928D02*
X13211786Y-14214833D01*
X13211786Y-14214833D02*
X13211786Y-14167214D01*
X13211786Y-14167214D02*
X13221309Y-14129119D01*
X13221309Y-14129119D02*
X13230833Y-14110071D01*
X13230833Y-14110071D02*
X13240357Y-14100548D01*
X13240357Y-14100548D02*
X13259405Y-14091024D01*
X13449881Y-14091024D02*
X13468929Y-14091024D01*
X13468929Y-14091024D02*
X13487976Y-14100548D01*
X13487976Y-14100548D02*
X13497500Y-14110071D01*
X13497500Y-14110071D02*
X13507024Y-14129119D01*
X13507024Y-14129119D02*
X13516548Y-14167214D01*
X13516548Y-14167214D02*
X13516548Y-14214833D01*
X13516548Y-14214833D02*
X13507024Y-14252928D01*
X13507024Y-14252928D02*
X13497500Y-14271976D01*
X13497500Y-14271976D02*
X13487976Y-14281500D01*
X13487976Y-14281500D02*
X13468929Y-14291024D01*
X13468929Y-14291024D02*
X13449881Y-14291024D01*
X13449881Y-14291024D02*
X13430833Y-14281500D01*
X13430833Y-14281500D02*
X13421309Y-14271976D01*
X13421309Y-14271976D02*
X13411786Y-14252928D01*
X13411786Y-14252928D02*
X13402262Y-14214833D01*
X13402262Y-14214833D02*
X13402262Y-14167214D01*
X13402262Y-14167214D02*
X13411786Y-14129119D01*
X13411786Y-14129119D02*
X13421309Y-14110071D01*
X13421309Y-14110071D02*
X13430833Y-14100548D01*
X13430833Y-14100548D02*
X13449881Y-14091024D01*
X13602262Y-14291024D02*
X13602262Y-14157690D01*
X13602262Y-14176738D02*
X13611786Y-14167214D01*
X13611786Y-14167214D02*
X13630833Y-14157690D01*
X13630833Y-14157690D02*
X13659405Y-14157690D01*
X13659405Y-14157690D02*
X13678452Y-14167214D01*
X13678452Y-14167214D02*
X13687976Y-14186262D01*
X13687976Y-14186262D02*
X13687976Y-14291024D01*
X13687976Y-14186262D02*
X13697500Y-14167214D01*
X13697500Y-14167214D02*
X13716548Y-14157690D01*
X13716548Y-14157690D02*
X13745119Y-14157690D01*
X13745119Y-14157690D02*
X13764167Y-14167214D01*
X13764167Y-14167214D02*
X13773690Y-14186262D01*
X13773690Y-14186262D02*
X13773690Y-14291024D01*
X13868929Y-14291024D02*
X13868929Y-14157690D01*
X13868929Y-14176738D02*
X13878452Y-14167214D01*
X13878452Y-14167214D02*
X13897500Y-14157690D01*
X13897500Y-14157690D02*
X13926071Y-14157690D01*
X13926071Y-14157690D02*
X13945119Y-14167214D01*
X13945119Y-14167214D02*
X13954643Y-14186262D01*
X13954643Y-14186262D02*
X13954643Y-14291024D01*
X13954643Y-14186262D02*
X13964167Y-14167214D01*
X13964167Y-14167214D02*
X13983214Y-14157690D01*
X13983214Y-14157690D02*
X14011786Y-14157690D01*
X14011786Y-14157690D02*
X14030833Y-14167214D01*
X14030833Y-14167214D02*
X14040357Y-14186262D01*
X14040357Y-14186262D02*
X14040357Y-14291024D01*
X14430833Y-14081500D02*
X14259405Y-14338643D01*
X14687976Y-14091024D02*
X14707024Y-14091024D01*
X14707024Y-14091024D02*
X14726072Y-14100548D01*
X14726072Y-14100548D02*
X14735595Y-14110071D01*
X14735595Y-14110071D02*
X14745119Y-14129119D01*
X14745119Y-14129119D02*
X14754643Y-14167214D01*
X14754643Y-14167214D02*
X14754643Y-14214833D01*
X14754643Y-14214833D02*
X14745119Y-14252928D01*
X14745119Y-14252928D02*
X14735595Y-14271976D01*
X14735595Y-14271976D02*
X14726072Y-14281500D01*
X14726072Y-14281500D02*
X14707024Y-14291024D01*
X14707024Y-14291024D02*
X14687976Y-14291024D01*
X14687976Y-14291024D02*
X14668929Y-14281500D01*
X14668929Y-14281500D02*
X14659405Y-14271976D01*
X14659405Y-14271976D02*
X14649881Y-14252928D01*
X14649881Y-14252928D02*
X14640357Y-14214833D01*
X14640357Y-14214833D02*
X14640357Y-14167214D01*
X14640357Y-14167214D02*
X14649881Y-14129119D01*
X14649881Y-14129119D02*
X14659405Y-14110071D01*
X14659405Y-14110071D02*
X14668929Y-14100548D01*
X14668929Y-14100548D02*
X14687976Y-14091024D01*
X14840357Y-14271976D02*
X14849881Y-14281500D01*
X14849881Y-14281500D02*
X14840357Y-14291024D01*
X14840357Y-14291024D02*
X14830833Y-14281500D01*
X14830833Y-14281500D02*
X14840357Y-14271976D01*
X14840357Y-14271976D02*
X14840357Y-14291024D01*
X14973691Y-14091024D02*
X14992738Y-14091024D01*
X14992738Y-14091024D02*
X15011786Y-14100548D01*
X15011786Y-14100548D02*
X15021310Y-14110071D01*
X15021310Y-14110071D02*
X15030833Y-14129119D01*
X15030833Y-14129119D02*
X15040357Y-14167214D01*
X15040357Y-14167214D02*
X15040357Y-14214833D01*
X15040357Y-14214833D02*
X15030833Y-14252928D01*
X15030833Y-14252928D02*
X15021310Y-14271976D01*
X15021310Y-14271976D02*
X15011786Y-14281500D01*
X15011786Y-14281500D02*
X14992738Y-14291024D01*
X14992738Y-14291024D02*
X14973691Y-14291024D01*
X14973691Y-14291024D02*
X14954643Y-14281500D01*
X14954643Y-14281500D02*
X14945119Y-14271976D01*
X14945119Y-14271976D02*
X14935595Y-14252928D01*
X14935595Y-14252928D02*
X14926072Y-14214833D01*
X14926072Y-14214833D02*
X14926072Y-14167214D01*
X14926072Y-14167214D02*
X14935595Y-14129119D01*
X14935595Y-14129119D02*
X14945119Y-14110071D01*
X14945119Y-14110071D02*
X14954643Y-14100548D01*
X14954643Y-14100548D02*
X14973691Y-14091024D01*
X15107024Y-14091024D02*
X15230833Y-14091024D01*
X15230833Y-14091024D02*
X15164167Y-14167214D01*
X15164167Y-14167214D02*
X15192738Y-14167214D01*
X15192738Y-14167214D02*
X15211786Y-14176738D01*
X15211786Y-14176738D02*
X15221310Y-14186262D01*
X15221310Y-14186262D02*
X15230833Y-14205309D01*
X15230833Y-14205309D02*
X15230833Y-14252928D01*
X15230833Y-14252928D02*
X15221310Y-14271976D01*
X15221310Y-14271976D02*
X15211786Y-14281500D01*
X15211786Y-14281500D02*
X15192738Y-14291024D01*
X15192738Y-14291024D02*
X15135595Y-14291024D01*
X15135595Y-14291024D02*
X15116548Y-14281500D01*
X15116548Y-14281500D02*
X15107024Y-14271976D01*
X15326072Y-14291024D02*
X15364167Y-14291024D01*
X15364167Y-14291024D02*
X15383214Y-14281500D01*
X15383214Y-14281500D02*
X15392738Y-14271976D01*
X15392738Y-14271976D02*
X15411786Y-14243405D01*
X15411786Y-14243405D02*
X15421310Y-14205309D01*
X15421310Y-14205309D02*
X15421310Y-14129119D01*
X15421310Y-14129119D02*
X15411786Y-14110071D01*
X15411786Y-14110071D02*
X15402262Y-14100548D01*
X15402262Y-14100548D02*
X15383214Y-14091024D01*
X15383214Y-14091024D02*
X15345119Y-14091024D01*
X15345119Y-14091024D02*
X15326072Y-14100548D01*
X15326072Y-14100548D02*
X15316548Y-14110071D01*
X15316548Y-14110071D02*
X15307024Y-14129119D01*
X15307024Y-14129119D02*
X15307024Y-14176738D01*
X15307024Y-14176738D02*
X15316548Y-14195786D01*
X15316548Y-14195786D02*
X15326072Y-14205309D01*
X15326072Y-14205309D02*
X15345119Y-14214833D01*
X15345119Y-14214833D02*
X15383214Y-14214833D01*
X15383214Y-14214833D02*
X15402262Y-14205309D01*
X15402262Y-14205309D02*
X15411786Y-14195786D01*
X15411786Y-14195786D02*
X15421310Y-14176738D01*
X15592738Y-14157690D02*
X15592738Y-14291024D01*
X15545119Y-14081500D02*
X15497500Y-14224357D01*
X15497500Y-14224357D02*
X15621310Y-14224357D01*
X15687976Y-14091024D02*
X15687976Y-14129119D01*
X15764167Y-14091024D02*
X15764167Y-14129119D01*
X16059405Y-14367214D02*
X16049881Y-14357690D01*
X16049881Y-14357690D02*
X16030834Y-14329119D01*
X16030834Y-14329119D02*
X16021310Y-14310071D01*
X16021310Y-14310071D02*
X16011786Y-14281500D01*
X16011786Y-14281500D02*
X16002262Y-14233881D01*
X16002262Y-14233881D02*
X16002262Y-14195786D01*
X16002262Y-14195786D02*
X16011786Y-14148167D01*
X16011786Y-14148167D02*
X16021310Y-14119595D01*
X16021310Y-14119595D02*
X16030834Y-14100548D01*
X16030834Y-14100548D02*
X16049881Y-14071976D01*
X16049881Y-14071976D02*
X16059405Y-14062452D01*
X16116548Y-14091024D02*
X16240357Y-14091024D01*
X16240357Y-14091024D02*
X16173691Y-14167214D01*
X16173691Y-14167214D02*
X16202262Y-14167214D01*
X16202262Y-14167214D02*
X16221310Y-14176738D01*
X16221310Y-14176738D02*
X16230834Y-14186262D01*
X16230834Y-14186262D02*
X16240357Y-14205309D01*
X16240357Y-14205309D02*
X16240357Y-14252928D01*
X16240357Y-14252928D02*
X16230834Y-14271976D01*
X16230834Y-14271976D02*
X16221310Y-14281500D01*
X16221310Y-14281500D02*
X16202262Y-14291024D01*
X16202262Y-14291024D02*
X16145119Y-14291024D01*
X16145119Y-14291024D02*
X16126072Y-14281500D01*
X16126072Y-14281500D02*
X16116548Y-14271976D01*
X16478453Y-14291024D02*
X16478453Y-14091024D01*
X16564167Y-14291024D02*
X16564167Y-14186262D01*
X16564167Y-14186262D02*
X16554643Y-14167214D01*
X16554643Y-14167214D02*
X16535596Y-14157690D01*
X16535596Y-14157690D02*
X16507024Y-14157690D01*
X16507024Y-14157690D02*
X16487976Y-14167214D01*
X16487976Y-14167214D02*
X16478453Y-14176738D01*
X16687976Y-14291024D02*
X16668929Y-14281500D01*
X16668929Y-14281500D02*
X16659405Y-14271976D01*
X16659405Y-14271976D02*
X16649881Y-14252928D01*
X16649881Y-14252928D02*
X16649881Y-14195786D01*
X16649881Y-14195786D02*
X16659405Y-14176738D01*
X16659405Y-14176738D02*
X16668929Y-14167214D01*
X16668929Y-14167214D02*
X16687976Y-14157690D01*
X16687976Y-14157690D02*
X16716548Y-14157690D01*
X16716548Y-14157690D02*
X16735596Y-14167214D01*
X16735596Y-14167214D02*
X16745119Y-14176738D01*
X16745119Y-14176738D02*
X16754643Y-14195786D01*
X16754643Y-14195786D02*
X16754643Y-14252928D01*
X16754643Y-14252928D02*
X16745119Y-14271976D01*
X16745119Y-14271976D02*
X16735596Y-14281500D01*
X16735596Y-14281500D02*
X16716548Y-14291024D01*
X16716548Y-14291024D02*
X16687976Y-14291024D01*
X16868929Y-14291024D02*
X16849881Y-14281500D01*
X16849881Y-14281500D02*
X16840358Y-14262452D01*
X16840358Y-14262452D02*
X16840358Y-14091024D01*
X17021310Y-14281500D02*
X17002262Y-14291024D01*
X17002262Y-14291024D02*
X16964167Y-14291024D01*
X16964167Y-14291024D02*
X16945119Y-14281500D01*
X16945119Y-14281500D02*
X16935596Y-14262452D01*
X16935596Y-14262452D02*
X16935596Y-14186262D01*
X16935596Y-14186262D02*
X16945119Y-14167214D01*
X16945119Y-14167214D02*
X16964167Y-14157690D01*
X16964167Y-14157690D02*
X17002262Y-14157690D01*
X17002262Y-14157690D02*
X17021310Y-14167214D01*
X17021310Y-14167214D02*
X17030834Y-14186262D01*
X17030834Y-14186262D02*
X17030834Y-14205309D01*
X17030834Y-14205309D02*
X16935596Y-14224357D01*
X17107024Y-14281500D02*
X17126072Y-14291024D01*
X17126072Y-14291024D02*
X17164167Y-14291024D01*
X17164167Y-14291024D02*
X17183215Y-14281500D01*
X17183215Y-14281500D02*
X17192739Y-14262452D01*
X17192739Y-14262452D02*
X17192739Y-14252928D01*
X17192739Y-14252928D02*
X17183215Y-14233881D01*
X17183215Y-14233881D02*
X17164167Y-14224357D01*
X17164167Y-14224357D02*
X17135596Y-14224357D01*
X17135596Y-14224357D02*
X17116548Y-14214833D01*
X17116548Y-14214833D02*
X17107024Y-14195786D01*
X17107024Y-14195786D02*
X17107024Y-14186262D01*
X17107024Y-14186262D02*
X17116548Y-14167214D01*
X17116548Y-14167214D02*
X17135596Y-14157690D01*
X17135596Y-14157690D02*
X17164167Y-14157690D01*
X17164167Y-14157690D02*
X17183215Y-14167214D01*
X17259405Y-14367214D02*
X17268929Y-14357690D01*
X17268929Y-14357690D02*
X17287977Y-14329119D01*
X17287977Y-14329119D02*
X17297500Y-14310071D01*
X17297500Y-14310071D02*
X17307024Y-14281500D01*
X17307024Y-14281500D02*
X17316548Y-14233881D01*
X17316548Y-14233881D02*
X17316548Y-14195786D01*
X17316548Y-14195786D02*
X17307024Y-14148167D01*
X17307024Y-14148167D02*
X17297500Y-14119595D01*
X17297500Y-14119595D02*
X17287977Y-14100548D01*
X17287977Y-14100548D02*
X17268929Y-14071976D01*
X17268929Y-14071976D02*
X17259405Y-14062452D01*
M02*
