M48
; DRILL file {KiCad 7.0.2} date Tue May 30 15:49:33 2023
; FORMAT={-:-/ absolute / metric / decimal}
; #@! TF.CreationDate,2023-05-30T15:49:33+02:00
; #@! TF.GenerationSoftware,Kicad,Pcbnew,7.0.2
; #@! TF.FileFunction,Plated,1,2,PTH
FMAT,2
METRIC
; #@! TA.AperFunction,Plated,PTH,ViaDrill
T1C0.400
; #@! TA.AperFunction,Plated,PTH,ComponentDrill
T2C0.400
; #@! TA.AperFunction,Plated,PTH,ComponentDrill
T3C0.500
; #@! TA.AperFunction,Plated,PTH,ComponentDrill
T4C0.840
; #@! TA.AperFunction,Plated,PTH,ComponentDrill
T5C1.000
%
G90
G05
T1
X131.724Y-96.164
X132.69Y-93.929
X134.01Y-94.234
X134.62Y-100.076
X137.973Y-97.841
X138.328Y-98.958
X138.43Y-100.787
X138.532Y-101.905
X138.735Y-103.022
X139.063Y-96.446
X139.141Y-104.089
X139.494Y-95.323
X139.598Y-105.207
X140.041Y-94.25
X140.696Y-93.24
X140.696Y-106.76
X141.0Y-100.25
X141.25Y-105.25
X141.45Y-92.3
X141.454Y-107.695
X142.2Y-101.0
X142.2Y-101.8
X142.2Y-102.6
X142.305Y-91.454
X142.305Y-108.546
X142.8Y-101.0
X142.8Y-101.8
X142.8Y-102.6
X143.0Y-93.8
X143.24Y-90.696
X143.24Y-109.304
X143.5Y-99.1
X144.0Y-103.8
X144.25Y-90.041
X144.25Y-109.959
X144.8Y-95.8
X145.323Y-89.494
X145.323Y-110.506
X146.1Y-97.05
X146.2Y-91.4
X146.446Y-110.937
X146.45Y-89.05
X146.6Y-99.0
X146.8Y-94.2
X147.0Y-105.0
X147.609Y-88.751
X147.609Y-111.249
X148.2Y-97.6
X148.798Y-88.563
X148.798Y-111.437
X149.75Y-107.0
X150.0Y-88.5
X150.0Y-111.5
X150.02Y-102.63
X151.202Y-88.563
X151.202Y-111.437
X151.45Y-97.5
X152.391Y-88.751
X152.391Y-111.249
X153.4Y-102.8
X153.554Y-89.063
X153.554Y-110.937
X153.8Y-92.35
X154.677Y-89.494
X154.677Y-110.506
X155.75Y-90.041
X155.75Y-109.959
X156.76Y-90.696
X156.76Y-109.304
X157.0Y-98.75
X157.0Y-99.8
X157.695Y-91.454
X157.695Y-108.546
X158.546Y-92.305
X158.546Y-107.695
X159.304Y-93.24
X159.36Y-106.782
X159.959Y-94.25
X159.959Y-105.75
X160.506Y-95.323
X160.506Y-104.677
X160.937Y-96.446
X161.087Y-103.632
X161.249Y-97.609
X161.392Y-101.752
X161.437Y-98.798
X161.5Y-100.0
T2
X164.592Y-97.536
X164.592Y-102.362
T3
X145.55Y-108.8
X148.75Y-100.0
X150.02Y-101.27
X151.29Y-100.0
X153.75Y-91.25
T4
X134.01Y-106.68
X134.01Y-109.22
X135.28Y-107.95
X136.55Y-106.68
X136.55Y-109.22
X148.73Y-91.13
X148.73Y-93.67
X150.0Y-92.4
X151.27Y-91.13
X151.27Y-93.67
T5
X168.91Y-97.46
X168.91Y-100.0
X168.91Y-102.54
T0
M30
